M48
; DRILL file {KiCad 8.0.5} date 2025-04-24T17:05:07-0500
; FORMAT={-:-/ absolute / inch / decimal}
; #@! TF.CreationDate,2025-04-24T17:05:07-05:00
; #@! TF.GenerationSoftware,Kicad,Pcbnew,8.0.5
; #@! TF.FileFunction,Plated,1,2,PTH
FMAT,2
INCH
; #@! TA.AperFunction,Plated,PTH,ViaDrill
T1C0.0118
; #@! TA.AperFunction,Plated,PTH,ViaDrill
T2C0.0157
; #@! TA.AperFunction,Plated,PTH,ComponentDrill
T3C0.0354
; #@! TA.AperFunction,Plated,PTH,ComponentDrill
T4C0.0470
; #@! TA.AperFunction,Plated,PTH,ComponentDrill
T5C0.0500
; #@! TA.AperFunction,Plated,PTH,ComponentDrill
T6C0.0512
%
G90
G05
T1
X4.6469Y-2.5638
X4.6555Y-2.5134
X4.85Y-1.9248
X4.9961Y-2.235
X5.0587Y-3.0539
X5.0795Y-2.3559
X5.1343Y-3.0535
X5.1386Y-2.3681
X5.1677Y-2.8579
X5.3224Y-2.1866
X5.3232Y-2.2362
X5.3232Y-2.2854
X5.465Y-2.9693
X5.4936Y-2.8307
X5.5398Y-3.1665
X5.5685Y-3.0709
X5.6441Y-3.3327
X5.6953Y-2.8787
X5.9421Y-2.4307
T2
X4.7244Y-1.7717
X4.7244Y-1.9685
X4.9146Y-3.0067
X4.9213Y-1.7717
X4.9213Y-3.4228
X5.1185Y-3.4252
X5.1528Y-3.248
X5.315Y-3.1496
X5.315Y-3.3465
X5.3549Y-2.4018
X5.4388Y-2.3348
X5.4961Y-2.702
X5.5118Y-3.3465
X5.626Y-3.0198
X5.7087Y-1.7717
X5.7087Y-1.9685
X5.7402Y-2.2535
X5.9055Y-1.7717
X5.9055Y-1.9685
X5.9055Y-2.5591
X5.9055Y-2.7559
X5.9055Y-2.9528
X5.9055Y-3.1496
X5.9055Y-3.3465
X5.9909Y-2.1524
X6.0291Y-2.1965
X6.0665Y-2.2791
X6.1024Y-1.7717
X6.1024Y-1.9685
X6.1024Y-2.5591
X6.1024Y-2.7559
X6.1024Y-2.9528
X6.1024Y-3.1496
X6.1024Y-3.3465
X6.1985Y-2.3379
X6.287Y-2.239
X6.2992Y-1.7717
X6.2992Y-1.9685
X6.4961Y-1.9685
X6.4961Y-2.1654
X6.4961Y-2.3622
X6.4961Y-2.5591
X6.4961Y-2.7559
X6.4961Y-2.9528
X6.4961Y-3.1496
T3
X5.1709Y-1.9488
X5.2693Y-1.9488
X5.348Y-1.9488
X5.4465Y-1.9488
T4
X4.7192Y-2.1156
X4.7192Y-2.2156
X4.7192Y-2.3156
X4.7192Y-2.4156
X4.7192Y-2.5156
X4.7192Y-2.6156
X4.7192Y-2.7156
X4.7192Y-2.8156
X4.7192Y-2.9156
X4.7192Y-3.0156
X4.7192Y-3.1156
X4.7192Y-3.2156
X4.8192Y-2.1156
X4.8192Y-2.2156
X4.8192Y-2.3156
X4.8192Y-2.4156
X4.8192Y-2.5156
X4.8192Y-2.6156
X4.8192Y-2.7156
X4.8192Y-2.8156
X4.8192Y-2.9156
X4.8192Y-3.0156
X4.8192Y-3.1156
X4.8192Y-3.2156
T5
X5.7898Y-2.639
X5.7898Y-2.739
X5.7898Y-2.839
X5.7898Y-2.939
X5.7898Y-3.039
X5.7898Y-3.139
X5.7898Y-3.239
X5.7898Y-3.339
X6.3898Y-2.639
X6.3898Y-2.739
X6.3898Y-2.839
X6.3898Y-2.939
X6.3898Y-3.039
X6.3898Y-3.139
X6.3898Y-3.239
X6.3898Y-3.339
T6
G00X5.05Y-1.9449
M15
G01X5.05Y-1.9055
M16
G05
G00X5.289Y-1.7606
M15
G01X5.3283Y-1.7606
M16
G05
G00X5.5673Y-1.9055
M15
G01X5.5673Y-1.9449
M16
G05
M30
