%TF.GenerationSoftware,KiCad,Pcbnew,8.0.5*%
%TF.CreationDate,2025-04-23T17:08:05-05:00*%
%TF.ProjectId,test_board,74657374-5f62-46f6-9172-642e6b696361,rev?*%
%TF.SameCoordinates,Original*%
%TF.FileFunction,Legend,Top*%
%TF.FilePolarity,Positive*%
%FSLAX46Y46*%
G04 Gerber Fmt 4.6, Leading zero omitted, Abs format (unit mm)*
G04 Created by KiCad (PCBNEW 8.0.5) date 2025-04-23 17:08:05*
%MOMM*%
%LPD*%
G01*
G04 APERTURE LIST*
%ADD10C,0.200000*%
%ADD11C,0.300000*%
%ADD12C,0.150000*%
%ADD13C,0.120000*%
%ADD14C,0.152400*%
%ADD15C,0.508000*%
G04 APERTURE END LIST*
D10*
X128802054Y-54091504D02*
X129278244Y-54091504D01*
X128706816Y-54377219D02*
X129040149Y-53377219D01*
X129040149Y-53377219D02*
X129373482Y-54377219D01*
X125202054Y-80611504D02*
X125678244Y-80611504D01*
X125106816Y-80897219D02*
X125440149Y-79897219D01*
X125440149Y-79897219D02*
X125773482Y-80897219D01*
D11*
G36*
X147650970Y-48070840D02*
G01*
X147734108Y-48097131D01*
X147802131Y-48152635D01*
X147845665Y-48218071D01*
X147879525Y-48302203D01*
X147898571Y-48377571D01*
X147912176Y-48463456D01*
X147920339Y-48559858D01*
X147923060Y-48666775D01*
X147922757Y-48703538D01*
X147918222Y-48806824D01*
X147908246Y-48899606D01*
X147892827Y-48981885D01*
X147863804Y-49075250D01*
X147825107Y-49149943D01*
X147776736Y-49205962D01*
X147702667Y-49249727D01*
X147613482Y-49264316D01*
X147559403Y-49258996D01*
X147487751Y-49231069D01*
X147427460Y-49179205D01*
X147383405Y-49113007D01*
X147360713Y-49062120D01*
X147338559Y-48991847D01*
X147321944Y-48911528D01*
X147312329Y-48836920D01*
X147306560Y-48755336D01*
X147304637Y-48666775D01*
X147305335Y-48613375D01*
X147309605Y-48529755D01*
X147317757Y-48452862D01*
X147332664Y-48369468D01*
X147353160Y-48295760D01*
X147384138Y-48222009D01*
X147410699Y-48177786D01*
X147467165Y-48117073D01*
X147534759Y-48080645D01*
X147613482Y-48068503D01*
X147650970Y-48070840D01*
G37*
G36*
X152715311Y-48447394D02*
G01*
X152784124Y-48474142D01*
X152842599Y-48521695D01*
X152875457Y-48562064D01*
X152907142Y-48628370D01*
X152917704Y-48701580D01*
X152390872Y-48701580D01*
X152399298Y-48649465D01*
X152428424Y-48579192D01*
X152477334Y-48518398D01*
X152524887Y-48482270D01*
X152598389Y-48452491D01*
X152675903Y-48443660D01*
X152715311Y-48447394D01*
G37*
G36*
X157814825Y-48456820D02*
G01*
X157881250Y-48496302D01*
X157930666Y-48555034D01*
X157961601Y-48615004D01*
X157985838Y-48693143D01*
X157997991Y-48772089D01*
X158001374Y-48848492D01*
X157997815Y-48923157D01*
X157985033Y-49001748D01*
X157962954Y-49073149D01*
X157927002Y-49144881D01*
X157875919Y-49207864D01*
X157808570Y-49250203D01*
X157729532Y-49264316D01*
X157714864Y-49263804D01*
X157642489Y-49245884D01*
X157576392Y-49206064D01*
X157549485Y-49183142D01*
X157498877Y-49127026D01*
X157458789Y-49062083D01*
X157458789Y-48622812D01*
X157473180Y-48601118D01*
X157526615Y-48536210D01*
X157584818Y-48488448D01*
X157657175Y-48454857D01*
X157735760Y-48443660D01*
X157814825Y-48456820D01*
G37*
G36*
X158984063Y-48444671D02*
G01*
X159063290Y-48462645D01*
X159130495Y-48503089D01*
X159180701Y-48558698D01*
X159219840Y-48628446D01*
X159243877Y-48699252D01*
X159257793Y-48778347D01*
X159261667Y-48854354D01*
X159257758Y-48927003D01*
X159243716Y-49003848D01*
X159219461Y-49074098D01*
X159179968Y-49145247D01*
X159158627Y-49173154D01*
X159103913Y-49222339D01*
X159032243Y-49254897D01*
X158957951Y-49264316D01*
X158932033Y-49263285D01*
X158853264Y-49244967D01*
X158786231Y-49203751D01*
X158735935Y-49147079D01*
X158696973Y-49076378D01*
X158673044Y-49005892D01*
X158659191Y-48928218D01*
X158655334Y-48854354D01*
X158659139Y-48777275D01*
X158672803Y-48697470D01*
X158696405Y-48626504D01*
X158734836Y-48557233D01*
X158750368Y-48536936D01*
X158810188Y-48483699D01*
X158882388Y-48452643D01*
X158957951Y-48443660D01*
X158984063Y-48444671D01*
G37*
G36*
X160461877Y-49061716D02*
G01*
X160430301Y-49106000D01*
X160377870Y-49163325D01*
X160319361Y-49209727D01*
X160303974Y-49219483D01*
X160232166Y-49252321D01*
X160155230Y-49264316D01*
X160103761Y-49258700D01*
X160034696Y-49224382D01*
X160006120Y-49190980D01*
X159987801Y-49119968D01*
X159996992Y-49066936D01*
X160043489Y-49006395D01*
X160105313Y-48970491D01*
X160178677Y-48947777D01*
X160219402Y-48940637D01*
X160298199Y-48930132D01*
X160378702Y-48921471D01*
X160461877Y-48913705D01*
X160461877Y-49061716D01*
G37*
G36*
X162721818Y-48443812D02*
G01*
X162796402Y-48456005D01*
X162865169Y-48487707D01*
X162928121Y-48538918D01*
X162978433Y-48599731D01*
X162978433Y-49065013D01*
X162971014Y-49079954D01*
X162925676Y-49138286D01*
X162874951Y-49190440D01*
X162813569Y-49232808D01*
X162769262Y-49252008D01*
X162696332Y-49264316D01*
X162619813Y-49250506D01*
X162554983Y-49209076D01*
X162506189Y-49147445D01*
X162472363Y-49076547D01*
X162451589Y-49004866D01*
X162439562Y-48925033D01*
X162436214Y-48848492D01*
X162438828Y-48784350D01*
X162450449Y-48705719D01*
X162474634Y-48626674D01*
X162510586Y-48557599D01*
X162515308Y-48550589D01*
X162568116Y-48492729D01*
X162637940Y-48454787D01*
X162712086Y-48443660D01*
X162721818Y-48443812D01*
G37*
G36*
X145152098Y-48097427D02*
G01*
X145222600Y-48118998D01*
X145287069Y-48161193D01*
X145320889Y-48198333D01*
X145353501Y-48264176D01*
X145364371Y-48342177D01*
X145364092Y-48357076D01*
X145350680Y-48436537D01*
X145309604Y-48507720D01*
X145241145Y-48555728D01*
X145160671Y-48578431D01*
X145078241Y-48584344D01*
X144906416Y-48584344D01*
X144906416Y-48091950D01*
X145086301Y-48091950D01*
X145152098Y-48097427D01*
G37*
G36*
X145130383Y-45550840D02*
G01*
X145213522Y-45577131D01*
X145281544Y-45632635D01*
X145325079Y-45698071D01*
X145358939Y-45782203D01*
X145377985Y-45857571D01*
X145391590Y-45943456D01*
X145399752Y-46039858D01*
X145402473Y-46146775D01*
X145402171Y-46183538D01*
X145397636Y-46286824D01*
X145387660Y-46379606D01*
X145372241Y-46461885D01*
X145343218Y-46555250D01*
X145304521Y-46629943D01*
X145256149Y-46685962D01*
X145182081Y-46729727D01*
X145092896Y-46744316D01*
X145038817Y-46738996D01*
X144967165Y-46711069D01*
X144906874Y-46659205D01*
X144862819Y-46593007D01*
X144840127Y-46542120D01*
X144817973Y-46471847D01*
X144801358Y-46391528D01*
X144791743Y-46316920D01*
X144785973Y-46235336D01*
X144784050Y-46146775D01*
X144784749Y-46093375D01*
X144789019Y-46009755D01*
X144797171Y-45932862D01*
X144812078Y-45849468D01*
X144832574Y-45775760D01*
X144863551Y-45702009D01*
X144890113Y-45657786D01*
X144946579Y-45597073D01*
X145014173Y-45560645D01*
X145092896Y-45548503D01*
X145130383Y-45550840D01*
G37*
G36*
X143891805Y-45577427D02*
G01*
X143962307Y-45598998D01*
X144026775Y-45641193D01*
X144060595Y-45678333D01*
X144093208Y-45744176D01*
X144104078Y-45822177D01*
X144103799Y-45837076D01*
X144090387Y-45916537D01*
X144049311Y-45987720D01*
X143980852Y-46035728D01*
X143900378Y-46058431D01*
X143817948Y-46064344D01*
X143646123Y-46064344D01*
X143646123Y-45571950D01*
X143826008Y-45571950D01*
X143891805Y-45577427D01*
G37*
G36*
X163329381Y-49595114D02*
G01*
X143154125Y-49595114D01*
X143154125Y-48666775D01*
X143320792Y-48666775D01*
X143320937Y-48689844D01*
X143324432Y-48778661D01*
X143332586Y-48861949D01*
X143345401Y-48939707D01*
X143362874Y-49011935D01*
X143391269Y-49094444D01*
X143426945Y-49168313D01*
X143469902Y-49233541D01*
X143489133Y-49257143D01*
X143541995Y-49309486D01*
X143601690Y-49352312D01*
X143668219Y-49385621D01*
X143741581Y-49409413D01*
X143821777Y-49423688D01*
X143908806Y-49428447D01*
X143936153Y-49427913D01*
X144016632Y-49419906D01*
X144094766Y-49402290D01*
X144170556Y-49375066D01*
X144244002Y-49338234D01*
X144315104Y-49291793D01*
X144315104Y-48701580D01*
X143860812Y-48701580D01*
X143860812Y-48865711D01*
X144122397Y-48865711D01*
X144122397Y-49207529D01*
X144060023Y-49242133D01*
X143984020Y-49259824D01*
X143908440Y-49264316D01*
X143818280Y-49254979D01*
X143740141Y-49226969D01*
X143674024Y-49180287D01*
X143619928Y-49114931D01*
X143577853Y-49030902D01*
X143554186Y-48955625D01*
X143537281Y-48869846D01*
X143527138Y-48773562D01*
X143523757Y-48666775D01*
X143524598Y-48609736D01*
X143526072Y-48584344D01*
X144714075Y-48584344D01*
X144714075Y-49405000D01*
X144906416Y-49405000D01*
X144906416Y-48748475D01*
X145101688Y-48748475D01*
X145152304Y-48746706D01*
X145234985Y-48735098D01*
X145310164Y-48712655D01*
X145377839Y-48679379D01*
X145438011Y-48635268D01*
X145453627Y-48620774D01*
X145506017Y-48556843D01*
X145542287Y-48483387D01*
X145560800Y-48411299D01*
X145566971Y-48331919D01*
X145566845Y-48320205D01*
X145558888Y-48242640D01*
X145534639Y-48163483D01*
X145494225Y-48094446D01*
X145491828Y-48091950D01*
X146006242Y-48091950D01*
X146256835Y-48091950D01*
X146256835Y-49240868D01*
X146006242Y-49240868D01*
X146006242Y-49405000D01*
X146690244Y-49405000D01*
X146690244Y-49240868D01*
X146449176Y-49240868D01*
X146449176Y-48666775D01*
X147101671Y-48666775D01*
X147101799Y-48689710D01*
X147104864Y-48778055D01*
X147112017Y-48860974D01*
X147123257Y-48938465D01*
X147138584Y-49010530D01*
X147163490Y-49092980D01*
X147194784Y-49166951D01*
X147232463Y-49232442D01*
X147258095Y-49267470D01*
X147315600Y-49327190D01*
X147381425Y-49373129D01*
X147455571Y-49405286D01*
X147538037Y-49423662D01*
X147613115Y-49428447D01*
X147644059Y-49427680D01*
X147731222Y-49416174D01*
X147809884Y-49390860D01*
X147880046Y-49351739D01*
X147941707Y-49298811D01*
X147994867Y-49232076D01*
X148002914Y-49219612D01*
X148039316Y-49152258D01*
X148069332Y-49076515D01*
X148092961Y-48992382D01*
X148107266Y-48919034D01*
X148117484Y-48840318D01*
X148123615Y-48756231D01*
X148125659Y-48666775D01*
X148125531Y-48643796D01*
X148122457Y-48555285D01*
X148115284Y-48472223D01*
X148104013Y-48394611D01*
X148088643Y-48322449D01*
X148082750Y-48302976D01*
X150999054Y-48302976D01*
X150999054Y-48467107D01*
X151205317Y-48467107D01*
X151205317Y-49112274D01*
X151212616Y-49203359D01*
X151234512Y-49279006D01*
X151280055Y-49349404D01*
X151346619Y-49397571D01*
X151418146Y-49420728D01*
X151504270Y-49428447D01*
X151534265Y-49427787D01*
X151615351Y-49419572D01*
X151687617Y-49404683D01*
X151761110Y-49382607D01*
X151835830Y-49353342D01*
X151803224Y-49187745D01*
X151759757Y-49209804D01*
X151682870Y-49240088D01*
X151607722Y-49258259D01*
X151534312Y-49264316D01*
X151486673Y-49257257D01*
X151425136Y-49214124D01*
X151422679Y-49210944D01*
X151392845Y-49143747D01*
X151385202Y-49069776D01*
X151385202Y-48849958D01*
X152187173Y-48849958D01*
X152188487Y-48898673D01*
X152196516Y-48975643D01*
X152215784Y-49061042D01*
X152245563Y-49138842D01*
X152285851Y-49209042D01*
X152336650Y-49271643D01*
X152365573Y-49299665D01*
X152428384Y-49347442D01*
X152497816Y-49384193D01*
X152573868Y-49409918D01*
X152656541Y-49424619D01*
X152730491Y-49428447D01*
X152766086Y-49428002D01*
X152846562Y-49423509D01*
X152923426Y-49414178D01*
X152996678Y-49400008D01*
X153075973Y-49377889D01*
X153043733Y-49214124D01*
X153033336Y-49217212D01*
X152961782Y-49236083D01*
X152882624Y-49251768D01*
X152806260Y-49261179D01*
X152732690Y-49264316D01*
X152678658Y-49260258D01*
X152603648Y-49238958D01*
X152535883Y-49199400D01*
X152481730Y-49148911D01*
X152437011Y-49087797D01*
X152405068Y-49020225D01*
X152385903Y-48946197D01*
X152379515Y-48865711D01*
X153116273Y-48865711D01*
X153116273Y-48803796D01*
X153111765Y-48718191D01*
X153098241Y-48639155D01*
X153083813Y-48592770D01*
X153512313Y-48592770D01*
X153516177Y-48640975D01*
X153539790Y-48713304D01*
X153566227Y-48754522D01*
X153619658Y-48805628D01*
X153663434Y-48833739D01*
X153731765Y-48863513D01*
X153770514Y-48875913D01*
X153844700Y-48899043D01*
X153916413Y-48921032D01*
X153969324Y-48938137D01*
X154039877Y-48965729D01*
X154106922Y-49007494D01*
X154122197Y-49025439D01*
X154146123Y-49097254D01*
X154123582Y-49168415D01*
X154066256Y-49218154D01*
X154005373Y-49244435D01*
X153932541Y-49259808D01*
X153855963Y-49264316D01*
X153780469Y-49259553D01*
X153705662Y-49245265D01*
X153631542Y-49221451D01*
X153558108Y-49188112D01*
X153522205Y-49352609D01*
X153548849Y-49366162D01*
X153625190Y-49395786D01*
X153698300Y-49413931D01*
X153777300Y-49424818D01*
X153862191Y-49428447D01*
X153899563Y-49427642D01*
X153981982Y-49419502D01*
X154057704Y-49402597D01*
X154126729Y-49376927D01*
X154197414Y-49336856D01*
X154242610Y-49300002D01*
X154292871Y-49235834D01*
X154322092Y-49161001D01*
X154330404Y-49085530D01*
X154322676Y-49013547D01*
X154295233Y-48942281D01*
X154251819Y-48885220D01*
X154191186Y-48837868D01*
X154154320Y-48817031D01*
X154084061Y-48785710D01*
X154014598Y-48761664D01*
X153861824Y-48713670D01*
X153794556Y-48690246D01*
X153726636Y-48652121D01*
X153694396Y-48583611D01*
X153710174Y-48530636D01*
X153766203Y-48482861D01*
X153816593Y-48462188D01*
X153891606Y-48447488D01*
X153966238Y-48443660D01*
X154003660Y-48444894D01*
X154082528Y-48454769D01*
X154158099Y-48472099D01*
X154228921Y-48494218D01*
X154271053Y-48330087D01*
X154198076Y-48310387D01*
X154162871Y-48302976D01*
X154779933Y-48302976D01*
X154779933Y-48467107D01*
X154986196Y-48467107D01*
X154986196Y-49112274D01*
X154993495Y-49203359D01*
X155015391Y-49279006D01*
X155060935Y-49349404D01*
X155127498Y-49397571D01*
X155199025Y-49420728D01*
X155285150Y-49428447D01*
X155315144Y-49427787D01*
X155396231Y-49419572D01*
X155468496Y-49404683D01*
X155541989Y-49382607D01*
X155616709Y-49353342D01*
X155584103Y-49187745D01*
X155540636Y-49209804D01*
X155463749Y-49240088D01*
X155388601Y-49258259D01*
X155315191Y-49264316D01*
X155267553Y-49257257D01*
X155206015Y-49214124D01*
X155203558Y-49210944D01*
X155173725Y-49143747D01*
X155166081Y-49069776D01*
X155166081Y-48622812D01*
X157274874Y-48622812D01*
X157274874Y-49405000D01*
X157458789Y-49405000D01*
X157458789Y-49271643D01*
X157462820Y-49277973D01*
X157515693Y-49332585D01*
X157578590Y-49375324D01*
X157624317Y-49398565D01*
X157696084Y-49420976D01*
X157771664Y-49428447D01*
X157829962Y-49424297D01*
X157905118Y-49404542D01*
X157972735Y-49368518D01*
X158032814Y-49316225D01*
X158078311Y-49258454D01*
X158098738Y-49225797D01*
X158133566Y-49156193D01*
X158160356Y-49080871D01*
X158179110Y-48999830D01*
X158189826Y-48913070D01*
X158192056Y-48851789D01*
X158462993Y-48851789D01*
X158463056Y-48854354D01*
X158464165Y-48899604D01*
X158471328Y-48975346D01*
X158488519Y-49059718D01*
X158515086Y-49136981D01*
X158551029Y-49207134D01*
X158596350Y-49270177D01*
X158613433Y-49289343D01*
X158669096Y-49339420D01*
X158731379Y-49378369D01*
X158800283Y-49406190D01*
X158875807Y-49422883D01*
X158957951Y-49428447D01*
X158985980Y-49427826D01*
X159065685Y-49418509D01*
X159138822Y-49398013D01*
X159205390Y-49366337D01*
X159265390Y-49323481D01*
X159318820Y-49269445D01*
X159350247Y-49228137D01*
X159389531Y-49160337D01*
X159407836Y-49114473D01*
X159795460Y-49114473D01*
X159795578Y-49119968D01*
X159795829Y-49131586D01*
X159808752Y-49211227D01*
X159840136Y-49280994D01*
X159889982Y-49340886D01*
X159901958Y-49351489D01*
X159965270Y-49394243D01*
X160034307Y-49419896D01*
X160109068Y-49428447D01*
X160138858Y-49427731D01*
X160222458Y-49416998D01*
X160297402Y-49393385D01*
X160363691Y-49356891D01*
X160421325Y-49307518D01*
X160470303Y-49245265D01*
X160470390Y-49255162D01*
X160476610Y-49329759D01*
X160492651Y-49405000D01*
X160676200Y-49405000D01*
X160669159Y-49374065D01*
X160655663Y-49294523D01*
X160648534Y-49220245D01*
X160646158Y-49143415D01*
X160646158Y-48680697D01*
X160645788Y-48656016D01*
X160636918Y-48565126D01*
X160616222Y-48486773D01*
X160573719Y-48406461D01*
X160512738Y-48345737D01*
X160433277Y-48304602D01*
X160426630Y-48302976D01*
X161170059Y-48302976D01*
X161170059Y-49405000D01*
X161353241Y-49405000D01*
X161353241Y-48836402D01*
X162243872Y-48836402D01*
X162244120Y-48848492D01*
X162244838Y-48883580D01*
X162250742Y-48958791D01*
X162264910Y-49043399D01*
X162286806Y-49121851D01*
X162316430Y-49194147D01*
X162353782Y-49260286D01*
X162382518Y-49299698D01*
X162438868Y-49356026D01*
X162502932Y-49396260D01*
X162574709Y-49420400D01*
X162654200Y-49428447D01*
X162706270Y-49425058D01*
X162781798Y-49407266D01*
X162854235Y-49374225D01*
X162860102Y-49370819D01*
X162924710Y-49327652D01*
X162978433Y-49271277D01*
X162978433Y-49405000D01*
X163162714Y-49405000D01*
X163162714Y-47927819D01*
X162978433Y-47927819D01*
X162978433Y-48420212D01*
X162942832Y-48379683D01*
X162884546Y-48334483D01*
X162816408Y-48302747D01*
X162738417Y-48284474D01*
X162663726Y-48279528D01*
X162617284Y-48282013D01*
X162541712Y-48298317D01*
X162473398Y-48329838D01*
X162412342Y-48376576D01*
X162358545Y-48438531D01*
X162344658Y-48458675D01*
X162308376Y-48522886D01*
X162280155Y-48592764D01*
X162259998Y-48668310D01*
X162247904Y-48749522D01*
X162243872Y-48836402D01*
X161353241Y-48836402D01*
X161353241Y-48689856D01*
X161365396Y-48668240D01*
X161408562Y-48605593D01*
X161419025Y-48591280D01*
X161470236Y-48532916D01*
X161529462Y-48485792D01*
X161587265Y-48456990D01*
X161662819Y-48443660D01*
X161712850Y-48451066D01*
X161783467Y-48479505D01*
X161851130Y-48519497D01*
X161926235Y-48357198D01*
X161894745Y-48338994D01*
X161824017Y-48306910D01*
X161753464Y-48287113D01*
X161675275Y-48279528D01*
X161599322Y-48286574D01*
X161519793Y-48312602D01*
X161450047Y-48357810D01*
X161398050Y-48411825D01*
X161353241Y-48479930D01*
X161353241Y-48302976D01*
X161170059Y-48302976D01*
X160426630Y-48302976D01*
X160356404Y-48285797D01*
X160267704Y-48279528D01*
X160231495Y-48280398D01*
X160156971Y-48287353D01*
X160079640Y-48301263D01*
X159999500Y-48322129D01*
X159916553Y-48349950D01*
X159845286Y-48378447D01*
X159894745Y-48543311D01*
X159924734Y-48527155D01*
X159992803Y-48496304D01*
X160065104Y-48471137D01*
X160139256Y-48452354D01*
X160216046Y-48443660D01*
X160231171Y-48443918D01*
X160311834Y-48456335D01*
X160384094Y-48494360D01*
X160432828Y-48557735D01*
X160455875Y-48632232D01*
X160461877Y-48708541D01*
X160461877Y-48749207D01*
X160292616Y-48762763D01*
X160226159Y-48769161D01*
X160151938Y-48780366D01*
X160079759Y-48796835D01*
X160063154Y-48801598D01*
X159991627Y-48828085D01*
X159925886Y-48864246D01*
X159872541Y-48908596D01*
X159828433Y-48969759D01*
X159803703Y-49037445D01*
X159795460Y-49114473D01*
X159407836Y-49114473D01*
X159419387Y-49085530D01*
X159439815Y-49003716D01*
X159449636Y-48930186D01*
X159452909Y-48851789D01*
X159451731Y-48804570D01*
X159444529Y-48729721D01*
X159427244Y-48646255D01*
X159400531Y-48569718D01*
X159364390Y-48500110D01*
X159318820Y-48437431D01*
X159301740Y-48418310D01*
X159246120Y-48368349D01*
X159183931Y-48329490D01*
X159115173Y-48301734D01*
X159039847Y-48285080D01*
X158957951Y-48279528D01*
X158929922Y-48280144D01*
X158850194Y-48289375D01*
X158777010Y-48309682D01*
X158710369Y-48341066D01*
X158650271Y-48383527D01*
X158596716Y-48437065D01*
X158565375Y-48478006D01*
X158526198Y-48545257D01*
X158496424Y-48619515D01*
X158476052Y-48700779D01*
X158466258Y-48773851D01*
X158462993Y-48851789D01*
X158192056Y-48851789D01*
X158192616Y-48836402D01*
X158192197Y-48805721D01*
X158187480Y-48732235D01*
X158174900Y-48650121D01*
X158154773Y-48574627D01*
X158127098Y-48505753D01*
X158085272Y-48433768D01*
X158057085Y-48397618D01*
X158001255Y-48345954D01*
X157937152Y-48309051D01*
X157864773Y-48286909D01*
X157784120Y-48279528D01*
X157732898Y-48282436D01*
X157658383Y-48297704D01*
X157586650Y-48326057D01*
X157580846Y-48328943D01*
X157516015Y-48366589D01*
X157458789Y-48419113D01*
X157458789Y-47927819D01*
X157274874Y-47927819D01*
X157274874Y-48622812D01*
X155166081Y-48622812D01*
X155166081Y-48467107D01*
X155530980Y-48467107D01*
X155530980Y-48302976D01*
X155166081Y-48302976D01*
X155166081Y-47998161D01*
X154986196Y-47998161D01*
X154986196Y-48302976D01*
X154779933Y-48302976D01*
X154162871Y-48302976D01*
X154119268Y-48293797D01*
X154045360Y-48283528D01*
X153968070Y-48279528D01*
X153942824Y-48279858D01*
X153859308Y-48286194D01*
X153783331Y-48300594D01*
X153705730Y-48326927D01*
X153637976Y-48363792D01*
X153601774Y-48391504D01*
X153552073Y-48448913D01*
X153522253Y-48516002D01*
X153512313Y-48592770D01*
X153083813Y-48592770D01*
X153075701Y-48566688D01*
X153038009Y-48490445D01*
X152988046Y-48423143D01*
X152955101Y-48389484D01*
X152892738Y-48341378D01*
X152824379Y-48307017D01*
X152750025Y-48286401D01*
X152669675Y-48279528D01*
X152592361Y-48284990D01*
X152520611Y-48301373D01*
X152443935Y-48334291D01*
X152374832Y-48382076D01*
X152321629Y-48434867D01*
X152290116Y-48475333D01*
X152250725Y-48542150D01*
X152220787Y-48616309D01*
X152200304Y-48697809D01*
X152199799Y-48701580D01*
X152190456Y-48771334D01*
X152187173Y-48849958D01*
X151385202Y-48849958D01*
X151385202Y-48467107D01*
X151750101Y-48467107D01*
X151750101Y-48302976D01*
X151385202Y-48302976D01*
X151385202Y-47998161D01*
X151205317Y-47998161D01*
X151205317Y-48302976D01*
X150999054Y-48302976D01*
X148082750Y-48302976D01*
X148063666Y-48239910D01*
X148032285Y-48165885D01*
X147994501Y-48100376D01*
X147968924Y-48065348D01*
X147911454Y-48005628D01*
X147845560Y-47959689D01*
X147771242Y-47927532D01*
X147688501Y-47909157D01*
X147613115Y-47904371D01*
X147582304Y-47905140D01*
X147495467Y-47916668D01*
X147417027Y-47942028D01*
X147346986Y-47981222D01*
X147285342Y-48034249D01*
X147232096Y-48101109D01*
X147224072Y-48113551D01*
X147187772Y-48180828D01*
X147157840Y-48256548D01*
X147134277Y-48340711D01*
X147120012Y-48414122D01*
X147109822Y-48492936D01*
X147103709Y-48577154D01*
X147101671Y-48666775D01*
X146449176Y-48666775D01*
X146449176Y-48091950D01*
X146690244Y-48091950D01*
X146690244Y-47927819D01*
X146006242Y-47927819D01*
X146006242Y-48091950D01*
X145491828Y-48091950D01*
X145437644Y-48035530D01*
X145395173Y-48004500D01*
X145328800Y-47969893D01*
X145254363Y-47945595D01*
X145171861Y-47931605D01*
X145094727Y-47927819D01*
X144714075Y-47927819D01*
X144714075Y-48584344D01*
X143526072Y-48584344D01*
X143529734Y-48521283D01*
X143539539Y-48441094D01*
X143557468Y-48355777D01*
X143582120Y-48282361D01*
X143619378Y-48211751D01*
X143631713Y-48194405D01*
X143688694Y-48136210D01*
X143757903Y-48095921D01*
X143828490Y-48075357D01*
X143908440Y-48068503D01*
X143950686Y-48070060D01*
X144023405Y-48080278D01*
X144094582Y-48100033D01*
X144164215Y-48129325D01*
X144232306Y-48168154D01*
X144296786Y-48005488D01*
X144263507Y-47985114D01*
X144193517Y-47953138D01*
X144119466Y-47930383D01*
X144067121Y-47919003D01*
X143988090Y-47908029D01*
X143908440Y-47904371D01*
X143871718Y-47905160D01*
X143785171Y-47914031D01*
X143706138Y-47932759D01*
X143634618Y-47961344D01*
X143570612Y-47999785D01*
X143514119Y-48048083D01*
X143465139Y-48106238D01*
X143456258Y-48118986D01*
X143416083Y-48187339D01*
X143382957Y-48263385D01*
X143356878Y-48347123D01*
X143341090Y-48419651D01*
X143329813Y-48497103D01*
X143323047Y-48579478D01*
X143320792Y-48666775D01*
X143154125Y-48666775D01*
X143154125Y-46064344D01*
X143453782Y-46064344D01*
X143453782Y-46885000D01*
X143646123Y-46885000D01*
X143646123Y-46228475D01*
X143841395Y-46228475D01*
X143892011Y-46226706D01*
X143974692Y-46215098D01*
X144049871Y-46192655D01*
X144117546Y-46159379D01*
X144134739Y-46146775D01*
X144581085Y-46146775D01*
X144581212Y-46169710D01*
X144584278Y-46258055D01*
X144591430Y-46340974D01*
X144602670Y-46418465D01*
X144617998Y-46490530D01*
X144642904Y-46572980D01*
X144674197Y-46646951D01*
X144711877Y-46712442D01*
X144737509Y-46747470D01*
X144795014Y-46807190D01*
X144860839Y-46853129D01*
X144934985Y-46885286D01*
X145017451Y-46903662D01*
X145092529Y-46908447D01*
X145152247Y-46902951D01*
X145156579Y-46917715D01*
X145189483Y-46996455D01*
X145234236Y-47058322D01*
X145301425Y-47109174D01*
X145371853Y-47134484D01*
X145454131Y-47142920D01*
X145493836Y-47141395D01*
X145570738Y-47130469D01*
X145645373Y-47111046D01*
X145610202Y-46952044D01*
X145547751Y-46969360D01*
X145470617Y-46978789D01*
X145420665Y-46968414D01*
X145366419Y-46916796D01*
X145353857Y-46885000D01*
X145887906Y-46885000D01*
X146074019Y-46885000D01*
X146074019Y-45695415D01*
X146273688Y-46228475D01*
X146449542Y-46228475D01*
X146649211Y-45695415D01*
X146649211Y-46885000D01*
X146835690Y-46885000D01*
X146835690Y-46832243D01*
X148461249Y-46832243D01*
X148487894Y-46845861D01*
X148563577Y-46875629D01*
X148635322Y-46893861D01*
X148712221Y-46904800D01*
X148794274Y-46908447D01*
X148856752Y-46905003D01*
X148939114Y-46888612D01*
X149015514Y-46858721D01*
X149085954Y-46815332D01*
X149141587Y-46767397D01*
X149143897Y-46764832D01*
X149991186Y-46764832D01*
X149995121Y-46800087D01*
X150031486Y-46866315D01*
X150058548Y-46888533D01*
X150129672Y-46908447D01*
X150164748Y-46904332D01*
X150197585Y-46885000D01*
X150890244Y-46885000D01*
X151089912Y-46885000D01*
X151381905Y-46478702D01*
X151662906Y-46885000D01*
X151872833Y-46885000D01*
X151484487Y-46328492D01*
X151873199Y-45782976D01*
X151673164Y-45782976D01*
X151385935Y-46188907D01*
X151103468Y-45782976D01*
X150890244Y-45782976D01*
X151280788Y-46336919D01*
X150890244Y-46885000D01*
X150197585Y-46885000D01*
X150229323Y-46866315D01*
X150250961Y-46838144D01*
X150270355Y-46764832D01*
X150267139Y-46733543D01*
X150229689Y-46667013D01*
X150202448Y-46645954D01*
X150129672Y-46627079D01*
X150098325Y-46630180D01*
X150031120Y-46666280D01*
X150010061Y-46692748D01*
X149991186Y-46764832D01*
X149143897Y-46764832D01*
X149182644Y-46721807D01*
X149228433Y-46652902D01*
X149260582Y-46578072D01*
X149279092Y-46497316D01*
X149284103Y-46423381D01*
X149282185Y-46376016D01*
X149269600Y-46297923D01*
X149245270Y-46225930D01*
X149209193Y-46160038D01*
X149161371Y-46100247D01*
X149120852Y-46062885D01*
X149056854Y-46021216D01*
X148984370Y-45991959D01*
X148903402Y-45975114D01*
X148827247Y-45970554D01*
X148777513Y-45972564D01*
X148701950Y-45984842D01*
X148701950Y-45571950D01*
X149219256Y-45571950D01*
X149219256Y-45407819D01*
X148530858Y-45407819D01*
X148530858Y-46110139D01*
X148642965Y-46158866D01*
X148665107Y-46153198D01*
X148742244Y-46139314D01*
X148818820Y-46134685D01*
X148874553Y-46139425D01*
X148948021Y-46164309D01*
X149009330Y-46210523D01*
X149018291Y-46220217D01*
X149057245Y-46282848D01*
X149077481Y-46353459D01*
X149083335Y-46428143D01*
X149083027Y-46446658D01*
X149074028Y-46523490D01*
X149049412Y-46596419D01*
X149004567Y-46661517D01*
X148944821Y-46708657D01*
X148873387Y-46736230D01*
X148798304Y-46744316D01*
X148724756Y-46739576D01*
X148650659Y-46725356D01*
X148576012Y-46701657D01*
X148500816Y-46668478D01*
X148461249Y-46832243D01*
X146835690Y-46832243D01*
X146835690Y-45407819D01*
X146596454Y-45407819D01*
X146362348Y-46043827D01*
X146127142Y-45407819D01*
X145887906Y-45407819D01*
X145887906Y-46885000D01*
X145353857Y-46885000D01*
X145339092Y-46847630D01*
X145355456Y-46837320D01*
X145415718Y-46788631D01*
X145467667Y-46728024D01*
X145511304Y-46655498D01*
X145546630Y-46571054D01*
X145567669Y-46499899D01*
X145584033Y-46422041D01*
X145595722Y-46337478D01*
X145602735Y-46246212D01*
X145605073Y-46148241D01*
X145604945Y-46125216D01*
X145601871Y-46036530D01*
X145594698Y-45953305D01*
X145583427Y-45875542D01*
X145568056Y-45803239D01*
X145543080Y-45720541D01*
X145511699Y-45646375D01*
X145473914Y-45580743D01*
X145448338Y-45545649D01*
X145390867Y-45485817D01*
X145324973Y-45439793D01*
X145250656Y-45407575D01*
X145167915Y-45389166D01*
X145092529Y-45384371D01*
X145061717Y-45385140D01*
X144974880Y-45396668D01*
X144896441Y-45422028D01*
X144826400Y-45461222D01*
X144764756Y-45514249D01*
X144711510Y-45581109D01*
X144703486Y-45593551D01*
X144667186Y-45660828D01*
X144637254Y-45736548D01*
X144613691Y-45820711D01*
X144599426Y-45894122D01*
X144589236Y-45972936D01*
X144583123Y-46057154D01*
X144581085Y-46146775D01*
X144134739Y-46146775D01*
X144177718Y-46115268D01*
X144193334Y-46100774D01*
X144245724Y-46036843D01*
X144281994Y-45963387D01*
X144300507Y-45891299D01*
X144306678Y-45811919D01*
X144306552Y-45800205D01*
X144298595Y-45722640D01*
X144274346Y-45643483D01*
X144233932Y-45574446D01*
X144177351Y-45515530D01*
X144134879Y-45484500D01*
X144068507Y-45449893D01*
X143994070Y-45425595D01*
X143911568Y-45411605D01*
X143834434Y-45407819D01*
X143453782Y-45407819D01*
X143453782Y-46064344D01*
X143154125Y-46064344D01*
X143154125Y-45217704D01*
X163329381Y-45217704D01*
X163329381Y-49595114D01*
G37*
D12*
X144250403Y-71310732D02*
X144183736Y-71277398D01*
X144183736Y-71277398D02*
X144117070Y-71210732D01*
X144117070Y-71210732D02*
X144017070Y-71110732D01*
X144017070Y-71110732D02*
X143950403Y-71077398D01*
X143950403Y-71077398D02*
X143883736Y-71077398D01*
X143917070Y-71244065D02*
X143850403Y-71210732D01*
X143850403Y-71210732D02*
X143783736Y-71144065D01*
X143783736Y-71144065D02*
X143750403Y-71010732D01*
X143750403Y-71010732D02*
X143750403Y-70777398D01*
X143750403Y-70777398D02*
X143783736Y-70644065D01*
X143783736Y-70644065D02*
X143850403Y-70577398D01*
X143850403Y-70577398D02*
X143917070Y-70544065D01*
X143917070Y-70544065D02*
X144050403Y-70544065D01*
X144050403Y-70544065D02*
X144117070Y-70577398D01*
X144117070Y-70577398D02*
X144183736Y-70644065D01*
X144183736Y-70644065D02*
X144217070Y-70777398D01*
X144217070Y-70777398D02*
X144217070Y-71010732D01*
X144217070Y-71010732D02*
X144183736Y-71144065D01*
X144183736Y-71144065D02*
X144117070Y-71210732D01*
X144117070Y-71210732D02*
X144050403Y-71244065D01*
X144050403Y-71244065D02*
X143917070Y-71244065D01*
X144483736Y-70610732D02*
X144517069Y-70577398D01*
X144517069Y-70577398D02*
X144583736Y-70544065D01*
X144583736Y-70544065D02*
X144750403Y-70544065D01*
X144750403Y-70544065D02*
X144817069Y-70577398D01*
X144817069Y-70577398D02*
X144850403Y-70610732D01*
X144850403Y-70610732D02*
X144883736Y-70677398D01*
X144883736Y-70677398D02*
X144883736Y-70744065D01*
X144883736Y-70744065D02*
X144850403Y-70844065D01*
X144850403Y-70844065D02*
X144450403Y-71244065D01*
X144450403Y-71244065D02*
X144883736Y-71244065D01*
X129923333Y-71236033D02*
X129690000Y-70902700D01*
X129523333Y-71236033D02*
X129523333Y-70536033D01*
X129523333Y-70536033D02*
X129790000Y-70536033D01*
X129790000Y-70536033D02*
X129856667Y-70569366D01*
X129856667Y-70569366D02*
X129890000Y-70602700D01*
X129890000Y-70602700D02*
X129923333Y-70669366D01*
X129923333Y-70669366D02*
X129923333Y-70769366D01*
X129923333Y-70769366D02*
X129890000Y-70836033D01*
X129890000Y-70836033D02*
X129856667Y-70869366D01*
X129856667Y-70869366D02*
X129790000Y-70902700D01*
X129790000Y-70902700D02*
X129523333Y-70902700D01*
X130590000Y-71236033D02*
X130190000Y-71236033D01*
X130390000Y-71236033D02*
X130390000Y-70536033D01*
X130390000Y-70536033D02*
X130323333Y-70636033D01*
X130323333Y-70636033D02*
X130256667Y-70702700D01*
X130256667Y-70702700D02*
X130190000Y-70736033D01*
X132556666Y-71996033D02*
X132556666Y-72562700D01*
X132556666Y-72562700D02*
X132590000Y-72629366D01*
X132590000Y-72629366D02*
X132623333Y-72662700D01*
X132623333Y-72662700D02*
X132690000Y-72696033D01*
X132690000Y-72696033D02*
X132823333Y-72696033D01*
X132823333Y-72696033D02*
X132890000Y-72662700D01*
X132890000Y-72662700D02*
X132923333Y-72629366D01*
X132923333Y-72629366D02*
X132956666Y-72562700D01*
X132956666Y-72562700D02*
X132956666Y-71996033D01*
X133256666Y-72062700D02*
X133289999Y-72029366D01*
X133289999Y-72029366D02*
X133356666Y-71996033D01*
X133356666Y-71996033D02*
X133523333Y-71996033D01*
X133523333Y-71996033D02*
X133589999Y-72029366D01*
X133589999Y-72029366D02*
X133623333Y-72062700D01*
X133623333Y-72062700D02*
X133656666Y-72129366D01*
X133656666Y-72129366D02*
X133656666Y-72196033D01*
X133656666Y-72196033D02*
X133623333Y-72296033D01*
X133623333Y-72296033D02*
X133223333Y-72696033D01*
X133223333Y-72696033D02*
X133656666Y-72696033D01*
G36*
X118170930Y-85888955D02*
G01*
X116798708Y-85888955D01*
X116798708Y-85308701D01*
X116911260Y-85308701D01*
X116911260Y-85337965D01*
X116922459Y-85365001D01*
X116943151Y-85385693D01*
X116970187Y-85396892D01*
X116984819Y-85398333D01*
X117686934Y-85398333D01*
X117801447Y-85436504D01*
X117871648Y-85506704D01*
X117909819Y-85621217D01*
X117909819Y-85704285D01*
X117911260Y-85718917D01*
X117922459Y-85745953D01*
X117943151Y-85766645D01*
X117970187Y-85777844D01*
X117999451Y-85777844D01*
X118026487Y-85766645D01*
X118047179Y-85745953D01*
X118058378Y-85718917D01*
X118059819Y-85704285D01*
X118059819Y-85609047D01*
X118059089Y-85601640D01*
X118059230Y-85599666D01*
X118058639Y-85597068D01*
X118058378Y-85594415D01*
X118057619Y-85592584D01*
X118055970Y-85585329D01*
X118008351Y-85442473D01*
X118002357Y-85429047D01*
X118000592Y-85427012D01*
X117999561Y-85424522D01*
X117990233Y-85413157D01*
X117894994Y-85317919D01*
X117883628Y-85308591D01*
X117881137Y-85307559D01*
X117879103Y-85305795D01*
X117865678Y-85299801D01*
X117722821Y-85252182D01*
X117715567Y-85250532D01*
X117713736Y-85249774D01*
X117711081Y-85249512D01*
X117708484Y-85248922D01*
X117706509Y-85249062D01*
X117699104Y-85248333D01*
X116984819Y-85248333D01*
X116970187Y-85249774D01*
X116943151Y-85260973D01*
X116922459Y-85281665D01*
X116911260Y-85308701D01*
X116798708Y-85308701D01*
X116798708Y-84609126D01*
X116909819Y-84609126D01*
X116911260Y-84616330D01*
X116911260Y-84623679D01*
X116914101Y-84630539D01*
X116915558Y-84637820D01*
X116919646Y-84643925D01*
X116922459Y-84650715D01*
X116927709Y-84655965D01*
X116931841Y-84662135D01*
X116943099Y-84671355D01*
X116943151Y-84671407D01*
X116943173Y-84671416D01*
X116943216Y-84671451D01*
X117079894Y-84762569D01*
X117161275Y-84843950D01*
X117203451Y-84928302D01*
X117211283Y-84940745D01*
X117233391Y-84959918D01*
X117261152Y-84969172D01*
X117290342Y-84967098D01*
X117316517Y-84954010D01*
X117335690Y-84931903D01*
X117344944Y-84904141D01*
X117342870Y-84874951D01*
X117337615Y-84861220D01*
X117289996Y-84765982D01*
X117286033Y-84759687D01*
X117285275Y-84757855D01*
X117283583Y-84755793D01*
X117282164Y-84753539D01*
X117280667Y-84752240D01*
X117275947Y-84746490D01*
X117213504Y-84684047D01*
X117909819Y-84684047D01*
X117909819Y-84894761D01*
X117911260Y-84909393D01*
X117922459Y-84936429D01*
X117943151Y-84957121D01*
X117970187Y-84968320D01*
X117999451Y-84968320D01*
X118026487Y-84957121D01*
X118047179Y-84936429D01*
X118058378Y-84909393D01*
X118059819Y-84894761D01*
X118059819Y-84323333D01*
X118058378Y-84308701D01*
X118047179Y-84281665D01*
X118026487Y-84260973D01*
X117999451Y-84249774D01*
X117970187Y-84249774D01*
X117943151Y-84260973D01*
X117922459Y-84281665D01*
X117911260Y-84308701D01*
X117909819Y-84323333D01*
X117909819Y-84534047D01*
X116984819Y-84534047D01*
X116984766Y-84534052D01*
X116984740Y-84534047D01*
X116984663Y-84534062D01*
X116970187Y-84535488D01*
X116963326Y-84538329D01*
X116956046Y-84539786D01*
X116949940Y-84543874D01*
X116943151Y-84546687D01*
X116937900Y-84551937D01*
X116931731Y-84556069D01*
X116927654Y-84562183D01*
X116922459Y-84567379D01*
X116919617Y-84574239D01*
X116915498Y-84580418D01*
X116914072Y-84587626D01*
X116911260Y-84594415D01*
X116911260Y-84601841D01*
X116909819Y-84609126D01*
X116798708Y-84609126D01*
X116798708Y-84138663D01*
X118170930Y-84138663D01*
X118170930Y-85888955D01*
G37*
X126079999Y-52806033D02*
X126079999Y-52106033D01*
X126079999Y-52106033D02*
X126246666Y-52106033D01*
X126246666Y-52106033D02*
X126346666Y-52139366D01*
X126346666Y-52139366D02*
X126413333Y-52206033D01*
X126413333Y-52206033D02*
X126446666Y-52272700D01*
X126446666Y-52272700D02*
X126479999Y-52406033D01*
X126479999Y-52406033D02*
X126479999Y-52506033D01*
X126479999Y-52506033D02*
X126446666Y-52639366D01*
X126446666Y-52639366D02*
X126413333Y-52706033D01*
X126413333Y-52706033D02*
X126346666Y-52772700D01*
X126346666Y-52772700D02*
X126246666Y-52806033D01*
X126246666Y-52806033D02*
X126079999Y-52806033D01*
X126746666Y-52772700D02*
X126846666Y-52806033D01*
X126846666Y-52806033D02*
X127013333Y-52806033D01*
X127013333Y-52806033D02*
X127079999Y-52772700D01*
X127079999Y-52772700D02*
X127113333Y-52739366D01*
X127113333Y-52739366D02*
X127146666Y-52672700D01*
X127146666Y-52672700D02*
X127146666Y-52606033D01*
X127146666Y-52606033D02*
X127113333Y-52539366D01*
X127113333Y-52539366D02*
X127079999Y-52506033D01*
X127079999Y-52506033D02*
X127013333Y-52472700D01*
X127013333Y-52472700D02*
X126879999Y-52439366D01*
X126879999Y-52439366D02*
X126813333Y-52406033D01*
X126813333Y-52406033D02*
X126779999Y-52372700D01*
X126779999Y-52372700D02*
X126746666Y-52306033D01*
X126746666Y-52306033D02*
X126746666Y-52239366D01*
X126746666Y-52239366D02*
X126779999Y-52172700D01*
X126779999Y-52172700D02*
X126813333Y-52139366D01*
X126813333Y-52139366D02*
X126879999Y-52106033D01*
X126879999Y-52106033D02*
X127046666Y-52106033D01*
X127046666Y-52106033D02*
X127146666Y-52139366D01*
X127413333Y-52172700D02*
X127446666Y-52139366D01*
X127446666Y-52139366D02*
X127513333Y-52106033D01*
X127513333Y-52106033D02*
X127680000Y-52106033D01*
X127680000Y-52106033D02*
X127746666Y-52139366D01*
X127746666Y-52139366D02*
X127780000Y-52172700D01*
X127780000Y-52172700D02*
X127813333Y-52239366D01*
X127813333Y-52239366D02*
X127813333Y-52306033D01*
X127813333Y-52306033D02*
X127780000Y-52406033D01*
X127780000Y-52406033D02*
X127380000Y-52806033D01*
X127380000Y-52806033D02*
X127813333Y-52806033D01*
X133748333Y-62414366D02*
X133715000Y-62447700D01*
X133715000Y-62447700D02*
X133615000Y-62481033D01*
X133615000Y-62481033D02*
X133548333Y-62481033D01*
X133548333Y-62481033D02*
X133448333Y-62447700D01*
X133448333Y-62447700D02*
X133381667Y-62381033D01*
X133381667Y-62381033D02*
X133348333Y-62314366D01*
X133348333Y-62314366D02*
X133315000Y-62181033D01*
X133315000Y-62181033D02*
X133315000Y-62081033D01*
X133315000Y-62081033D02*
X133348333Y-61947700D01*
X133348333Y-61947700D02*
X133381667Y-61881033D01*
X133381667Y-61881033D02*
X133448333Y-61814366D01*
X133448333Y-61814366D02*
X133548333Y-61781033D01*
X133548333Y-61781033D02*
X133615000Y-61781033D01*
X133615000Y-61781033D02*
X133715000Y-61814366D01*
X133715000Y-61814366D02*
X133748333Y-61847700D01*
X134348333Y-62014366D02*
X134348333Y-62481033D01*
X134181667Y-61747700D02*
X134015000Y-62247700D01*
X134015000Y-62247700D02*
X134448333Y-62247700D01*
X125689999Y-83336033D02*
X125689999Y-82636033D01*
X125689999Y-82636033D02*
X125856666Y-82636033D01*
X125856666Y-82636033D02*
X125956666Y-82669366D01*
X125956666Y-82669366D02*
X126023333Y-82736033D01*
X126023333Y-82736033D02*
X126056666Y-82802700D01*
X126056666Y-82802700D02*
X126089999Y-82936033D01*
X126089999Y-82936033D02*
X126089999Y-83036033D01*
X126089999Y-83036033D02*
X126056666Y-83169366D01*
X126056666Y-83169366D02*
X126023333Y-83236033D01*
X126023333Y-83236033D02*
X125956666Y-83302700D01*
X125956666Y-83302700D02*
X125856666Y-83336033D01*
X125856666Y-83336033D02*
X125689999Y-83336033D01*
X126356666Y-83302700D02*
X126456666Y-83336033D01*
X126456666Y-83336033D02*
X126623333Y-83336033D01*
X126623333Y-83336033D02*
X126689999Y-83302700D01*
X126689999Y-83302700D02*
X126723333Y-83269366D01*
X126723333Y-83269366D02*
X126756666Y-83202700D01*
X126756666Y-83202700D02*
X126756666Y-83136033D01*
X126756666Y-83136033D02*
X126723333Y-83069366D01*
X126723333Y-83069366D02*
X126689999Y-83036033D01*
X126689999Y-83036033D02*
X126623333Y-83002700D01*
X126623333Y-83002700D02*
X126489999Y-82969366D01*
X126489999Y-82969366D02*
X126423333Y-82936033D01*
X126423333Y-82936033D02*
X126389999Y-82902700D01*
X126389999Y-82902700D02*
X126356666Y-82836033D01*
X126356666Y-82836033D02*
X126356666Y-82769366D01*
X126356666Y-82769366D02*
X126389999Y-82702700D01*
X126389999Y-82702700D02*
X126423333Y-82669366D01*
X126423333Y-82669366D02*
X126489999Y-82636033D01*
X126489999Y-82636033D02*
X126656666Y-82636033D01*
X126656666Y-82636033D02*
X126756666Y-82669366D01*
X127423333Y-83336033D02*
X127023333Y-83336033D01*
X127223333Y-83336033D02*
X127223333Y-82636033D01*
X127223333Y-82636033D02*
X127156666Y-82736033D01*
X127156666Y-82736033D02*
X127090000Y-82802700D01*
X127090000Y-82802700D02*
X127023333Y-82836033D01*
X127831033Y-59765000D02*
X127497700Y-59998333D01*
X127831033Y-60165000D02*
X127131033Y-60165000D01*
X127131033Y-60165000D02*
X127131033Y-59898333D01*
X127131033Y-59898333D02*
X127164366Y-59831667D01*
X127164366Y-59831667D02*
X127197700Y-59798333D01*
X127197700Y-59798333D02*
X127264366Y-59765000D01*
X127264366Y-59765000D02*
X127364366Y-59765000D01*
X127364366Y-59765000D02*
X127431033Y-59798333D01*
X127431033Y-59798333D02*
X127464366Y-59831667D01*
X127464366Y-59831667D02*
X127497700Y-59898333D01*
X127497700Y-59898333D02*
X127497700Y-60165000D01*
X127831033Y-59098333D02*
X127831033Y-59498333D01*
X127831033Y-59298333D02*
X127131033Y-59298333D01*
X127131033Y-59298333D02*
X127231033Y-59365000D01*
X127231033Y-59365000D02*
X127297700Y-59431667D01*
X127297700Y-59431667D02*
X127331033Y-59498333D01*
X127364366Y-58498333D02*
X127831033Y-58498333D01*
X127097700Y-58665000D02*
X127597700Y-58831666D01*
X127597700Y-58831666D02*
X127597700Y-58398333D01*
X148448095Y-61744819D02*
X148448095Y-62554342D01*
X148448095Y-62554342D02*
X148495714Y-62649580D01*
X148495714Y-62649580D02*
X148543333Y-62697200D01*
X148543333Y-62697200D02*
X148638571Y-62744819D01*
X148638571Y-62744819D02*
X148829047Y-62744819D01*
X148829047Y-62744819D02*
X148924285Y-62697200D01*
X148924285Y-62697200D02*
X148971904Y-62649580D01*
X148971904Y-62649580D02*
X149019523Y-62554342D01*
X149019523Y-62554342D02*
X149019523Y-61744819D01*
X150019523Y-62744819D02*
X149448095Y-62744819D01*
X149733809Y-62744819D02*
X149733809Y-61744819D01*
X149733809Y-61744819D02*
X149638571Y-61887676D01*
X149638571Y-61887676D02*
X149543333Y-61982914D01*
X149543333Y-61982914D02*
X149448095Y-62030533D01*
X139306033Y-71870000D02*
X138972700Y-72103333D01*
X139306033Y-72270000D02*
X138606033Y-72270000D01*
X138606033Y-72270000D02*
X138606033Y-72003333D01*
X138606033Y-72003333D02*
X138639366Y-71936667D01*
X138639366Y-71936667D02*
X138672700Y-71903333D01*
X138672700Y-71903333D02*
X138739366Y-71870000D01*
X138739366Y-71870000D02*
X138839366Y-71870000D01*
X138839366Y-71870000D02*
X138906033Y-71903333D01*
X138906033Y-71903333D02*
X138939366Y-71936667D01*
X138939366Y-71936667D02*
X138972700Y-72003333D01*
X138972700Y-72003333D02*
X138972700Y-72270000D01*
X139306033Y-71203333D02*
X139306033Y-71603333D01*
X139306033Y-71403333D02*
X138606033Y-71403333D01*
X138606033Y-71403333D02*
X138706033Y-71470000D01*
X138706033Y-71470000D02*
X138772700Y-71536667D01*
X138772700Y-71536667D02*
X138806033Y-71603333D01*
X138606033Y-70970000D02*
X138606033Y-70536666D01*
X138606033Y-70536666D02*
X138872700Y-70770000D01*
X138872700Y-70770000D02*
X138872700Y-70670000D01*
X138872700Y-70670000D02*
X138906033Y-70603333D01*
X138906033Y-70603333D02*
X138939366Y-70570000D01*
X138939366Y-70570000D02*
X139006033Y-70536666D01*
X139006033Y-70536666D02*
X139172700Y-70536666D01*
X139172700Y-70536666D02*
X139239366Y-70570000D01*
X139239366Y-70570000D02*
X139272700Y-70603333D01*
X139272700Y-70603333D02*
X139306033Y-70670000D01*
X139306033Y-70670000D02*
X139306033Y-70870000D01*
X139306033Y-70870000D02*
X139272700Y-70936666D01*
X139272700Y-70936666D02*
X139239366Y-70970000D01*
X129823333Y-80946033D02*
X129590000Y-80612700D01*
X129423333Y-80946033D02*
X129423333Y-80246033D01*
X129423333Y-80246033D02*
X129690000Y-80246033D01*
X129690000Y-80246033D02*
X129756667Y-80279366D01*
X129756667Y-80279366D02*
X129790000Y-80312700D01*
X129790000Y-80312700D02*
X129823333Y-80379366D01*
X129823333Y-80379366D02*
X129823333Y-80479366D01*
X129823333Y-80479366D02*
X129790000Y-80546033D01*
X129790000Y-80546033D02*
X129756667Y-80579366D01*
X129756667Y-80579366D02*
X129690000Y-80612700D01*
X129690000Y-80612700D02*
X129423333Y-80612700D01*
X130423333Y-80479366D02*
X130423333Y-80946033D01*
X130256667Y-80212700D02*
X130090000Y-80712700D01*
X130090000Y-80712700D02*
X130523333Y-80712700D01*
X123830833Y-48339366D02*
X123797500Y-48372700D01*
X123797500Y-48372700D02*
X123697500Y-48406033D01*
X123697500Y-48406033D02*
X123630833Y-48406033D01*
X123630833Y-48406033D02*
X123530833Y-48372700D01*
X123530833Y-48372700D02*
X123464167Y-48306033D01*
X123464167Y-48306033D02*
X123430833Y-48239366D01*
X123430833Y-48239366D02*
X123397500Y-48106033D01*
X123397500Y-48106033D02*
X123397500Y-48006033D01*
X123397500Y-48006033D02*
X123430833Y-47872700D01*
X123430833Y-47872700D02*
X123464167Y-47806033D01*
X123464167Y-47806033D02*
X123530833Y-47739366D01*
X123530833Y-47739366D02*
X123630833Y-47706033D01*
X123630833Y-47706033D02*
X123697500Y-47706033D01*
X123697500Y-47706033D02*
X123797500Y-47739366D01*
X123797500Y-47739366D02*
X123830833Y-47772700D01*
X124430833Y-47706033D02*
X124297500Y-47706033D01*
X124297500Y-47706033D02*
X124230833Y-47739366D01*
X124230833Y-47739366D02*
X124197500Y-47772700D01*
X124197500Y-47772700D02*
X124130833Y-47872700D01*
X124130833Y-47872700D02*
X124097500Y-48006033D01*
X124097500Y-48006033D02*
X124097500Y-48272700D01*
X124097500Y-48272700D02*
X124130833Y-48339366D01*
X124130833Y-48339366D02*
X124164167Y-48372700D01*
X124164167Y-48372700D02*
X124230833Y-48406033D01*
X124230833Y-48406033D02*
X124364167Y-48406033D01*
X124364167Y-48406033D02*
X124430833Y-48372700D01*
X124430833Y-48372700D02*
X124464167Y-48339366D01*
X124464167Y-48339366D02*
X124497500Y-48272700D01*
X124497500Y-48272700D02*
X124497500Y-48106033D01*
X124497500Y-48106033D02*
X124464167Y-48039366D01*
X124464167Y-48039366D02*
X124430833Y-48006033D01*
X124430833Y-48006033D02*
X124364167Y-47972700D01*
X124364167Y-47972700D02*
X124230833Y-47972700D01*
X124230833Y-47972700D02*
X124164167Y-48006033D01*
X124164167Y-48006033D02*
X124130833Y-48039366D01*
X124130833Y-48039366D02*
X124097500Y-48106033D01*
X155838095Y-61814819D02*
X155838095Y-62624342D01*
X155838095Y-62624342D02*
X155885714Y-62719580D01*
X155885714Y-62719580D02*
X155933333Y-62767200D01*
X155933333Y-62767200D02*
X156028571Y-62814819D01*
X156028571Y-62814819D02*
X156219047Y-62814819D01*
X156219047Y-62814819D02*
X156314285Y-62767200D01*
X156314285Y-62767200D02*
X156361904Y-62719580D01*
X156361904Y-62719580D02*
X156409523Y-62624342D01*
X156409523Y-62624342D02*
X156409523Y-61814819D01*
X156790476Y-61814819D02*
X157409523Y-61814819D01*
X157409523Y-61814819D02*
X157076190Y-62195771D01*
X157076190Y-62195771D02*
X157219047Y-62195771D01*
X157219047Y-62195771D02*
X157314285Y-62243390D01*
X157314285Y-62243390D02*
X157361904Y-62291009D01*
X157361904Y-62291009D02*
X157409523Y-62386247D01*
X157409523Y-62386247D02*
X157409523Y-62624342D01*
X157409523Y-62624342D02*
X157361904Y-62719580D01*
X157361904Y-62719580D02*
X157314285Y-62767200D01*
X157314285Y-62767200D02*
X157219047Y-62814819D01*
X157219047Y-62814819D02*
X156933333Y-62814819D01*
X156933333Y-62814819D02*
X156838095Y-62767200D01*
X156838095Y-62767200D02*
X156790476Y-62719580D01*
X145749366Y-56526666D02*
X145782700Y-56559999D01*
X145782700Y-56559999D02*
X145816033Y-56659999D01*
X145816033Y-56659999D02*
X145816033Y-56726666D01*
X145816033Y-56726666D02*
X145782700Y-56826666D01*
X145782700Y-56826666D02*
X145716033Y-56893333D01*
X145716033Y-56893333D02*
X145649366Y-56926666D01*
X145649366Y-56926666D02*
X145516033Y-56959999D01*
X145516033Y-56959999D02*
X145416033Y-56959999D01*
X145416033Y-56959999D02*
X145282700Y-56926666D01*
X145282700Y-56926666D02*
X145216033Y-56893333D01*
X145216033Y-56893333D02*
X145149366Y-56826666D01*
X145149366Y-56826666D02*
X145116033Y-56726666D01*
X145116033Y-56726666D02*
X145116033Y-56659999D01*
X145116033Y-56659999D02*
X145149366Y-56559999D01*
X145149366Y-56559999D02*
X145182700Y-56526666D01*
X145116033Y-55893333D02*
X145116033Y-56226666D01*
X145116033Y-56226666D02*
X145449366Y-56259999D01*
X145449366Y-56259999D02*
X145416033Y-56226666D01*
X145416033Y-56226666D02*
X145382700Y-56159999D01*
X145382700Y-56159999D02*
X145382700Y-55993333D01*
X145382700Y-55993333D02*
X145416033Y-55926666D01*
X145416033Y-55926666D02*
X145449366Y-55893333D01*
X145449366Y-55893333D02*
X145516033Y-55859999D01*
X145516033Y-55859999D02*
X145682700Y-55859999D01*
X145682700Y-55859999D02*
X145749366Y-55893333D01*
X145749366Y-55893333D02*
X145782700Y-55926666D01*
X145782700Y-55926666D02*
X145816033Y-55993333D01*
X145816033Y-55993333D02*
X145816033Y-56159999D01*
X145816033Y-56159999D02*
X145782700Y-56226666D01*
X145782700Y-56226666D02*
X145749366Y-56259999D01*
X120813333Y-87226033D02*
X120580000Y-86892700D01*
X120413333Y-87226033D02*
X120413333Y-86526033D01*
X120413333Y-86526033D02*
X120680000Y-86526033D01*
X120680000Y-86526033D02*
X120746667Y-86559366D01*
X120746667Y-86559366D02*
X120780000Y-86592700D01*
X120780000Y-86592700D02*
X120813333Y-86659366D01*
X120813333Y-86659366D02*
X120813333Y-86759366D01*
X120813333Y-86759366D02*
X120780000Y-86826033D01*
X120780000Y-86826033D02*
X120746667Y-86859366D01*
X120746667Y-86859366D02*
X120680000Y-86892700D01*
X120680000Y-86892700D02*
X120413333Y-86892700D01*
X121146667Y-87226033D02*
X121280000Y-87226033D01*
X121280000Y-87226033D02*
X121346667Y-87192700D01*
X121346667Y-87192700D02*
X121380000Y-87159366D01*
X121380000Y-87159366D02*
X121446667Y-87059366D01*
X121446667Y-87059366D02*
X121480000Y-86926033D01*
X121480000Y-86926033D02*
X121480000Y-86659366D01*
X121480000Y-86659366D02*
X121446667Y-86592700D01*
X121446667Y-86592700D02*
X121413333Y-86559366D01*
X121413333Y-86559366D02*
X121346667Y-86526033D01*
X121346667Y-86526033D02*
X121213333Y-86526033D01*
X121213333Y-86526033D02*
X121146667Y-86559366D01*
X121146667Y-86559366D02*
X121113333Y-86592700D01*
X121113333Y-86592700D02*
X121080000Y-86659366D01*
X121080000Y-86659366D02*
X121080000Y-86826033D01*
X121080000Y-86826033D02*
X121113333Y-86892700D01*
X121113333Y-86892700D02*
X121146667Y-86926033D01*
X121146667Y-86926033D02*
X121213333Y-86959366D01*
X121213333Y-86959366D02*
X121346667Y-86959366D01*
X121346667Y-86959366D02*
X121413333Y-86926033D01*
X121413333Y-86926033D02*
X121446667Y-86892700D01*
X121446667Y-86892700D02*
X121480000Y-86826033D01*
X126413333Y-75556033D02*
X126180000Y-75222700D01*
X126013333Y-75556033D02*
X126013333Y-74856033D01*
X126013333Y-74856033D02*
X126280000Y-74856033D01*
X126280000Y-74856033D02*
X126346667Y-74889366D01*
X126346667Y-74889366D02*
X126380000Y-74922700D01*
X126380000Y-74922700D02*
X126413333Y-74989366D01*
X126413333Y-74989366D02*
X126413333Y-75089366D01*
X126413333Y-75089366D02*
X126380000Y-75156033D01*
X126380000Y-75156033D02*
X126346667Y-75189366D01*
X126346667Y-75189366D02*
X126280000Y-75222700D01*
X126280000Y-75222700D02*
X126013333Y-75222700D01*
X126646667Y-74856033D02*
X127080000Y-74856033D01*
X127080000Y-74856033D02*
X126846667Y-75122700D01*
X126846667Y-75122700D02*
X126946667Y-75122700D01*
X126946667Y-75122700D02*
X127013333Y-75156033D01*
X127013333Y-75156033D02*
X127046667Y-75189366D01*
X127046667Y-75189366D02*
X127080000Y-75256033D01*
X127080000Y-75256033D02*
X127080000Y-75422700D01*
X127080000Y-75422700D02*
X127046667Y-75489366D01*
X127046667Y-75489366D02*
X127013333Y-75522700D01*
X127013333Y-75522700D02*
X126946667Y-75556033D01*
X126946667Y-75556033D02*
X126746667Y-75556033D01*
X126746667Y-75556033D02*
X126680000Y-75522700D01*
X126680000Y-75522700D02*
X126646667Y-75489366D01*
X153663333Y-53539366D02*
X153630000Y-53572700D01*
X153630000Y-53572700D02*
X153530000Y-53606033D01*
X153530000Y-53606033D02*
X153463333Y-53606033D01*
X153463333Y-53606033D02*
X153363333Y-53572700D01*
X153363333Y-53572700D02*
X153296667Y-53506033D01*
X153296667Y-53506033D02*
X153263333Y-53439366D01*
X153263333Y-53439366D02*
X153230000Y-53306033D01*
X153230000Y-53306033D02*
X153230000Y-53206033D01*
X153230000Y-53206033D02*
X153263333Y-53072700D01*
X153263333Y-53072700D02*
X153296667Y-53006033D01*
X153296667Y-53006033D02*
X153363333Y-52939366D01*
X153363333Y-52939366D02*
X153463333Y-52906033D01*
X153463333Y-52906033D02*
X153530000Y-52906033D01*
X153530000Y-52906033D02*
X153630000Y-52939366D01*
X153630000Y-52939366D02*
X153663333Y-52972700D01*
X153896667Y-52906033D02*
X154330000Y-52906033D01*
X154330000Y-52906033D02*
X154096667Y-53172700D01*
X154096667Y-53172700D02*
X154196667Y-53172700D01*
X154196667Y-53172700D02*
X154263333Y-53206033D01*
X154263333Y-53206033D02*
X154296667Y-53239366D01*
X154296667Y-53239366D02*
X154330000Y-53306033D01*
X154330000Y-53306033D02*
X154330000Y-53472700D01*
X154330000Y-53472700D02*
X154296667Y-53539366D01*
X154296667Y-53539366D02*
X154263333Y-53572700D01*
X154263333Y-53572700D02*
X154196667Y-53606033D01*
X154196667Y-53606033D02*
X153996667Y-53606033D01*
X153996667Y-53606033D02*
X153930000Y-53572700D01*
X153930000Y-53572700D02*
X153896667Y-53539366D01*
X140352700Y-81466666D02*
X140319366Y-81533333D01*
X140319366Y-81533333D02*
X140252700Y-81600000D01*
X140252700Y-81600000D02*
X140152700Y-81700000D01*
X140152700Y-81700000D02*
X140119366Y-81766666D01*
X140119366Y-81766666D02*
X140119366Y-81833333D01*
X140286033Y-81800000D02*
X140252700Y-81866666D01*
X140252700Y-81866666D02*
X140186033Y-81933333D01*
X140186033Y-81933333D02*
X140052700Y-81966666D01*
X140052700Y-81966666D02*
X139819366Y-81966666D01*
X139819366Y-81966666D02*
X139686033Y-81933333D01*
X139686033Y-81933333D02*
X139619366Y-81866666D01*
X139619366Y-81866666D02*
X139586033Y-81800000D01*
X139586033Y-81800000D02*
X139586033Y-81666666D01*
X139586033Y-81666666D02*
X139619366Y-81600000D01*
X139619366Y-81600000D02*
X139686033Y-81533333D01*
X139686033Y-81533333D02*
X139819366Y-81500000D01*
X139819366Y-81500000D02*
X140052700Y-81500000D01*
X140052700Y-81500000D02*
X140186033Y-81533333D01*
X140186033Y-81533333D02*
X140252700Y-81600000D01*
X140252700Y-81600000D02*
X140286033Y-81666666D01*
X140286033Y-81666666D02*
X140286033Y-81800000D01*
X140286033Y-80833333D02*
X140286033Y-81233333D01*
X140286033Y-81033333D02*
X139586033Y-81033333D01*
X139586033Y-81033333D02*
X139686033Y-81100000D01*
X139686033Y-81100000D02*
X139752700Y-81166667D01*
X139752700Y-81166667D02*
X139786033Y-81233333D01*
X165099366Y-81454165D02*
X165132700Y-81487498D01*
X165132700Y-81487498D02*
X165166033Y-81587498D01*
X165166033Y-81587498D02*
X165166033Y-81654165D01*
X165166033Y-81654165D02*
X165132700Y-81754165D01*
X165132700Y-81754165D02*
X165066033Y-81820832D01*
X165066033Y-81820832D02*
X164999366Y-81854165D01*
X164999366Y-81854165D02*
X164866033Y-81887498D01*
X164866033Y-81887498D02*
X164766033Y-81887498D01*
X164766033Y-81887498D02*
X164632700Y-81854165D01*
X164632700Y-81854165D02*
X164566033Y-81820832D01*
X164566033Y-81820832D02*
X164499366Y-81754165D01*
X164499366Y-81754165D02*
X164466033Y-81654165D01*
X164466033Y-81654165D02*
X164466033Y-81587498D01*
X164466033Y-81587498D02*
X164499366Y-81487498D01*
X164499366Y-81487498D02*
X164532700Y-81454165D01*
X165166033Y-80787498D02*
X165166033Y-81187498D01*
X165166033Y-80987498D02*
X164466033Y-80987498D01*
X164466033Y-80987498D02*
X164566033Y-81054165D01*
X164566033Y-81054165D02*
X164632700Y-81120832D01*
X164632700Y-81120832D02*
X164666033Y-81187498D01*
X125763333Y-87256033D02*
X125530000Y-86922700D01*
X125363333Y-87256033D02*
X125363333Y-86556033D01*
X125363333Y-86556033D02*
X125630000Y-86556033D01*
X125630000Y-86556033D02*
X125696667Y-86589366D01*
X125696667Y-86589366D02*
X125730000Y-86622700D01*
X125730000Y-86622700D02*
X125763333Y-86689366D01*
X125763333Y-86689366D02*
X125763333Y-86789366D01*
X125763333Y-86789366D02*
X125730000Y-86856033D01*
X125730000Y-86856033D02*
X125696667Y-86889366D01*
X125696667Y-86889366D02*
X125630000Y-86922700D01*
X125630000Y-86922700D02*
X125363333Y-86922700D01*
X126163333Y-86856033D02*
X126096667Y-86822700D01*
X126096667Y-86822700D02*
X126063333Y-86789366D01*
X126063333Y-86789366D02*
X126030000Y-86722700D01*
X126030000Y-86722700D02*
X126030000Y-86689366D01*
X126030000Y-86689366D02*
X126063333Y-86622700D01*
X126063333Y-86622700D02*
X126096667Y-86589366D01*
X126096667Y-86589366D02*
X126163333Y-86556033D01*
X126163333Y-86556033D02*
X126296667Y-86556033D01*
X126296667Y-86556033D02*
X126363333Y-86589366D01*
X126363333Y-86589366D02*
X126396667Y-86622700D01*
X126396667Y-86622700D02*
X126430000Y-86689366D01*
X126430000Y-86689366D02*
X126430000Y-86722700D01*
X126430000Y-86722700D02*
X126396667Y-86789366D01*
X126396667Y-86789366D02*
X126363333Y-86822700D01*
X126363333Y-86822700D02*
X126296667Y-86856033D01*
X126296667Y-86856033D02*
X126163333Y-86856033D01*
X126163333Y-86856033D02*
X126096667Y-86889366D01*
X126096667Y-86889366D02*
X126063333Y-86922700D01*
X126063333Y-86922700D02*
X126030000Y-86989366D01*
X126030000Y-86989366D02*
X126030000Y-87122700D01*
X126030000Y-87122700D02*
X126063333Y-87189366D01*
X126063333Y-87189366D02*
X126096667Y-87222700D01*
X126096667Y-87222700D02*
X126163333Y-87256033D01*
X126163333Y-87256033D02*
X126296667Y-87256033D01*
X126296667Y-87256033D02*
X126363333Y-87222700D01*
X126363333Y-87222700D02*
X126396667Y-87189366D01*
X126396667Y-87189366D02*
X126430000Y-87122700D01*
X126430000Y-87122700D02*
X126430000Y-86989366D01*
X126430000Y-86989366D02*
X126396667Y-86922700D01*
X126396667Y-86922700D02*
X126363333Y-86889366D01*
X126363333Y-86889366D02*
X126296667Y-86856033D01*
X127526033Y-56536666D02*
X127192700Y-56769999D01*
X127526033Y-56936666D02*
X126826033Y-56936666D01*
X126826033Y-56936666D02*
X126826033Y-56669999D01*
X126826033Y-56669999D02*
X126859366Y-56603333D01*
X126859366Y-56603333D02*
X126892700Y-56569999D01*
X126892700Y-56569999D02*
X126959366Y-56536666D01*
X126959366Y-56536666D02*
X127059366Y-56536666D01*
X127059366Y-56536666D02*
X127126033Y-56569999D01*
X127126033Y-56569999D02*
X127159366Y-56603333D01*
X127159366Y-56603333D02*
X127192700Y-56669999D01*
X127192700Y-56669999D02*
X127192700Y-56936666D01*
X126826033Y-55903333D02*
X126826033Y-56236666D01*
X126826033Y-56236666D02*
X127159366Y-56269999D01*
X127159366Y-56269999D02*
X127126033Y-56236666D01*
X127126033Y-56236666D02*
X127092700Y-56169999D01*
X127092700Y-56169999D02*
X127092700Y-56003333D01*
X127092700Y-56003333D02*
X127126033Y-55936666D01*
X127126033Y-55936666D02*
X127159366Y-55903333D01*
X127159366Y-55903333D02*
X127226033Y-55869999D01*
X127226033Y-55869999D02*
X127392700Y-55869999D01*
X127392700Y-55869999D02*
X127459366Y-55903333D01*
X127459366Y-55903333D02*
X127492700Y-55936666D01*
X127492700Y-55936666D02*
X127526033Y-56003333D01*
X127526033Y-56003333D02*
X127526033Y-56169999D01*
X127526033Y-56169999D02*
X127492700Y-56236666D01*
X127492700Y-56236666D02*
X127459366Y-56269999D01*
G36*
X127892777Y-46530930D02*
G01*
X126141044Y-46530930D01*
X126141044Y-46330187D01*
X126252155Y-46330187D01*
X126252155Y-46359451D01*
X126263354Y-46386487D01*
X126284046Y-46407179D01*
X126311082Y-46418378D01*
X126325714Y-46419819D01*
X126420952Y-46419819D01*
X126428357Y-46419089D01*
X126430332Y-46419230D01*
X126432929Y-46418639D01*
X126435584Y-46418378D01*
X126437415Y-46417619D01*
X126444669Y-46415970D01*
X126587526Y-46368351D01*
X126600951Y-46362357D01*
X126602986Y-46360591D01*
X126605477Y-46359560D01*
X126616842Y-46350233D01*
X126636888Y-46330187D01*
X127014060Y-46330187D01*
X127014060Y-46359451D01*
X127025259Y-46386487D01*
X127045951Y-46407179D01*
X127072987Y-46418378D01*
X127087619Y-46419819D01*
X127706666Y-46419819D01*
X127721298Y-46418378D01*
X127748334Y-46407179D01*
X127769026Y-46386487D01*
X127780225Y-46359451D01*
X127780225Y-46330187D01*
X127769026Y-46303151D01*
X127748334Y-46282459D01*
X127721298Y-46271260D01*
X127706666Y-46269819D01*
X127268685Y-46269819D01*
X127712080Y-45826423D01*
X127721408Y-45815058D01*
X127722439Y-45812567D01*
X127724204Y-45810533D01*
X127730198Y-45797107D01*
X127777817Y-45654251D01*
X127779466Y-45646995D01*
X127780225Y-45645165D01*
X127780486Y-45642511D01*
X127781077Y-45639914D01*
X127780936Y-45637939D01*
X127781666Y-45630533D01*
X127781666Y-45535295D01*
X127780225Y-45520663D01*
X127779194Y-45518174D01*
X127779003Y-45515485D01*
X127773748Y-45501754D01*
X127726129Y-45406516D01*
X127722164Y-45400216D01*
X127721407Y-45398389D01*
X127719718Y-45396332D01*
X127718297Y-45394073D01*
X127716798Y-45392773D01*
X127712080Y-45387024D01*
X127664461Y-45339405D01*
X127658711Y-45334686D01*
X127657412Y-45333188D01*
X127655152Y-45331766D01*
X127653096Y-45330078D01*
X127651268Y-45329320D01*
X127644969Y-45325356D01*
X127549731Y-45277737D01*
X127535999Y-45272482D01*
X127533311Y-45272291D01*
X127530822Y-45271260D01*
X127516190Y-45269819D01*
X127278095Y-45269819D01*
X127263463Y-45271260D01*
X127260974Y-45272290D01*
X127258285Y-45272482D01*
X127244554Y-45277737D01*
X127149316Y-45325356D01*
X127143016Y-45329320D01*
X127141189Y-45330078D01*
X127139132Y-45331766D01*
X127136873Y-45333188D01*
X127135573Y-45334686D01*
X127129824Y-45339405D01*
X127082205Y-45387024D01*
X127072878Y-45398389D01*
X127061679Y-45425426D01*
X127061679Y-45454688D01*
X127072878Y-45481725D01*
X127093570Y-45502417D01*
X127120607Y-45513616D01*
X127149869Y-45513616D01*
X127176906Y-45502417D01*
X127188271Y-45493090D01*
X127227284Y-45454077D01*
X127295800Y-45419819D01*
X127498485Y-45419819D01*
X127567001Y-45454077D01*
X127597408Y-45484484D01*
X127631666Y-45553000D01*
X127631666Y-45618363D01*
X127593494Y-45732876D01*
X127034586Y-46291786D01*
X127025259Y-46303151D01*
X127014060Y-46330187D01*
X126636888Y-46330187D01*
X126712081Y-46254993D01*
X126721408Y-46243628D01*
X126722438Y-46241139D01*
X126724204Y-46239104D01*
X126730198Y-46225678D01*
X126777817Y-46082822D01*
X126779466Y-46075566D01*
X126780225Y-46073736D01*
X126780486Y-46071082D01*
X126781077Y-46068485D01*
X126780936Y-46066510D01*
X126781666Y-46059104D01*
X126781666Y-45344819D01*
X126780225Y-45330187D01*
X126769026Y-45303151D01*
X126748334Y-45282459D01*
X126721298Y-45271260D01*
X126692034Y-45271260D01*
X126664998Y-45282459D01*
X126644306Y-45303151D01*
X126633107Y-45330187D01*
X126631666Y-45344819D01*
X126631666Y-46046934D01*
X126593494Y-46161447D01*
X126523295Y-46231647D01*
X126408782Y-46269819D01*
X126325714Y-46269819D01*
X126311082Y-46271260D01*
X126284046Y-46282459D01*
X126263354Y-46303151D01*
X126252155Y-46330187D01*
X126141044Y-46330187D01*
X126141044Y-45158708D01*
X127892777Y-45158708D01*
X127892777Y-46530930D01*
G37*
X140019999Y-68716033D02*
X139786666Y-68382700D01*
X139619999Y-68716033D02*
X139619999Y-68016033D01*
X139619999Y-68016033D02*
X139886666Y-68016033D01*
X139886666Y-68016033D02*
X139953333Y-68049366D01*
X139953333Y-68049366D02*
X139986666Y-68082700D01*
X139986666Y-68082700D02*
X140019999Y-68149366D01*
X140019999Y-68149366D02*
X140019999Y-68249366D01*
X140019999Y-68249366D02*
X139986666Y-68316033D01*
X139986666Y-68316033D02*
X139953333Y-68349366D01*
X139953333Y-68349366D02*
X139886666Y-68382700D01*
X139886666Y-68382700D02*
X139619999Y-68382700D01*
X140686666Y-68716033D02*
X140286666Y-68716033D01*
X140486666Y-68716033D02*
X140486666Y-68016033D01*
X140486666Y-68016033D02*
X140419999Y-68116033D01*
X140419999Y-68116033D02*
X140353333Y-68182700D01*
X140353333Y-68182700D02*
X140286666Y-68216033D01*
X140953333Y-68082700D02*
X140986666Y-68049366D01*
X140986666Y-68049366D02*
X141053333Y-68016033D01*
X141053333Y-68016033D02*
X141220000Y-68016033D01*
X141220000Y-68016033D02*
X141286666Y-68049366D01*
X141286666Y-68049366D02*
X141320000Y-68082700D01*
X141320000Y-68082700D02*
X141353333Y-68149366D01*
X141353333Y-68149366D02*
X141353333Y-68216033D01*
X141353333Y-68216033D02*
X141320000Y-68316033D01*
X141320000Y-68316033D02*
X140920000Y-68716033D01*
X140920000Y-68716033D02*
X141353333Y-68716033D01*
X144059999Y-79038533D02*
X143826666Y-78705200D01*
X143659999Y-79038533D02*
X143659999Y-78338533D01*
X143659999Y-78338533D02*
X143926666Y-78338533D01*
X143926666Y-78338533D02*
X143993333Y-78371866D01*
X143993333Y-78371866D02*
X144026666Y-78405200D01*
X144026666Y-78405200D02*
X144059999Y-78471866D01*
X144059999Y-78471866D02*
X144059999Y-78571866D01*
X144059999Y-78571866D02*
X144026666Y-78638533D01*
X144026666Y-78638533D02*
X143993333Y-78671866D01*
X143993333Y-78671866D02*
X143926666Y-78705200D01*
X143926666Y-78705200D02*
X143659999Y-78705200D01*
X144726666Y-79038533D02*
X144326666Y-79038533D01*
X144526666Y-79038533D02*
X144526666Y-78338533D01*
X144526666Y-78338533D02*
X144459999Y-78438533D01*
X144459999Y-78438533D02*
X144393333Y-78505200D01*
X144393333Y-78505200D02*
X144326666Y-78538533D01*
X145160000Y-78338533D02*
X145226666Y-78338533D01*
X145226666Y-78338533D02*
X145293333Y-78371866D01*
X145293333Y-78371866D02*
X145326666Y-78405200D01*
X145326666Y-78405200D02*
X145360000Y-78471866D01*
X145360000Y-78471866D02*
X145393333Y-78605200D01*
X145393333Y-78605200D02*
X145393333Y-78771866D01*
X145393333Y-78771866D02*
X145360000Y-78905200D01*
X145360000Y-78905200D02*
X145326666Y-78971866D01*
X145326666Y-78971866D02*
X145293333Y-79005200D01*
X145293333Y-79005200D02*
X145226666Y-79038533D01*
X145226666Y-79038533D02*
X145160000Y-79038533D01*
X145160000Y-79038533D02*
X145093333Y-79005200D01*
X145093333Y-79005200D02*
X145060000Y-78971866D01*
X145060000Y-78971866D02*
X145026666Y-78905200D01*
X145026666Y-78905200D02*
X144993333Y-78771866D01*
X144993333Y-78771866D02*
X144993333Y-78605200D01*
X144993333Y-78605200D02*
X145026666Y-78471866D01*
X145026666Y-78471866D02*
X145060000Y-78405200D01*
X145060000Y-78405200D02*
X145093333Y-78371866D01*
X145093333Y-78371866D02*
X145160000Y-78338533D01*
X133341666Y-53791033D02*
X133341666Y-54357700D01*
X133341666Y-54357700D02*
X133375000Y-54424366D01*
X133375000Y-54424366D02*
X133408333Y-54457700D01*
X133408333Y-54457700D02*
X133475000Y-54491033D01*
X133475000Y-54491033D02*
X133608333Y-54491033D01*
X133608333Y-54491033D02*
X133675000Y-54457700D01*
X133675000Y-54457700D02*
X133708333Y-54424366D01*
X133708333Y-54424366D02*
X133741666Y-54357700D01*
X133741666Y-54357700D02*
X133741666Y-53791033D01*
X134374999Y-54024366D02*
X134374999Y-54491033D01*
X134208333Y-53757700D02*
X134041666Y-54257700D01*
X134041666Y-54257700D02*
X134474999Y-54257700D01*
X143746033Y-68146666D02*
X143412700Y-68379999D01*
X143746033Y-68546666D02*
X143046033Y-68546666D01*
X143046033Y-68546666D02*
X143046033Y-68279999D01*
X143046033Y-68279999D02*
X143079366Y-68213333D01*
X143079366Y-68213333D02*
X143112700Y-68179999D01*
X143112700Y-68179999D02*
X143179366Y-68146666D01*
X143179366Y-68146666D02*
X143279366Y-68146666D01*
X143279366Y-68146666D02*
X143346033Y-68179999D01*
X143346033Y-68179999D02*
X143379366Y-68213333D01*
X143379366Y-68213333D02*
X143412700Y-68279999D01*
X143412700Y-68279999D02*
X143412700Y-68546666D01*
X143046033Y-67546666D02*
X143046033Y-67679999D01*
X143046033Y-67679999D02*
X143079366Y-67746666D01*
X143079366Y-67746666D02*
X143112700Y-67779999D01*
X143112700Y-67779999D02*
X143212700Y-67846666D01*
X143212700Y-67846666D02*
X143346033Y-67879999D01*
X143346033Y-67879999D02*
X143612700Y-67879999D01*
X143612700Y-67879999D02*
X143679366Y-67846666D01*
X143679366Y-67846666D02*
X143712700Y-67813333D01*
X143712700Y-67813333D02*
X143746033Y-67746666D01*
X143746033Y-67746666D02*
X143746033Y-67613333D01*
X143746033Y-67613333D02*
X143712700Y-67546666D01*
X143712700Y-67546666D02*
X143679366Y-67513333D01*
X143679366Y-67513333D02*
X143612700Y-67479999D01*
X143612700Y-67479999D02*
X143446033Y-67479999D01*
X143446033Y-67479999D02*
X143379366Y-67513333D01*
X143379366Y-67513333D02*
X143346033Y-67546666D01*
X143346033Y-67546666D02*
X143312700Y-67613333D01*
X143312700Y-67613333D02*
X143312700Y-67746666D01*
X143312700Y-67746666D02*
X143346033Y-67813333D01*
X143346033Y-67813333D02*
X143379366Y-67846666D01*
X143379366Y-67846666D02*
X143446033Y-67879999D01*
X140833333Y-85146033D02*
X140600000Y-84812700D01*
X140433333Y-85146033D02*
X140433333Y-84446033D01*
X140433333Y-84446033D02*
X140700000Y-84446033D01*
X140700000Y-84446033D02*
X140766667Y-84479366D01*
X140766667Y-84479366D02*
X140800000Y-84512700D01*
X140800000Y-84512700D02*
X140833333Y-84579366D01*
X140833333Y-84579366D02*
X140833333Y-84679366D01*
X140833333Y-84679366D02*
X140800000Y-84746033D01*
X140800000Y-84746033D02*
X140766667Y-84779366D01*
X140766667Y-84779366D02*
X140700000Y-84812700D01*
X140700000Y-84812700D02*
X140433333Y-84812700D01*
X141066667Y-84446033D02*
X141533333Y-84446033D01*
X141533333Y-84446033D02*
X141233333Y-85146033D01*
X138779366Y-75996666D02*
X138812700Y-76029999D01*
X138812700Y-76029999D02*
X138846033Y-76129999D01*
X138846033Y-76129999D02*
X138846033Y-76196666D01*
X138846033Y-76196666D02*
X138812700Y-76296666D01*
X138812700Y-76296666D02*
X138746033Y-76363333D01*
X138746033Y-76363333D02*
X138679366Y-76396666D01*
X138679366Y-76396666D02*
X138546033Y-76429999D01*
X138546033Y-76429999D02*
X138446033Y-76429999D01*
X138446033Y-76429999D02*
X138312700Y-76396666D01*
X138312700Y-76396666D02*
X138246033Y-76363333D01*
X138246033Y-76363333D02*
X138179366Y-76296666D01*
X138179366Y-76296666D02*
X138146033Y-76196666D01*
X138146033Y-76196666D02*
X138146033Y-76129999D01*
X138146033Y-76129999D02*
X138179366Y-76029999D01*
X138179366Y-76029999D02*
X138212700Y-75996666D01*
X138212700Y-75729999D02*
X138179366Y-75696666D01*
X138179366Y-75696666D02*
X138146033Y-75629999D01*
X138146033Y-75629999D02*
X138146033Y-75463333D01*
X138146033Y-75463333D02*
X138179366Y-75396666D01*
X138179366Y-75396666D02*
X138212700Y-75363333D01*
X138212700Y-75363333D02*
X138279366Y-75329999D01*
X138279366Y-75329999D02*
X138346033Y-75329999D01*
X138346033Y-75329999D02*
X138446033Y-75363333D01*
X138446033Y-75363333D02*
X138846033Y-75763333D01*
X138846033Y-75763333D02*
X138846033Y-75329999D01*
X143586033Y-76200000D02*
X143252700Y-76433333D01*
X143586033Y-76600000D02*
X142886033Y-76600000D01*
X142886033Y-76600000D02*
X142886033Y-76333333D01*
X142886033Y-76333333D02*
X142919366Y-76266667D01*
X142919366Y-76266667D02*
X142952700Y-76233333D01*
X142952700Y-76233333D02*
X143019366Y-76200000D01*
X143019366Y-76200000D02*
X143119366Y-76200000D01*
X143119366Y-76200000D02*
X143186033Y-76233333D01*
X143186033Y-76233333D02*
X143219366Y-76266667D01*
X143219366Y-76266667D02*
X143252700Y-76333333D01*
X143252700Y-76333333D02*
X143252700Y-76600000D01*
X143586033Y-75533333D02*
X143586033Y-75933333D01*
X143586033Y-75733333D02*
X142886033Y-75733333D01*
X142886033Y-75733333D02*
X142986033Y-75800000D01*
X142986033Y-75800000D02*
X143052700Y-75866667D01*
X143052700Y-75866667D02*
X143086033Y-75933333D01*
X143586033Y-74866666D02*
X143586033Y-75266666D01*
X143586033Y-75066666D02*
X142886033Y-75066666D01*
X142886033Y-75066666D02*
X142986033Y-75133333D01*
X142986033Y-75133333D02*
X143052700Y-75200000D01*
X143052700Y-75200000D02*
X143086033Y-75266666D01*
X140296033Y-77721667D02*
X139962700Y-77955000D01*
X140296033Y-78121667D02*
X139596033Y-78121667D01*
X139596033Y-78121667D02*
X139596033Y-77855000D01*
X139596033Y-77855000D02*
X139629366Y-77788334D01*
X139629366Y-77788334D02*
X139662700Y-77755000D01*
X139662700Y-77755000D02*
X139729366Y-77721667D01*
X139729366Y-77721667D02*
X139829366Y-77721667D01*
X139829366Y-77721667D02*
X139896033Y-77755000D01*
X139896033Y-77755000D02*
X139929366Y-77788334D01*
X139929366Y-77788334D02*
X139962700Y-77855000D01*
X139962700Y-77855000D02*
X139962700Y-78121667D01*
X139662700Y-77455000D02*
X139629366Y-77421667D01*
X139629366Y-77421667D02*
X139596033Y-77355000D01*
X139596033Y-77355000D02*
X139596033Y-77188334D01*
X139596033Y-77188334D02*
X139629366Y-77121667D01*
X139629366Y-77121667D02*
X139662700Y-77088334D01*
X139662700Y-77088334D02*
X139729366Y-77055000D01*
X139729366Y-77055000D02*
X139796033Y-77055000D01*
X139796033Y-77055000D02*
X139896033Y-77088334D01*
X139896033Y-77088334D02*
X140296033Y-77488334D01*
X140296033Y-77488334D02*
X140296033Y-77055000D01*
D13*
%TO.C,Q2*%
X141630000Y-72142500D02*
X141630000Y-71492500D01*
X141630000Y-72142500D02*
X141630000Y-72792500D01*
X144750000Y-72142500D02*
X144750000Y-71492500D01*
X144750000Y-72142500D02*
X144750000Y-72792500D01*
X141680000Y-73305000D02*
X141350000Y-73545000D01*
X141350000Y-73065000D01*
X141680000Y-73305000D01*
G36*
X141680000Y-73305000D02*
G01*
X141350000Y-73545000D01*
X141350000Y-73065000D01*
X141680000Y-73305000D01*
G37*
%TO.C,R1*%
X130244724Y-71437500D02*
X129735276Y-71437500D01*
X130244724Y-72482500D02*
X129735276Y-72482500D01*
%TO.C,U2*%
X130315000Y-72910000D02*
X130315000Y-73170000D01*
X130315000Y-78360000D02*
X130315000Y-78100000D01*
X133040000Y-72910000D02*
X130315000Y-72910000D01*
X133040000Y-72910000D02*
X135765000Y-72910000D01*
X133040000Y-78360000D02*
X130315000Y-78360000D01*
X133040000Y-78360000D02*
X135765000Y-78360000D01*
X135765000Y-72910000D02*
X135765000Y-73170000D01*
X135765000Y-78360000D02*
X135765000Y-78100000D01*
X129532500Y-73170000D02*
X129292500Y-72840000D01*
X129772500Y-72840000D01*
X129532500Y-73170000D01*
G36*
X129532500Y-73170000D02*
G01*
X129292500Y-72840000D01*
X129772500Y-72840000D01*
X129532500Y-73170000D01*
G37*
D14*
%TO.C,J1*%
X116711100Y-51490300D02*
X116711100Y-83722900D01*
X116711100Y-83722900D02*
X124508900Y-83722900D01*
X124508900Y-51490300D02*
X116711100Y-51490300D01*
X124508900Y-83722900D02*
X124508900Y-51490300D01*
D15*
X120249099Y-84357900D02*
G75*
G02*
X119487099Y-84357900I-381000J0D01*
G01*
X119487099Y-84357900D02*
G75*
G02*
X120249099Y-84357900I381000J0D01*
G01*
D13*
%TO.C,DS2*%
X125420000Y-53125000D02*
X125420000Y-54595000D01*
X125420000Y-54595000D02*
X127880000Y-54595000D01*
X127880000Y-53125000D02*
X125420000Y-53125000D01*
%TO.C,C4*%
X134031267Y-60535000D02*
X133738733Y-60535000D01*
X134031267Y-61555000D02*
X133738733Y-61555000D01*
%TO.C,DS1*%
X125730000Y-82495000D02*
X128190000Y-82495000D01*
X128190000Y-81025000D02*
X125730000Y-81025000D01*
X128190000Y-82495000D02*
X128190000Y-81025000D01*
%TO.C,R14*%
X128042500Y-59639724D02*
X128042500Y-59130276D01*
X129087500Y-59639724D02*
X129087500Y-59130276D01*
%TO.C,U1*%
X147760000Y-58150000D02*
X147760000Y-56200000D01*
X147760000Y-58150000D02*
X147760000Y-60100000D01*
X152880000Y-58150000D02*
X152880000Y-56200000D01*
X152880000Y-58150000D02*
X152880000Y-60100000D01*
X147855000Y-60850000D02*
X147525000Y-61090000D01*
X147525000Y-60610000D01*
X147855000Y-60850000D01*
G36*
X147855000Y-60850000D02*
G01*
X147525000Y-61090000D01*
X147525000Y-60610000D01*
X147855000Y-60850000D01*
G37*
%TO.C,R13*%
X139507500Y-72344724D02*
X139507500Y-71835276D01*
X140552500Y-72344724D02*
X140552500Y-71835276D01*
%TO.C,R4*%
X129715276Y-81207500D02*
X130224724Y-81207500D01*
X129715276Y-82252500D02*
X130224724Y-82252500D01*
%TO.C,C6*%
X123801233Y-49010000D02*
X124093767Y-49010000D01*
X123801233Y-50030000D02*
X124093767Y-50030000D01*
%TO.C,U3*%
X155210000Y-58190000D02*
X155210000Y-56240000D01*
X155210000Y-58190000D02*
X155210000Y-60140000D01*
X160330000Y-58190000D02*
X160330000Y-56240000D01*
X160330000Y-58190000D02*
X160330000Y-60140000D01*
X155305000Y-60890000D02*
X154975000Y-61130000D01*
X154975000Y-60650000D01*
X155305000Y-60890000D01*
G36*
X155305000Y-60890000D02*
G01*
X154975000Y-61130000D01*
X154975000Y-60650000D01*
X155305000Y-60890000D01*
G37*
%TO.C,C5*%
X145970000Y-56526267D02*
X145970000Y-56233733D01*
X146990000Y-56526267D02*
X146990000Y-56233733D01*
%TO.C,R9*%
X121687064Y-84410000D02*
X120232936Y-84410000D01*
X121687064Y-86230000D02*
X120232936Y-86230000D01*
%TO.C,R3*%
X126275276Y-75777500D02*
X126784724Y-75777500D01*
X126275276Y-76822500D02*
X126784724Y-76822500D01*
%TO.C,C3*%
X153430000Y-55676267D02*
X153430000Y-55383733D01*
X154450000Y-55676267D02*
X154450000Y-55383733D01*
%TO.C,Q1*%
X140510000Y-81407500D02*
X140510000Y-80757500D01*
X140510000Y-81407500D02*
X140510000Y-82057500D01*
X143630000Y-81407500D02*
X143630000Y-80757500D01*
X143630000Y-81407500D02*
X143630000Y-82057500D01*
X143910000Y-80485000D02*
X143580000Y-80245000D01*
X143910000Y-80005000D01*
X143910000Y-80485000D01*
G36*
X143910000Y-80485000D02*
G01*
X143580000Y-80245000D01*
X143910000Y-80005000D01*
X143910000Y-80485000D01*
G37*
%TO.C,C1*%
X164340000Y-83543733D02*
X164340000Y-83836267D01*
X165360000Y-83543733D02*
X165360000Y-83836267D01*
%TO.C,R8*%
X126647064Y-84350000D02*
X125192936Y-84350000D01*
X126647064Y-86170000D02*
X125192936Y-86170000D01*
%TO.C,R5*%
X125577500Y-56105276D02*
X125577500Y-56614724D01*
X126622500Y-56105276D02*
X126622500Y-56614724D01*
%TO.C,J2*%
X128140001Y-44600000D02*
X128140001Y-47200000D01*
X128140001Y-44600000D02*
X133090001Y-44600000D01*
X141540001Y-44600000D02*
X136590001Y-44600000D01*
X141540001Y-44600000D02*
X141540001Y-47200000D01*
X141540001Y-50600000D02*
X128140001Y-50600000D01*
%TO.C,R12*%
X140764724Y-68897500D02*
X140255276Y-68897500D01*
X140764724Y-69942500D02*
X140255276Y-69942500D01*
%TO.C,R10*%
X142414724Y-78167500D02*
X141905276Y-78167500D01*
X142414724Y-79212500D02*
X141905276Y-79212500D01*
%TO.C,U4*%
X133855000Y-54855000D02*
X131905000Y-54855000D01*
X133855000Y-54855000D02*
X135805000Y-54855000D01*
X133855000Y-59975000D02*
X131905000Y-59975000D01*
X133855000Y-59975000D02*
X135805000Y-59975000D01*
X136795000Y-60210000D02*
X136315000Y-60210000D01*
X136555000Y-59880000D01*
X136795000Y-60210000D01*
G36*
X136795000Y-60210000D02*
G01*
X136315000Y-60210000D01*
X136555000Y-59880000D01*
X136795000Y-60210000D01*
G37*
%TO.C,R6*%
X143947500Y-67715276D02*
X143947500Y-68224724D01*
X144992500Y-67715276D02*
X144992500Y-68224724D01*
%TO.C,R7*%
X142835276Y-84147500D02*
X143344724Y-84147500D01*
X142835276Y-85192500D02*
X143344724Y-85192500D01*
%TO.C,C2*%
X138000000Y-73986267D02*
X138000000Y-73693733D01*
X139020000Y-73986267D02*
X139020000Y-73693733D01*
%TO.C,R11*%
X141687500Y-75525276D02*
X141687500Y-76034724D01*
X142732500Y-75525276D02*
X142732500Y-76034724D01*
%TO.C,R2*%
X139457500Y-75245276D02*
X139457500Y-75754724D01*
X140502500Y-75245276D02*
X140502500Y-75754724D01*
%TD*%
M02*
