M48
; DRILL file {KiCad 8.0.5} date 2025-04-23T17:08:00-0500
; FORMAT={-:-/ absolute / metric / decimal}
; #@! TF.CreationDate,2025-04-23T17:08:00-05:00
; #@! TF.GenerationSoftware,Kicad,Pcbnew,8.0.5
; #@! TF.FileFunction,Plated,1,2,PTH
FMAT,2
METRIC
; #@! TA.AperFunction,Plated,PTH,ViaDrill
T1C0.300
; #@! TA.AperFunction,Plated,PTH,ViaDrill
T2C0.400
; #@! TA.AperFunction,Plated,PTH,ComponentDrill
T3C0.900
; #@! TA.AperFunction,Plated,PTH,ComponentDrill
T4C1.194
; #@! TA.AperFunction,Plated,PTH,ComponentDrill
T5C1.270
; #@! TA.AperFunction,Plated,PTH,ComponentDrill
T6C1.300
%
G90
G05
T1
X118.03Y-65.12
X118.25Y-63.84
X123.19Y-48.89
X126.9Y-56.77
X128.49Y-77.57
X129.02Y-59.84
X130.41Y-77.56
X130.52Y-60.15
X131.26Y-72.59
X135.19Y-55.54
X135.21Y-56.8
X135.21Y-58.05
X138.81Y-75.42
X139.538Y-71.899
X140.71Y-80.43
X141.44Y-78.0
X143.36Y-84.65
X144.66Y-73.118
X150.93Y-61.74
T2
X120.0Y-45.0
X120.0Y-50.0
X124.83Y-76.37
X125.0Y-45.0
X130.0Y-85.0
X130.88Y-82.5
X135.0Y-80.0
X135.0Y-85.0
X136.015Y-61.005
X138.145Y-59.305
X139.6Y-68.63
X140.0Y-85.0
X142.9Y-76.703
X145.0Y-45.0
X145.0Y-50.0
X145.8Y-57.24
X150.0Y-45.0
X150.0Y-50.0
X150.0Y-65.0
X150.0Y-70.0
X150.0Y-75.0
X150.0Y-80.0
X150.0Y-85.0
X152.17Y-54.67
X153.14Y-55.79
X154.09Y-57.89
X155.0Y-45.0
X155.0Y-50.0
X155.0Y-65.0
X155.0Y-70.0
X155.0Y-75.0
X155.0Y-80.0
X155.0Y-85.0
X157.443Y-59.383
X159.69Y-56.87
X160.0Y-45.0
X160.0Y-50.0
X165.0Y-50.0
X165.0Y-55.0
X165.0Y-60.0
X165.0Y-65.0
X165.0Y-70.0
X165.0Y-75.0
X165.0Y-80.0
T3
X131.34Y-49.5
X133.84Y-49.5
X135.84Y-49.5
X138.34Y-49.5
T4
X119.868Y-53.737
X119.868Y-56.277
X119.868Y-58.817
X119.868Y-61.357
X119.868Y-63.897
X119.868Y-66.437
X119.868Y-68.977
X119.868Y-71.517
X119.868Y-74.057
X119.868Y-76.597
X119.868Y-79.137
X119.868Y-81.677
X122.408Y-53.737
X122.408Y-56.277
X122.408Y-58.817
X122.408Y-61.357
X122.408Y-63.897
X122.408Y-66.437
X122.408Y-68.977
X122.408Y-71.517
X122.408Y-74.057
X122.408Y-76.597
X122.408Y-79.137
X122.408Y-81.677
T5
X147.06Y-67.03
X147.06Y-69.57
X147.06Y-72.11
X147.06Y-74.65
X147.06Y-77.19
X147.06Y-79.73
X147.06Y-82.27
X147.06Y-84.81
X162.3Y-67.03
X162.3Y-69.57
X162.3Y-72.11
X162.3Y-74.65
X162.3Y-77.19
X162.3Y-79.73
X162.3Y-82.27
X162.3Y-84.81
T6
G00X128.27Y-49.4
M15
G01X128.27Y-48.4
M16
G05
G00X134.34Y-44.72
M15
G01X135.34Y-44.72
M16
G05
G00X141.41Y-48.4
M15
G01X141.41Y-49.4
M16
G05
M30
