%TF.GenerationSoftware,KiCad,Pcbnew,8.0.9-8.0.9-0~ubuntu22.04.1*%
%TF.CreationDate,2025-05-19T16:46:45-05:00*%
%TF.ProjectId,test_board,74657374-5f62-46f6-9172-642e6b696361,rev?*%
%TF.SameCoordinates,Original*%
%TF.FileFunction,Paste,Top*%
%TF.FilePolarity,Positive*%
%FSLAX46Y46*%
G04 Gerber Fmt 4.6, Leading zero omitted, Abs format (unit mm)*
G04 Created by KiCad (PCBNEW 8.0.9-8.0.9-0~ubuntu22.04.1) date 2025-05-19 16:46:45*
%MOMM*%
%LPD*%
G01*
G04 APERTURE LIST*
G04 Aperture macros list*
%AMRoundRect*
0 Rectangle with rounded corners*
0 $1 Rounding radius*
0 $2 $3 $4 $5 $6 $7 $8 $9 X,Y pos of 4 corners*
0 Add a 4 corners polygon primitive as box body*
4,1,4,$2,$3,$4,$5,$6,$7,$8,$9,$2,$3,0*
0 Add four circle primitives for the rounded corners*
1,1,$1+$1,$2,$3*
1,1,$1+$1,$4,$5*
1,1,$1+$1,$6,$7*
1,1,$1+$1,$8,$9*
0 Add four rect primitives between the rounded corners*
20,1,$1+$1,$2,$3,$4,$5,0*
20,1,$1+$1,$4,$5,$6,$7,0*
20,1,$1+$1,$6,$7,$8,$9,0*
20,1,$1+$1,$8,$9,$2,$3,0*%
G04 Aperture macros list end*
%ADD10RoundRect,0.150000X0.150000X-0.587500X0.150000X0.587500X-0.150000X0.587500X-0.150000X-0.587500X0*%
%ADD11RoundRect,0.237500X0.250000X0.237500X-0.250000X0.237500X-0.250000X-0.237500X0.250000X-0.237500X0*%
%ADD12RoundRect,0.150000X-0.650000X-0.150000X0.650000X-0.150000X0.650000X0.150000X-0.650000X0.150000X0*%
%ADD13RoundRect,0.237500X-0.287500X-0.237500X0.287500X-0.237500X0.287500X0.237500X-0.287500X0.237500X0*%
%ADD14RoundRect,0.237500X0.300000X0.237500X-0.300000X0.237500X-0.300000X-0.237500X0.300000X-0.237500X0*%
%ADD15RoundRect,0.237500X0.287500X0.237500X-0.287500X0.237500X-0.287500X-0.237500X0.287500X-0.237500X0*%
%ADD16RoundRect,0.237500X0.237500X-0.250000X0.237500X0.250000X-0.237500X0.250000X-0.237500X-0.250000X0*%
%ADD17RoundRect,0.150000X0.150000X-0.825000X0.150000X0.825000X-0.150000X0.825000X-0.150000X-0.825000X0*%
%ADD18RoundRect,0.237500X-0.250000X-0.237500X0.250000X-0.237500X0.250000X0.237500X-0.250000X0.237500X0*%
%ADD19RoundRect,0.237500X-0.300000X-0.237500X0.300000X-0.237500X0.300000X0.237500X-0.300000X0.237500X0*%
%ADD20RoundRect,0.237500X0.237500X-0.300000X0.237500X0.300000X-0.237500X0.300000X-0.237500X-0.300000X0*%
%ADD21RoundRect,0.250000X0.312500X0.625000X-0.312500X0.625000X-0.312500X-0.625000X0.312500X-0.625000X0*%
%ADD22RoundRect,0.150000X-0.150000X0.587500X-0.150000X-0.587500X0.150000X-0.587500X0.150000X0.587500X0*%
%ADD23RoundRect,0.237500X-0.237500X0.300000X-0.237500X-0.300000X0.237500X-0.300000X0.237500X0.300000X0*%
%ADD24RoundRect,0.237500X-0.237500X0.250000X-0.237500X-0.250000X0.237500X-0.250000X0.237500X0.250000X0*%
%ADD25RoundRect,0.150000X0.825000X0.150000X-0.825000X0.150000X-0.825000X-0.150000X0.825000X-0.150000X0*%
G04 APERTURE END LIST*
D10*
%TO.C,Q2*%
X142240000Y-73080000D03*
X144140000Y-73080000D03*
X143190000Y-71205000D03*
%TD*%
D11*
%TO.C,R1*%
X130902500Y-71960000D03*
X129077500Y-71960000D03*
%TD*%
D12*
%TO.C,U2*%
X129440000Y-73730000D03*
X129440000Y-75000000D03*
X129440000Y-76270000D03*
X129440000Y-77540000D03*
X136640000Y-77540000D03*
X136640000Y-76270000D03*
X136640000Y-75000000D03*
X136640000Y-73730000D03*
%TD*%
D13*
%TO.C,DS2*%
X126205000Y-53860000D03*
X127955000Y-53860000D03*
%TD*%
D14*
%TO.C,C4*%
X134747500Y-61045000D03*
X133022500Y-61045000D03*
%TD*%
D15*
%TO.C,DS1*%
X127405000Y-81760000D03*
X125655000Y-81760000D03*
%TD*%
D16*
%TO.C,R14*%
X128565000Y-60297500D03*
X128565000Y-58472500D03*
%TD*%
D17*
%TO.C,U1*%
X148415000Y-60625000D03*
X149685000Y-60625000D03*
X150955000Y-60625000D03*
X152225000Y-60625000D03*
X152225000Y-55675000D03*
X150955000Y-55675000D03*
X149685000Y-55675000D03*
X148415000Y-55675000D03*
%TD*%
D16*
%TO.C,R13*%
X140030000Y-73002500D03*
X140030000Y-71177500D03*
%TD*%
D18*
%TO.C,R4*%
X129057500Y-81730000D03*
X130882500Y-81730000D03*
%TD*%
D19*
%TO.C,C6*%
X123085000Y-49520000D03*
X124810000Y-49520000D03*
%TD*%
D17*
%TO.C,U3*%
X155865000Y-60665000D03*
X157135000Y-60665000D03*
X158405000Y-60665000D03*
X159675000Y-60665000D03*
X159675000Y-55715000D03*
X158405000Y-55715000D03*
X157135000Y-55715000D03*
X155865000Y-55715000D03*
%TD*%
D20*
%TO.C,C5*%
X146480000Y-57242500D03*
X146480000Y-55517500D03*
%TD*%
D21*
%TO.C,R9*%
X124972500Y-85920000D03*
X122047500Y-85920000D03*
%TD*%
D18*
%TO.C,R3*%
X125617500Y-76300000D03*
X127442500Y-76300000D03*
%TD*%
D20*
%TO.C,C3*%
X153940000Y-56392500D03*
X153940000Y-54667500D03*
%TD*%
D22*
%TO.C,Q1*%
X143020000Y-80470000D03*
X141120000Y-80470000D03*
X142070000Y-82345000D03*
%TD*%
D23*
%TO.C,C1*%
X164850000Y-82827499D03*
X164850000Y-84552501D03*
%TD*%
D21*
%TO.C,R8*%
X129952500Y-85920000D03*
X127027500Y-85920000D03*
%TD*%
D24*
%TO.C,R5*%
X126100000Y-55447500D03*
X126100000Y-57272500D03*
%TD*%
D11*
%TO.C,R12*%
X141422500Y-69420000D03*
X139597500Y-69420000D03*
%TD*%
%TO.C,R10*%
X143072500Y-78690000D03*
X141247500Y-78690000D03*
%TD*%
D25*
%TO.C,U4*%
X136330000Y-59320000D03*
X136330000Y-58050000D03*
X136330000Y-56780000D03*
X136330000Y-55510000D03*
X131380000Y-55510000D03*
X131380000Y-56780000D03*
X131380000Y-58050000D03*
X131380000Y-59320000D03*
%TD*%
D24*
%TO.C,R6*%
X144470000Y-67057500D03*
X144470000Y-68882500D03*
%TD*%
D18*
%TO.C,R7*%
X142177500Y-84670000D03*
X144002500Y-84670000D03*
%TD*%
D20*
%TO.C,C2*%
X138510000Y-74702500D03*
X138510000Y-72977500D03*
%TD*%
D24*
%TO.C,R11*%
X142210000Y-74867500D03*
X142210000Y-76692500D03*
%TD*%
%TO.C,R2*%
X139980000Y-74587500D03*
X139980000Y-76412500D03*
%TD*%
M02*
