M48
; DRILL file {KiCad 8.0.9-8.0.9-0~ubuntu22.04.1} date 2025-04-19T21:52:55-0500
; FORMAT={-:-/ absolute / inch / decimal}
; #@! TF.CreationDate,2025-04-19T21:52:55-05:00
; #@! TF.GenerationSoftware,Kicad,Pcbnew,8.0.9-8.0.9-0~ubuntu22.04.1
; #@! TF.FileFunction,Plated,1,2,PTH
FMAT,2
INCH
; #@! TA.AperFunction,Plated,PTH,ViaDrill
T1C0.0157
; #@! TA.AperFunction,Plated,PTH,ComponentDrill
T2C0.0354
; #@! TA.AperFunction,Plated,PTH,ComponentDrill
T3C0.0470
; #@! TA.AperFunction,Plated,PTH,ComponentDrill
T4C0.0500
; #@! TA.AperFunction,Plated,PTH,ComponentDrill
T5C0.0512
%
G90
G05
T1
X4.7402Y-2.0551
X4.7598Y-1.8335
X4.9583Y-3.0102
X4.9583Y-3.1854
X5.0594Y-2.8219
X5.0598Y-2.9715
X5.1256Y-2.5791
X5.1516Y-3.0571
X5.1638Y-3.2207
X5.2364Y-2.3276
X5.2366Y-2.5791
X5.2394Y-2.7801
X5.335Y-2.6882
X5.3354Y-2.8291
X5.4189Y-2.3
X5.5028Y-2.2331
X5.6508Y-2.6614
X5.6516Y-2.4642
X5.7441Y-3.0295
X5.8484Y-2.2567
X5.8492Y-2.4016
X5.9528Y-2.9417
X6.1614Y-2.2047
T2
X6.289Y-1.8437
X6.3874Y-1.8437
X6.4661Y-1.8437
X6.5646Y-1.8437
T3
X4.7192Y-2.1156
X4.7192Y-2.2156
X4.7192Y-2.3156
X4.7192Y-2.4156
X4.7192Y-2.5156
X4.7192Y-2.6156
X4.7192Y-2.7156
X4.7192Y-2.8156
X4.7192Y-2.9156
X4.7192Y-3.0156
X4.7192Y-3.1156
X4.7192Y-3.2156
X4.8192Y-2.1156
X4.8192Y-2.2156
X4.8192Y-2.3156
X4.8192Y-2.4156
X4.8192Y-2.5156
X4.8192Y-2.6156
X4.8192Y-2.7156
X4.8192Y-2.8156
X4.8192Y-2.9156
X4.8192Y-3.0156
X4.8192Y-3.1156
X4.8192Y-3.2156
T4
X6.063Y-2.6339
X6.063Y-2.7339
X6.063Y-2.8339
X6.063Y-2.9339
X6.063Y-3.0339
X6.063Y-3.1339
X6.063Y-3.2339
X6.063Y-3.3339
X6.663Y-2.6339
X6.663Y-2.7339
X6.663Y-2.8339
X6.663Y-2.9339
X6.663Y-3.0339
X6.663Y-3.1339
X6.663Y-3.2339
X6.663Y-3.3339
T5
G00X6.1681Y-1.887
M15
G01X6.1681Y-1.8476
M16
G05
G00X6.4465Y-2.0319
M15
G01X6.4071Y-2.0319
M16
G05
G00X6.6854Y-1.8476
M15
G01X6.6854Y-1.887
M16
G05
M30
