%TF.GenerationSoftware,KiCad,Pcbnew,8.0.9-8.0.9-0~ubuntu22.04.1*%
%TF.CreationDate,2025-04-19T21:52:58-05:00*%
%TF.ProjectId,test_board,74657374-5f62-46f6-9172-642e6b696361,rev?*%
%TF.SameCoordinates,Original*%
%TF.FileFunction,Legend,Top*%
%TF.FilePolarity,Positive*%
%FSLAX46Y46*%
G04 Gerber Fmt 4.6, Leading zero omitted, Abs format (unit mm)*
G04 Created by KiCad (PCBNEW 8.0.9-8.0.9-0~ubuntu22.04.1) date 2025-04-19 21:52:58*
%MOMM*%
%LPD*%
G01*
G04 APERTURE LIST*
%ADD10C,0.200000*%
%ADD11C,0.150000*%
%ADD12C,0.120000*%
%ADD13C,0.508000*%
%ADD14C,0.152400*%
G04 APERTURE END LIST*
D10*
X129092054Y-50401504D02*
X129568244Y-50401504D01*
X128996816Y-50687219D02*
X129330149Y-49687219D01*
X129330149Y-49687219D02*
X129663482Y-50687219D01*
X125722054Y-80411504D02*
X126198244Y-80411504D01*
X125626816Y-80697219D02*
X125960149Y-79697219D01*
X125960149Y-79697219D02*
X126293482Y-80697219D01*
D11*
X148830057Y-72795238D02*
X148782438Y-72890476D01*
X148782438Y-72890476D02*
X148687200Y-72985714D01*
X148687200Y-72985714D02*
X148544342Y-73128571D01*
X148544342Y-73128571D02*
X148496723Y-73223809D01*
X148496723Y-73223809D02*
X148496723Y-73319047D01*
X148734819Y-73271428D02*
X148687200Y-73366666D01*
X148687200Y-73366666D02*
X148591961Y-73461904D01*
X148591961Y-73461904D02*
X148401485Y-73509523D01*
X148401485Y-73509523D02*
X148068152Y-73509523D01*
X148068152Y-73509523D02*
X147877676Y-73461904D01*
X147877676Y-73461904D02*
X147782438Y-73366666D01*
X147782438Y-73366666D02*
X147734819Y-73271428D01*
X147734819Y-73271428D02*
X147734819Y-73080952D01*
X147734819Y-73080952D02*
X147782438Y-72985714D01*
X147782438Y-72985714D02*
X147877676Y-72890476D01*
X147877676Y-72890476D02*
X148068152Y-72842857D01*
X148068152Y-72842857D02*
X148401485Y-72842857D01*
X148401485Y-72842857D02*
X148591961Y-72890476D01*
X148591961Y-72890476D02*
X148687200Y-72985714D01*
X148687200Y-72985714D02*
X148734819Y-73080952D01*
X148734819Y-73080952D02*
X148734819Y-73271428D01*
X147830057Y-72461904D02*
X147782438Y-72414285D01*
X147782438Y-72414285D02*
X147734819Y-72319047D01*
X147734819Y-72319047D02*
X147734819Y-72080952D01*
X147734819Y-72080952D02*
X147782438Y-71985714D01*
X147782438Y-71985714D02*
X147830057Y-71938095D01*
X147830057Y-71938095D02*
X147925295Y-71890476D01*
X147925295Y-71890476D02*
X148020533Y-71890476D01*
X148020533Y-71890476D02*
X148163390Y-71938095D01*
X148163390Y-71938095D02*
X148734819Y-72509523D01*
X148734819Y-72509523D02*
X148734819Y-71890476D01*
X128924819Y-72646666D02*
X128448628Y-72979999D01*
X128924819Y-73218094D02*
X127924819Y-73218094D01*
X127924819Y-73218094D02*
X127924819Y-72837142D01*
X127924819Y-72837142D02*
X127972438Y-72741904D01*
X127972438Y-72741904D02*
X128020057Y-72694285D01*
X128020057Y-72694285D02*
X128115295Y-72646666D01*
X128115295Y-72646666D02*
X128258152Y-72646666D01*
X128258152Y-72646666D02*
X128353390Y-72694285D01*
X128353390Y-72694285D02*
X128401009Y-72741904D01*
X128401009Y-72741904D02*
X128448628Y-72837142D01*
X128448628Y-72837142D02*
X128448628Y-73218094D01*
X128924819Y-71694285D02*
X128924819Y-72265713D01*
X128924819Y-71979999D02*
X127924819Y-71979999D01*
X127924819Y-71979999D02*
X128067676Y-72075237D01*
X128067676Y-72075237D02*
X128162914Y-72170475D01*
X128162914Y-72170475D02*
X128210533Y-72265713D01*
X134938095Y-71259818D02*
X134938095Y-72069341D01*
X134938095Y-72069341D02*
X134985714Y-72164579D01*
X134985714Y-72164579D02*
X135033333Y-72212199D01*
X135033333Y-72212199D02*
X135128571Y-72259818D01*
X135128571Y-72259818D02*
X135319047Y-72259818D01*
X135319047Y-72259818D02*
X135414285Y-72212199D01*
X135414285Y-72212199D02*
X135461904Y-72164579D01*
X135461904Y-72164579D02*
X135509523Y-72069341D01*
X135509523Y-72069341D02*
X135509523Y-71259818D01*
X135938095Y-71355056D02*
X135985714Y-71307437D01*
X135985714Y-71307437D02*
X136080952Y-71259818D01*
X136080952Y-71259818D02*
X136319047Y-71259818D01*
X136319047Y-71259818D02*
X136414285Y-71307437D01*
X136414285Y-71307437D02*
X136461904Y-71355056D01*
X136461904Y-71355056D02*
X136509523Y-71450294D01*
X136509523Y-71450294D02*
X136509523Y-71545532D01*
X136509523Y-71545532D02*
X136461904Y-71688389D01*
X136461904Y-71688389D02*
X135890476Y-72259818D01*
X135890476Y-72259818D02*
X136509523Y-72259818D01*
X115434819Y-82133333D02*
X116149104Y-82133333D01*
X116149104Y-82133333D02*
X116291961Y-82180952D01*
X116291961Y-82180952D02*
X116387200Y-82276190D01*
X116387200Y-82276190D02*
X116434819Y-82419047D01*
X116434819Y-82419047D02*
X116434819Y-82514285D01*
X116434819Y-81133333D02*
X116434819Y-81704761D01*
X116434819Y-81419047D02*
X115434819Y-81419047D01*
X115434819Y-81419047D02*
X115577676Y-81514285D01*
X115577676Y-81514285D02*
X115672914Y-81609523D01*
X115672914Y-81609523D02*
X115720533Y-81704761D01*
X125875714Y-49414819D02*
X125875714Y-48414819D01*
X125875714Y-48414819D02*
X126113809Y-48414819D01*
X126113809Y-48414819D02*
X126256666Y-48462438D01*
X126256666Y-48462438D02*
X126351904Y-48557676D01*
X126351904Y-48557676D02*
X126399523Y-48652914D01*
X126399523Y-48652914D02*
X126447142Y-48843390D01*
X126447142Y-48843390D02*
X126447142Y-48986247D01*
X126447142Y-48986247D02*
X126399523Y-49176723D01*
X126399523Y-49176723D02*
X126351904Y-49271961D01*
X126351904Y-49271961D02*
X126256666Y-49367200D01*
X126256666Y-49367200D02*
X126113809Y-49414819D01*
X126113809Y-49414819D02*
X125875714Y-49414819D01*
X126828095Y-49367200D02*
X126970952Y-49414819D01*
X126970952Y-49414819D02*
X127209047Y-49414819D01*
X127209047Y-49414819D02*
X127304285Y-49367200D01*
X127304285Y-49367200D02*
X127351904Y-49319580D01*
X127351904Y-49319580D02*
X127399523Y-49224342D01*
X127399523Y-49224342D02*
X127399523Y-49129104D01*
X127399523Y-49129104D02*
X127351904Y-49033866D01*
X127351904Y-49033866D02*
X127304285Y-48986247D01*
X127304285Y-48986247D02*
X127209047Y-48938628D01*
X127209047Y-48938628D02*
X127018571Y-48891009D01*
X127018571Y-48891009D02*
X126923333Y-48843390D01*
X126923333Y-48843390D02*
X126875714Y-48795771D01*
X126875714Y-48795771D02*
X126828095Y-48700533D01*
X126828095Y-48700533D02*
X126828095Y-48605295D01*
X126828095Y-48605295D02*
X126875714Y-48510057D01*
X126875714Y-48510057D02*
X126923333Y-48462438D01*
X126923333Y-48462438D02*
X127018571Y-48414819D01*
X127018571Y-48414819D02*
X127256666Y-48414819D01*
X127256666Y-48414819D02*
X127399523Y-48462438D01*
X127780476Y-48510057D02*
X127828095Y-48462438D01*
X127828095Y-48462438D02*
X127923333Y-48414819D01*
X127923333Y-48414819D02*
X128161428Y-48414819D01*
X128161428Y-48414819D02*
X128256666Y-48462438D01*
X128256666Y-48462438D02*
X128304285Y-48510057D01*
X128304285Y-48510057D02*
X128351904Y-48605295D01*
X128351904Y-48605295D02*
X128351904Y-48700533D01*
X128351904Y-48700533D02*
X128304285Y-48843390D01*
X128304285Y-48843390D02*
X127732857Y-49414819D01*
X127732857Y-49414819D02*
X128351904Y-49414819D01*
X135443333Y-60289580D02*
X135395714Y-60337200D01*
X135395714Y-60337200D02*
X135252857Y-60384819D01*
X135252857Y-60384819D02*
X135157619Y-60384819D01*
X135157619Y-60384819D02*
X135014762Y-60337200D01*
X135014762Y-60337200D02*
X134919524Y-60241961D01*
X134919524Y-60241961D02*
X134871905Y-60146723D01*
X134871905Y-60146723D02*
X134824286Y-59956247D01*
X134824286Y-59956247D02*
X134824286Y-59813390D01*
X134824286Y-59813390D02*
X134871905Y-59622914D01*
X134871905Y-59622914D02*
X134919524Y-59527676D01*
X134919524Y-59527676D02*
X135014762Y-59432438D01*
X135014762Y-59432438D02*
X135157619Y-59384819D01*
X135157619Y-59384819D02*
X135252857Y-59384819D01*
X135252857Y-59384819D02*
X135395714Y-59432438D01*
X135395714Y-59432438D02*
X135443333Y-59480057D01*
X136300476Y-59718152D02*
X136300476Y-60384819D01*
X136062381Y-59337200D02*
X135824286Y-60051485D01*
X135824286Y-60051485D02*
X136443333Y-60051485D01*
X125725714Y-83844819D02*
X125725714Y-82844819D01*
X125725714Y-82844819D02*
X125963809Y-82844819D01*
X125963809Y-82844819D02*
X126106666Y-82892438D01*
X126106666Y-82892438D02*
X126201904Y-82987676D01*
X126201904Y-82987676D02*
X126249523Y-83082914D01*
X126249523Y-83082914D02*
X126297142Y-83273390D01*
X126297142Y-83273390D02*
X126297142Y-83416247D01*
X126297142Y-83416247D02*
X126249523Y-83606723D01*
X126249523Y-83606723D02*
X126201904Y-83701961D01*
X126201904Y-83701961D02*
X126106666Y-83797200D01*
X126106666Y-83797200D02*
X125963809Y-83844819D01*
X125963809Y-83844819D02*
X125725714Y-83844819D01*
X126678095Y-83797200D02*
X126820952Y-83844819D01*
X126820952Y-83844819D02*
X127059047Y-83844819D01*
X127059047Y-83844819D02*
X127154285Y-83797200D01*
X127154285Y-83797200D02*
X127201904Y-83749580D01*
X127201904Y-83749580D02*
X127249523Y-83654342D01*
X127249523Y-83654342D02*
X127249523Y-83559104D01*
X127249523Y-83559104D02*
X127201904Y-83463866D01*
X127201904Y-83463866D02*
X127154285Y-83416247D01*
X127154285Y-83416247D02*
X127059047Y-83368628D01*
X127059047Y-83368628D02*
X126868571Y-83321009D01*
X126868571Y-83321009D02*
X126773333Y-83273390D01*
X126773333Y-83273390D02*
X126725714Y-83225771D01*
X126725714Y-83225771D02*
X126678095Y-83130533D01*
X126678095Y-83130533D02*
X126678095Y-83035295D01*
X126678095Y-83035295D02*
X126725714Y-82940057D01*
X126725714Y-82940057D02*
X126773333Y-82892438D01*
X126773333Y-82892438D02*
X126868571Y-82844819D01*
X126868571Y-82844819D02*
X127106666Y-82844819D01*
X127106666Y-82844819D02*
X127249523Y-82892438D01*
X128201904Y-83844819D02*
X127630476Y-83844819D01*
X127916190Y-83844819D02*
X127916190Y-82844819D01*
X127916190Y-82844819D02*
X127820952Y-82987676D01*
X127820952Y-82987676D02*
X127725714Y-83082914D01*
X127725714Y-83082914D02*
X127630476Y-83130533D01*
X129214819Y-57442857D02*
X128738628Y-57776190D01*
X129214819Y-58014285D02*
X128214819Y-58014285D01*
X128214819Y-58014285D02*
X128214819Y-57633333D01*
X128214819Y-57633333D02*
X128262438Y-57538095D01*
X128262438Y-57538095D02*
X128310057Y-57490476D01*
X128310057Y-57490476D02*
X128405295Y-57442857D01*
X128405295Y-57442857D02*
X128548152Y-57442857D01*
X128548152Y-57442857D02*
X128643390Y-57490476D01*
X128643390Y-57490476D02*
X128691009Y-57538095D01*
X128691009Y-57538095D02*
X128738628Y-57633333D01*
X128738628Y-57633333D02*
X128738628Y-58014285D01*
X129214819Y-56490476D02*
X129214819Y-57061904D01*
X129214819Y-56776190D02*
X128214819Y-56776190D01*
X128214819Y-56776190D02*
X128357676Y-56871428D01*
X128357676Y-56871428D02*
X128452914Y-56966666D01*
X128452914Y-56966666D02*
X128500533Y-57061904D01*
X128548152Y-55633333D02*
X129214819Y-55633333D01*
X128167200Y-55871428D02*
X128881485Y-56109523D01*
X128881485Y-56109523D02*
X128881485Y-55490476D01*
X149248095Y-60554819D02*
X149248095Y-61364342D01*
X149248095Y-61364342D02*
X149295714Y-61459580D01*
X149295714Y-61459580D02*
X149343333Y-61507200D01*
X149343333Y-61507200D02*
X149438571Y-61554819D01*
X149438571Y-61554819D02*
X149629047Y-61554819D01*
X149629047Y-61554819D02*
X149724285Y-61507200D01*
X149724285Y-61507200D02*
X149771904Y-61459580D01*
X149771904Y-61459580D02*
X149819523Y-61364342D01*
X149819523Y-61364342D02*
X149819523Y-60554819D01*
X150819523Y-61554819D02*
X150248095Y-61554819D01*
X150533809Y-61554819D02*
X150533809Y-60554819D01*
X150533809Y-60554819D02*
X150438571Y-60697676D01*
X150438571Y-60697676D02*
X150343333Y-60792914D01*
X150343333Y-60792914D02*
X150248095Y-60840533D01*
X141754819Y-71992857D02*
X141278628Y-72326190D01*
X141754819Y-72564285D02*
X140754819Y-72564285D01*
X140754819Y-72564285D02*
X140754819Y-72183333D01*
X140754819Y-72183333D02*
X140802438Y-72088095D01*
X140802438Y-72088095D02*
X140850057Y-72040476D01*
X140850057Y-72040476D02*
X140945295Y-71992857D01*
X140945295Y-71992857D02*
X141088152Y-71992857D01*
X141088152Y-71992857D02*
X141183390Y-72040476D01*
X141183390Y-72040476D02*
X141231009Y-72088095D01*
X141231009Y-72088095D02*
X141278628Y-72183333D01*
X141278628Y-72183333D02*
X141278628Y-72564285D01*
X141754819Y-71040476D02*
X141754819Y-71611904D01*
X141754819Y-71326190D02*
X140754819Y-71326190D01*
X140754819Y-71326190D02*
X140897676Y-71421428D01*
X140897676Y-71421428D02*
X140992914Y-71516666D01*
X140992914Y-71516666D02*
X141040533Y-71611904D01*
X140754819Y-70707142D02*
X140754819Y-70088095D01*
X140754819Y-70088095D02*
X141135771Y-70421428D01*
X141135771Y-70421428D02*
X141135771Y-70278571D01*
X141135771Y-70278571D02*
X141183390Y-70183333D01*
X141183390Y-70183333D02*
X141231009Y-70135714D01*
X141231009Y-70135714D02*
X141326247Y-70088095D01*
X141326247Y-70088095D02*
X141564342Y-70088095D01*
X141564342Y-70088095D02*
X141659580Y-70135714D01*
X141659580Y-70135714D02*
X141707200Y-70183333D01*
X141707200Y-70183333D02*
X141754819Y-70278571D01*
X141754819Y-70278571D02*
X141754819Y-70564285D01*
X141754819Y-70564285D02*
X141707200Y-70659523D01*
X141707200Y-70659523D02*
X141659580Y-70707142D01*
X130283333Y-82474819D02*
X129950000Y-81998628D01*
X129711905Y-82474819D02*
X129711905Y-81474819D01*
X129711905Y-81474819D02*
X130092857Y-81474819D01*
X130092857Y-81474819D02*
X130188095Y-81522438D01*
X130188095Y-81522438D02*
X130235714Y-81570057D01*
X130235714Y-81570057D02*
X130283333Y-81665295D01*
X130283333Y-81665295D02*
X130283333Y-81808152D01*
X130283333Y-81808152D02*
X130235714Y-81903390D01*
X130235714Y-81903390D02*
X130188095Y-81951009D01*
X130188095Y-81951009D02*
X130092857Y-81998628D01*
X130092857Y-81998628D02*
X129711905Y-81998628D01*
X131140476Y-81808152D02*
X131140476Y-82474819D01*
X130902381Y-81427200D02*
X130664286Y-82141485D01*
X130664286Y-82141485D02*
X131283333Y-82141485D01*
X156598095Y-60654819D02*
X156598095Y-61464342D01*
X156598095Y-61464342D02*
X156645714Y-61559580D01*
X156645714Y-61559580D02*
X156693333Y-61607200D01*
X156693333Y-61607200D02*
X156788571Y-61654819D01*
X156788571Y-61654819D02*
X156979047Y-61654819D01*
X156979047Y-61654819D02*
X157074285Y-61607200D01*
X157074285Y-61607200D02*
X157121904Y-61559580D01*
X157121904Y-61559580D02*
X157169523Y-61464342D01*
X157169523Y-61464342D02*
X157169523Y-60654819D01*
X157550476Y-60654819D02*
X158169523Y-60654819D01*
X158169523Y-60654819D02*
X157836190Y-61035771D01*
X157836190Y-61035771D02*
X157979047Y-61035771D01*
X157979047Y-61035771D02*
X158074285Y-61083390D01*
X158074285Y-61083390D02*
X158121904Y-61131009D01*
X158121904Y-61131009D02*
X158169523Y-61226247D01*
X158169523Y-61226247D02*
X158169523Y-61464342D01*
X158169523Y-61464342D02*
X158121904Y-61559580D01*
X158121904Y-61559580D02*
X158074285Y-61607200D01*
X158074285Y-61607200D02*
X157979047Y-61654819D01*
X157979047Y-61654819D02*
X157693333Y-61654819D01*
X157693333Y-61654819D02*
X157598095Y-61607200D01*
X157598095Y-61607200D02*
X157550476Y-61559580D01*
X148699580Y-56546666D02*
X148747200Y-56594285D01*
X148747200Y-56594285D02*
X148794819Y-56737142D01*
X148794819Y-56737142D02*
X148794819Y-56832380D01*
X148794819Y-56832380D02*
X148747200Y-56975237D01*
X148747200Y-56975237D02*
X148651961Y-57070475D01*
X148651961Y-57070475D02*
X148556723Y-57118094D01*
X148556723Y-57118094D02*
X148366247Y-57165713D01*
X148366247Y-57165713D02*
X148223390Y-57165713D01*
X148223390Y-57165713D02*
X148032914Y-57118094D01*
X148032914Y-57118094D02*
X147937676Y-57070475D01*
X147937676Y-57070475D02*
X147842438Y-56975237D01*
X147842438Y-56975237D02*
X147794819Y-56832380D01*
X147794819Y-56832380D02*
X147794819Y-56737142D01*
X147794819Y-56737142D02*
X147842438Y-56594285D01*
X147842438Y-56594285D02*
X147890057Y-56546666D01*
X147794819Y-55641904D02*
X147794819Y-56118094D01*
X147794819Y-56118094D02*
X148271009Y-56165713D01*
X148271009Y-56165713D02*
X148223390Y-56118094D01*
X148223390Y-56118094D02*
X148175771Y-56022856D01*
X148175771Y-56022856D02*
X148175771Y-55784761D01*
X148175771Y-55784761D02*
X148223390Y-55689523D01*
X148223390Y-55689523D02*
X148271009Y-55641904D01*
X148271009Y-55641904D02*
X148366247Y-55594285D01*
X148366247Y-55594285D02*
X148604342Y-55594285D01*
X148604342Y-55594285D02*
X148699580Y-55641904D01*
X148699580Y-55641904D02*
X148747200Y-55689523D01*
X148747200Y-55689523D02*
X148794819Y-55784761D01*
X148794819Y-55784761D02*
X148794819Y-56022856D01*
X148794819Y-56022856D02*
X148747200Y-56118094D01*
X148747200Y-56118094D02*
X148699580Y-56165713D01*
X117333333Y-85914819D02*
X117000000Y-85438628D01*
X116761905Y-85914819D02*
X116761905Y-84914819D01*
X116761905Y-84914819D02*
X117142857Y-84914819D01*
X117142857Y-84914819D02*
X117238095Y-84962438D01*
X117238095Y-84962438D02*
X117285714Y-85010057D01*
X117285714Y-85010057D02*
X117333333Y-85105295D01*
X117333333Y-85105295D02*
X117333333Y-85248152D01*
X117333333Y-85248152D02*
X117285714Y-85343390D01*
X117285714Y-85343390D02*
X117238095Y-85391009D01*
X117238095Y-85391009D02*
X117142857Y-85438628D01*
X117142857Y-85438628D02*
X116761905Y-85438628D01*
X117809524Y-85914819D02*
X118000000Y-85914819D01*
X118000000Y-85914819D02*
X118095238Y-85867200D01*
X118095238Y-85867200D02*
X118142857Y-85819580D01*
X118142857Y-85819580D02*
X118238095Y-85676723D01*
X118238095Y-85676723D02*
X118285714Y-85486247D01*
X118285714Y-85486247D02*
X118285714Y-85105295D01*
X118285714Y-85105295D02*
X118238095Y-85010057D01*
X118238095Y-85010057D02*
X118190476Y-84962438D01*
X118190476Y-84962438D02*
X118095238Y-84914819D01*
X118095238Y-84914819D02*
X117904762Y-84914819D01*
X117904762Y-84914819D02*
X117809524Y-84962438D01*
X117809524Y-84962438D02*
X117761905Y-85010057D01*
X117761905Y-85010057D02*
X117714286Y-85105295D01*
X117714286Y-85105295D02*
X117714286Y-85343390D01*
X117714286Y-85343390D02*
X117761905Y-85438628D01*
X117761905Y-85438628D02*
X117809524Y-85486247D01*
X117809524Y-85486247D02*
X117904762Y-85533866D01*
X117904762Y-85533866D02*
X118095238Y-85533866D01*
X118095238Y-85533866D02*
X118190476Y-85486247D01*
X118190476Y-85486247D02*
X118238095Y-85438628D01*
X118238095Y-85438628D02*
X118285714Y-85343390D01*
X128533333Y-75274819D02*
X128200000Y-74798628D01*
X127961905Y-75274819D02*
X127961905Y-74274819D01*
X127961905Y-74274819D02*
X128342857Y-74274819D01*
X128342857Y-74274819D02*
X128438095Y-74322438D01*
X128438095Y-74322438D02*
X128485714Y-74370057D01*
X128485714Y-74370057D02*
X128533333Y-74465295D01*
X128533333Y-74465295D02*
X128533333Y-74608152D01*
X128533333Y-74608152D02*
X128485714Y-74703390D01*
X128485714Y-74703390D02*
X128438095Y-74751009D01*
X128438095Y-74751009D02*
X128342857Y-74798628D01*
X128342857Y-74798628D02*
X127961905Y-74798628D01*
X128866667Y-74274819D02*
X129485714Y-74274819D01*
X129485714Y-74274819D02*
X129152381Y-74655771D01*
X129152381Y-74655771D02*
X129295238Y-74655771D01*
X129295238Y-74655771D02*
X129390476Y-74703390D01*
X129390476Y-74703390D02*
X129438095Y-74751009D01*
X129438095Y-74751009D02*
X129485714Y-74846247D01*
X129485714Y-74846247D02*
X129485714Y-75084342D01*
X129485714Y-75084342D02*
X129438095Y-75179580D01*
X129438095Y-75179580D02*
X129390476Y-75227200D01*
X129390476Y-75227200D02*
X129295238Y-75274819D01*
X129295238Y-75274819D02*
X129009524Y-75274819D01*
X129009524Y-75274819D02*
X128914286Y-75227200D01*
X128914286Y-75227200D02*
X128866667Y-75179580D01*
X156973333Y-53859580D02*
X156925714Y-53907200D01*
X156925714Y-53907200D02*
X156782857Y-53954819D01*
X156782857Y-53954819D02*
X156687619Y-53954819D01*
X156687619Y-53954819D02*
X156544762Y-53907200D01*
X156544762Y-53907200D02*
X156449524Y-53811961D01*
X156449524Y-53811961D02*
X156401905Y-53716723D01*
X156401905Y-53716723D02*
X156354286Y-53526247D01*
X156354286Y-53526247D02*
X156354286Y-53383390D01*
X156354286Y-53383390D02*
X156401905Y-53192914D01*
X156401905Y-53192914D02*
X156449524Y-53097676D01*
X156449524Y-53097676D02*
X156544762Y-53002438D01*
X156544762Y-53002438D02*
X156687619Y-52954819D01*
X156687619Y-52954819D02*
X156782857Y-52954819D01*
X156782857Y-52954819D02*
X156925714Y-53002438D01*
X156925714Y-53002438D02*
X156973333Y-53050057D01*
X157306667Y-52954819D02*
X157925714Y-52954819D01*
X157925714Y-52954819D02*
X157592381Y-53335771D01*
X157592381Y-53335771D02*
X157735238Y-53335771D01*
X157735238Y-53335771D02*
X157830476Y-53383390D01*
X157830476Y-53383390D02*
X157878095Y-53431009D01*
X157878095Y-53431009D02*
X157925714Y-53526247D01*
X157925714Y-53526247D02*
X157925714Y-53764342D01*
X157925714Y-53764342D02*
X157878095Y-53859580D01*
X157878095Y-53859580D02*
X157830476Y-53907200D01*
X157830476Y-53907200D02*
X157735238Y-53954819D01*
X157735238Y-53954819D02*
X157449524Y-53954819D01*
X157449524Y-53954819D02*
X157354286Y-53907200D01*
X157354286Y-53907200D02*
X157306667Y-53859580D01*
X147734761Y-81210057D02*
X147639523Y-81162438D01*
X147639523Y-81162438D02*
X147544285Y-81067200D01*
X147544285Y-81067200D02*
X147401428Y-80924342D01*
X147401428Y-80924342D02*
X147306190Y-80876723D01*
X147306190Y-80876723D02*
X147210952Y-80876723D01*
X147258571Y-81114819D02*
X147163333Y-81067200D01*
X147163333Y-81067200D02*
X147068095Y-80971961D01*
X147068095Y-80971961D02*
X147020476Y-80781485D01*
X147020476Y-80781485D02*
X147020476Y-80448152D01*
X147020476Y-80448152D02*
X147068095Y-80257676D01*
X147068095Y-80257676D02*
X147163333Y-80162438D01*
X147163333Y-80162438D02*
X147258571Y-80114819D01*
X147258571Y-80114819D02*
X147449047Y-80114819D01*
X147449047Y-80114819D02*
X147544285Y-80162438D01*
X147544285Y-80162438D02*
X147639523Y-80257676D01*
X147639523Y-80257676D02*
X147687142Y-80448152D01*
X147687142Y-80448152D02*
X147687142Y-80781485D01*
X147687142Y-80781485D02*
X147639523Y-80971961D01*
X147639523Y-80971961D02*
X147544285Y-81067200D01*
X147544285Y-81067200D02*
X147449047Y-81114819D01*
X147449047Y-81114819D02*
X147258571Y-81114819D01*
X148639523Y-81114819D02*
X148068095Y-81114819D01*
X148353809Y-81114819D02*
X148353809Y-80114819D01*
X148353809Y-80114819D02*
X148258571Y-80257676D01*
X148258571Y-80257676D02*
X148163333Y-80352914D01*
X148163333Y-80352914D02*
X148068095Y-80400533D01*
X172233333Y-86539580D02*
X172185714Y-86587200D01*
X172185714Y-86587200D02*
X172042857Y-86634819D01*
X172042857Y-86634819D02*
X171947619Y-86634819D01*
X171947619Y-86634819D02*
X171804762Y-86587200D01*
X171804762Y-86587200D02*
X171709524Y-86491961D01*
X171709524Y-86491961D02*
X171661905Y-86396723D01*
X171661905Y-86396723D02*
X171614286Y-86206247D01*
X171614286Y-86206247D02*
X171614286Y-86063390D01*
X171614286Y-86063390D02*
X171661905Y-85872914D01*
X171661905Y-85872914D02*
X171709524Y-85777676D01*
X171709524Y-85777676D02*
X171804762Y-85682438D01*
X171804762Y-85682438D02*
X171947619Y-85634819D01*
X171947619Y-85634819D02*
X172042857Y-85634819D01*
X172042857Y-85634819D02*
X172185714Y-85682438D01*
X172185714Y-85682438D02*
X172233333Y-85730057D01*
X173185714Y-86634819D02*
X172614286Y-86634819D01*
X172900000Y-86634819D02*
X172900000Y-85634819D01*
X172900000Y-85634819D02*
X172804762Y-85777676D01*
X172804762Y-85777676D02*
X172709524Y-85872914D01*
X172709524Y-85872914D02*
X172614286Y-85920533D01*
X129023333Y-85794819D02*
X128690000Y-85318628D01*
X128451905Y-85794819D02*
X128451905Y-84794819D01*
X128451905Y-84794819D02*
X128832857Y-84794819D01*
X128832857Y-84794819D02*
X128928095Y-84842438D01*
X128928095Y-84842438D02*
X128975714Y-84890057D01*
X128975714Y-84890057D02*
X129023333Y-84985295D01*
X129023333Y-84985295D02*
X129023333Y-85128152D01*
X129023333Y-85128152D02*
X128975714Y-85223390D01*
X128975714Y-85223390D02*
X128928095Y-85271009D01*
X128928095Y-85271009D02*
X128832857Y-85318628D01*
X128832857Y-85318628D02*
X128451905Y-85318628D01*
X129594762Y-85223390D02*
X129499524Y-85175771D01*
X129499524Y-85175771D02*
X129451905Y-85128152D01*
X129451905Y-85128152D02*
X129404286Y-85032914D01*
X129404286Y-85032914D02*
X129404286Y-84985295D01*
X129404286Y-84985295D02*
X129451905Y-84890057D01*
X129451905Y-84890057D02*
X129499524Y-84842438D01*
X129499524Y-84842438D02*
X129594762Y-84794819D01*
X129594762Y-84794819D02*
X129785238Y-84794819D01*
X129785238Y-84794819D02*
X129880476Y-84842438D01*
X129880476Y-84842438D02*
X129928095Y-84890057D01*
X129928095Y-84890057D02*
X129975714Y-84985295D01*
X129975714Y-84985295D02*
X129975714Y-85032914D01*
X129975714Y-85032914D02*
X129928095Y-85128152D01*
X129928095Y-85128152D02*
X129880476Y-85175771D01*
X129880476Y-85175771D02*
X129785238Y-85223390D01*
X129785238Y-85223390D02*
X129594762Y-85223390D01*
X129594762Y-85223390D02*
X129499524Y-85271009D01*
X129499524Y-85271009D02*
X129451905Y-85318628D01*
X129451905Y-85318628D02*
X129404286Y-85413866D01*
X129404286Y-85413866D02*
X129404286Y-85604342D01*
X129404286Y-85604342D02*
X129451905Y-85699580D01*
X129451905Y-85699580D02*
X129499524Y-85747200D01*
X129499524Y-85747200D02*
X129594762Y-85794819D01*
X129594762Y-85794819D02*
X129785238Y-85794819D01*
X129785238Y-85794819D02*
X129880476Y-85747200D01*
X129880476Y-85747200D02*
X129928095Y-85699580D01*
X129928095Y-85699580D02*
X129975714Y-85604342D01*
X129975714Y-85604342D02*
X129975714Y-85413866D01*
X129975714Y-85413866D02*
X129928095Y-85318628D01*
X129928095Y-85318628D02*
X129880476Y-85271009D01*
X129880476Y-85271009D02*
X129785238Y-85223390D01*
X123453333Y-49494819D02*
X123120000Y-49018628D01*
X122881905Y-49494819D02*
X122881905Y-48494819D01*
X122881905Y-48494819D02*
X123262857Y-48494819D01*
X123262857Y-48494819D02*
X123358095Y-48542438D01*
X123358095Y-48542438D02*
X123405714Y-48590057D01*
X123405714Y-48590057D02*
X123453333Y-48685295D01*
X123453333Y-48685295D02*
X123453333Y-48828152D01*
X123453333Y-48828152D02*
X123405714Y-48923390D01*
X123405714Y-48923390D02*
X123358095Y-48971009D01*
X123358095Y-48971009D02*
X123262857Y-49018628D01*
X123262857Y-49018628D02*
X122881905Y-49018628D01*
X124358095Y-48494819D02*
X123881905Y-48494819D01*
X123881905Y-48494819D02*
X123834286Y-48971009D01*
X123834286Y-48971009D02*
X123881905Y-48923390D01*
X123881905Y-48923390D02*
X123977143Y-48875771D01*
X123977143Y-48875771D02*
X124215238Y-48875771D01*
X124215238Y-48875771D02*
X124310476Y-48923390D01*
X124310476Y-48923390D02*
X124358095Y-48971009D01*
X124358095Y-48971009D02*
X124405714Y-49066247D01*
X124405714Y-49066247D02*
X124405714Y-49304342D01*
X124405714Y-49304342D02*
X124358095Y-49399580D01*
X124358095Y-49399580D02*
X124310476Y-49447200D01*
X124310476Y-49447200D02*
X124215238Y-49494819D01*
X124215238Y-49494819D02*
X123977143Y-49494819D01*
X123977143Y-49494819D02*
X123881905Y-49447200D01*
X123881905Y-49447200D02*
X123834286Y-49399580D01*
X171886666Y-51724819D02*
X171886666Y-52439104D01*
X171886666Y-52439104D02*
X171839047Y-52581961D01*
X171839047Y-52581961D02*
X171743809Y-52677200D01*
X171743809Y-52677200D02*
X171600952Y-52724819D01*
X171600952Y-52724819D02*
X171505714Y-52724819D01*
X172315238Y-51820057D02*
X172362857Y-51772438D01*
X172362857Y-51772438D02*
X172458095Y-51724819D01*
X172458095Y-51724819D02*
X172696190Y-51724819D01*
X172696190Y-51724819D02*
X172791428Y-51772438D01*
X172791428Y-51772438D02*
X172839047Y-51820057D01*
X172839047Y-51820057D02*
X172886666Y-51915295D01*
X172886666Y-51915295D02*
X172886666Y-52010533D01*
X172886666Y-52010533D02*
X172839047Y-52153390D01*
X172839047Y-52153390D02*
X172267619Y-52724819D01*
X172267619Y-52724819D02*
X172886666Y-52724819D01*
X142757142Y-68364819D02*
X142423809Y-67888628D01*
X142185714Y-68364819D02*
X142185714Y-67364819D01*
X142185714Y-67364819D02*
X142566666Y-67364819D01*
X142566666Y-67364819D02*
X142661904Y-67412438D01*
X142661904Y-67412438D02*
X142709523Y-67460057D01*
X142709523Y-67460057D02*
X142757142Y-67555295D01*
X142757142Y-67555295D02*
X142757142Y-67698152D01*
X142757142Y-67698152D02*
X142709523Y-67793390D01*
X142709523Y-67793390D02*
X142661904Y-67841009D01*
X142661904Y-67841009D02*
X142566666Y-67888628D01*
X142566666Y-67888628D02*
X142185714Y-67888628D01*
X143709523Y-68364819D02*
X143138095Y-68364819D01*
X143423809Y-68364819D02*
X143423809Y-67364819D01*
X143423809Y-67364819D02*
X143328571Y-67507676D01*
X143328571Y-67507676D02*
X143233333Y-67602914D01*
X143233333Y-67602914D02*
X143138095Y-67650533D01*
X144090476Y-67460057D02*
X144138095Y-67412438D01*
X144138095Y-67412438D02*
X144233333Y-67364819D01*
X144233333Y-67364819D02*
X144471428Y-67364819D01*
X144471428Y-67364819D02*
X144566666Y-67412438D01*
X144566666Y-67412438D02*
X144614285Y-67460057D01*
X144614285Y-67460057D02*
X144661904Y-67555295D01*
X144661904Y-67555295D02*
X144661904Y-67650533D01*
X144661904Y-67650533D02*
X144614285Y-67793390D01*
X144614285Y-67793390D02*
X144042857Y-68364819D01*
X144042857Y-68364819D02*
X144661904Y-68364819D01*
X147247142Y-79264819D02*
X146913809Y-78788628D01*
X146675714Y-79264819D02*
X146675714Y-78264819D01*
X146675714Y-78264819D02*
X147056666Y-78264819D01*
X147056666Y-78264819D02*
X147151904Y-78312438D01*
X147151904Y-78312438D02*
X147199523Y-78360057D01*
X147199523Y-78360057D02*
X147247142Y-78455295D01*
X147247142Y-78455295D02*
X147247142Y-78598152D01*
X147247142Y-78598152D02*
X147199523Y-78693390D01*
X147199523Y-78693390D02*
X147151904Y-78741009D01*
X147151904Y-78741009D02*
X147056666Y-78788628D01*
X147056666Y-78788628D02*
X146675714Y-78788628D01*
X148199523Y-79264819D02*
X147628095Y-79264819D01*
X147913809Y-79264819D02*
X147913809Y-78264819D01*
X147913809Y-78264819D02*
X147818571Y-78407676D01*
X147818571Y-78407676D02*
X147723333Y-78502914D01*
X147723333Y-78502914D02*
X147628095Y-78550533D01*
X148818571Y-78264819D02*
X148913809Y-78264819D01*
X148913809Y-78264819D02*
X149009047Y-78312438D01*
X149009047Y-78312438D02*
X149056666Y-78360057D01*
X149056666Y-78360057D02*
X149104285Y-78455295D01*
X149104285Y-78455295D02*
X149151904Y-78645771D01*
X149151904Y-78645771D02*
X149151904Y-78883866D01*
X149151904Y-78883866D02*
X149104285Y-79074342D01*
X149104285Y-79074342D02*
X149056666Y-79169580D01*
X149056666Y-79169580D02*
X149009047Y-79217200D01*
X149009047Y-79217200D02*
X148913809Y-79264819D01*
X148913809Y-79264819D02*
X148818571Y-79264819D01*
X148818571Y-79264819D02*
X148723333Y-79217200D01*
X148723333Y-79217200D02*
X148675714Y-79169580D01*
X148675714Y-79169580D02*
X148628095Y-79074342D01*
X148628095Y-79074342D02*
X148580476Y-78883866D01*
X148580476Y-78883866D02*
X148580476Y-78645771D01*
X148580476Y-78645771D02*
X148628095Y-78455295D01*
X148628095Y-78455295D02*
X148675714Y-78360057D01*
X148675714Y-78360057D02*
X148723333Y-78312438D01*
X148723333Y-78312438D02*
X148818571Y-78264819D01*
X139648095Y-56124819D02*
X139648095Y-56934342D01*
X139648095Y-56934342D02*
X139695714Y-57029580D01*
X139695714Y-57029580D02*
X139743333Y-57077200D01*
X139743333Y-57077200D02*
X139838571Y-57124819D01*
X139838571Y-57124819D02*
X140029047Y-57124819D01*
X140029047Y-57124819D02*
X140124285Y-57077200D01*
X140124285Y-57077200D02*
X140171904Y-57029580D01*
X140171904Y-57029580D02*
X140219523Y-56934342D01*
X140219523Y-56934342D02*
X140219523Y-56124819D01*
X141124285Y-56458152D02*
X141124285Y-57124819D01*
X140886190Y-56077200D02*
X140648095Y-56791485D01*
X140648095Y-56791485D02*
X141267142Y-56791485D01*
X127564819Y-64716666D02*
X127088628Y-65049999D01*
X127564819Y-65288094D02*
X126564819Y-65288094D01*
X126564819Y-65288094D02*
X126564819Y-64907142D01*
X126564819Y-64907142D02*
X126612438Y-64811904D01*
X126612438Y-64811904D02*
X126660057Y-64764285D01*
X126660057Y-64764285D02*
X126755295Y-64716666D01*
X126755295Y-64716666D02*
X126898152Y-64716666D01*
X126898152Y-64716666D02*
X126993390Y-64764285D01*
X126993390Y-64764285D02*
X127041009Y-64811904D01*
X127041009Y-64811904D02*
X127088628Y-64907142D01*
X127088628Y-64907142D02*
X127088628Y-65288094D01*
X126564819Y-63859523D02*
X126564819Y-64049999D01*
X126564819Y-64049999D02*
X126612438Y-64145237D01*
X126612438Y-64145237D02*
X126660057Y-64192856D01*
X126660057Y-64192856D02*
X126802914Y-64288094D01*
X126802914Y-64288094D02*
X126993390Y-64335713D01*
X126993390Y-64335713D02*
X127374342Y-64335713D01*
X127374342Y-64335713D02*
X127469580Y-64288094D01*
X127469580Y-64288094D02*
X127517200Y-64240475D01*
X127517200Y-64240475D02*
X127564819Y-64145237D01*
X127564819Y-64145237D02*
X127564819Y-63954761D01*
X127564819Y-63954761D02*
X127517200Y-63859523D01*
X127517200Y-63859523D02*
X127469580Y-63811904D01*
X127469580Y-63811904D02*
X127374342Y-63764285D01*
X127374342Y-63764285D02*
X127136247Y-63764285D01*
X127136247Y-63764285D02*
X127041009Y-63811904D01*
X127041009Y-63811904D02*
X126993390Y-63859523D01*
X126993390Y-63859523D02*
X126945771Y-63954761D01*
X126945771Y-63954761D02*
X126945771Y-64145237D01*
X126945771Y-64145237D02*
X126993390Y-64240475D01*
X126993390Y-64240475D02*
X127041009Y-64288094D01*
X127041009Y-64288094D02*
X127136247Y-64335713D01*
X129324819Y-68306666D02*
X128848628Y-68639999D01*
X129324819Y-68878094D02*
X128324819Y-68878094D01*
X128324819Y-68878094D02*
X128324819Y-68497142D01*
X128324819Y-68497142D02*
X128372438Y-68401904D01*
X128372438Y-68401904D02*
X128420057Y-68354285D01*
X128420057Y-68354285D02*
X128515295Y-68306666D01*
X128515295Y-68306666D02*
X128658152Y-68306666D01*
X128658152Y-68306666D02*
X128753390Y-68354285D01*
X128753390Y-68354285D02*
X128801009Y-68401904D01*
X128801009Y-68401904D02*
X128848628Y-68497142D01*
X128848628Y-68497142D02*
X128848628Y-68878094D01*
X128324819Y-67973332D02*
X128324819Y-67306666D01*
X128324819Y-67306666D02*
X129324819Y-67735237D01*
X142129580Y-78716666D02*
X142177200Y-78764285D01*
X142177200Y-78764285D02*
X142224819Y-78907142D01*
X142224819Y-78907142D02*
X142224819Y-79002380D01*
X142224819Y-79002380D02*
X142177200Y-79145237D01*
X142177200Y-79145237D02*
X142081961Y-79240475D01*
X142081961Y-79240475D02*
X141986723Y-79288094D01*
X141986723Y-79288094D02*
X141796247Y-79335713D01*
X141796247Y-79335713D02*
X141653390Y-79335713D01*
X141653390Y-79335713D02*
X141462914Y-79288094D01*
X141462914Y-79288094D02*
X141367676Y-79240475D01*
X141367676Y-79240475D02*
X141272438Y-79145237D01*
X141272438Y-79145237D02*
X141224819Y-79002380D01*
X141224819Y-79002380D02*
X141224819Y-78907142D01*
X141224819Y-78907142D02*
X141272438Y-78764285D01*
X141272438Y-78764285D02*
X141320057Y-78716666D01*
X141320057Y-78335713D02*
X141272438Y-78288094D01*
X141272438Y-78288094D02*
X141224819Y-78192856D01*
X141224819Y-78192856D02*
X141224819Y-77954761D01*
X141224819Y-77954761D02*
X141272438Y-77859523D01*
X141272438Y-77859523D02*
X141320057Y-77811904D01*
X141320057Y-77811904D02*
X141415295Y-77764285D01*
X141415295Y-77764285D02*
X141510533Y-77764285D01*
X141510533Y-77764285D02*
X141653390Y-77811904D01*
X141653390Y-77811904D02*
X142224819Y-78383332D01*
X142224819Y-78383332D02*
X142224819Y-77764285D01*
X146914819Y-76682857D02*
X146438628Y-77016190D01*
X146914819Y-77254285D02*
X145914819Y-77254285D01*
X145914819Y-77254285D02*
X145914819Y-76873333D01*
X145914819Y-76873333D02*
X145962438Y-76778095D01*
X145962438Y-76778095D02*
X146010057Y-76730476D01*
X146010057Y-76730476D02*
X146105295Y-76682857D01*
X146105295Y-76682857D02*
X146248152Y-76682857D01*
X146248152Y-76682857D02*
X146343390Y-76730476D01*
X146343390Y-76730476D02*
X146391009Y-76778095D01*
X146391009Y-76778095D02*
X146438628Y-76873333D01*
X146438628Y-76873333D02*
X146438628Y-77254285D01*
X146914819Y-75730476D02*
X146914819Y-76301904D01*
X146914819Y-76016190D02*
X145914819Y-76016190D01*
X145914819Y-76016190D02*
X146057676Y-76111428D01*
X146057676Y-76111428D02*
X146152914Y-76206666D01*
X146152914Y-76206666D02*
X146200533Y-76301904D01*
X146914819Y-74778095D02*
X146914819Y-75349523D01*
X146914819Y-75063809D02*
X145914819Y-75063809D01*
X145914819Y-75063809D02*
X146057676Y-75159047D01*
X146057676Y-75159047D02*
X146152914Y-75254285D01*
X146152914Y-75254285D02*
X146200533Y-75349523D01*
X143026667Y-71052295D02*
X142760000Y-70671342D01*
X142569524Y-71052295D02*
X142569524Y-70252295D01*
X142569524Y-70252295D02*
X142874286Y-70252295D01*
X142874286Y-70252295D02*
X142950476Y-70290390D01*
X142950476Y-70290390D02*
X142988571Y-70328485D01*
X142988571Y-70328485D02*
X143026667Y-70404676D01*
X143026667Y-70404676D02*
X143026667Y-70518961D01*
X143026667Y-70518961D02*
X142988571Y-70595152D01*
X142988571Y-70595152D02*
X142950476Y-70633247D01*
X142950476Y-70633247D02*
X142874286Y-70671342D01*
X142874286Y-70671342D02*
X142569524Y-70671342D01*
X143331428Y-70328485D02*
X143369524Y-70290390D01*
X143369524Y-70290390D02*
X143445714Y-70252295D01*
X143445714Y-70252295D02*
X143636190Y-70252295D01*
X143636190Y-70252295D02*
X143712381Y-70290390D01*
X143712381Y-70290390D02*
X143750476Y-70328485D01*
X143750476Y-70328485D02*
X143788571Y-70404676D01*
X143788571Y-70404676D02*
X143788571Y-70480866D01*
X143788571Y-70480866D02*
X143750476Y-70595152D01*
X143750476Y-70595152D02*
X143293333Y-71052295D01*
X143293333Y-71052295D02*
X143788571Y-71052295D01*
D12*
%TO.C,Q2*%
X144382930Y-73376968D02*
X144052930Y-73616968D01*
X144052930Y-73136968D01*
X144382930Y-73376968D01*
G36*
X144382930Y-73376968D02*
G01*
X144052930Y-73616968D01*
X144052930Y-73136968D01*
X144382930Y-73376968D01*
G37*
X144332930Y-72214468D02*
X144332930Y-71564468D01*
X144332930Y-72214468D02*
X144332930Y-72864468D01*
X147452930Y-72214468D02*
X147452930Y-71564468D01*
X147452930Y-72214468D02*
X147452930Y-72864468D01*
%TO.C,R1*%
X129317500Y-71990275D02*
X129317500Y-72499723D01*
X130362500Y-71990275D02*
X130362500Y-72499723D01*
%TO.C,U2*%
X132192500Y-72899999D02*
X131952500Y-72569999D01*
X132432500Y-72569999D01*
X132192500Y-72899999D01*
G36*
X132192500Y-72899999D02*
G01*
X131952500Y-72569999D01*
X132432500Y-72569999D01*
X132192500Y-72899999D01*
G37*
X138425000Y-78089999D02*
X138425000Y-77829999D01*
X138425000Y-72639999D02*
X138425000Y-72899999D01*
X135700000Y-78089999D02*
X138425000Y-78089999D01*
X135700000Y-78089999D02*
X132975000Y-78089999D01*
X135700000Y-72639999D02*
X138425000Y-72639999D01*
X135700000Y-72639999D02*
X132975000Y-72639999D01*
X132975000Y-78089999D02*
X132975000Y-77829999D01*
X132975000Y-72639999D02*
X132975000Y-72899999D01*
D13*
%TO.C,J1*%
X120249099Y-84357900D02*
G75*
G02*
X119487099Y-84357900I-381000J0D01*
G01*
X119487099Y-84357900D02*
G75*
G02*
X120249099Y-84357900I381000J0D01*
G01*
D14*
X124508900Y-83722900D02*
X124508900Y-51490300D01*
X124508900Y-51490300D02*
X116711100Y-51490300D01*
X116711100Y-83722900D02*
X124508900Y-83722900D01*
X116711100Y-51490300D02*
X116711100Y-83722900D01*
D12*
%TO.C,DS2*%
X125430000Y-49655000D02*
X125430000Y-51125000D01*
X125430000Y-51125000D02*
X127890000Y-51125000D01*
X127890000Y-49655000D02*
X125430000Y-49655000D01*
%TO.C,C4*%
X135656267Y-57950000D02*
X135363733Y-57950000D01*
X135656267Y-58970000D02*
X135363733Y-58970000D01*
%TO.C,DS1*%
X126150000Y-82535000D02*
X128610000Y-82535000D01*
X128610000Y-81065000D02*
X126150000Y-81065000D01*
X128610000Y-82535000D02*
X128610000Y-81065000D01*
%TO.C,R14*%
X129667500Y-57054724D02*
X129667500Y-56545276D01*
X130712500Y-57054724D02*
X130712500Y-56545276D01*
%TO.C,U1*%
X151120000Y-58360000D02*
X151120000Y-56410000D01*
X151120000Y-58360000D02*
X151120000Y-60310000D01*
X156240000Y-58360000D02*
X156240000Y-56410000D01*
X156240000Y-58360000D02*
X156240000Y-60310000D01*
X151215000Y-61060000D02*
X150885000Y-61300000D01*
X150885000Y-60820000D01*
X151215000Y-61060000D01*
G36*
X151215000Y-61060000D02*
G01*
X150885000Y-61300000D01*
X150885000Y-60820000D01*
X151215000Y-61060000D01*
G37*
%TO.C,R13*%
X142597500Y-72874724D02*
X142597500Y-72365276D01*
X143642500Y-72874724D02*
X143642500Y-72365276D01*
%TO.C,R4*%
X130195276Y-82927500D02*
X130704724Y-82927500D01*
X130195276Y-83972500D02*
X130704724Y-83972500D01*
%TO.C,U3*%
X158570000Y-58400000D02*
X158570000Y-56450000D01*
X158570000Y-58400000D02*
X158570000Y-60350000D01*
X163690000Y-58400000D02*
X163690000Y-56450000D01*
X163690000Y-58400000D02*
X163690000Y-60350000D01*
X158665000Y-61100000D02*
X158335000Y-61340000D01*
X158335000Y-60860000D01*
X158665000Y-61100000D01*
G36*
X158665000Y-61100000D02*
G01*
X158335000Y-61340000D01*
X158335000Y-60860000D01*
X158665000Y-61100000D01*
G37*
%TO.C,C5*%
X150350000Y-56736267D02*
X150350000Y-56443733D01*
X149330000Y-56736267D02*
X149330000Y-56443733D01*
%TO.C,R9*%
X121687064Y-84410000D02*
X120232936Y-84410000D01*
X121687064Y-86230000D02*
X120232936Y-86230000D01*
%TO.C,R3*%
X128445276Y-75727500D02*
X128954724Y-75727500D01*
X128445276Y-76772500D02*
X128954724Y-76772500D01*
%TO.C,C3*%
X156790000Y-55886267D02*
X156790000Y-55593733D01*
X157810000Y-55886267D02*
X157810000Y-55593733D01*
%TO.C,Q1*%
X143290000Y-81657500D02*
X143290000Y-81007500D01*
X143290000Y-81657500D02*
X143290000Y-82307500D01*
X146410000Y-81657500D02*
X146410000Y-81007500D01*
X146410000Y-81657500D02*
X146410000Y-82307500D01*
X146690000Y-80735000D02*
X146360000Y-80495000D01*
X146690000Y-80255000D01*
X146690000Y-80735000D01*
G36*
X146690000Y-80735000D02*
G01*
X146360000Y-80495000D01*
X146690000Y-80255000D01*
X146690000Y-80735000D01*
G37*
%TO.C,C1*%
X172546267Y-84240000D02*
X172253733Y-84240000D01*
X172546267Y-85260000D02*
X172253733Y-85260000D01*
%TO.C,R8*%
X126647064Y-84350000D02*
X125192936Y-84350000D01*
X126647064Y-86170000D02*
X125192936Y-86170000D01*
%TO.C,R5*%
X123884724Y-49877500D02*
X123375276Y-49877500D01*
X123884724Y-50922500D02*
X123375276Y-50922500D01*
%TO.C,J2*%
X156540000Y-45730000D02*
X169940000Y-45730000D01*
X156540000Y-51730000D02*
X156540000Y-49130000D01*
X156540000Y-51730000D02*
X161490000Y-51730000D01*
X169940000Y-51730000D02*
X164990000Y-51730000D01*
X169940000Y-51730000D02*
X169940000Y-49130000D01*
%TO.C,R12*%
X143544724Y-69942500D02*
X143035276Y-69942500D01*
X143544724Y-68897500D02*
X143035276Y-68897500D01*
%TO.C,R10*%
X145092224Y-78195000D02*
X144582776Y-78195000D01*
X145092224Y-79240000D02*
X144582776Y-79240000D01*
%TO.C,U4*%
X135480000Y-52270000D02*
X133530000Y-52270000D01*
X135480000Y-52270000D02*
X137430000Y-52270000D01*
X135480000Y-57390000D02*
X133530000Y-57390000D01*
X135480000Y-57390000D02*
X137430000Y-57390000D01*
X138420000Y-57625000D02*
X137940000Y-57625000D01*
X138180000Y-57295000D01*
X138420000Y-57625000D01*
G36*
X138420000Y-57625000D02*
G01*
X137940000Y-57625000D01*
X138180000Y-57295000D01*
X138420000Y-57625000D01*
G37*
%TO.C,R6*%
X128127500Y-65704724D02*
X128127500Y-65195276D01*
X129172500Y-65704724D02*
X129172500Y-65195276D01*
%TO.C,R7*%
X127632500Y-67025276D02*
X127632500Y-67534724D01*
X126587500Y-67025276D02*
X126587500Y-67534724D01*
%TO.C,C2*%
X143620000Y-76146267D02*
X143620000Y-75853733D01*
X142600000Y-76146267D02*
X142600000Y-75853733D01*
%TO.C,R11*%
X145552500Y-75785276D02*
X145552500Y-76294724D01*
X144507500Y-75785276D02*
X144507500Y-76294724D01*
%TO.C,R2*%
X140827500Y-74150275D02*
X140827500Y-74659723D01*
X141872500Y-74150275D02*
X141872500Y-74659723D01*
%TD*%
M02*
