%TF.GenerationSoftware,KiCad,Pcbnew,8.0.9-8.0.9-0~ubuntu22.04.1*%
%TF.CreationDate,2025-04-16T08:53:03-05:00*%
%TF.ProjectId,test_board,74657374-5f62-46f6-9172-642e6b696361,rev?*%
%TF.SameCoordinates,Original*%
%TF.FileFunction,Copper,L2,Bot*%
%TF.FilePolarity,Positive*%
%FSLAX46Y46*%
G04 Gerber Fmt 4.6, Leading zero omitted, Abs format (unit mm)*
G04 Created by KiCad (PCBNEW 8.0.9-8.0.9-0~ubuntu22.04.1) date 2025-04-16 08:53:03*
%MOMM*%
%LPD*%
G01*
G04 APERTURE LIST*
%TA.AperFunction,ComponentPad*%
%ADD10R,1.300000X1.300000*%
%TD*%
%TA.AperFunction,ComponentPad*%
%ADD11C,1.300000*%
%TD*%
%TA.AperFunction,ComponentPad*%
%ADD12O,1.900000X2.900000*%
%TD*%
%TA.AperFunction,ComponentPad*%
%ADD13O,2.900000X1.900000*%
%TD*%
%TA.AperFunction,ComponentPad*%
%ADD14C,1.701800*%
%TD*%
%TA.AperFunction,ComponentPad*%
%ADD15C,1.905000*%
%TD*%
%TA.AperFunction,ViaPad*%
%ADD16C,0.800000*%
%TD*%
%TA.AperFunction,Conductor*%
%ADD17C,0.400000*%
%TD*%
%TA.AperFunction,Conductor*%
%ADD18C,0.300000*%
%TD*%
G04 APERTURE END LIST*
D10*
%TO.P,J2,1,VCC*%
%TO.N,/VCC_5V_GPIO_FIL*%
X166740000Y-46830000D03*
D11*
%TO.P,J2,2,D-*%
%TO.N,/USB_DN2*%
X164240000Y-46830000D03*
%TO.P,J2,3,D+*%
%TO.N,/USB_DP2*%
X162240000Y-46830000D03*
%TO.P,J2,4,GND*%
%TO.N,GND*%
X159740000Y-46830000D03*
D12*
%TO.P,J2,5,SHIELD*%
X169810000Y-47430000D03*
D13*
X163240000Y-51610000D03*
D12*
X156670000Y-47430000D03*
%TD*%
D14*
%TO.P,J1,1,Pin_1*%
%TO.N,/VCC_3V3_GPIO_FIL*%
X119868099Y-81676600D03*
%TO.P,J1,2,Pin_2*%
X122408099Y-81676600D03*
%TO.P,J1,3,Pin_3*%
%TO.N,GND*%
X119868099Y-79136600D03*
%TO.P,J1,4,Pin_4*%
X122408099Y-79136600D03*
%TO.P,J1,5,Pin_5*%
%TO.N,/GPIO_CN2_SPI_SCLK*%
X119868099Y-76596600D03*
%TO.P,J1,6,Pin_6*%
%TO.N,/GPIO_CN2_SPI_MOSI*%
X122408099Y-76596600D03*
%TO.P,J1,7,Pin_7*%
%TO.N,/GPIO_CN2_SPI_MISO*%
X119868099Y-74056600D03*
%TO.P,J1,8,Pin_8*%
%TO.N,/GPIO_CN2_SPI_SS*%
X122408099Y-74056600D03*
%TO.P,J1,9,Pin_9*%
%TO.N,/GPIO_CN2_1*%
X119868099Y-71516600D03*
%TO.P,J1,10,Pin_10*%
X122408099Y-71516600D03*
%TO.P,J1,11,Pin_11*%
%TO.N,/GPIO_CN2_0*%
X119868099Y-68976600D03*
%TO.P,J1,12,Pin_12*%
X122408099Y-68976600D03*
%TO.P,J1,13,Pin_13*%
%TO.N,/B{slash}RS485_RX-{slash}RS232_CTS_CN2*%
X119868099Y-66436600D03*
%TO.P,J1,14,Pin_14*%
%TO.N,/A{slash}RS485_RX+{slash}RS232_RXD_CN2*%
X122408099Y-66436600D03*
%TO.P,J1,15,Pin_15*%
%TO.N,/A_RS485_TX+{slash}RS232_RTS_CN2*%
X119868099Y-63896600D03*
%TO.P,J1,16,Pin_16*%
%TO.N,/B_RS485_TX-{slash}RS232_TXD_CN2*%
X122408099Y-63896600D03*
%TO.P,J1,17,Pin_17*%
%TO.N,/USB_HUB_CN2_DN*%
X119868099Y-61356600D03*
%TO.P,J1,18,Pin_18*%
%TO.N,/I2C_SCL_CN2*%
X122408099Y-61356600D03*
%TO.P,J1,19,Pin_19*%
%TO.N,/USB_HUB_CN2_DP*%
X119868099Y-58816600D03*
%TO.P,J1,20,Pin_20*%
%TO.N,/I2C_SDA_CN2*%
X122408099Y-58816600D03*
%TO.P,J1,21,Pin_21*%
%TO.N,GND*%
X119868099Y-56276600D03*
%TO.P,J1,22,Pin_22*%
X122408099Y-56276600D03*
%TO.P,J1,23,Pin_23*%
%TO.N,/VCC_5V_GPIO_FIL*%
X119868099Y-53736600D03*
%TO.P,J1,24,Pin_24*%
X122408099Y-53736600D03*
%TD*%
D15*
%TO.P,U5,0,GPIO0*%
%TO.N,unconnected-(U5-GPIO0-Pad0)*%
X163130000Y-67270000D03*
%TO.P,U5,1,GPIO1*%
%TO.N,unconnected-(U5-GPIO1-Pad1)*%
X163130000Y-69810000D03*
%TO.P,U5,2,GPIO2*%
%TO.N,unconnected-(U5-GPIO2-Pad2)*%
X163130000Y-72350000D03*
%TO.P,U5,3,GPIO3*%
%TO.N,unconnected-(U5-GPIO3-Pad3)*%
X163130000Y-74890000D03*
%TO.P,U5,3.3,3V3*%
%TO.N,unconnected-(U5-3V3-Pad3.3)*%
X163130000Y-79970000D03*
%TO.P,U5,4,GPIO4*%
%TO.N,unconnected-(U5-GPIO4-Pad4)*%
X163130000Y-77430000D03*
%TO.P,U5,5,GPIO5*%
%TO.N,unconnected-(U5-GPIO5-Pad5)*%
X147890000Y-85050000D03*
%TO.P,U5,5V,5V*%
%TO.N,/VCC_5V_GPIO_FIL*%
X163130000Y-85050000D03*
%TO.P,U5,6,GPIO6*%
%TO.N,unconnected-(U5-GPIO6-Pad6)*%
X147890000Y-82510000D03*
%TO.P,U5,7,GPIO7*%
%TO.N,unconnected-(U5-GPIO7-Pad7)*%
X147890000Y-79970000D03*
%TO.P,U5,8,GPIO8*%
%TO.N,unconnected-(U5-GPIO8-Pad8)*%
X147890000Y-77430000D03*
%TO.P,U5,9,GPIO9*%
%TO.N,/485DE*%
X147890000Y-74890000D03*
%TO.P,U5,10,GPIO10*%
%TO.N,/485RE*%
X147890000Y-72350000D03*
%TO.P,U5,20,GPIO20*%
%TO.N,/485RX*%
X147890000Y-69810000D03*
%TO.P,U5,21,GPIO21*%
%TO.N,/485TX*%
X147890000Y-67270000D03*
%TO.P,U5,G,GND*%
%TO.N,GND*%
X163130000Y-82510000D03*
%TD*%
D16*
%TO.N,/VCC_5V_GPIO_FIL*%
X165530000Y-62760000D03*
X120900000Y-46570000D03*
X152920000Y-63320000D03*
X120400000Y-52200000D03*
%TO.N,GND*%
X137640000Y-58420000D03*
X161780000Y-62420000D03*
X148550000Y-57320000D03*
X148570000Y-61000000D03*
X131260000Y-79540000D03*
X156500000Y-56000000D03*
X139770000Y-56720000D03*
X131250000Y-74000000D03*
%TO.N,/VCC_3V3_GPIO_FIL*%
X128440000Y-66430000D03*
X128450000Y-71190000D03*
X133010000Y-65370000D03*
X133005000Y-59120000D03*
%TD*%
D17*
%TO.N,/VCC_5V_GPIO_FIL*%
X120400000Y-47070000D02*
X120900000Y-46570000D01*
X164970000Y-63320000D02*
X165530000Y-62760000D01*
X152920000Y-63320000D02*
X164970000Y-63320000D01*
X120400000Y-52200000D02*
X120400000Y-47070000D01*
D18*
%TO.N,GND*%
X131250000Y-74000000D02*
X131250000Y-79530000D01*
D17*
X148550000Y-57320000D02*
X148550000Y-60980000D01*
X148550000Y-60980000D02*
X148570000Y-61000000D01*
D18*
X131250000Y-79530000D02*
X131260000Y-79540000D01*
%TO.N,/VCC_3V3_GPIO_FIL*%
X128450000Y-66440000D02*
X128440000Y-66430000D01*
X133010000Y-60180000D02*
X133005000Y-60175000D01*
X133005000Y-60175000D02*
X133005000Y-59120000D01*
X133010000Y-65370000D02*
X133010000Y-60180000D01*
X128450000Y-71190000D02*
X128450000Y-66440000D01*
%TD*%
M02*
