%TF.GenerationSoftware,KiCad,Pcbnew,8.0.9-8.0.9-0~ubuntu22.04.1*%
%TF.CreationDate,2025-04-14T19:28:12-05:00*%
%TF.ProjectId,test_board,74657374-5f62-46f6-9172-642e6b696361,rev?*%
%TF.SameCoordinates,Original*%
%TF.FileFunction,Soldermask,Top*%
%TF.FilePolarity,Negative*%
%FSLAX46Y46*%
G04 Gerber Fmt 4.6, Leading zero omitted, Abs format (unit mm)*
G04 Created by KiCad (PCBNEW 8.0.9-8.0.9-0~ubuntu22.04.1) date 2025-04-14 19:28:12*
%MOMM*%
%LPD*%
G01*
G04 APERTURE LIST*
G04 Aperture macros list*
%AMRoundRect*
0 Rectangle with rounded corners*
0 $1 Rounding radius*
0 $2 $3 $4 $5 $6 $7 $8 $9 X,Y pos of 4 corners*
0 Add a 4 corners polygon primitive as box body*
4,1,4,$2,$3,$4,$5,$6,$7,$8,$9,$2,$3,0*
0 Add four circle primitives for the rounded corners*
1,1,$1+$1,$2,$3*
1,1,$1+$1,$4,$5*
1,1,$1+$1,$6,$7*
1,1,$1+$1,$8,$9*
0 Add four rect primitives between the rounded corners*
20,1,$1+$1,$2,$3,$4,$5,0*
20,1,$1+$1,$4,$5,$6,$7,0*
20,1,$1+$1,$6,$7,$8,$9,0*
20,1,$1+$1,$8,$9,$2,$3,0*%
G04 Aperture macros list end*
%ADD10RoundRect,0.250000X0.312500X0.625000X-0.312500X0.625000X-0.312500X-0.625000X0.312500X-0.625000X0*%
%ADD11RoundRect,0.150000X0.150000X-0.825000X0.150000X0.825000X-0.150000X0.825000X-0.150000X-0.825000X0*%
%ADD12RoundRect,0.237500X0.237500X-0.300000X0.237500X0.300000X-0.237500X0.300000X-0.237500X-0.300000X0*%
%ADD13C,1.701800*%
%ADD14RoundRect,0.237500X-0.237500X0.250000X-0.237500X-0.250000X0.237500X-0.250000X0.237500X0.250000X0*%
%ADD15RoundRect,0.102000X0.714000X0.714000X-0.714000X0.714000X-0.714000X-0.714000X0.714000X-0.714000X0*%
%ADD16C,1.632000*%
%ADD17C,2.874000*%
%ADD18RoundRect,0.237500X-0.287500X-0.237500X0.287500X-0.237500X0.287500X0.237500X-0.287500X0.237500X0*%
%ADD19RoundRect,0.237500X0.300000X0.237500X-0.300000X0.237500X-0.300000X-0.237500X0.300000X-0.237500X0*%
%ADD20RoundRect,0.237500X-0.237500X0.287500X-0.237500X-0.287500X0.237500X-0.287500X0.237500X0.287500X0*%
%ADD21RoundRect,0.150000X-0.825000X-0.150000X0.825000X-0.150000X0.825000X0.150000X-0.825000X0.150000X0*%
%ADD22RoundRect,0.237500X0.237500X-0.250000X0.237500X0.250000X-0.237500X0.250000X-0.237500X-0.250000X0*%
%ADD23R,0.900000X0.400000*%
%ADD24RoundRect,0.237500X-0.237500X0.300000X-0.237500X-0.300000X0.237500X-0.300000X0.237500X0.300000X0*%
%ADD25RoundRect,0.237500X0.250000X0.237500X-0.250000X0.237500X-0.250000X-0.237500X0.250000X-0.237500X0*%
%ADD26RoundRect,0.150000X0.825000X0.150000X-0.825000X0.150000X-0.825000X-0.150000X0.825000X-0.150000X0*%
%ADD27C,2.109000*%
G04 APERTURE END LIST*
D10*
%TO.C,R9*%
X122422500Y-85320000D03*
X119497500Y-85320000D03*
%TD*%
%TO.C,R8*%
X127382500Y-85260000D03*
X124457500Y-85260000D03*
%TD*%
D11*
%TO.C,U1*%
X151775000Y-55885000D03*
X153045000Y-55885000D03*
X154315000Y-55885000D03*
X155585000Y-55885000D03*
X155585000Y-60835000D03*
X154315000Y-60835000D03*
X153045000Y-60835000D03*
X151775000Y-60835000D03*
%TD*%
D12*
%TO.C,C5*%
X149840000Y-55727500D03*
X149840000Y-57452500D03*
%TD*%
D13*
%TO.C,J1*%
X119868099Y-81676600D03*
X122408099Y-81676600D03*
X119868099Y-79136600D03*
X122408099Y-79136600D03*
X119868099Y-76596600D03*
X122408099Y-76596600D03*
X119868099Y-74056600D03*
X122408099Y-74056600D03*
X119868099Y-71516600D03*
X122408099Y-71516600D03*
X119868099Y-68976600D03*
X122408099Y-68976600D03*
X119868099Y-66436600D03*
X122408099Y-66436600D03*
X119868099Y-63896600D03*
X122408099Y-63896600D03*
X119868099Y-61356600D03*
X122408099Y-61356600D03*
X119868099Y-58816600D03*
X122408099Y-58816600D03*
X119868099Y-56276600D03*
X122408099Y-56276600D03*
X119868099Y-53736600D03*
X122408099Y-53736600D03*
%TD*%
D14*
%TO.C,R7*%
X126970000Y-66450000D03*
X126970000Y-68275000D03*
%TD*%
%TO.C,R1*%
X129770000Y-66087500D03*
X129770000Y-67912500D03*
%TD*%
D15*
%TO.C,J2*%
X162912854Y-49067650D03*
D16*
X160912854Y-49067650D03*
X158912854Y-49067650D03*
X156912854Y-49067650D03*
D17*
X163412854Y-51787650D03*
X156412854Y-51787650D03*
X163412854Y-46347650D03*
X156412854Y-46347650D03*
%TD*%
D18*
%TO.C,DS2*%
X126215000Y-50390000D03*
X127965000Y-50390000D03*
%TD*%
D19*
%TO.C,C4*%
X136372500Y-58460000D03*
X134647500Y-58460000D03*
%TD*%
D20*
%TO.C,DS1*%
X125870000Y-80097500D03*
X125870000Y-81847500D03*
%TD*%
D21*
%TO.C,U2*%
X131915000Y-68225000D03*
X131915000Y-69495000D03*
X131915000Y-70765000D03*
X131915000Y-72035000D03*
X136865000Y-72035000D03*
X136865000Y-70765000D03*
X136865000Y-69495000D03*
X136865000Y-68225000D03*
%TD*%
D22*
%TO.C,R14*%
X130190000Y-57712500D03*
X130190000Y-55887500D03*
%TD*%
D14*
%TO.C,R4*%
X127620000Y-80017500D03*
X127620000Y-81842500D03*
%TD*%
D11*
%TO.C,U3*%
X159225000Y-60875000D03*
X160495000Y-60875000D03*
X161765000Y-60875000D03*
X163035000Y-60875000D03*
X163035000Y-55925000D03*
X161765000Y-55925000D03*
X160495000Y-55925000D03*
X159225000Y-55925000D03*
%TD*%
D14*
%TO.C,R6*%
X125460000Y-66930000D03*
X125460000Y-68755000D03*
%TD*%
D23*
%TO.C,L1*%
X135180000Y-47820000D03*
X136880000Y-47820000D03*
X136880000Y-48620000D03*
X135180000Y-48620000D03*
%TD*%
D14*
%TO.C,R3*%
X129520000Y-70637500D03*
X129520000Y-72462500D03*
%TD*%
D12*
%TO.C,C3*%
X157300000Y-56602500D03*
X157300000Y-54877500D03*
%TD*%
D24*
%TO.C,C1*%
X166520000Y-83867500D03*
X166520000Y-85592500D03*
%TD*%
D25*
%TO.C,R5*%
X122717500Y-50400000D03*
X124542500Y-50400000D03*
%TD*%
D26*
%TO.C,U4*%
X137955000Y-56735000D03*
X137955000Y-55465000D03*
X137955000Y-54195000D03*
X137955000Y-52925000D03*
X133005000Y-52925000D03*
X133005000Y-54195000D03*
X133005000Y-55465000D03*
X133005000Y-56735000D03*
%TD*%
D24*
%TO.C,C2*%
X138120000Y-64717500D03*
X138120000Y-66442500D03*
%TD*%
D14*
%TO.C,R2*%
X139740000Y-68175000D03*
X139740000Y-70000000D03*
%TD*%
D27*
%TO.C,U5*%
X163130000Y-67270000D03*
X163130000Y-69810000D03*
X163130000Y-72350000D03*
X163130000Y-74890000D03*
X163130000Y-79970000D03*
X163130000Y-77430000D03*
X147890000Y-85050000D03*
X163130000Y-85050000D03*
X147890000Y-82510000D03*
X147890000Y-79970000D03*
X147890000Y-77430000D03*
X147890000Y-74890000D03*
X147890000Y-72350000D03*
X147890000Y-69810000D03*
X147890000Y-67270000D03*
X163130000Y-82510000D03*
%TD*%
M02*
