%TF.GenerationSoftware,KiCad,Pcbnew,8.0.9-8.0.9-0~ubuntu22.04.1*%
%TF.CreationDate,2025-04-14T19:28:12-05:00*%
%TF.ProjectId,test_board,74657374-5f62-46f6-9172-642e6b696361,rev?*%
%TF.SameCoordinates,Original*%
%TF.FileFunction,Soldermask,Bot*%
%TF.FilePolarity,Negative*%
%FSLAX46Y46*%
G04 Gerber Fmt 4.6, Leading zero omitted, Abs format (unit mm)*
G04 Created by KiCad (PCBNEW 8.0.9-8.0.9-0~ubuntu22.04.1) date 2025-04-14 19:28:12*
%MOMM*%
%LPD*%
G01*
G04 APERTURE LIST*
G04 Aperture macros list*
%AMRoundRect*
0 Rectangle with rounded corners*
0 $1 Rounding radius*
0 $2 $3 $4 $5 $6 $7 $8 $9 X,Y pos of 4 corners*
0 Add a 4 corners polygon primitive as box body*
4,1,4,$2,$3,$4,$5,$6,$7,$8,$9,$2,$3,0*
0 Add four circle primitives for the rounded corners*
1,1,$1+$1,$2,$3*
1,1,$1+$1,$4,$5*
1,1,$1+$1,$6,$7*
1,1,$1+$1,$8,$9*
0 Add four rect primitives between the rounded corners*
20,1,$1+$1,$2,$3,$4,$5,0*
20,1,$1+$1,$4,$5,$6,$7,0*
20,1,$1+$1,$6,$7,$8,$9,0*
20,1,$1+$1,$8,$9,$2,$3,0*%
G04 Aperture macros list end*
%ADD10C,1.701800*%
%ADD11RoundRect,0.102000X0.714000X0.714000X-0.714000X0.714000X-0.714000X-0.714000X0.714000X-0.714000X0*%
%ADD12C,1.632000*%
%ADD13C,2.874000*%
%ADD14C,2.109000*%
G04 APERTURE END LIST*
D10*
%TO.C,J1*%
X119868099Y-81676600D03*
X122408099Y-81676600D03*
X119868099Y-79136600D03*
X122408099Y-79136600D03*
X119868099Y-76596600D03*
X122408099Y-76596600D03*
X119868099Y-74056600D03*
X122408099Y-74056600D03*
X119868099Y-71516600D03*
X122408099Y-71516600D03*
X119868099Y-68976600D03*
X122408099Y-68976600D03*
X119868099Y-66436600D03*
X122408099Y-66436600D03*
X119868099Y-63896600D03*
X122408099Y-63896600D03*
X119868099Y-61356600D03*
X122408099Y-61356600D03*
X119868099Y-58816600D03*
X122408099Y-58816600D03*
X119868099Y-56276600D03*
X122408099Y-56276600D03*
X119868099Y-53736600D03*
X122408099Y-53736600D03*
%TD*%
D11*
%TO.C,J2*%
X162912854Y-49067650D03*
D12*
X160912854Y-49067650D03*
X158912854Y-49067650D03*
X156912854Y-49067650D03*
D13*
X163412854Y-51787650D03*
X156412854Y-51787650D03*
X163412854Y-46347650D03*
X156412854Y-46347650D03*
%TD*%
D14*
%TO.C,U5*%
X163130000Y-67270000D03*
X163130000Y-69810000D03*
X163130000Y-72350000D03*
X163130000Y-74890000D03*
X163130000Y-79970000D03*
X163130000Y-77430000D03*
X147890000Y-85050000D03*
X163130000Y-85050000D03*
X147890000Y-82510000D03*
X147890000Y-79970000D03*
X147890000Y-77430000D03*
X147890000Y-74890000D03*
X147890000Y-72350000D03*
X147890000Y-69810000D03*
X147890000Y-67270000D03*
X163130000Y-82510000D03*
%TD*%
M02*
