%TF.GenerationSoftware,KiCad,Pcbnew,8.0.9-4-gd7388e2a70*%
%TF.CreationDate,2025-04-21T17:31:07-05:00*%
%TF.ProjectId,test_board,74657374-5f62-46f6-9172-642e6b696361,rev?*%
%TF.SameCoordinates,Original*%
%TF.FileFunction,Soldermask,Top*%
%TF.FilePolarity,Negative*%
%FSLAX46Y46*%
G04 Gerber Fmt 4.6, Leading zero omitted, Abs format (unit mm)*
G04 Created by KiCad (PCBNEW 8.0.9-4-gd7388e2a70) date 2025-04-21 17:31:07*
%MOMM*%
%LPD*%
G01*
G04 APERTURE LIST*
G04 Aperture macros list*
%AMRoundRect*
0 Rectangle with rounded corners*
0 $1 Rounding radius*
0 $2 $3 $4 $5 $6 $7 $8 $9 X,Y pos of 4 corners*
0 Add a 4 corners polygon primitive as box body*
4,1,4,$2,$3,$4,$5,$6,$7,$8,$9,$2,$3,0*
0 Add four circle primitives for the rounded corners*
1,1,$1+$1,$2,$3*
1,1,$1+$1,$4,$5*
1,1,$1+$1,$6,$7*
1,1,$1+$1,$8,$9*
0 Add four rect primitives between the rounded corners*
20,1,$1+$1,$2,$3,$4,$5,0*
20,1,$1+$1,$4,$5,$6,$7,0*
20,1,$1+$1,$6,$7,$8,$9,0*
20,1,$1+$1,$8,$9,$2,$3,0*%
G04 Aperture macros list end*
%ADD10RoundRect,0.150000X0.150000X-0.587500X0.150000X0.587500X-0.150000X0.587500X-0.150000X-0.587500X0*%
%ADD11RoundRect,0.237500X-0.237500X0.250000X-0.237500X-0.250000X0.237500X-0.250000X0.237500X0.250000X0*%
%ADD12RoundRect,0.150000X-0.650000X-0.150000X0.650000X-0.150000X0.650000X0.150000X-0.650000X0.150000X0*%
%ADD13C,1.701800*%
%ADD14RoundRect,0.237500X-0.287500X-0.237500X0.287500X-0.237500X0.287500X0.237500X-0.287500X0.237500X0*%
%ADD15RoundRect,0.237500X0.300000X0.237500X-0.300000X0.237500X-0.300000X-0.237500X0.300000X-0.237500X0*%
%ADD16RoundRect,0.237500X0.287500X0.237500X-0.287500X0.237500X-0.287500X-0.237500X0.287500X-0.237500X0*%
%ADD17RoundRect,0.237500X0.237500X-0.250000X0.237500X0.250000X-0.237500X0.250000X-0.237500X-0.250000X0*%
%ADD18RoundRect,0.150000X0.150000X-0.825000X0.150000X0.825000X-0.150000X0.825000X-0.150000X-0.825000X0*%
%ADD19RoundRect,0.237500X-0.250000X-0.237500X0.250000X-0.237500X0.250000X0.237500X-0.250000X0.237500X0*%
%ADD20RoundRect,0.237500X0.237500X-0.300000X0.237500X0.300000X-0.237500X0.300000X-0.237500X-0.300000X0*%
%ADD21RoundRect,0.250000X0.312500X0.625000X-0.312500X0.625000X-0.312500X-0.625000X0.312500X-0.625000X0*%
%ADD22RoundRect,0.150000X-0.150000X0.587500X-0.150000X-0.587500X0.150000X-0.587500X0.150000X0.587500X0*%
%ADD23RoundRect,0.237500X0.250000X0.237500X-0.250000X0.237500X-0.250000X-0.237500X0.250000X-0.237500X0*%
%ADD24R,1.300000X1.300000*%
%ADD25C,1.300000*%
%ADD26O,1.900000X2.900000*%
%ADD27O,2.900000X1.900000*%
%ADD28RoundRect,0.150000X0.825000X0.150000X-0.825000X0.150000X-0.825000X-0.150000X0.825000X-0.150000X0*%
%ADD29C,2.109000*%
G04 APERTURE END LIST*
D10*
%TO.C,Q2*%
X144942930Y-73151968D03*
X146842930Y-73151968D03*
X145892930Y-71276968D03*
%TD*%
D11*
%TO.C,R1*%
X129840000Y-71332499D03*
X129840000Y-73157499D03*
%TD*%
D12*
%TO.C,U2*%
X132100000Y-73459999D03*
X132100000Y-74729999D03*
X132100000Y-75999999D03*
X132100000Y-77269999D03*
X139300000Y-77269999D03*
X139300000Y-75999999D03*
X139300000Y-74729999D03*
X139300000Y-73459999D03*
%TD*%
D13*
%TO.C,J1*%
X119868099Y-81676600D03*
X122408099Y-81676600D03*
X119868099Y-79136600D03*
X122408099Y-79136600D03*
X119868099Y-76596600D03*
X122408099Y-76596600D03*
X119868099Y-74056600D03*
X122408099Y-74056600D03*
X119868099Y-71516600D03*
X122408099Y-71516600D03*
X119868099Y-68976600D03*
X122408099Y-68976600D03*
X119868099Y-66436600D03*
X122408099Y-66436600D03*
X119868099Y-63896600D03*
X122408099Y-63896600D03*
X119868099Y-61356600D03*
X122408099Y-61356600D03*
X119868099Y-58816600D03*
X122408099Y-58816600D03*
X119868099Y-56276600D03*
X122408099Y-56276600D03*
X119868099Y-53736600D03*
X122408099Y-53736600D03*
%TD*%
D14*
%TO.C,DS2*%
X126215000Y-50390000D03*
X127965000Y-50390000D03*
%TD*%
D15*
%TO.C,C4*%
X136372500Y-58460000D03*
X134647500Y-58460000D03*
%TD*%
D16*
%TO.C,DS1*%
X127825000Y-81800000D03*
X126075000Y-81800000D03*
%TD*%
D17*
%TO.C,R14*%
X130190000Y-57712500D03*
X130190000Y-55887500D03*
%TD*%
D18*
%TO.C,U1*%
X151775000Y-60835000D03*
X153045000Y-60835000D03*
X154315000Y-60835000D03*
X155585000Y-60835000D03*
X155585000Y-55885000D03*
X154315000Y-55885000D03*
X153045000Y-55885000D03*
X151775000Y-55885000D03*
%TD*%
D17*
%TO.C,R13*%
X143120000Y-73532500D03*
X143120000Y-71707500D03*
%TD*%
D19*
%TO.C,R4*%
X129537500Y-83450000D03*
X131362500Y-83450000D03*
%TD*%
D18*
%TO.C,U3*%
X159225000Y-60875000D03*
X160495000Y-60875000D03*
X161765000Y-60875000D03*
X163035000Y-60875000D03*
X163035000Y-55925000D03*
X161765000Y-55925000D03*
X160495000Y-55925000D03*
X159225000Y-55925000D03*
%TD*%
D20*
%TO.C,C5*%
X149840000Y-57452500D03*
X149840000Y-55727500D03*
%TD*%
D21*
%TO.C,R9*%
X122422500Y-85320000D03*
X119497500Y-85320000D03*
%TD*%
D19*
%TO.C,R3*%
X127787500Y-76250000D03*
X129612500Y-76250000D03*
%TD*%
D20*
%TO.C,C3*%
X157300000Y-56602500D03*
X157300000Y-54877500D03*
%TD*%
D22*
%TO.C,Q1*%
X145800000Y-80720000D03*
X143900000Y-80720000D03*
X144850000Y-82595000D03*
%TD*%
D15*
%TO.C,C1*%
X173262500Y-84750000D03*
X171537500Y-84750000D03*
%TD*%
D21*
%TO.C,R8*%
X127382500Y-85260000D03*
X124457500Y-85260000D03*
%TD*%
D23*
%TO.C,R5*%
X124542500Y-50400000D03*
X122717500Y-50400000D03*
%TD*%
D24*
%TO.C,J2*%
X166740000Y-46830000D03*
D25*
X164240000Y-46830000D03*
X162240000Y-46830000D03*
X159740000Y-46830000D03*
D26*
X169810000Y-47430000D03*
D27*
X163240000Y-51610000D03*
D26*
X156670000Y-47430000D03*
%TD*%
D23*
%TO.C,R12*%
X144202500Y-69420000D03*
X142377500Y-69420000D03*
%TD*%
%TO.C,R10*%
X145750000Y-78717500D03*
X143925000Y-78717500D03*
%TD*%
D28*
%TO.C,U4*%
X137955000Y-56735000D03*
X137955000Y-55465000D03*
X137955000Y-54195000D03*
X137955000Y-52925000D03*
X133005000Y-52925000D03*
X133005000Y-54195000D03*
X133005000Y-55465000D03*
X133005000Y-56735000D03*
%TD*%
D17*
%TO.C,R6*%
X128650000Y-66362500D03*
X128650000Y-64537500D03*
%TD*%
D11*
%TO.C,R7*%
X127110000Y-66367500D03*
X127110000Y-68192500D03*
%TD*%
D20*
%TO.C,C2*%
X143110000Y-76862500D03*
X143110000Y-75137500D03*
%TD*%
D11*
%TO.C,R11*%
X145030000Y-75127500D03*
X145030000Y-76952500D03*
%TD*%
%TO.C,R2*%
X141350000Y-73492499D03*
X141350000Y-75317499D03*
%TD*%
D29*
%TO.C,U5*%
X169240000Y-66900000D03*
X169240000Y-69440000D03*
X169240000Y-71980000D03*
X169240000Y-74520000D03*
X169240000Y-79600000D03*
X169240000Y-77060000D03*
X154000000Y-84680000D03*
X169240000Y-84680000D03*
X154000000Y-82140000D03*
X154000000Y-79600000D03*
X154000000Y-77060000D03*
X154000000Y-74520000D03*
X154000000Y-71980000D03*
X154000000Y-69440000D03*
X154000000Y-66900000D03*
X169240000Y-82140000D03*
%TD*%
M02*
