%TF.GenerationSoftware,KiCad,Pcbnew,8.0.9-8.0.9-0~ubuntu22.04.1*%
%TF.CreationDate,2025-04-19T21:52:58-05:00*%
%TF.ProjectId,test_board,74657374-5f62-46f6-9172-642e6b696361,rev?*%
%TF.SameCoordinates,Original*%
%TF.FileFunction,Copper,L2,Bot*%
%TF.FilePolarity,Positive*%
%FSLAX46Y46*%
G04 Gerber Fmt 4.6, Leading zero omitted, Abs format (unit mm)*
G04 Created by KiCad (PCBNEW 8.0.9-8.0.9-0~ubuntu22.04.1) date 2025-04-19 21:52:58*
%MOMM*%
%LPD*%
G01*
G04 APERTURE LIST*
%TA.AperFunction,ComponentPad*%
%ADD10C,1.701800*%
%TD*%
%TA.AperFunction,ComponentPad*%
%ADD11R,1.300000X1.300000*%
%TD*%
%TA.AperFunction,ComponentPad*%
%ADD12C,1.300000*%
%TD*%
%TA.AperFunction,ComponentPad*%
%ADD13O,1.900000X2.900000*%
%TD*%
%TA.AperFunction,ComponentPad*%
%ADD14O,2.900000X1.900000*%
%TD*%
%TA.AperFunction,ComponentPad*%
%ADD15C,1.905000*%
%TD*%
%TA.AperFunction,ViaPad*%
%ADD16C,0.800000*%
%TD*%
%TA.AperFunction,Conductor*%
%ADD17C,0.400000*%
%TD*%
%TA.AperFunction,Conductor*%
%ADD18C,0.200000*%
%TD*%
G04 APERTURE END LIST*
D10*
%TO.P,J1,24,Pin_24*%
%TO.N,/VCC_5V_GPIO_FIL*%
X122408099Y-53736600D03*
%TO.P,J1,23,Pin_23*%
X119868099Y-53736600D03*
%TO.P,J1,22,Pin_22*%
%TO.N,GND*%
X122408099Y-56276600D03*
%TO.P,J1,21,Pin_21*%
X119868099Y-56276600D03*
%TO.P,J1,20,Pin_20*%
%TO.N,/I2C_SDA_CN2*%
X122408099Y-58816600D03*
%TO.P,J1,19,Pin_19*%
%TO.N,/USB_HUB_CN2_DP*%
X119868099Y-58816600D03*
%TO.P,J1,18,Pin_18*%
%TO.N,/I2C_SCL_CN2*%
X122408099Y-61356600D03*
%TO.P,J1,17,Pin_17*%
%TO.N,/USB_HUB_CN2_DN*%
X119868099Y-61356600D03*
%TO.P,J1,16,Pin_16*%
%TO.N,/B_RS485_TX-{slash}RS232_TXD_CN2*%
X122408099Y-63896600D03*
%TO.P,J1,15,Pin_15*%
%TO.N,/A_RS485_TX+{slash}RS232_RTS_CN2*%
X119868099Y-63896600D03*
%TO.P,J1,14,Pin_14*%
%TO.N,/A{slash}RS485_RX+{slash}RS232_RXD_CN2*%
X122408099Y-66436600D03*
%TO.P,J1,13,Pin_13*%
%TO.N,/B{slash}RS485_RX-{slash}RS232_CTS_CN2*%
X119868099Y-66436600D03*
%TO.P,J1,12,Pin_12*%
%TO.N,/GPIO_CN2_0*%
X122408099Y-68976600D03*
%TO.P,J1,11,Pin_11*%
%TO.N,/GPIO_CN2_3*%
X119868099Y-68976600D03*
%TO.P,J1,10,Pin_10*%
%TO.N,/GPIO_CN2_1*%
X122408099Y-71516600D03*
%TO.P,J1,9,Pin_9*%
%TO.N,/GPIO_CN2_2*%
X119868099Y-71516600D03*
%TO.P,J1,8,Pin_8*%
%TO.N,/GPIO_CN2_SPI_SS*%
X122408099Y-74056600D03*
%TO.P,J1,7,Pin_7*%
%TO.N,/GPIO_CN2_SPI_MISO*%
X119868099Y-74056600D03*
%TO.P,J1,6,Pin_6*%
%TO.N,/GPIO_CN2_SPI_MOSI*%
X122408099Y-76596600D03*
%TO.P,J1,5,Pin_5*%
%TO.N,/GPIO_CN2_SPI_SCLK*%
X119868099Y-76596600D03*
%TO.P,J1,4,Pin_4*%
%TO.N,GND*%
X122408099Y-79136600D03*
%TO.P,J1,3,Pin_3*%
X119868099Y-79136600D03*
%TO.P,J1,2,Pin_2*%
%TO.N,/VCC_3V3_GPIO_FIL*%
X122408099Y-81676600D03*
%TO.P,J1,1,Pin_1*%
X119868099Y-81676600D03*
%TD*%
D11*
%TO.P,J2,1,VCC*%
%TO.N,/VCC_5V_GPIO_FIL*%
X166740000Y-46830000D03*
D12*
%TO.P,J2,2,D-*%
%TO.N,/USB_HUB_CN2_DN*%
X164240000Y-46830000D03*
%TO.P,J2,3,D+*%
%TO.N,/USB_HUB_CN2_DP*%
X162240000Y-46830000D03*
%TO.P,J2,4,GND*%
%TO.N,GND*%
X159740000Y-46830000D03*
D13*
%TO.P,J2,5,SHIELD*%
X169810000Y-47430000D03*
D14*
X163240000Y-51610000D03*
D13*
X156670000Y-47430000D03*
%TD*%
D15*
%TO.P,U5,0,GPIO0*%
%TO.N,unconnected-(U5-GPIO0-Pad0)*%
X169240000Y-66900000D03*
%TO.P,U5,1,GPIO1*%
%TO.N,unconnected-(U5-GPIO1-Pad1)*%
X169240000Y-69440000D03*
%TO.P,U5,2,GPIO2*%
%TO.N,unconnected-(U5-GPIO2-Pad2)*%
X169240000Y-71980000D03*
%TO.P,U5,3,GPIO3*%
%TO.N,unconnected-(U5-GPIO3-Pad3)*%
X169240000Y-74520000D03*
%TO.P,U5,3.3,3V3*%
%TO.N,unconnected-(U5-3V3-Pad3.3)*%
X169240000Y-79600000D03*
%TO.P,U5,4,GPIO4*%
%TO.N,unconnected-(U5-GPIO4-Pad4)*%
X169240000Y-77060000D03*
%TO.P,U5,5,GPIO5*%
%TO.N,/ECHO_GPIO_CN2_0*%
X154000000Y-84680000D03*
%TO.P,U5,5V,5V*%
%TO.N,/VCC_5V_GPIO_FIL*%
X169240000Y-84680000D03*
%TO.P,U5,6,GPIO6*%
%TO.N,/ECHO_GPIO_CN2_1*%
X154000000Y-82140000D03*
%TO.P,U5,7,GPIO7*%
%TO.N,/GPIO_CN2_1*%
X154000000Y-79600000D03*
%TO.P,U5,8,GPIO8*%
%TO.N,/GPIO_CN2_0*%
X154000000Y-77060000D03*
%TO.P,U5,9,GPIO9*%
%TO.N,/485TX*%
X154000000Y-74520000D03*
%TO.P,U5,10,GPIO10*%
%TO.N,/485DE*%
X154000000Y-71980000D03*
%TO.P,U5,20,GPIO20*%
%TO.N,/485RX*%
X154000000Y-69440000D03*
%TO.P,U5,21,GPIO21*%
%TO.N,/485RE*%
X154000000Y-66900000D03*
%TO.P,U5,G,GND*%
%TO.N,GND*%
X169240000Y-82140000D03*
%TD*%
D16*
%TO.N,GND*%
X135510000Y-68280000D03*
X135520000Y-71860000D03*
X143550000Y-62590000D03*
X143530000Y-67600000D03*
%TO.N,/GPIO_CN2_3*%
X145900000Y-76950000D03*
X151200000Y-74720000D03*
%TO.N,/VCC_3V3_GPIO_FIL*%
X125940000Y-80910000D03*
X125940000Y-76460000D03*
%TO.N,/VCC_5V_GPIO_FIL*%
X120900000Y-46570000D03*
X120400000Y-52200000D03*
%TO.N,GND*%
X137640000Y-58420000D03*
X148550000Y-57320000D03*
X148570000Y-61000000D03*
X131160000Y-81804999D03*
X156500000Y-56000000D03*
X139770000Y-56720000D03*
X130850000Y-77650000D03*
%TO.N,/VCC_3V3_GPIO_FIL*%
X128510000Y-71674999D03*
X128520000Y-75474999D03*
X133080000Y-70614999D03*
X133005000Y-59120000D03*
X130190000Y-65510000D03*
X133010000Y-65510000D03*
%TD*%
D17*
%TO.N,GND*%
X135510000Y-68280000D02*
X135510000Y-71850000D01*
X135510000Y-71850000D02*
X135520000Y-71860000D01*
X143530000Y-67600000D02*
X143530000Y-62610000D01*
X143530000Y-62610000D02*
X143550000Y-62590000D01*
D18*
%TO.N,/GPIO_CN2_3*%
X150240000Y-76950000D02*
X151230000Y-75960000D01*
X145900000Y-76950000D02*
X150240000Y-76950000D01*
X151200000Y-75930000D02*
X151200000Y-74720000D01*
X151230000Y-75960000D02*
X151200000Y-75930000D01*
D17*
%TO.N,/VCC_3V3_GPIO_FIL*%
X125940000Y-76460000D02*
X125940000Y-80910000D01*
%TO.N,/VCC_5V_GPIO_FIL*%
X120400000Y-47070000D02*
X120900000Y-46570000D01*
X120400000Y-52200000D02*
X120400000Y-47070000D01*
%TO.N,GND*%
X148550000Y-57320000D02*
X148550000Y-60980000D01*
X148550000Y-60980000D02*
X148570000Y-61000000D01*
%TO.N,/VCC_3V3_GPIO_FIL*%
X128520000Y-75474999D02*
X128520000Y-71684999D01*
X128520000Y-71684999D02*
X128510000Y-71674999D01*
%TO.N,GND*%
X131150000Y-81794999D02*
X131160000Y-81804999D01*
X131150000Y-77950000D02*
X131150000Y-81794999D01*
X130850000Y-77650000D02*
X131150000Y-77950000D01*
%TO.N,/VCC_3V3_GPIO_FIL*%
X130210000Y-65490000D02*
X130190000Y-65510000D01*
X133010000Y-65510000D02*
X130190000Y-65510000D01*
X133010000Y-70544999D02*
X133080000Y-70614999D01*
X133010000Y-60180000D02*
X133005000Y-60175000D01*
X133005000Y-60175000D02*
X133005000Y-59120000D01*
X133010000Y-65510000D02*
X133010000Y-60180000D01*
X133010000Y-65510000D02*
X133010000Y-70544999D01*
%TD*%
M02*
