%TF.GenerationSoftware,KiCad,Pcbnew,8.0.9-4-gd7388e2a70*%
%TF.CreationDate,2025-04-15T12:07:21-05:00*%
%TF.ProjectId,test_board,74657374-5f62-46f6-9172-642e6b696361,rev?*%
%TF.SameCoordinates,Original*%
%TF.FileFunction,Drillmap*%
%TF.FilePolarity,Positive*%
%FSLAX45Y45*%
G04 Gerber Fmt 4.5, Leading zero omitted, Abs format (unit mm)*
G04 Created by KiCad (PCBNEW 8.0.9-4-gd7388e2a70) date 2025-04-15 12:07:21*
%MOMM*%
%LPD*%
G01*
G04 APERTURE LIST*
%ADD10C,0.100000*%
%ADD11C,0.200000*%
%ADD12C,0.119380*%
%ADD13C,0.127000*%
%ADD14C,0.178000*%
G04 APERTURE END LIST*
D10*
X11512000Y-4140000D02*
X17510000Y-4140000D01*
X17510000Y-8807000D01*
X11512000Y-8807000D01*
X11512000Y-4140000D01*
D11*
D10*
X12020000Y-5200000D02*
X12060000Y-5240000D01*
X12060000Y-5200000D02*
X12020000Y-5240000D01*
X12070000Y-4637000D02*
X12110000Y-4677000D01*
X12110000Y-4637000D02*
X12070000Y-4677000D01*
X12824000Y-6623000D02*
X12864000Y-6663000D01*
X12864000Y-6623000D02*
X12824000Y-6663000D01*
X12825000Y-7099000D02*
X12865000Y-7139000D01*
X12865000Y-7099000D02*
X12825000Y-7139000D01*
X13105000Y-7380000D02*
X13145000Y-7420000D01*
X13145000Y-7380000D02*
X13105000Y-7420000D01*
X13106000Y-7934000D02*
X13146000Y-7974000D01*
X13146000Y-7934000D02*
X13106000Y-7974000D01*
X13280500Y-5892000D02*
X13320500Y-5932000D01*
X13320500Y-5892000D02*
X13280500Y-5932000D01*
X13281000Y-6517000D02*
X13321000Y-6557000D01*
X13321000Y-6517000D02*
X13281000Y-6557000D01*
X13744000Y-5822000D02*
X13784000Y-5862000D01*
X13784000Y-5822000D02*
X13744000Y-5862000D01*
X13957000Y-5652000D02*
X13997000Y-5692000D01*
X13997000Y-5652000D02*
X13957000Y-5692000D01*
X14835000Y-5712000D02*
X14875000Y-5752000D01*
X14875000Y-5712000D02*
X14835000Y-5752000D01*
X14837000Y-6080000D02*
X14877000Y-6120000D01*
X14877000Y-6080000D02*
X14837000Y-6120000D01*
X15272000Y-6312000D02*
X15312000Y-6352000D01*
X15312000Y-6312000D02*
X15272000Y-6352000D01*
X15630000Y-5580000D02*
X15670000Y-5620000D01*
X15670000Y-5580000D02*
X15630000Y-5620000D01*
X16158000Y-6222000D02*
X16198000Y-6262000D01*
X16198000Y-6222000D02*
X16158000Y-6262000D01*
X16533000Y-6256000D02*
X16573000Y-6296000D01*
X16573000Y-6256000D02*
X16533000Y-6296000D01*
X15737285Y-4906765D02*
G75*
G02*
X15645285Y-4906765I-46000J0D01*
G01*
X15645285Y-4906765D02*
G75*
G02*
X15737285Y-4906765I46000J0D01*
G01*
X15937285Y-4906765D02*
G75*
G02*
X15845285Y-4906765I-46000J0D01*
G01*
X15845285Y-4906765D02*
G75*
G02*
X15937285Y-4906765I46000J0D01*
G01*
X16137285Y-4906765D02*
G75*
G02*
X16045285Y-4906765I-46000J0D01*
G01*
X16045285Y-4906765D02*
G75*
G02*
X16137285Y-4906765I46000J0D01*
G01*
X16337285Y-4906765D02*
G75*
G02*
X16245285Y-4906765I-46000J0D01*
G01*
X16245285Y-4906765D02*
G75*
G02*
X16337285Y-4906765I46000J0D01*
G01*
D12*
X11986810Y-5313970D02*
X11986810Y-5433350D01*
X11927120Y-5373660D02*
X12046500Y-5373660D01*
X11986810Y-5567970D02*
X11986810Y-5687350D01*
X11927120Y-5627660D02*
X12046500Y-5627660D01*
X11986810Y-5821970D02*
X11986810Y-5941350D01*
X11927120Y-5881660D02*
X12046500Y-5881660D01*
X11986810Y-6075970D02*
X11986810Y-6195350D01*
X11927120Y-6135660D02*
X12046500Y-6135660D01*
X11986810Y-6329970D02*
X11986810Y-6449350D01*
X11927120Y-6389660D02*
X12046500Y-6389660D01*
X11986810Y-6583970D02*
X11986810Y-6703350D01*
X11927120Y-6643660D02*
X12046500Y-6643660D01*
X11986810Y-6837970D02*
X11986810Y-6957350D01*
X11927120Y-6897660D02*
X12046500Y-6897660D01*
X11986810Y-7091970D02*
X11986810Y-7211350D01*
X11927120Y-7151660D02*
X12046500Y-7151660D01*
X11986810Y-7345970D02*
X11986810Y-7465350D01*
X11927120Y-7405660D02*
X12046500Y-7405660D01*
X11986810Y-7599970D02*
X11986810Y-7719350D01*
X11927120Y-7659660D02*
X12046500Y-7659660D01*
X11986810Y-7853970D02*
X11986810Y-7973350D01*
X11927120Y-7913660D02*
X12046500Y-7913660D01*
X11986810Y-8107970D02*
X11986810Y-8227350D01*
X11927120Y-8167660D02*
X12046500Y-8167660D01*
X12240810Y-5313970D02*
X12240810Y-5433350D01*
X12181120Y-5373660D02*
X12300500Y-5373660D01*
X12240810Y-5567970D02*
X12240810Y-5687350D01*
X12181120Y-5627660D02*
X12300500Y-5627660D01*
X12240810Y-5821970D02*
X12240810Y-5941350D01*
X12181120Y-5881660D02*
X12300500Y-5881660D01*
X12240810Y-6075970D02*
X12240810Y-6195350D01*
X12181120Y-6135660D02*
X12300500Y-6135660D01*
X12240810Y-6329970D02*
X12240810Y-6449350D01*
X12181120Y-6389660D02*
X12300500Y-6389660D01*
X12240810Y-6583970D02*
X12240810Y-6703350D01*
X12181120Y-6643660D02*
X12300500Y-6643660D01*
X12240810Y-6837970D02*
X12240810Y-6957350D01*
X12181120Y-6897660D02*
X12300500Y-6897660D01*
X12240810Y-7091970D02*
X12240810Y-7211350D01*
X12181120Y-7151660D02*
X12300500Y-7151660D01*
X12240810Y-7345970D02*
X12240810Y-7465350D01*
X12181120Y-7405660D02*
X12300500Y-7405660D01*
X12240810Y-7599970D02*
X12240810Y-7719350D01*
X12181120Y-7659660D02*
X12300500Y-7659660D01*
X12240810Y-7853970D02*
X12240810Y-7973350D01*
X12181120Y-7913660D02*
X12300500Y-7913660D01*
X12240810Y-8107970D02*
X12240810Y-8227350D01*
X12181120Y-8167660D02*
X12300500Y-8167660D01*
D13*
X14833902Y-6771902D02*
X14833902Y-6682098D01*
X14744098Y-6682098D01*
X14744098Y-6771902D01*
X14833902Y-6771902D01*
X14833902Y-7025902D02*
X14833902Y-6936098D01*
X14744098Y-6936098D01*
X14744098Y-7025902D01*
X14833902Y-7025902D01*
X14833902Y-7279902D02*
X14833902Y-7190098D01*
X14744098Y-7190098D01*
X14744098Y-7279902D01*
X14833902Y-7279902D01*
X14833902Y-7533902D02*
X14833902Y-7444098D01*
X14744098Y-7444098D01*
X14744098Y-7533902D01*
X14833902Y-7533902D01*
X14833902Y-7787902D02*
X14833902Y-7698098D01*
X14744098Y-7698098D01*
X14744098Y-7787902D01*
X14833902Y-7787902D01*
X14833902Y-8041902D02*
X14833902Y-7952098D01*
X14744098Y-7952098D01*
X14744098Y-8041902D01*
X14833902Y-8041902D01*
X14833902Y-8295902D02*
X14833902Y-8206098D01*
X14744098Y-8206098D01*
X14744098Y-8295902D01*
X14833902Y-8295902D01*
X14833902Y-8549902D02*
X14833902Y-8460098D01*
X14744098Y-8460098D01*
X14744098Y-8549902D01*
X14833902Y-8549902D01*
X16357902Y-6771902D02*
X16357902Y-6682098D01*
X16268098Y-6682098D01*
X16268098Y-6771902D01*
X16357902Y-6771902D01*
X16357902Y-7025902D02*
X16357902Y-6936098D01*
X16268098Y-6936098D01*
X16268098Y-7025902D01*
X16357902Y-7025902D01*
X16357902Y-7279902D02*
X16357902Y-7190098D01*
X16268098Y-7190098D01*
X16268098Y-7279902D01*
X16357902Y-7279902D01*
X16357902Y-7533902D02*
X16357902Y-7444098D01*
X16268098Y-7444098D01*
X16268098Y-7533902D01*
X16357902Y-7533902D01*
X16357902Y-7787902D02*
X16357902Y-7698098D01*
X16268098Y-7698098D01*
X16268098Y-7787902D01*
X16357902Y-7787902D01*
X16357902Y-8041902D02*
X16357902Y-7952098D01*
X16268098Y-7952098D01*
X16268098Y-8041902D01*
X16357902Y-8041902D01*
X16357902Y-8295902D02*
X16357902Y-8206098D01*
X16268098Y-8206098D01*
X16268098Y-8295902D01*
X16357902Y-8295902D01*
X16357902Y-8549902D02*
X16357902Y-8460098D01*
X16268098Y-8460098D01*
X16268098Y-8549902D01*
X16357902Y-8549902D01*
D14*
X15641285Y-4723765D02*
X15730285Y-4634765D01*
X15641285Y-4545765D01*
X15552285Y-4634765D01*
X15641285Y-4723765D01*
X15641285Y-5267765D02*
X15730285Y-5178765D01*
X15641285Y-5089765D01*
X15552285Y-5178765D01*
X15641285Y-5267765D01*
X16341285Y-4723765D02*
X16430285Y-4634765D01*
X16341285Y-4545765D01*
X16252285Y-4634765D01*
X16341285Y-4723765D01*
X16341285Y-5267765D02*
X16430285Y-5178765D01*
X16341285Y-5089765D01*
X16252285Y-5178765D01*
X16341285Y-5267765D01*
D11*
X11767777Y-9123484D02*
X11767777Y-8923484D01*
X11767777Y-8923484D02*
X11815396Y-8923484D01*
X11815396Y-8923484D02*
X11843967Y-8933008D01*
X11843967Y-8933008D02*
X11863015Y-8952055D01*
X11863015Y-8952055D02*
X11872539Y-8971103D01*
X11872539Y-8971103D02*
X11882062Y-9009198D01*
X11882062Y-9009198D02*
X11882062Y-9037770D01*
X11882062Y-9037770D02*
X11872539Y-9075865D01*
X11872539Y-9075865D02*
X11863015Y-9094912D01*
X11863015Y-9094912D02*
X11843967Y-9113960D01*
X11843967Y-9113960D02*
X11815396Y-9123484D01*
X11815396Y-9123484D02*
X11767777Y-9123484D01*
X11967777Y-9123484D02*
X11967777Y-8990150D01*
X11967777Y-9028246D02*
X11977301Y-9009198D01*
X11977301Y-9009198D02*
X11986824Y-8999674D01*
X11986824Y-8999674D02*
X12005872Y-8990150D01*
X12005872Y-8990150D02*
X12024920Y-8990150D01*
X12091586Y-9123484D02*
X12091586Y-8990150D01*
X12091586Y-8923484D02*
X12082062Y-8933008D01*
X12082062Y-8933008D02*
X12091586Y-8942531D01*
X12091586Y-8942531D02*
X12101110Y-8933008D01*
X12101110Y-8933008D02*
X12091586Y-8923484D01*
X12091586Y-8923484D02*
X12091586Y-8942531D01*
X12215396Y-9123484D02*
X12196348Y-9113960D01*
X12196348Y-9113960D02*
X12186824Y-9094912D01*
X12186824Y-9094912D02*
X12186824Y-8923484D01*
X12320158Y-9123484D02*
X12301110Y-9113960D01*
X12301110Y-9113960D02*
X12291586Y-9094912D01*
X12291586Y-9094912D02*
X12291586Y-8923484D01*
X12548729Y-9123484D02*
X12548729Y-8923484D01*
X12548729Y-8923484D02*
X12615396Y-9066341D01*
X12615396Y-9066341D02*
X12682062Y-8923484D01*
X12682062Y-8923484D02*
X12682062Y-9123484D01*
X12863015Y-9123484D02*
X12863015Y-9018722D01*
X12863015Y-9018722D02*
X12853491Y-8999674D01*
X12853491Y-8999674D02*
X12834443Y-8990150D01*
X12834443Y-8990150D02*
X12796348Y-8990150D01*
X12796348Y-8990150D02*
X12777301Y-8999674D01*
X12863015Y-9113960D02*
X12843967Y-9123484D01*
X12843967Y-9123484D02*
X12796348Y-9123484D01*
X12796348Y-9123484D02*
X12777301Y-9113960D01*
X12777301Y-9113960D02*
X12767777Y-9094912D01*
X12767777Y-9094912D02*
X12767777Y-9075865D01*
X12767777Y-9075865D02*
X12777301Y-9056817D01*
X12777301Y-9056817D02*
X12796348Y-9047293D01*
X12796348Y-9047293D02*
X12843967Y-9047293D01*
X12843967Y-9047293D02*
X12863015Y-9037770D01*
X12958253Y-8990150D02*
X12958253Y-9190150D01*
X12958253Y-8999674D02*
X12977301Y-8990150D01*
X12977301Y-8990150D02*
X13015396Y-8990150D01*
X13015396Y-8990150D02*
X13034443Y-8999674D01*
X13034443Y-8999674D02*
X13043967Y-9009198D01*
X13043967Y-9009198D02*
X13053491Y-9028246D01*
X13053491Y-9028246D02*
X13053491Y-9085389D01*
X13053491Y-9085389D02*
X13043967Y-9104436D01*
X13043967Y-9104436D02*
X13034443Y-9113960D01*
X13034443Y-9113960D02*
X13015396Y-9123484D01*
X13015396Y-9123484D02*
X12977301Y-9123484D01*
X12977301Y-9123484D02*
X12958253Y-9113960D01*
X13139205Y-9104436D02*
X13148729Y-9113960D01*
X13148729Y-9113960D02*
X13139205Y-9123484D01*
X13139205Y-9123484D02*
X13129682Y-9113960D01*
X13129682Y-9113960D02*
X13139205Y-9104436D01*
X13139205Y-9104436D02*
X13139205Y-9123484D01*
X13139205Y-8999674D02*
X13148729Y-9009198D01*
X13148729Y-9009198D02*
X13139205Y-9018722D01*
X13139205Y-9018722D02*
X13129682Y-9009198D01*
X13129682Y-9009198D02*
X13139205Y-8999674D01*
X13139205Y-8999674D02*
X13139205Y-9018722D01*
D10*
X11467000Y-9432000D02*
X11507000Y-9472000D01*
X11507000Y-9432000D02*
X11467000Y-9472000D01*
D11*
X11805872Y-9343484D02*
X11824920Y-9343484D01*
X11824920Y-9343484D02*
X11843967Y-9353008D01*
X11843967Y-9353008D02*
X11853491Y-9362531D01*
X11853491Y-9362531D02*
X11863015Y-9381579D01*
X11863015Y-9381579D02*
X11872539Y-9419674D01*
X11872539Y-9419674D02*
X11872539Y-9467293D01*
X11872539Y-9467293D02*
X11863015Y-9505389D01*
X11863015Y-9505389D02*
X11853491Y-9524436D01*
X11853491Y-9524436D02*
X11843967Y-9533960D01*
X11843967Y-9533960D02*
X11824920Y-9543484D01*
X11824920Y-9543484D02*
X11805872Y-9543484D01*
X11805872Y-9543484D02*
X11786824Y-9533960D01*
X11786824Y-9533960D02*
X11777301Y-9524436D01*
X11777301Y-9524436D02*
X11767777Y-9505389D01*
X11767777Y-9505389D02*
X11758253Y-9467293D01*
X11758253Y-9467293D02*
X11758253Y-9419674D01*
X11758253Y-9419674D02*
X11767777Y-9381579D01*
X11767777Y-9381579D02*
X11777301Y-9362531D01*
X11777301Y-9362531D02*
X11786824Y-9353008D01*
X11786824Y-9353008D02*
X11805872Y-9343484D01*
X11958253Y-9524436D02*
X11967777Y-9533960D01*
X11967777Y-9533960D02*
X11958253Y-9543484D01*
X11958253Y-9543484D02*
X11948729Y-9533960D01*
X11948729Y-9533960D02*
X11958253Y-9524436D01*
X11958253Y-9524436D02*
X11958253Y-9543484D01*
X12139205Y-9410150D02*
X12139205Y-9543484D01*
X12091586Y-9333960D02*
X12043967Y-9476817D01*
X12043967Y-9476817D02*
X12167777Y-9476817D01*
X12282062Y-9343484D02*
X12301110Y-9343484D01*
X12301110Y-9343484D02*
X12320158Y-9353008D01*
X12320158Y-9353008D02*
X12329682Y-9362531D01*
X12329682Y-9362531D02*
X12339205Y-9381579D01*
X12339205Y-9381579D02*
X12348729Y-9419674D01*
X12348729Y-9419674D02*
X12348729Y-9467293D01*
X12348729Y-9467293D02*
X12339205Y-9505389D01*
X12339205Y-9505389D02*
X12329682Y-9524436D01*
X12329682Y-9524436D02*
X12320158Y-9533960D01*
X12320158Y-9533960D02*
X12301110Y-9543484D01*
X12301110Y-9543484D02*
X12282062Y-9543484D01*
X12282062Y-9543484D02*
X12263015Y-9533960D01*
X12263015Y-9533960D02*
X12253491Y-9524436D01*
X12253491Y-9524436D02*
X12243967Y-9505389D01*
X12243967Y-9505389D02*
X12234443Y-9467293D01*
X12234443Y-9467293D02*
X12234443Y-9419674D01*
X12234443Y-9419674D02*
X12243967Y-9381579D01*
X12243967Y-9381579D02*
X12253491Y-9362531D01*
X12253491Y-9362531D02*
X12263015Y-9353008D01*
X12263015Y-9353008D02*
X12282062Y-9343484D01*
X12472539Y-9343484D02*
X12491586Y-9343484D01*
X12491586Y-9343484D02*
X12510634Y-9353008D01*
X12510634Y-9353008D02*
X12520158Y-9362531D01*
X12520158Y-9362531D02*
X12529682Y-9381579D01*
X12529682Y-9381579D02*
X12539205Y-9419674D01*
X12539205Y-9419674D02*
X12539205Y-9467293D01*
X12539205Y-9467293D02*
X12529682Y-9505389D01*
X12529682Y-9505389D02*
X12520158Y-9524436D01*
X12520158Y-9524436D02*
X12510634Y-9533960D01*
X12510634Y-9533960D02*
X12491586Y-9543484D01*
X12491586Y-9543484D02*
X12472539Y-9543484D01*
X12472539Y-9543484D02*
X12453491Y-9533960D01*
X12453491Y-9533960D02*
X12443967Y-9524436D01*
X12443967Y-9524436D02*
X12434443Y-9505389D01*
X12434443Y-9505389D02*
X12424920Y-9467293D01*
X12424920Y-9467293D02*
X12424920Y-9419674D01*
X12424920Y-9419674D02*
X12434443Y-9381579D01*
X12434443Y-9381579D02*
X12443967Y-9362531D01*
X12443967Y-9362531D02*
X12453491Y-9353008D01*
X12453491Y-9353008D02*
X12472539Y-9343484D01*
X12624920Y-9543484D02*
X12624920Y-9410150D01*
X12624920Y-9429198D02*
X12634443Y-9419674D01*
X12634443Y-9419674D02*
X12653491Y-9410150D01*
X12653491Y-9410150D02*
X12682063Y-9410150D01*
X12682063Y-9410150D02*
X12701110Y-9419674D01*
X12701110Y-9419674D02*
X12710634Y-9438722D01*
X12710634Y-9438722D02*
X12710634Y-9543484D01*
X12710634Y-9438722D02*
X12720158Y-9419674D01*
X12720158Y-9419674D02*
X12739205Y-9410150D01*
X12739205Y-9410150D02*
X12767777Y-9410150D01*
X12767777Y-9410150D02*
X12786824Y-9419674D01*
X12786824Y-9419674D02*
X12796348Y-9438722D01*
X12796348Y-9438722D02*
X12796348Y-9543484D01*
X12891586Y-9543484D02*
X12891586Y-9410150D01*
X12891586Y-9429198D02*
X12901110Y-9419674D01*
X12901110Y-9419674D02*
X12920158Y-9410150D01*
X12920158Y-9410150D02*
X12948729Y-9410150D01*
X12948729Y-9410150D02*
X12967777Y-9419674D01*
X12967777Y-9419674D02*
X12977301Y-9438722D01*
X12977301Y-9438722D02*
X12977301Y-9543484D01*
X12977301Y-9438722D02*
X12986824Y-9419674D01*
X12986824Y-9419674D02*
X13005872Y-9410150D01*
X13005872Y-9410150D02*
X13034443Y-9410150D01*
X13034443Y-9410150D02*
X13053491Y-9419674D01*
X13053491Y-9419674D02*
X13063015Y-9438722D01*
X13063015Y-9438722D02*
X13063015Y-9543484D01*
X13453491Y-9333960D02*
X13282063Y-9591103D01*
X13710634Y-9343484D02*
X13729682Y-9343484D01*
X13729682Y-9343484D02*
X13748729Y-9353008D01*
X13748729Y-9353008D02*
X13758253Y-9362531D01*
X13758253Y-9362531D02*
X13767777Y-9381579D01*
X13767777Y-9381579D02*
X13777301Y-9419674D01*
X13777301Y-9419674D02*
X13777301Y-9467293D01*
X13777301Y-9467293D02*
X13767777Y-9505389D01*
X13767777Y-9505389D02*
X13758253Y-9524436D01*
X13758253Y-9524436D02*
X13748729Y-9533960D01*
X13748729Y-9533960D02*
X13729682Y-9543484D01*
X13729682Y-9543484D02*
X13710634Y-9543484D01*
X13710634Y-9543484D02*
X13691586Y-9533960D01*
X13691586Y-9533960D02*
X13682063Y-9524436D01*
X13682063Y-9524436D02*
X13672539Y-9505389D01*
X13672539Y-9505389D02*
X13663015Y-9467293D01*
X13663015Y-9467293D02*
X13663015Y-9419674D01*
X13663015Y-9419674D02*
X13672539Y-9381579D01*
X13672539Y-9381579D02*
X13682063Y-9362531D01*
X13682063Y-9362531D02*
X13691586Y-9353008D01*
X13691586Y-9353008D02*
X13710634Y-9343484D01*
X13863015Y-9524436D02*
X13872539Y-9533960D01*
X13872539Y-9533960D02*
X13863015Y-9543484D01*
X13863015Y-9543484D02*
X13853491Y-9533960D01*
X13853491Y-9533960D02*
X13863015Y-9524436D01*
X13863015Y-9524436D02*
X13863015Y-9543484D01*
X13996348Y-9343484D02*
X14015396Y-9343484D01*
X14015396Y-9343484D02*
X14034444Y-9353008D01*
X14034444Y-9353008D02*
X14043967Y-9362531D01*
X14043967Y-9362531D02*
X14053491Y-9381579D01*
X14053491Y-9381579D02*
X14063015Y-9419674D01*
X14063015Y-9419674D02*
X14063015Y-9467293D01*
X14063015Y-9467293D02*
X14053491Y-9505389D01*
X14053491Y-9505389D02*
X14043967Y-9524436D01*
X14043967Y-9524436D02*
X14034444Y-9533960D01*
X14034444Y-9533960D02*
X14015396Y-9543484D01*
X14015396Y-9543484D02*
X13996348Y-9543484D01*
X13996348Y-9543484D02*
X13977301Y-9533960D01*
X13977301Y-9533960D02*
X13967777Y-9524436D01*
X13967777Y-9524436D02*
X13958253Y-9505389D01*
X13958253Y-9505389D02*
X13948729Y-9467293D01*
X13948729Y-9467293D02*
X13948729Y-9419674D01*
X13948729Y-9419674D02*
X13958253Y-9381579D01*
X13958253Y-9381579D02*
X13967777Y-9362531D01*
X13967777Y-9362531D02*
X13977301Y-9353008D01*
X13977301Y-9353008D02*
X13996348Y-9343484D01*
X14253491Y-9543484D02*
X14139206Y-9543484D01*
X14196348Y-9543484D02*
X14196348Y-9343484D01*
X14196348Y-9343484D02*
X14177301Y-9372055D01*
X14177301Y-9372055D02*
X14158253Y-9391103D01*
X14158253Y-9391103D02*
X14139206Y-9400627D01*
X14434444Y-9343484D02*
X14339206Y-9343484D01*
X14339206Y-9343484D02*
X14329682Y-9438722D01*
X14329682Y-9438722D02*
X14339206Y-9429198D01*
X14339206Y-9429198D02*
X14358253Y-9419674D01*
X14358253Y-9419674D02*
X14405872Y-9419674D01*
X14405872Y-9419674D02*
X14424920Y-9429198D01*
X14424920Y-9429198D02*
X14434444Y-9438722D01*
X14434444Y-9438722D02*
X14443967Y-9457770D01*
X14443967Y-9457770D02*
X14443967Y-9505389D01*
X14443967Y-9505389D02*
X14434444Y-9524436D01*
X14434444Y-9524436D02*
X14424920Y-9533960D01*
X14424920Y-9533960D02*
X14405872Y-9543484D01*
X14405872Y-9543484D02*
X14358253Y-9543484D01*
X14358253Y-9543484D02*
X14339206Y-9533960D01*
X14339206Y-9533960D02*
X14329682Y-9524436D01*
X14510634Y-9343484D02*
X14643967Y-9343484D01*
X14643967Y-9343484D02*
X14558253Y-9543484D01*
X14710634Y-9343484D02*
X14710634Y-9381579D01*
X14786825Y-9343484D02*
X14786825Y-9381579D01*
X15082063Y-9619674D02*
X15072539Y-9610150D01*
X15072539Y-9610150D02*
X15053491Y-9581579D01*
X15053491Y-9581579D02*
X15043968Y-9562531D01*
X15043968Y-9562531D02*
X15034444Y-9533960D01*
X15034444Y-9533960D02*
X15024920Y-9486341D01*
X15024920Y-9486341D02*
X15024920Y-9448246D01*
X15024920Y-9448246D02*
X15034444Y-9400627D01*
X15034444Y-9400627D02*
X15043968Y-9372055D01*
X15043968Y-9372055D02*
X15053491Y-9353008D01*
X15053491Y-9353008D02*
X15072539Y-9324436D01*
X15072539Y-9324436D02*
X15082063Y-9314912D01*
X15263015Y-9543484D02*
X15148729Y-9543484D01*
X15205872Y-9543484D02*
X15205872Y-9343484D01*
X15205872Y-9343484D02*
X15186825Y-9372055D01*
X15186825Y-9372055D02*
X15167777Y-9391103D01*
X15167777Y-9391103D02*
X15148729Y-9400627D01*
X15434444Y-9343484D02*
X15396348Y-9343484D01*
X15396348Y-9343484D02*
X15377301Y-9353008D01*
X15377301Y-9353008D02*
X15367777Y-9362531D01*
X15367777Y-9362531D02*
X15348729Y-9391103D01*
X15348729Y-9391103D02*
X15339206Y-9429198D01*
X15339206Y-9429198D02*
X15339206Y-9505389D01*
X15339206Y-9505389D02*
X15348729Y-9524436D01*
X15348729Y-9524436D02*
X15358253Y-9533960D01*
X15358253Y-9533960D02*
X15377301Y-9543484D01*
X15377301Y-9543484D02*
X15415396Y-9543484D01*
X15415396Y-9543484D02*
X15434444Y-9533960D01*
X15434444Y-9533960D02*
X15443968Y-9524436D01*
X15443968Y-9524436D02*
X15453491Y-9505389D01*
X15453491Y-9505389D02*
X15453491Y-9457770D01*
X15453491Y-9457770D02*
X15443968Y-9438722D01*
X15443968Y-9438722D02*
X15434444Y-9429198D01*
X15434444Y-9429198D02*
X15415396Y-9419674D01*
X15415396Y-9419674D02*
X15377301Y-9419674D01*
X15377301Y-9419674D02*
X15358253Y-9429198D01*
X15358253Y-9429198D02*
X15348729Y-9438722D01*
X15348729Y-9438722D02*
X15339206Y-9457770D01*
X15691587Y-9543484D02*
X15691587Y-9343484D01*
X15777301Y-9543484D02*
X15777301Y-9438722D01*
X15777301Y-9438722D02*
X15767777Y-9419674D01*
X15767777Y-9419674D02*
X15748730Y-9410150D01*
X15748730Y-9410150D02*
X15720158Y-9410150D01*
X15720158Y-9410150D02*
X15701110Y-9419674D01*
X15701110Y-9419674D02*
X15691587Y-9429198D01*
X15901110Y-9543484D02*
X15882063Y-9533960D01*
X15882063Y-9533960D02*
X15872539Y-9524436D01*
X15872539Y-9524436D02*
X15863015Y-9505389D01*
X15863015Y-9505389D02*
X15863015Y-9448246D01*
X15863015Y-9448246D02*
X15872539Y-9429198D01*
X15872539Y-9429198D02*
X15882063Y-9419674D01*
X15882063Y-9419674D02*
X15901110Y-9410150D01*
X15901110Y-9410150D02*
X15929682Y-9410150D01*
X15929682Y-9410150D02*
X15948730Y-9419674D01*
X15948730Y-9419674D02*
X15958253Y-9429198D01*
X15958253Y-9429198D02*
X15967777Y-9448246D01*
X15967777Y-9448246D02*
X15967777Y-9505389D01*
X15967777Y-9505389D02*
X15958253Y-9524436D01*
X15958253Y-9524436D02*
X15948730Y-9533960D01*
X15948730Y-9533960D02*
X15929682Y-9543484D01*
X15929682Y-9543484D02*
X15901110Y-9543484D01*
X16082063Y-9543484D02*
X16063015Y-9533960D01*
X16063015Y-9533960D02*
X16053491Y-9514912D01*
X16053491Y-9514912D02*
X16053491Y-9343484D01*
X16234444Y-9533960D02*
X16215396Y-9543484D01*
X16215396Y-9543484D02*
X16177301Y-9543484D01*
X16177301Y-9543484D02*
X16158253Y-9533960D01*
X16158253Y-9533960D02*
X16148730Y-9514912D01*
X16148730Y-9514912D02*
X16148730Y-9438722D01*
X16148730Y-9438722D02*
X16158253Y-9419674D01*
X16158253Y-9419674D02*
X16177301Y-9410150D01*
X16177301Y-9410150D02*
X16215396Y-9410150D01*
X16215396Y-9410150D02*
X16234444Y-9419674D01*
X16234444Y-9419674D02*
X16243968Y-9438722D01*
X16243968Y-9438722D02*
X16243968Y-9457770D01*
X16243968Y-9457770D02*
X16148730Y-9476817D01*
X16320158Y-9533960D02*
X16339206Y-9543484D01*
X16339206Y-9543484D02*
X16377301Y-9543484D01*
X16377301Y-9543484D02*
X16396349Y-9533960D01*
X16396349Y-9533960D02*
X16405872Y-9514912D01*
X16405872Y-9514912D02*
X16405872Y-9505389D01*
X16405872Y-9505389D02*
X16396349Y-9486341D01*
X16396349Y-9486341D02*
X16377301Y-9476817D01*
X16377301Y-9476817D02*
X16348730Y-9476817D01*
X16348730Y-9476817D02*
X16329682Y-9467293D01*
X16329682Y-9467293D02*
X16320158Y-9448246D01*
X16320158Y-9448246D02*
X16320158Y-9438722D01*
X16320158Y-9438722D02*
X16329682Y-9419674D01*
X16329682Y-9419674D02*
X16348730Y-9410150D01*
X16348730Y-9410150D02*
X16377301Y-9410150D01*
X16377301Y-9410150D02*
X16396349Y-9419674D01*
X16472539Y-9619674D02*
X16482063Y-9610150D01*
X16482063Y-9610150D02*
X16501111Y-9581579D01*
X16501111Y-9581579D02*
X16510634Y-9562531D01*
X16510634Y-9562531D02*
X16520158Y-9533960D01*
X16520158Y-9533960D02*
X16529682Y-9486341D01*
X16529682Y-9486341D02*
X16529682Y-9448246D01*
X16529682Y-9448246D02*
X16520158Y-9400627D01*
X16520158Y-9400627D02*
X16510634Y-9372055D01*
X16510634Y-9372055D02*
X16501111Y-9353008D01*
X16501111Y-9353008D02*
X16482063Y-9324436D01*
X16482063Y-9324436D02*
X16472539Y-9314912D01*
D10*
X11507000Y-9716000D02*
G75*
G02*
X11415000Y-9716000I-46000J0D01*
G01*
X11415000Y-9716000D02*
G75*
G02*
X11507000Y-9716000I46000J0D01*
G01*
D11*
X11805872Y-9607484D02*
X11824920Y-9607484D01*
X11824920Y-9607484D02*
X11843967Y-9617008D01*
X11843967Y-9617008D02*
X11853491Y-9626531D01*
X11853491Y-9626531D02*
X11863015Y-9645579D01*
X11863015Y-9645579D02*
X11872539Y-9683674D01*
X11872539Y-9683674D02*
X11872539Y-9731293D01*
X11872539Y-9731293D02*
X11863015Y-9769389D01*
X11863015Y-9769389D02*
X11853491Y-9788436D01*
X11853491Y-9788436D02*
X11843967Y-9797960D01*
X11843967Y-9797960D02*
X11824920Y-9807484D01*
X11824920Y-9807484D02*
X11805872Y-9807484D01*
X11805872Y-9807484D02*
X11786824Y-9797960D01*
X11786824Y-9797960D02*
X11777301Y-9788436D01*
X11777301Y-9788436D02*
X11767777Y-9769389D01*
X11767777Y-9769389D02*
X11758253Y-9731293D01*
X11758253Y-9731293D02*
X11758253Y-9683674D01*
X11758253Y-9683674D02*
X11767777Y-9645579D01*
X11767777Y-9645579D02*
X11777301Y-9626531D01*
X11777301Y-9626531D02*
X11786824Y-9617008D01*
X11786824Y-9617008D02*
X11805872Y-9607484D01*
X11958253Y-9788436D02*
X11967777Y-9797960D01*
X11967777Y-9797960D02*
X11958253Y-9807484D01*
X11958253Y-9807484D02*
X11948729Y-9797960D01*
X11948729Y-9797960D02*
X11958253Y-9788436D01*
X11958253Y-9788436D02*
X11958253Y-9807484D01*
X12063015Y-9807484D02*
X12101110Y-9807484D01*
X12101110Y-9807484D02*
X12120158Y-9797960D01*
X12120158Y-9797960D02*
X12129682Y-9788436D01*
X12129682Y-9788436D02*
X12148729Y-9759865D01*
X12148729Y-9759865D02*
X12158253Y-9721770D01*
X12158253Y-9721770D02*
X12158253Y-9645579D01*
X12158253Y-9645579D02*
X12148729Y-9626531D01*
X12148729Y-9626531D02*
X12139205Y-9617008D01*
X12139205Y-9617008D02*
X12120158Y-9607484D01*
X12120158Y-9607484D02*
X12082062Y-9607484D01*
X12082062Y-9607484D02*
X12063015Y-9617008D01*
X12063015Y-9617008D02*
X12053491Y-9626531D01*
X12053491Y-9626531D02*
X12043967Y-9645579D01*
X12043967Y-9645579D02*
X12043967Y-9693198D01*
X12043967Y-9693198D02*
X12053491Y-9712246D01*
X12053491Y-9712246D02*
X12063015Y-9721770D01*
X12063015Y-9721770D02*
X12082062Y-9731293D01*
X12082062Y-9731293D02*
X12120158Y-9731293D01*
X12120158Y-9731293D02*
X12139205Y-9721770D01*
X12139205Y-9721770D02*
X12148729Y-9712246D01*
X12148729Y-9712246D02*
X12158253Y-9693198D01*
X12234443Y-9626531D02*
X12243967Y-9617008D01*
X12243967Y-9617008D02*
X12263015Y-9607484D01*
X12263015Y-9607484D02*
X12310634Y-9607484D01*
X12310634Y-9607484D02*
X12329682Y-9617008D01*
X12329682Y-9617008D02*
X12339205Y-9626531D01*
X12339205Y-9626531D02*
X12348729Y-9645579D01*
X12348729Y-9645579D02*
X12348729Y-9664627D01*
X12348729Y-9664627D02*
X12339205Y-9693198D01*
X12339205Y-9693198D02*
X12224920Y-9807484D01*
X12224920Y-9807484D02*
X12348729Y-9807484D01*
X12472539Y-9607484D02*
X12491586Y-9607484D01*
X12491586Y-9607484D02*
X12510634Y-9617008D01*
X12510634Y-9617008D02*
X12520158Y-9626531D01*
X12520158Y-9626531D02*
X12529682Y-9645579D01*
X12529682Y-9645579D02*
X12539205Y-9683674D01*
X12539205Y-9683674D02*
X12539205Y-9731293D01*
X12539205Y-9731293D02*
X12529682Y-9769389D01*
X12529682Y-9769389D02*
X12520158Y-9788436D01*
X12520158Y-9788436D02*
X12510634Y-9797960D01*
X12510634Y-9797960D02*
X12491586Y-9807484D01*
X12491586Y-9807484D02*
X12472539Y-9807484D01*
X12472539Y-9807484D02*
X12453491Y-9797960D01*
X12453491Y-9797960D02*
X12443967Y-9788436D01*
X12443967Y-9788436D02*
X12434443Y-9769389D01*
X12434443Y-9769389D02*
X12424920Y-9731293D01*
X12424920Y-9731293D02*
X12424920Y-9683674D01*
X12424920Y-9683674D02*
X12434443Y-9645579D01*
X12434443Y-9645579D02*
X12443967Y-9626531D01*
X12443967Y-9626531D02*
X12453491Y-9617008D01*
X12453491Y-9617008D02*
X12472539Y-9607484D01*
X12624920Y-9807484D02*
X12624920Y-9674150D01*
X12624920Y-9693198D02*
X12634443Y-9683674D01*
X12634443Y-9683674D02*
X12653491Y-9674150D01*
X12653491Y-9674150D02*
X12682063Y-9674150D01*
X12682063Y-9674150D02*
X12701110Y-9683674D01*
X12701110Y-9683674D02*
X12710634Y-9702722D01*
X12710634Y-9702722D02*
X12710634Y-9807484D01*
X12710634Y-9702722D02*
X12720158Y-9683674D01*
X12720158Y-9683674D02*
X12739205Y-9674150D01*
X12739205Y-9674150D02*
X12767777Y-9674150D01*
X12767777Y-9674150D02*
X12786824Y-9683674D01*
X12786824Y-9683674D02*
X12796348Y-9702722D01*
X12796348Y-9702722D02*
X12796348Y-9807484D01*
X12891586Y-9807484D02*
X12891586Y-9674150D01*
X12891586Y-9693198D02*
X12901110Y-9683674D01*
X12901110Y-9683674D02*
X12920158Y-9674150D01*
X12920158Y-9674150D02*
X12948729Y-9674150D01*
X12948729Y-9674150D02*
X12967777Y-9683674D01*
X12967777Y-9683674D02*
X12977301Y-9702722D01*
X12977301Y-9702722D02*
X12977301Y-9807484D01*
X12977301Y-9702722D02*
X12986824Y-9683674D01*
X12986824Y-9683674D02*
X13005872Y-9674150D01*
X13005872Y-9674150D02*
X13034443Y-9674150D01*
X13034443Y-9674150D02*
X13053491Y-9683674D01*
X13053491Y-9683674D02*
X13063015Y-9702722D01*
X13063015Y-9702722D02*
X13063015Y-9807484D01*
X13453491Y-9597960D02*
X13282063Y-9855103D01*
X13710634Y-9607484D02*
X13729682Y-9607484D01*
X13729682Y-9607484D02*
X13748729Y-9617008D01*
X13748729Y-9617008D02*
X13758253Y-9626531D01*
X13758253Y-9626531D02*
X13767777Y-9645579D01*
X13767777Y-9645579D02*
X13777301Y-9683674D01*
X13777301Y-9683674D02*
X13777301Y-9731293D01*
X13777301Y-9731293D02*
X13767777Y-9769389D01*
X13767777Y-9769389D02*
X13758253Y-9788436D01*
X13758253Y-9788436D02*
X13748729Y-9797960D01*
X13748729Y-9797960D02*
X13729682Y-9807484D01*
X13729682Y-9807484D02*
X13710634Y-9807484D01*
X13710634Y-9807484D02*
X13691586Y-9797960D01*
X13691586Y-9797960D02*
X13682063Y-9788436D01*
X13682063Y-9788436D02*
X13672539Y-9769389D01*
X13672539Y-9769389D02*
X13663015Y-9731293D01*
X13663015Y-9731293D02*
X13663015Y-9683674D01*
X13663015Y-9683674D02*
X13672539Y-9645579D01*
X13672539Y-9645579D02*
X13682063Y-9626531D01*
X13682063Y-9626531D02*
X13691586Y-9617008D01*
X13691586Y-9617008D02*
X13710634Y-9607484D01*
X13863015Y-9788436D02*
X13872539Y-9797960D01*
X13872539Y-9797960D02*
X13863015Y-9807484D01*
X13863015Y-9807484D02*
X13853491Y-9797960D01*
X13853491Y-9797960D02*
X13863015Y-9788436D01*
X13863015Y-9788436D02*
X13863015Y-9807484D01*
X13996348Y-9607484D02*
X14015396Y-9607484D01*
X14015396Y-9607484D02*
X14034444Y-9617008D01*
X14034444Y-9617008D02*
X14043967Y-9626531D01*
X14043967Y-9626531D02*
X14053491Y-9645579D01*
X14053491Y-9645579D02*
X14063015Y-9683674D01*
X14063015Y-9683674D02*
X14063015Y-9731293D01*
X14063015Y-9731293D02*
X14053491Y-9769389D01*
X14053491Y-9769389D02*
X14043967Y-9788436D01*
X14043967Y-9788436D02*
X14034444Y-9797960D01*
X14034444Y-9797960D02*
X14015396Y-9807484D01*
X14015396Y-9807484D02*
X13996348Y-9807484D01*
X13996348Y-9807484D02*
X13977301Y-9797960D01*
X13977301Y-9797960D02*
X13967777Y-9788436D01*
X13967777Y-9788436D02*
X13958253Y-9769389D01*
X13958253Y-9769389D02*
X13948729Y-9731293D01*
X13948729Y-9731293D02*
X13948729Y-9683674D01*
X13948729Y-9683674D02*
X13958253Y-9645579D01*
X13958253Y-9645579D02*
X13967777Y-9626531D01*
X13967777Y-9626531D02*
X13977301Y-9617008D01*
X13977301Y-9617008D02*
X13996348Y-9607484D01*
X14129682Y-9607484D02*
X14253491Y-9607484D01*
X14253491Y-9607484D02*
X14186825Y-9683674D01*
X14186825Y-9683674D02*
X14215396Y-9683674D01*
X14215396Y-9683674D02*
X14234444Y-9693198D01*
X14234444Y-9693198D02*
X14243967Y-9702722D01*
X14243967Y-9702722D02*
X14253491Y-9721770D01*
X14253491Y-9721770D02*
X14253491Y-9769389D01*
X14253491Y-9769389D02*
X14243967Y-9788436D01*
X14243967Y-9788436D02*
X14234444Y-9797960D01*
X14234444Y-9797960D02*
X14215396Y-9807484D01*
X14215396Y-9807484D02*
X14158253Y-9807484D01*
X14158253Y-9807484D02*
X14139206Y-9797960D01*
X14139206Y-9797960D02*
X14129682Y-9788436D01*
X14424920Y-9607484D02*
X14386825Y-9607484D01*
X14386825Y-9607484D02*
X14367777Y-9617008D01*
X14367777Y-9617008D02*
X14358253Y-9626531D01*
X14358253Y-9626531D02*
X14339206Y-9655103D01*
X14339206Y-9655103D02*
X14329682Y-9693198D01*
X14329682Y-9693198D02*
X14329682Y-9769389D01*
X14329682Y-9769389D02*
X14339206Y-9788436D01*
X14339206Y-9788436D02*
X14348729Y-9797960D01*
X14348729Y-9797960D02*
X14367777Y-9807484D01*
X14367777Y-9807484D02*
X14405872Y-9807484D01*
X14405872Y-9807484D02*
X14424920Y-9797960D01*
X14424920Y-9797960D02*
X14434444Y-9788436D01*
X14434444Y-9788436D02*
X14443967Y-9769389D01*
X14443967Y-9769389D02*
X14443967Y-9721770D01*
X14443967Y-9721770D02*
X14434444Y-9702722D01*
X14434444Y-9702722D02*
X14424920Y-9693198D01*
X14424920Y-9693198D02*
X14405872Y-9683674D01*
X14405872Y-9683674D02*
X14367777Y-9683674D01*
X14367777Y-9683674D02*
X14348729Y-9693198D01*
X14348729Y-9693198D02*
X14339206Y-9702722D01*
X14339206Y-9702722D02*
X14329682Y-9721770D01*
X14520158Y-9626531D02*
X14529682Y-9617008D01*
X14529682Y-9617008D02*
X14548729Y-9607484D01*
X14548729Y-9607484D02*
X14596348Y-9607484D01*
X14596348Y-9607484D02*
X14615396Y-9617008D01*
X14615396Y-9617008D02*
X14624920Y-9626531D01*
X14624920Y-9626531D02*
X14634444Y-9645579D01*
X14634444Y-9645579D02*
X14634444Y-9664627D01*
X14634444Y-9664627D02*
X14624920Y-9693198D01*
X14624920Y-9693198D02*
X14510634Y-9807484D01*
X14510634Y-9807484D02*
X14634444Y-9807484D01*
X14710634Y-9607484D02*
X14710634Y-9645579D01*
X14786825Y-9607484D02*
X14786825Y-9645579D01*
X15082063Y-9883674D02*
X15072539Y-9874150D01*
X15072539Y-9874150D02*
X15053491Y-9845579D01*
X15053491Y-9845579D02*
X15043968Y-9826531D01*
X15043968Y-9826531D02*
X15034444Y-9797960D01*
X15034444Y-9797960D02*
X15024920Y-9750341D01*
X15024920Y-9750341D02*
X15024920Y-9712246D01*
X15024920Y-9712246D02*
X15034444Y-9664627D01*
X15034444Y-9664627D02*
X15043968Y-9636055D01*
X15043968Y-9636055D02*
X15053491Y-9617008D01*
X15053491Y-9617008D02*
X15072539Y-9588436D01*
X15072539Y-9588436D02*
X15082063Y-9578912D01*
X15243968Y-9674150D02*
X15243968Y-9807484D01*
X15196348Y-9597960D02*
X15148729Y-9740817D01*
X15148729Y-9740817D02*
X15272539Y-9740817D01*
X15501110Y-9807484D02*
X15501110Y-9607484D01*
X15586825Y-9807484D02*
X15586825Y-9702722D01*
X15586825Y-9702722D02*
X15577301Y-9683674D01*
X15577301Y-9683674D02*
X15558253Y-9674150D01*
X15558253Y-9674150D02*
X15529682Y-9674150D01*
X15529682Y-9674150D02*
X15510634Y-9683674D01*
X15510634Y-9683674D02*
X15501110Y-9693198D01*
X15710634Y-9807484D02*
X15691587Y-9797960D01*
X15691587Y-9797960D02*
X15682063Y-9788436D01*
X15682063Y-9788436D02*
X15672539Y-9769389D01*
X15672539Y-9769389D02*
X15672539Y-9712246D01*
X15672539Y-9712246D02*
X15682063Y-9693198D01*
X15682063Y-9693198D02*
X15691587Y-9683674D01*
X15691587Y-9683674D02*
X15710634Y-9674150D01*
X15710634Y-9674150D02*
X15739206Y-9674150D01*
X15739206Y-9674150D02*
X15758253Y-9683674D01*
X15758253Y-9683674D02*
X15767777Y-9693198D01*
X15767777Y-9693198D02*
X15777301Y-9712246D01*
X15777301Y-9712246D02*
X15777301Y-9769389D01*
X15777301Y-9769389D02*
X15767777Y-9788436D01*
X15767777Y-9788436D02*
X15758253Y-9797960D01*
X15758253Y-9797960D02*
X15739206Y-9807484D01*
X15739206Y-9807484D02*
X15710634Y-9807484D01*
X15891587Y-9807484D02*
X15872539Y-9797960D01*
X15872539Y-9797960D02*
X15863015Y-9778912D01*
X15863015Y-9778912D02*
X15863015Y-9607484D01*
X16043968Y-9797960D02*
X16024920Y-9807484D01*
X16024920Y-9807484D02*
X15986825Y-9807484D01*
X15986825Y-9807484D02*
X15967777Y-9797960D01*
X15967777Y-9797960D02*
X15958253Y-9778912D01*
X15958253Y-9778912D02*
X15958253Y-9702722D01*
X15958253Y-9702722D02*
X15967777Y-9683674D01*
X15967777Y-9683674D02*
X15986825Y-9674150D01*
X15986825Y-9674150D02*
X16024920Y-9674150D01*
X16024920Y-9674150D02*
X16043968Y-9683674D01*
X16043968Y-9683674D02*
X16053491Y-9702722D01*
X16053491Y-9702722D02*
X16053491Y-9721770D01*
X16053491Y-9721770D02*
X15958253Y-9740817D01*
X16129682Y-9797960D02*
X16148730Y-9807484D01*
X16148730Y-9807484D02*
X16186825Y-9807484D01*
X16186825Y-9807484D02*
X16205872Y-9797960D01*
X16205872Y-9797960D02*
X16215396Y-9778912D01*
X16215396Y-9778912D02*
X16215396Y-9769389D01*
X16215396Y-9769389D02*
X16205872Y-9750341D01*
X16205872Y-9750341D02*
X16186825Y-9740817D01*
X16186825Y-9740817D02*
X16158253Y-9740817D01*
X16158253Y-9740817D02*
X16139206Y-9731293D01*
X16139206Y-9731293D02*
X16129682Y-9712246D01*
X16129682Y-9712246D02*
X16129682Y-9702722D01*
X16129682Y-9702722D02*
X16139206Y-9683674D01*
X16139206Y-9683674D02*
X16158253Y-9674150D01*
X16158253Y-9674150D02*
X16186825Y-9674150D01*
X16186825Y-9674150D02*
X16205872Y-9683674D01*
X16282063Y-9883674D02*
X16291587Y-9874150D01*
X16291587Y-9874150D02*
X16310634Y-9845579D01*
X16310634Y-9845579D02*
X16320158Y-9826531D01*
X16320158Y-9826531D02*
X16329682Y-9797960D01*
X16329682Y-9797960D02*
X16339206Y-9750341D01*
X16339206Y-9750341D02*
X16339206Y-9712246D01*
X16339206Y-9712246D02*
X16329682Y-9664627D01*
X16329682Y-9664627D02*
X16320158Y-9636055D01*
X16320158Y-9636055D02*
X16310634Y-9617008D01*
X16310634Y-9617008D02*
X16291587Y-9588436D01*
X16291587Y-9588436D02*
X16282063Y-9578912D01*
D12*
X11447310Y-9920310D02*
X11447310Y-10039690D01*
X11387620Y-9980000D02*
X11507000Y-9980000D01*
D11*
X11872539Y-10071484D02*
X11758253Y-10071484D01*
X11815396Y-10071484D02*
X11815396Y-9871484D01*
X11815396Y-9871484D02*
X11796348Y-9900055D01*
X11796348Y-9900055D02*
X11777301Y-9919103D01*
X11777301Y-9919103D02*
X11758253Y-9928627D01*
X11958253Y-10052436D02*
X11967777Y-10061960D01*
X11967777Y-10061960D02*
X11958253Y-10071484D01*
X11958253Y-10071484D02*
X11948729Y-10061960D01*
X11948729Y-10061960D02*
X11958253Y-10052436D01*
X11958253Y-10052436D02*
X11958253Y-10071484D01*
X12158253Y-10071484D02*
X12043967Y-10071484D01*
X12101110Y-10071484D02*
X12101110Y-9871484D01*
X12101110Y-9871484D02*
X12082062Y-9900055D01*
X12082062Y-9900055D02*
X12063015Y-9919103D01*
X12063015Y-9919103D02*
X12043967Y-9928627D01*
X12253491Y-10071484D02*
X12291586Y-10071484D01*
X12291586Y-10071484D02*
X12310634Y-10061960D01*
X12310634Y-10061960D02*
X12320158Y-10052436D01*
X12320158Y-10052436D02*
X12339205Y-10023865D01*
X12339205Y-10023865D02*
X12348729Y-9985770D01*
X12348729Y-9985770D02*
X12348729Y-9909579D01*
X12348729Y-9909579D02*
X12339205Y-9890531D01*
X12339205Y-9890531D02*
X12329682Y-9881008D01*
X12329682Y-9881008D02*
X12310634Y-9871484D01*
X12310634Y-9871484D02*
X12272539Y-9871484D01*
X12272539Y-9871484D02*
X12253491Y-9881008D01*
X12253491Y-9881008D02*
X12243967Y-9890531D01*
X12243967Y-9890531D02*
X12234443Y-9909579D01*
X12234443Y-9909579D02*
X12234443Y-9957198D01*
X12234443Y-9957198D02*
X12243967Y-9976246D01*
X12243967Y-9976246D02*
X12253491Y-9985770D01*
X12253491Y-9985770D02*
X12272539Y-9995293D01*
X12272539Y-9995293D02*
X12310634Y-9995293D01*
X12310634Y-9995293D02*
X12329682Y-9985770D01*
X12329682Y-9985770D02*
X12339205Y-9976246D01*
X12339205Y-9976246D02*
X12348729Y-9957198D01*
X12520158Y-9938150D02*
X12520158Y-10071484D01*
X12472539Y-9861960D02*
X12424920Y-10004817D01*
X12424920Y-10004817D02*
X12548729Y-10004817D01*
X12624920Y-10071484D02*
X12624920Y-9938150D01*
X12624920Y-9957198D02*
X12634443Y-9947674D01*
X12634443Y-9947674D02*
X12653491Y-9938150D01*
X12653491Y-9938150D02*
X12682063Y-9938150D01*
X12682063Y-9938150D02*
X12701110Y-9947674D01*
X12701110Y-9947674D02*
X12710634Y-9966722D01*
X12710634Y-9966722D02*
X12710634Y-10071484D01*
X12710634Y-9966722D02*
X12720158Y-9947674D01*
X12720158Y-9947674D02*
X12739205Y-9938150D01*
X12739205Y-9938150D02*
X12767777Y-9938150D01*
X12767777Y-9938150D02*
X12786824Y-9947674D01*
X12786824Y-9947674D02*
X12796348Y-9966722D01*
X12796348Y-9966722D02*
X12796348Y-10071484D01*
X12891586Y-10071484D02*
X12891586Y-9938150D01*
X12891586Y-9957198D02*
X12901110Y-9947674D01*
X12901110Y-9947674D02*
X12920158Y-9938150D01*
X12920158Y-9938150D02*
X12948729Y-9938150D01*
X12948729Y-9938150D02*
X12967777Y-9947674D01*
X12967777Y-9947674D02*
X12977301Y-9966722D01*
X12977301Y-9966722D02*
X12977301Y-10071484D01*
X12977301Y-9966722D02*
X12986824Y-9947674D01*
X12986824Y-9947674D02*
X13005872Y-9938150D01*
X13005872Y-9938150D02*
X13034443Y-9938150D01*
X13034443Y-9938150D02*
X13053491Y-9947674D01*
X13053491Y-9947674D02*
X13063015Y-9966722D01*
X13063015Y-9966722D02*
X13063015Y-10071484D01*
X13453491Y-9861960D02*
X13282063Y-10119103D01*
X13710634Y-9871484D02*
X13729682Y-9871484D01*
X13729682Y-9871484D02*
X13748729Y-9881008D01*
X13748729Y-9881008D02*
X13758253Y-9890531D01*
X13758253Y-9890531D02*
X13767777Y-9909579D01*
X13767777Y-9909579D02*
X13777301Y-9947674D01*
X13777301Y-9947674D02*
X13777301Y-9995293D01*
X13777301Y-9995293D02*
X13767777Y-10033389D01*
X13767777Y-10033389D02*
X13758253Y-10052436D01*
X13758253Y-10052436D02*
X13748729Y-10061960D01*
X13748729Y-10061960D02*
X13729682Y-10071484D01*
X13729682Y-10071484D02*
X13710634Y-10071484D01*
X13710634Y-10071484D02*
X13691586Y-10061960D01*
X13691586Y-10061960D02*
X13682063Y-10052436D01*
X13682063Y-10052436D02*
X13672539Y-10033389D01*
X13672539Y-10033389D02*
X13663015Y-9995293D01*
X13663015Y-9995293D02*
X13663015Y-9947674D01*
X13663015Y-9947674D02*
X13672539Y-9909579D01*
X13672539Y-9909579D02*
X13682063Y-9890531D01*
X13682063Y-9890531D02*
X13691586Y-9881008D01*
X13691586Y-9881008D02*
X13710634Y-9871484D01*
X13863015Y-10052436D02*
X13872539Y-10061960D01*
X13872539Y-10061960D02*
X13863015Y-10071484D01*
X13863015Y-10071484D02*
X13853491Y-10061960D01*
X13853491Y-10061960D02*
X13863015Y-10052436D01*
X13863015Y-10052436D02*
X13863015Y-10071484D01*
X13996348Y-9871484D02*
X14015396Y-9871484D01*
X14015396Y-9871484D02*
X14034444Y-9881008D01*
X14034444Y-9881008D02*
X14043967Y-9890531D01*
X14043967Y-9890531D02*
X14053491Y-9909579D01*
X14053491Y-9909579D02*
X14063015Y-9947674D01*
X14063015Y-9947674D02*
X14063015Y-9995293D01*
X14063015Y-9995293D02*
X14053491Y-10033389D01*
X14053491Y-10033389D02*
X14043967Y-10052436D01*
X14043967Y-10052436D02*
X14034444Y-10061960D01*
X14034444Y-10061960D02*
X14015396Y-10071484D01*
X14015396Y-10071484D02*
X13996348Y-10071484D01*
X13996348Y-10071484D02*
X13977301Y-10061960D01*
X13977301Y-10061960D02*
X13967777Y-10052436D01*
X13967777Y-10052436D02*
X13958253Y-10033389D01*
X13958253Y-10033389D02*
X13948729Y-9995293D01*
X13948729Y-9995293D02*
X13948729Y-9947674D01*
X13948729Y-9947674D02*
X13958253Y-9909579D01*
X13958253Y-9909579D02*
X13967777Y-9890531D01*
X13967777Y-9890531D02*
X13977301Y-9881008D01*
X13977301Y-9881008D02*
X13996348Y-9871484D01*
X14234444Y-9938150D02*
X14234444Y-10071484D01*
X14186825Y-9861960D02*
X14139206Y-10004817D01*
X14139206Y-10004817D02*
X14263015Y-10004817D01*
X14320158Y-9871484D02*
X14453491Y-9871484D01*
X14453491Y-9871484D02*
X14367777Y-10071484D01*
X14567777Y-9871484D02*
X14586825Y-9871484D01*
X14586825Y-9871484D02*
X14605872Y-9881008D01*
X14605872Y-9881008D02*
X14615396Y-9890531D01*
X14615396Y-9890531D02*
X14624920Y-9909579D01*
X14624920Y-9909579D02*
X14634444Y-9947674D01*
X14634444Y-9947674D02*
X14634444Y-9995293D01*
X14634444Y-9995293D02*
X14624920Y-10033389D01*
X14624920Y-10033389D02*
X14615396Y-10052436D01*
X14615396Y-10052436D02*
X14605872Y-10061960D01*
X14605872Y-10061960D02*
X14586825Y-10071484D01*
X14586825Y-10071484D02*
X14567777Y-10071484D01*
X14567777Y-10071484D02*
X14548729Y-10061960D01*
X14548729Y-10061960D02*
X14539206Y-10052436D01*
X14539206Y-10052436D02*
X14529682Y-10033389D01*
X14529682Y-10033389D02*
X14520158Y-9995293D01*
X14520158Y-9995293D02*
X14520158Y-9947674D01*
X14520158Y-9947674D02*
X14529682Y-9909579D01*
X14529682Y-9909579D02*
X14539206Y-9890531D01*
X14539206Y-9890531D02*
X14548729Y-9881008D01*
X14548729Y-9881008D02*
X14567777Y-9871484D01*
X14710634Y-9871484D02*
X14710634Y-9909579D01*
X14786825Y-9871484D02*
X14786825Y-9909579D01*
X15082063Y-10147674D02*
X15072539Y-10138150D01*
X15072539Y-10138150D02*
X15053491Y-10109579D01*
X15053491Y-10109579D02*
X15043968Y-10090531D01*
X15043968Y-10090531D02*
X15034444Y-10061960D01*
X15034444Y-10061960D02*
X15024920Y-10014341D01*
X15024920Y-10014341D02*
X15024920Y-9976246D01*
X15024920Y-9976246D02*
X15034444Y-9928627D01*
X15034444Y-9928627D02*
X15043968Y-9900055D01*
X15043968Y-9900055D02*
X15053491Y-9881008D01*
X15053491Y-9881008D02*
X15072539Y-9852436D01*
X15072539Y-9852436D02*
X15082063Y-9842912D01*
X15148729Y-9890531D02*
X15158253Y-9881008D01*
X15158253Y-9881008D02*
X15177301Y-9871484D01*
X15177301Y-9871484D02*
X15224920Y-9871484D01*
X15224920Y-9871484D02*
X15243968Y-9881008D01*
X15243968Y-9881008D02*
X15253491Y-9890531D01*
X15253491Y-9890531D02*
X15263015Y-9909579D01*
X15263015Y-9909579D02*
X15263015Y-9928627D01*
X15263015Y-9928627D02*
X15253491Y-9957198D01*
X15253491Y-9957198D02*
X15139206Y-10071484D01*
X15139206Y-10071484D02*
X15263015Y-10071484D01*
X15434444Y-9938150D02*
X15434444Y-10071484D01*
X15386825Y-9861960D02*
X15339206Y-10004817D01*
X15339206Y-10004817D02*
X15463015Y-10004817D01*
X15691587Y-10071484D02*
X15691587Y-9871484D01*
X15777301Y-10071484D02*
X15777301Y-9966722D01*
X15777301Y-9966722D02*
X15767777Y-9947674D01*
X15767777Y-9947674D02*
X15748730Y-9938150D01*
X15748730Y-9938150D02*
X15720158Y-9938150D01*
X15720158Y-9938150D02*
X15701110Y-9947674D01*
X15701110Y-9947674D02*
X15691587Y-9957198D01*
X15901110Y-10071484D02*
X15882063Y-10061960D01*
X15882063Y-10061960D02*
X15872539Y-10052436D01*
X15872539Y-10052436D02*
X15863015Y-10033389D01*
X15863015Y-10033389D02*
X15863015Y-9976246D01*
X15863015Y-9976246D02*
X15872539Y-9957198D01*
X15872539Y-9957198D02*
X15882063Y-9947674D01*
X15882063Y-9947674D02*
X15901110Y-9938150D01*
X15901110Y-9938150D02*
X15929682Y-9938150D01*
X15929682Y-9938150D02*
X15948730Y-9947674D01*
X15948730Y-9947674D02*
X15958253Y-9957198D01*
X15958253Y-9957198D02*
X15967777Y-9976246D01*
X15967777Y-9976246D02*
X15967777Y-10033389D01*
X15967777Y-10033389D02*
X15958253Y-10052436D01*
X15958253Y-10052436D02*
X15948730Y-10061960D01*
X15948730Y-10061960D02*
X15929682Y-10071484D01*
X15929682Y-10071484D02*
X15901110Y-10071484D01*
X16082063Y-10071484D02*
X16063015Y-10061960D01*
X16063015Y-10061960D02*
X16053491Y-10042912D01*
X16053491Y-10042912D02*
X16053491Y-9871484D01*
X16234444Y-10061960D02*
X16215396Y-10071484D01*
X16215396Y-10071484D02*
X16177301Y-10071484D01*
X16177301Y-10071484D02*
X16158253Y-10061960D01*
X16158253Y-10061960D02*
X16148730Y-10042912D01*
X16148730Y-10042912D02*
X16148730Y-9966722D01*
X16148730Y-9966722D02*
X16158253Y-9947674D01*
X16158253Y-9947674D02*
X16177301Y-9938150D01*
X16177301Y-9938150D02*
X16215396Y-9938150D01*
X16215396Y-9938150D02*
X16234444Y-9947674D01*
X16234444Y-9947674D02*
X16243968Y-9966722D01*
X16243968Y-9966722D02*
X16243968Y-9985770D01*
X16243968Y-9985770D02*
X16148730Y-10004817D01*
X16320158Y-10061960D02*
X16339206Y-10071484D01*
X16339206Y-10071484D02*
X16377301Y-10071484D01*
X16377301Y-10071484D02*
X16396349Y-10061960D01*
X16396349Y-10061960D02*
X16405872Y-10042912D01*
X16405872Y-10042912D02*
X16405872Y-10033389D01*
X16405872Y-10033389D02*
X16396349Y-10014341D01*
X16396349Y-10014341D02*
X16377301Y-10004817D01*
X16377301Y-10004817D02*
X16348730Y-10004817D01*
X16348730Y-10004817D02*
X16329682Y-9995293D01*
X16329682Y-9995293D02*
X16320158Y-9976246D01*
X16320158Y-9976246D02*
X16320158Y-9966722D01*
X16320158Y-9966722D02*
X16329682Y-9947674D01*
X16329682Y-9947674D02*
X16348730Y-9938150D01*
X16348730Y-9938150D02*
X16377301Y-9938150D01*
X16377301Y-9938150D02*
X16396349Y-9947674D01*
X16472539Y-10147674D02*
X16482063Y-10138150D01*
X16482063Y-10138150D02*
X16501111Y-10109579D01*
X16501111Y-10109579D02*
X16510634Y-10090531D01*
X16510634Y-10090531D02*
X16520158Y-10061960D01*
X16520158Y-10061960D02*
X16529682Y-10014341D01*
X16529682Y-10014341D02*
X16529682Y-9976246D01*
X16529682Y-9976246D02*
X16520158Y-9928627D01*
X16520158Y-9928627D02*
X16510634Y-9900055D01*
X16510634Y-9900055D02*
X16501111Y-9881008D01*
X16501111Y-9881008D02*
X16482063Y-9852436D01*
X16482063Y-9852436D02*
X16472539Y-9842912D01*
D13*
X11488402Y-10288902D02*
X11488402Y-10199098D01*
X11398598Y-10199098D01*
X11398598Y-10288902D01*
X11488402Y-10288902D01*
D11*
X11872539Y-10335484D02*
X11758253Y-10335484D01*
X11815396Y-10335484D02*
X11815396Y-10135484D01*
X11815396Y-10135484D02*
X11796348Y-10164055D01*
X11796348Y-10164055D02*
X11777301Y-10183103D01*
X11777301Y-10183103D02*
X11758253Y-10192627D01*
X11958253Y-10316436D02*
X11967777Y-10325960D01*
X11967777Y-10325960D02*
X11958253Y-10335484D01*
X11958253Y-10335484D02*
X11948729Y-10325960D01*
X11948729Y-10325960D02*
X11958253Y-10316436D01*
X11958253Y-10316436D02*
X11958253Y-10335484D01*
X12043967Y-10154531D02*
X12053491Y-10145008D01*
X12053491Y-10145008D02*
X12072539Y-10135484D01*
X12072539Y-10135484D02*
X12120158Y-10135484D01*
X12120158Y-10135484D02*
X12139205Y-10145008D01*
X12139205Y-10145008D02*
X12148729Y-10154531D01*
X12148729Y-10154531D02*
X12158253Y-10173579D01*
X12158253Y-10173579D02*
X12158253Y-10192627D01*
X12158253Y-10192627D02*
X12148729Y-10221198D01*
X12148729Y-10221198D02*
X12034443Y-10335484D01*
X12034443Y-10335484D02*
X12158253Y-10335484D01*
X12224920Y-10135484D02*
X12358253Y-10135484D01*
X12358253Y-10135484D02*
X12272539Y-10335484D01*
X12472539Y-10135484D02*
X12491586Y-10135484D01*
X12491586Y-10135484D02*
X12510634Y-10145008D01*
X12510634Y-10145008D02*
X12520158Y-10154531D01*
X12520158Y-10154531D02*
X12529682Y-10173579D01*
X12529682Y-10173579D02*
X12539205Y-10211674D01*
X12539205Y-10211674D02*
X12539205Y-10259293D01*
X12539205Y-10259293D02*
X12529682Y-10297389D01*
X12529682Y-10297389D02*
X12520158Y-10316436D01*
X12520158Y-10316436D02*
X12510634Y-10325960D01*
X12510634Y-10325960D02*
X12491586Y-10335484D01*
X12491586Y-10335484D02*
X12472539Y-10335484D01*
X12472539Y-10335484D02*
X12453491Y-10325960D01*
X12453491Y-10325960D02*
X12443967Y-10316436D01*
X12443967Y-10316436D02*
X12434443Y-10297389D01*
X12434443Y-10297389D02*
X12424920Y-10259293D01*
X12424920Y-10259293D02*
X12424920Y-10211674D01*
X12424920Y-10211674D02*
X12434443Y-10173579D01*
X12434443Y-10173579D02*
X12443967Y-10154531D01*
X12443967Y-10154531D02*
X12453491Y-10145008D01*
X12453491Y-10145008D02*
X12472539Y-10135484D01*
X12624920Y-10335484D02*
X12624920Y-10202150D01*
X12624920Y-10221198D02*
X12634443Y-10211674D01*
X12634443Y-10211674D02*
X12653491Y-10202150D01*
X12653491Y-10202150D02*
X12682063Y-10202150D01*
X12682063Y-10202150D02*
X12701110Y-10211674D01*
X12701110Y-10211674D02*
X12710634Y-10230722D01*
X12710634Y-10230722D02*
X12710634Y-10335484D01*
X12710634Y-10230722D02*
X12720158Y-10211674D01*
X12720158Y-10211674D02*
X12739205Y-10202150D01*
X12739205Y-10202150D02*
X12767777Y-10202150D01*
X12767777Y-10202150D02*
X12786824Y-10211674D01*
X12786824Y-10211674D02*
X12796348Y-10230722D01*
X12796348Y-10230722D02*
X12796348Y-10335484D01*
X12891586Y-10335484D02*
X12891586Y-10202150D01*
X12891586Y-10221198D02*
X12901110Y-10211674D01*
X12901110Y-10211674D02*
X12920158Y-10202150D01*
X12920158Y-10202150D02*
X12948729Y-10202150D01*
X12948729Y-10202150D02*
X12967777Y-10211674D01*
X12967777Y-10211674D02*
X12977301Y-10230722D01*
X12977301Y-10230722D02*
X12977301Y-10335484D01*
X12977301Y-10230722D02*
X12986824Y-10211674D01*
X12986824Y-10211674D02*
X13005872Y-10202150D01*
X13005872Y-10202150D02*
X13034443Y-10202150D01*
X13034443Y-10202150D02*
X13053491Y-10211674D01*
X13053491Y-10211674D02*
X13063015Y-10230722D01*
X13063015Y-10230722D02*
X13063015Y-10335484D01*
X13453491Y-10125960D02*
X13282063Y-10383103D01*
X13710634Y-10135484D02*
X13729682Y-10135484D01*
X13729682Y-10135484D02*
X13748729Y-10145008D01*
X13748729Y-10145008D02*
X13758253Y-10154531D01*
X13758253Y-10154531D02*
X13767777Y-10173579D01*
X13767777Y-10173579D02*
X13777301Y-10211674D01*
X13777301Y-10211674D02*
X13777301Y-10259293D01*
X13777301Y-10259293D02*
X13767777Y-10297389D01*
X13767777Y-10297389D02*
X13758253Y-10316436D01*
X13758253Y-10316436D02*
X13748729Y-10325960D01*
X13748729Y-10325960D02*
X13729682Y-10335484D01*
X13729682Y-10335484D02*
X13710634Y-10335484D01*
X13710634Y-10335484D02*
X13691586Y-10325960D01*
X13691586Y-10325960D02*
X13682063Y-10316436D01*
X13682063Y-10316436D02*
X13672539Y-10297389D01*
X13672539Y-10297389D02*
X13663015Y-10259293D01*
X13663015Y-10259293D02*
X13663015Y-10211674D01*
X13663015Y-10211674D02*
X13672539Y-10173579D01*
X13672539Y-10173579D02*
X13682063Y-10154531D01*
X13682063Y-10154531D02*
X13691586Y-10145008D01*
X13691586Y-10145008D02*
X13710634Y-10135484D01*
X13863015Y-10316436D02*
X13872539Y-10325960D01*
X13872539Y-10325960D02*
X13863015Y-10335484D01*
X13863015Y-10335484D02*
X13853491Y-10325960D01*
X13853491Y-10325960D02*
X13863015Y-10316436D01*
X13863015Y-10316436D02*
X13863015Y-10335484D01*
X13996348Y-10135484D02*
X14015396Y-10135484D01*
X14015396Y-10135484D02*
X14034444Y-10145008D01*
X14034444Y-10145008D02*
X14043967Y-10154531D01*
X14043967Y-10154531D02*
X14053491Y-10173579D01*
X14053491Y-10173579D02*
X14063015Y-10211674D01*
X14063015Y-10211674D02*
X14063015Y-10259293D01*
X14063015Y-10259293D02*
X14053491Y-10297389D01*
X14053491Y-10297389D02*
X14043967Y-10316436D01*
X14043967Y-10316436D02*
X14034444Y-10325960D01*
X14034444Y-10325960D02*
X14015396Y-10335484D01*
X14015396Y-10335484D02*
X13996348Y-10335484D01*
X13996348Y-10335484D02*
X13977301Y-10325960D01*
X13977301Y-10325960D02*
X13967777Y-10316436D01*
X13967777Y-10316436D02*
X13958253Y-10297389D01*
X13958253Y-10297389D02*
X13948729Y-10259293D01*
X13948729Y-10259293D02*
X13948729Y-10211674D01*
X13948729Y-10211674D02*
X13958253Y-10173579D01*
X13958253Y-10173579D02*
X13967777Y-10154531D01*
X13967777Y-10154531D02*
X13977301Y-10145008D01*
X13977301Y-10145008D02*
X13996348Y-10135484D01*
X14243967Y-10135484D02*
X14148729Y-10135484D01*
X14148729Y-10135484D02*
X14139206Y-10230722D01*
X14139206Y-10230722D02*
X14148729Y-10221198D01*
X14148729Y-10221198D02*
X14167777Y-10211674D01*
X14167777Y-10211674D02*
X14215396Y-10211674D01*
X14215396Y-10211674D02*
X14234444Y-10221198D01*
X14234444Y-10221198D02*
X14243967Y-10230722D01*
X14243967Y-10230722D02*
X14253491Y-10249770D01*
X14253491Y-10249770D02*
X14253491Y-10297389D01*
X14253491Y-10297389D02*
X14243967Y-10316436D01*
X14243967Y-10316436D02*
X14234444Y-10325960D01*
X14234444Y-10325960D02*
X14215396Y-10335484D01*
X14215396Y-10335484D02*
X14167777Y-10335484D01*
X14167777Y-10335484D02*
X14148729Y-10325960D01*
X14148729Y-10325960D02*
X14139206Y-10316436D01*
X14377301Y-10135484D02*
X14396348Y-10135484D01*
X14396348Y-10135484D02*
X14415396Y-10145008D01*
X14415396Y-10145008D02*
X14424920Y-10154531D01*
X14424920Y-10154531D02*
X14434444Y-10173579D01*
X14434444Y-10173579D02*
X14443967Y-10211674D01*
X14443967Y-10211674D02*
X14443967Y-10259293D01*
X14443967Y-10259293D02*
X14434444Y-10297389D01*
X14434444Y-10297389D02*
X14424920Y-10316436D01*
X14424920Y-10316436D02*
X14415396Y-10325960D01*
X14415396Y-10325960D02*
X14396348Y-10335484D01*
X14396348Y-10335484D02*
X14377301Y-10335484D01*
X14377301Y-10335484D02*
X14358253Y-10325960D01*
X14358253Y-10325960D02*
X14348729Y-10316436D01*
X14348729Y-10316436D02*
X14339206Y-10297389D01*
X14339206Y-10297389D02*
X14329682Y-10259293D01*
X14329682Y-10259293D02*
X14329682Y-10211674D01*
X14329682Y-10211674D02*
X14339206Y-10173579D01*
X14339206Y-10173579D02*
X14348729Y-10154531D01*
X14348729Y-10154531D02*
X14358253Y-10145008D01*
X14358253Y-10145008D02*
X14377301Y-10135484D01*
X14567777Y-10135484D02*
X14586825Y-10135484D01*
X14586825Y-10135484D02*
X14605872Y-10145008D01*
X14605872Y-10145008D02*
X14615396Y-10154531D01*
X14615396Y-10154531D02*
X14624920Y-10173579D01*
X14624920Y-10173579D02*
X14634444Y-10211674D01*
X14634444Y-10211674D02*
X14634444Y-10259293D01*
X14634444Y-10259293D02*
X14624920Y-10297389D01*
X14624920Y-10297389D02*
X14615396Y-10316436D01*
X14615396Y-10316436D02*
X14605872Y-10325960D01*
X14605872Y-10325960D02*
X14586825Y-10335484D01*
X14586825Y-10335484D02*
X14567777Y-10335484D01*
X14567777Y-10335484D02*
X14548729Y-10325960D01*
X14548729Y-10325960D02*
X14539206Y-10316436D01*
X14539206Y-10316436D02*
X14529682Y-10297389D01*
X14529682Y-10297389D02*
X14520158Y-10259293D01*
X14520158Y-10259293D02*
X14520158Y-10211674D01*
X14520158Y-10211674D02*
X14529682Y-10173579D01*
X14529682Y-10173579D02*
X14539206Y-10154531D01*
X14539206Y-10154531D02*
X14548729Y-10145008D01*
X14548729Y-10145008D02*
X14567777Y-10135484D01*
X14710634Y-10135484D02*
X14710634Y-10173579D01*
X14786825Y-10135484D02*
X14786825Y-10173579D01*
X15082063Y-10411674D02*
X15072539Y-10402150D01*
X15072539Y-10402150D02*
X15053491Y-10373579D01*
X15053491Y-10373579D02*
X15043968Y-10354531D01*
X15043968Y-10354531D02*
X15034444Y-10325960D01*
X15034444Y-10325960D02*
X15024920Y-10278341D01*
X15024920Y-10278341D02*
X15024920Y-10240246D01*
X15024920Y-10240246D02*
X15034444Y-10192627D01*
X15034444Y-10192627D02*
X15043968Y-10164055D01*
X15043968Y-10164055D02*
X15053491Y-10145008D01*
X15053491Y-10145008D02*
X15072539Y-10116436D01*
X15072539Y-10116436D02*
X15082063Y-10106912D01*
X15263015Y-10335484D02*
X15148729Y-10335484D01*
X15205872Y-10335484D02*
X15205872Y-10135484D01*
X15205872Y-10135484D02*
X15186825Y-10164055D01*
X15186825Y-10164055D02*
X15167777Y-10183103D01*
X15167777Y-10183103D02*
X15148729Y-10192627D01*
X15434444Y-10135484D02*
X15396348Y-10135484D01*
X15396348Y-10135484D02*
X15377301Y-10145008D01*
X15377301Y-10145008D02*
X15367777Y-10154531D01*
X15367777Y-10154531D02*
X15348729Y-10183103D01*
X15348729Y-10183103D02*
X15339206Y-10221198D01*
X15339206Y-10221198D02*
X15339206Y-10297389D01*
X15339206Y-10297389D02*
X15348729Y-10316436D01*
X15348729Y-10316436D02*
X15358253Y-10325960D01*
X15358253Y-10325960D02*
X15377301Y-10335484D01*
X15377301Y-10335484D02*
X15415396Y-10335484D01*
X15415396Y-10335484D02*
X15434444Y-10325960D01*
X15434444Y-10325960D02*
X15443968Y-10316436D01*
X15443968Y-10316436D02*
X15453491Y-10297389D01*
X15453491Y-10297389D02*
X15453491Y-10249770D01*
X15453491Y-10249770D02*
X15443968Y-10230722D01*
X15443968Y-10230722D02*
X15434444Y-10221198D01*
X15434444Y-10221198D02*
X15415396Y-10211674D01*
X15415396Y-10211674D02*
X15377301Y-10211674D01*
X15377301Y-10211674D02*
X15358253Y-10221198D01*
X15358253Y-10221198D02*
X15348729Y-10230722D01*
X15348729Y-10230722D02*
X15339206Y-10249770D01*
X15691587Y-10335484D02*
X15691587Y-10135484D01*
X15777301Y-10335484D02*
X15777301Y-10230722D01*
X15777301Y-10230722D02*
X15767777Y-10211674D01*
X15767777Y-10211674D02*
X15748730Y-10202150D01*
X15748730Y-10202150D02*
X15720158Y-10202150D01*
X15720158Y-10202150D02*
X15701110Y-10211674D01*
X15701110Y-10211674D02*
X15691587Y-10221198D01*
X15901110Y-10335484D02*
X15882063Y-10325960D01*
X15882063Y-10325960D02*
X15872539Y-10316436D01*
X15872539Y-10316436D02*
X15863015Y-10297389D01*
X15863015Y-10297389D02*
X15863015Y-10240246D01*
X15863015Y-10240246D02*
X15872539Y-10221198D01*
X15872539Y-10221198D02*
X15882063Y-10211674D01*
X15882063Y-10211674D02*
X15901110Y-10202150D01*
X15901110Y-10202150D02*
X15929682Y-10202150D01*
X15929682Y-10202150D02*
X15948730Y-10211674D01*
X15948730Y-10211674D02*
X15958253Y-10221198D01*
X15958253Y-10221198D02*
X15967777Y-10240246D01*
X15967777Y-10240246D02*
X15967777Y-10297389D01*
X15967777Y-10297389D02*
X15958253Y-10316436D01*
X15958253Y-10316436D02*
X15948730Y-10325960D01*
X15948730Y-10325960D02*
X15929682Y-10335484D01*
X15929682Y-10335484D02*
X15901110Y-10335484D01*
X16082063Y-10335484D02*
X16063015Y-10325960D01*
X16063015Y-10325960D02*
X16053491Y-10306912D01*
X16053491Y-10306912D02*
X16053491Y-10135484D01*
X16234444Y-10325960D02*
X16215396Y-10335484D01*
X16215396Y-10335484D02*
X16177301Y-10335484D01*
X16177301Y-10335484D02*
X16158253Y-10325960D01*
X16158253Y-10325960D02*
X16148730Y-10306912D01*
X16148730Y-10306912D02*
X16148730Y-10230722D01*
X16148730Y-10230722D02*
X16158253Y-10211674D01*
X16158253Y-10211674D02*
X16177301Y-10202150D01*
X16177301Y-10202150D02*
X16215396Y-10202150D01*
X16215396Y-10202150D02*
X16234444Y-10211674D01*
X16234444Y-10211674D02*
X16243968Y-10230722D01*
X16243968Y-10230722D02*
X16243968Y-10249770D01*
X16243968Y-10249770D02*
X16148730Y-10268817D01*
X16320158Y-10325960D02*
X16339206Y-10335484D01*
X16339206Y-10335484D02*
X16377301Y-10335484D01*
X16377301Y-10335484D02*
X16396349Y-10325960D01*
X16396349Y-10325960D02*
X16405872Y-10306912D01*
X16405872Y-10306912D02*
X16405872Y-10297389D01*
X16405872Y-10297389D02*
X16396349Y-10278341D01*
X16396349Y-10278341D02*
X16377301Y-10268817D01*
X16377301Y-10268817D02*
X16348730Y-10268817D01*
X16348730Y-10268817D02*
X16329682Y-10259293D01*
X16329682Y-10259293D02*
X16320158Y-10240246D01*
X16320158Y-10240246D02*
X16320158Y-10230722D01*
X16320158Y-10230722D02*
X16329682Y-10211674D01*
X16329682Y-10211674D02*
X16348730Y-10202150D01*
X16348730Y-10202150D02*
X16377301Y-10202150D01*
X16377301Y-10202150D02*
X16396349Y-10211674D01*
X16472539Y-10411674D02*
X16482063Y-10402150D01*
X16482063Y-10402150D02*
X16501111Y-10373579D01*
X16501111Y-10373579D02*
X16510634Y-10354531D01*
X16510634Y-10354531D02*
X16520158Y-10325960D01*
X16520158Y-10325960D02*
X16529682Y-10278341D01*
X16529682Y-10278341D02*
X16529682Y-10240246D01*
X16529682Y-10240246D02*
X16520158Y-10192627D01*
X16520158Y-10192627D02*
X16510634Y-10164055D01*
X16510634Y-10164055D02*
X16501111Y-10145008D01*
X16501111Y-10145008D02*
X16482063Y-10116436D01*
X16482063Y-10116436D02*
X16472539Y-10106912D01*
D14*
X11418000Y-10597000D02*
X11507000Y-10508000D01*
X11418000Y-10419000D01*
X11329000Y-10508000D01*
X11418000Y-10597000D01*
D11*
X11872539Y-10599484D02*
X11758253Y-10599484D01*
X11815396Y-10599484D02*
X11815396Y-10399484D01*
X11815396Y-10399484D02*
X11796348Y-10428055D01*
X11796348Y-10428055D02*
X11777301Y-10447103D01*
X11777301Y-10447103D02*
X11758253Y-10456627D01*
X11958253Y-10580436D02*
X11967777Y-10589960D01*
X11967777Y-10589960D02*
X11958253Y-10599484D01*
X11958253Y-10599484D02*
X11948729Y-10589960D01*
X11948729Y-10589960D02*
X11958253Y-10580436D01*
X11958253Y-10580436D02*
X11958253Y-10599484D01*
X12034443Y-10399484D02*
X12167777Y-10399484D01*
X12167777Y-10399484D02*
X12082062Y-10599484D01*
X12272539Y-10485198D02*
X12253491Y-10475674D01*
X12253491Y-10475674D02*
X12243967Y-10466150D01*
X12243967Y-10466150D02*
X12234443Y-10447103D01*
X12234443Y-10447103D02*
X12234443Y-10437579D01*
X12234443Y-10437579D02*
X12243967Y-10418531D01*
X12243967Y-10418531D02*
X12253491Y-10409008D01*
X12253491Y-10409008D02*
X12272539Y-10399484D01*
X12272539Y-10399484D02*
X12310634Y-10399484D01*
X12310634Y-10399484D02*
X12329682Y-10409008D01*
X12329682Y-10409008D02*
X12339205Y-10418531D01*
X12339205Y-10418531D02*
X12348729Y-10437579D01*
X12348729Y-10437579D02*
X12348729Y-10447103D01*
X12348729Y-10447103D02*
X12339205Y-10466150D01*
X12339205Y-10466150D02*
X12329682Y-10475674D01*
X12329682Y-10475674D02*
X12310634Y-10485198D01*
X12310634Y-10485198D02*
X12272539Y-10485198D01*
X12272539Y-10485198D02*
X12253491Y-10494722D01*
X12253491Y-10494722D02*
X12243967Y-10504246D01*
X12243967Y-10504246D02*
X12234443Y-10523293D01*
X12234443Y-10523293D02*
X12234443Y-10561389D01*
X12234443Y-10561389D02*
X12243967Y-10580436D01*
X12243967Y-10580436D02*
X12253491Y-10589960D01*
X12253491Y-10589960D02*
X12272539Y-10599484D01*
X12272539Y-10599484D02*
X12310634Y-10599484D01*
X12310634Y-10599484D02*
X12329682Y-10589960D01*
X12329682Y-10589960D02*
X12339205Y-10580436D01*
X12339205Y-10580436D02*
X12348729Y-10561389D01*
X12348729Y-10561389D02*
X12348729Y-10523293D01*
X12348729Y-10523293D02*
X12339205Y-10504246D01*
X12339205Y-10504246D02*
X12329682Y-10494722D01*
X12329682Y-10494722D02*
X12310634Y-10485198D01*
X12472539Y-10399484D02*
X12491586Y-10399484D01*
X12491586Y-10399484D02*
X12510634Y-10409008D01*
X12510634Y-10409008D02*
X12520158Y-10418531D01*
X12520158Y-10418531D02*
X12529682Y-10437579D01*
X12529682Y-10437579D02*
X12539205Y-10475674D01*
X12539205Y-10475674D02*
X12539205Y-10523293D01*
X12539205Y-10523293D02*
X12529682Y-10561389D01*
X12529682Y-10561389D02*
X12520158Y-10580436D01*
X12520158Y-10580436D02*
X12510634Y-10589960D01*
X12510634Y-10589960D02*
X12491586Y-10599484D01*
X12491586Y-10599484D02*
X12472539Y-10599484D01*
X12472539Y-10599484D02*
X12453491Y-10589960D01*
X12453491Y-10589960D02*
X12443967Y-10580436D01*
X12443967Y-10580436D02*
X12434443Y-10561389D01*
X12434443Y-10561389D02*
X12424920Y-10523293D01*
X12424920Y-10523293D02*
X12424920Y-10475674D01*
X12424920Y-10475674D02*
X12434443Y-10437579D01*
X12434443Y-10437579D02*
X12443967Y-10418531D01*
X12443967Y-10418531D02*
X12453491Y-10409008D01*
X12453491Y-10409008D02*
X12472539Y-10399484D01*
X12624920Y-10599484D02*
X12624920Y-10466150D01*
X12624920Y-10485198D02*
X12634443Y-10475674D01*
X12634443Y-10475674D02*
X12653491Y-10466150D01*
X12653491Y-10466150D02*
X12682063Y-10466150D01*
X12682063Y-10466150D02*
X12701110Y-10475674D01*
X12701110Y-10475674D02*
X12710634Y-10494722D01*
X12710634Y-10494722D02*
X12710634Y-10599484D01*
X12710634Y-10494722D02*
X12720158Y-10475674D01*
X12720158Y-10475674D02*
X12739205Y-10466150D01*
X12739205Y-10466150D02*
X12767777Y-10466150D01*
X12767777Y-10466150D02*
X12786824Y-10475674D01*
X12786824Y-10475674D02*
X12796348Y-10494722D01*
X12796348Y-10494722D02*
X12796348Y-10599484D01*
X12891586Y-10599484D02*
X12891586Y-10466150D01*
X12891586Y-10485198D02*
X12901110Y-10475674D01*
X12901110Y-10475674D02*
X12920158Y-10466150D01*
X12920158Y-10466150D02*
X12948729Y-10466150D01*
X12948729Y-10466150D02*
X12967777Y-10475674D01*
X12967777Y-10475674D02*
X12977301Y-10494722D01*
X12977301Y-10494722D02*
X12977301Y-10599484D01*
X12977301Y-10494722D02*
X12986824Y-10475674D01*
X12986824Y-10475674D02*
X13005872Y-10466150D01*
X13005872Y-10466150D02*
X13034443Y-10466150D01*
X13034443Y-10466150D02*
X13053491Y-10475674D01*
X13053491Y-10475674D02*
X13063015Y-10494722D01*
X13063015Y-10494722D02*
X13063015Y-10599484D01*
X13453491Y-10389960D02*
X13282063Y-10647103D01*
X13710634Y-10399484D02*
X13729682Y-10399484D01*
X13729682Y-10399484D02*
X13748729Y-10409008D01*
X13748729Y-10409008D02*
X13758253Y-10418531D01*
X13758253Y-10418531D02*
X13767777Y-10437579D01*
X13767777Y-10437579D02*
X13777301Y-10475674D01*
X13777301Y-10475674D02*
X13777301Y-10523293D01*
X13777301Y-10523293D02*
X13767777Y-10561389D01*
X13767777Y-10561389D02*
X13758253Y-10580436D01*
X13758253Y-10580436D02*
X13748729Y-10589960D01*
X13748729Y-10589960D02*
X13729682Y-10599484D01*
X13729682Y-10599484D02*
X13710634Y-10599484D01*
X13710634Y-10599484D02*
X13691586Y-10589960D01*
X13691586Y-10589960D02*
X13682063Y-10580436D01*
X13682063Y-10580436D02*
X13672539Y-10561389D01*
X13672539Y-10561389D02*
X13663015Y-10523293D01*
X13663015Y-10523293D02*
X13663015Y-10475674D01*
X13663015Y-10475674D02*
X13672539Y-10437579D01*
X13672539Y-10437579D02*
X13682063Y-10418531D01*
X13682063Y-10418531D02*
X13691586Y-10409008D01*
X13691586Y-10409008D02*
X13710634Y-10399484D01*
X13863015Y-10580436D02*
X13872539Y-10589960D01*
X13872539Y-10589960D02*
X13863015Y-10599484D01*
X13863015Y-10599484D02*
X13853491Y-10589960D01*
X13853491Y-10589960D02*
X13863015Y-10580436D01*
X13863015Y-10580436D02*
X13863015Y-10599484D01*
X13996348Y-10399484D02*
X14015396Y-10399484D01*
X14015396Y-10399484D02*
X14034444Y-10409008D01*
X14034444Y-10409008D02*
X14043967Y-10418531D01*
X14043967Y-10418531D02*
X14053491Y-10437579D01*
X14053491Y-10437579D02*
X14063015Y-10475674D01*
X14063015Y-10475674D02*
X14063015Y-10523293D01*
X14063015Y-10523293D02*
X14053491Y-10561389D01*
X14053491Y-10561389D02*
X14043967Y-10580436D01*
X14043967Y-10580436D02*
X14034444Y-10589960D01*
X14034444Y-10589960D02*
X14015396Y-10599484D01*
X14015396Y-10599484D02*
X13996348Y-10599484D01*
X13996348Y-10599484D02*
X13977301Y-10589960D01*
X13977301Y-10589960D02*
X13967777Y-10580436D01*
X13967777Y-10580436D02*
X13958253Y-10561389D01*
X13958253Y-10561389D02*
X13948729Y-10523293D01*
X13948729Y-10523293D02*
X13948729Y-10475674D01*
X13948729Y-10475674D02*
X13958253Y-10437579D01*
X13958253Y-10437579D02*
X13967777Y-10418531D01*
X13967777Y-10418531D02*
X13977301Y-10409008D01*
X13977301Y-10409008D02*
X13996348Y-10399484D01*
X14129682Y-10399484D02*
X14263015Y-10399484D01*
X14263015Y-10399484D02*
X14177301Y-10599484D01*
X14377301Y-10399484D02*
X14396348Y-10399484D01*
X14396348Y-10399484D02*
X14415396Y-10409008D01*
X14415396Y-10409008D02*
X14424920Y-10418531D01*
X14424920Y-10418531D02*
X14434444Y-10437579D01*
X14434444Y-10437579D02*
X14443967Y-10475674D01*
X14443967Y-10475674D02*
X14443967Y-10523293D01*
X14443967Y-10523293D02*
X14434444Y-10561389D01*
X14434444Y-10561389D02*
X14424920Y-10580436D01*
X14424920Y-10580436D02*
X14415396Y-10589960D01*
X14415396Y-10589960D02*
X14396348Y-10599484D01*
X14396348Y-10599484D02*
X14377301Y-10599484D01*
X14377301Y-10599484D02*
X14358253Y-10589960D01*
X14358253Y-10589960D02*
X14348729Y-10580436D01*
X14348729Y-10580436D02*
X14339206Y-10561389D01*
X14339206Y-10561389D02*
X14329682Y-10523293D01*
X14329682Y-10523293D02*
X14329682Y-10475674D01*
X14329682Y-10475674D02*
X14339206Y-10437579D01*
X14339206Y-10437579D02*
X14348729Y-10418531D01*
X14348729Y-10418531D02*
X14358253Y-10409008D01*
X14358253Y-10409008D02*
X14377301Y-10399484D01*
X14634444Y-10599484D02*
X14520158Y-10599484D01*
X14577301Y-10599484D02*
X14577301Y-10399484D01*
X14577301Y-10399484D02*
X14558253Y-10428055D01*
X14558253Y-10428055D02*
X14539206Y-10447103D01*
X14539206Y-10447103D02*
X14520158Y-10456627D01*
X14710634Y-10399484D02*
X14710634Y-10437579D01*
X14786825Y-10399484D02*
X14786825Y-10437579D01*
X15082063Y-10675674D02*
X15072539Y-10666150D01*
X15072539Y-10666150D02*
X15053491Y-10637579D01*
X15053491Y-10637579D02*
X15043968Y-10618531D01*
X15043968Y-10618531D02*
X15034444Y-10589960D01*
X15034444Y-10589960D02*
X15024920Y-10542341D01*
X15024920Y-10542341D02*
X15024920Y-10504246D01*
X15024920Y-10504246D02*
X15034444Y-10456627D01*
X15034444Y-10456627D02*
X15043968Y-10428055D01*
X15043968Y-10428055D02*
X15053491Y-10409008D01*
X15053491Y-10409008D02*
X15072539Y-10380436D01*
X15072539Y-10380436D02*
X15082063Y-10370912D01*
X15243968Y-10466150D02*
X15243968Y-10599484D01*
X15196348Y-10389960D02*
X15148729Y-10532817D01*
X15148729Y-10532817D02*
X15272539Y-10532817D01*
X15501110Y-10599484D02*
X15501110Y-10399484D01*
X15586825Y-10599484D02*
X15586825Y-10494722D01*
X15586825Y-10494722D02*
X15577301Y-10475674D01*
X15577301Y-10475674D02*
X15558253Y-10466150D01*
X15558253Y-10466150D02*
X15529682Y-10466150D01*
X15529682Y-10466150D02*
X15510634Y-10475674D01*
X15510634Y-10475674D02*
X15501110Y-10485198D01*
X15710634Y-10599484D02*
X15691587Y-10589960D01*
X15691587Y-10589960D02*
X15682063Y-10580436D01*
X15682063Y-10580436D02*
X15672539Y-10561389D01*
X15672539Y-10561389D02*
X15672539Y-10504246D01*
X15672539Y-10504246D02*
X15682063Y-10485198D01*
X15682063Y-10485198D02*
X15691587Y-10475674D01*
X15691587Y-10475674D02*
X15710634Y-10466150D01*
X15710634Y-10466150D02*
X15739206Y-10466150D01*
X15739206Y-10466150D02*
X15758253Y-10475674D01*
X15758253Y-10475674D02*
X15767777Y-10485198D01*
X15767777Y-10485198D02*
X15777301Y-10504246D01*
X15777301Y-10504246D02*
X15777301Y-10561389D01*
X15777301Y-10561389D02*
X15767777Y-10580436D01*
X15767777Y-10580436D02*
X15758253Y-10589960D01*
X15758253Y-10589960D02*
X15739206Y-10599484D01*
X15739206Y-10599484D02*
X15710634Y-10599484D01*
X15891587Y-10599484D02*
X15872539Y-10589960D01*
X15872539Y-10589960D02*
X15863015Y-10570912D01*
X15863015Y-10570912D02*
X15863015Y-10399484D01*
X16043968Y-10589960D02*
X16024920Y-10599484D01*
X16024920Y-10599484D02*
X15986825Y-10599484D01*
X15986825Y-10599484D02*
X15967777Y-10589960D01*
X15967777Y-10589960D02*
X15958253Y-10570912D01*
X15958253Y-10570912D02*
X15958253Y-10494722D01*
X15958253Y-10494722D02*
X15967777Y-10475674D01*
X15967777Y-10475674D02*
X15986825Y-10466150D01*
X15986825Y-10466150D02*
X16024920Y-10466150D01*
X16024920Y-10466150D02*
X16043968Y-10475674D01*
X16043968Y-10475674D02*
X16053491Y-10494722D01*
X16053491Y-10494722D02*
X16053491Y-10513770D01*
X16053491Y-10513770D02*
X15958253Y-10532817D01*
X16129682Y-10589960D02*
X16148730Y-10599484D01*
X16148730Y-10599484D02*
X16186825Y-10599484D01*
X16186825Y-10599484D02*
X16205872Y-10589960D01*
X16205872Y-10589960D02*
X16215396Y-10570912D01*
X16215396Y-10570912D02*
X16215396Y-10561389D01*
X16215396Y-10561389D02*
X16205872Y-10542341D01*
X16205872Y-10542341D02*
X16186825Y-10532817D01*
X16186825Y-10532817D02*
X16158253Y-10532817D01*
X16158253Y-10532817D02*
X16139206Y-10523293D01*
X16139206Y-10523293D02*
X16129682Y-10504246D01*
X16129682Y-10504246D02*
X16129682Y-10494722D01*
X16129682Y-10494722D02*
X16139206Y-10475674D01*
X16139206Y-10475674D02*
X16158253Y-10466150D01*
X16158253Y-10466150D02*
X16186825Y-10466150D01*
X16186825Y-10466150D02*
X16205872Y-10475674D01*
X16282063Y-10675674D02*
X16291587Y-10666150D01*
X16291587Y-10666150D02*
X16310634Y-10637579D01*
X16310634Y-10637579D02*
X16320158Y-10618531D01*
X16320158Y-10618531D02*
X16329682Y-10589960D01*
X16329682Y-10589960D02*
X16339206Y-10542341D01*
X16339206Y-10542341D02*
X16339206Y-10504246D01*
X16339206Y-10504246D02*
X16329682Y-10456627D01*
X16329682Y-10456627D02*
X16320158Y-10428055D01*
X16320158Y-10428055D02*
X16310634Y-10409008D01*
X16310634Y-10409008D02*
X16291587Y-10380436D01*
X16291587Y-10380436D02*
X16282063Y-10370912D01*
M02*
