M48
; DRILL file {KiCad 8.0.9-4-gd7388e2a70} date 2025-04-15T12:07:22-0500
; FORMAT={-:-/ absolute / metric / decimal}
; #@! TF.CreationDate,2025-04-15T12:07:22-05:00
; #@! TF.GenerationSoftware,Kicad,Pcbnew,8.0.9-4-gd7388e2a70
; #@! TF.FileFunction,Plated,1,2,PTH
FMAT,2
METRIC
; #@! TA.AperFunction,Plated,PTH,ViaDrill
T1C0.400
; #@! TA.AperFunction,Plated,PTH,ComponentDrill
T2C0.920
; #@! TA.AperFunction,Plated,PTH,ComponentDrill
T3C1.194
; #@! TA.AperFunction,Plated,PTH,ComponentDrill
T4C1.270
; #@! TA.AperFunction,Plated,PTH,ComponentDrill
T5C1.780
%
G90
G05
T1
X120.4Y-52.2
X120.9Y-46.57
X128.44Y-66.43
X128.45Y-71.19
X131.25Y-74.0
X131.26Y-79.54
X133.005Y-59.12
X133.01Y-65.37
X137.64Y-58.42
X139.77Y-56.72
X148.55Y-57.32
X148.57Y-61.0
X152.92Y-63.32
X156.5Y-56.0
X161.78Y-62.42
X165.53Y-62.76
T2
X156.913Y-49.068
X158.913Y-49.068
X160.913Y-49.068
X162.913Y-49.068
T3
X119.868Y-53.737
X119.868Y-56.277
X119.868Y-58.817
X119.868Y-61.357
X119.868Y-63.897
X119.868Y-66.437
X119.868Y-68.977
X119.868Y-71.517
X119.868Y-74.057
X119.868Y-76.597
X119.868Y-79.137
X119.868Y-81.677
X122.408Y-53.737
X122.408Y-56.277
X122.408Y-58.817
X122.408Y-61.357
X122.408Y-63.897
X122.408Y-66.437
X122.408Y-68.977
X122.408Y-71.517
X122.408Y-74.057
X122.408Y-76.597
X122.408Y-79.137
X122.408Y-81.677
T4
X147.89Y-67.27
X147.89Y-69.81
X147.89Y-72.35
X147.89Y-74.89
X147.89Y-77.43
X147.89Y-79.97
X147.89Y-82.51
X147.89Y-85.05
X163.13Y-67.27
X163.13Y-69.81
X163.13Y-72.35
X163.13Y-74.89
X163.13Y-77.43
X163.13Y-79.97
X163.13Y-82.51
X163.13Y-85.05
T5
X156.413Y-46.348
X156.413Y-51.788
X163.413Y-46.348
X163.413Y-51.788
M30
