M48
; DRILL file {KiCad 8.0.9-8.0.9-0~ubuntu22.04.1} date 2025-04-14T19:28:09-0500
; FORMAT={-:-/ absolute / inch / decimal}
; #@! TF.CreationDate,2025-04-14T19:28:09-05:00
; #@! TF.GenerationSoftware,Kicad,Pcbnew,8.0.9-8.0.9-0~ubuntu22.04.1
; #@! TF.FileFunction,Plated,1,2,PTH
FMAT,2
INCH
; #@! TA.AperFunction,Plated,PTH,ViaDrill
T1C0.0157
; #@! TA.AperFunction,Plated,PTH,ComponentDrill
T2C0.0362
; #@! TA.AperFunction,Plated,PTH,ComponentDrill
T3C0.0470
; #@! TA.AperFunction,Plated,PTH,ComponentDrill
T4C0.0500
; #@! TA.AperFunction,Plated,PTH,ComponentDrill
T5C0.0701
%
G90
G05
T1
X4.7209Y-2.0677
X4.7382Y-1.8335
X5.0567Y-2.6154
X5.0571Y-2.8028
X5.1673Y-2.9134
X5.1677Y-3.1315
X5.2364Y-2.3276
X5.2366Y-2.5736
X5.4189Y-2.3
X5.5028Y-2.2331
X5.8484Y-2.2567
X5.8492Y-2.4016
X6.0205Y-2.4929
X6.1735Y-2.2119
X6.3693Y-2.4575
X6.5169Y-2.4709
T2
X6.1777Y-1.9318
X6.2564Y-1.9318
X6.3352Y-1.9318
X6.4139Y-1.9318
T3
X4.7192Y-2.1156
X4.7192Y-2.2156
X4.7192Y-2.3156
X4.7192Y-2.4156
X4.7192Y-2.5156
X4.7192Y-2.6156
X4.7192Y-2.7156
X4.7192Y-2.8156
X4.7192Y-2.9156
X4.7192Y-3.0156
X4.7192Y-3.1156
X4.7192Y-3.2156
X4.8192Y-2.1156
X4.8192Y-2.2156
X4.8192Y-2.3156
X4.8192Y-2.4156
X4.8192Y-2.5156
X4.8192Y-2.6156
X4.8192Y-2.7156
X4.8192Y-2.8156
X4.8192Y-2.9156
X4.8192Y-3.0156
X4.8192Y-3.1156
X4.8192Y-3.2156
T4
X5.8224Y-2.6484
X5.8224Y-2.7484
X5.8224Y-2.8484
X5.8224Y-2.9484
X5.8224Y-3.0484
X5.8224Y-3.1484
X5.8224Y-3.2484
X5.8224Y-3.3484
X6.4224Y-2.6484
X6.4224Y-2.7484
X6.4224Y-2.8484
X6.4224Y-2.9484
X6.4224Y-3.0484
X6.4224Y-3.1484
X6.4224Y-3.2484
X6.4224Y-3.3484
T5
X6.158Y-1.8247
X6.158Y-2.0389
X6.4336Y-1.8247
X6.4336Y-2.0389
M30
