%TF.GenerationSoftware,KiCad,Pcbnew,8.0.9-4-gd7388e2a70*%
%TF.CreationDate,2025-04-21T17:31:06-05:00*%
%TF.ProjectId,test_board,74657374-5f62-46f6-9172-642e6b696361,rev?*%
%TF.SameCoordinates,Original*%
%TF.FileFunction,Copper,L1,Top*%
%TF.FilePolarity,Positive*%
%FSLAX46Y46*%
G04 Gerber Fmt 4.6, Leading zero omitted, Abs format (unit mm)*
G04 Created by KiCad (PCBNEW 8.0.9-4-gd7388e2a70) date 2025-04-21 17:31:06*
%MOMM*%
%LPD*%
G01*
G04 APERTURE LIST*
G04 Aperture macros list*
%AMRoundRect*
0 Rectangle with rounded corners*
0 $1 Rounding radius*
0 $2 $3 $4 $5 $6 $7 $8 $9 X,Y pos of 4 corners*
0 Add a 4 corners polygon primitive as box body*
4,1,4,$2,$3,$4,$5,$6,$7,$8,$9,$2,$3,0*
0 Add four circle primitives for the rounded corners*
1,1,$1+$1,$2,$3*
1,1,$1+$1,$4,$5*
1,1,$1+$1,$6,$7*
1,1,$1+$1,$8,$9*
0 Add four rect primitives between the rounded corners*
20,1,$1+$1,$2,$3,$4,$5,0*
20,1,$1+$1,$4,$5,$6,$7,0*
20,1,$1+$1,$6,$7,$8,$9,0*
20,1,$1+$1,$8,$9,$2,$3,0*%
G04 Aperture macros list end*
%TA.AperFunction,SMDPad,CuDef*%
%ADD10RoundRect,0.150000X0.150000X-0.587500X0.150000X0.587500X-0.150000X0.587500X-0.150000X-0.587500X0*%
%TD*%
%TA.AperFunction,SMDPad,CuDef*%
%ADD11RoundRect,0.237500X-0.237500X0.250000X-0.237500X-0.250000X0.237500X-0.250000X0.237500X0.250000X0*%
%TD*%
%TA.AperFunction,SMDPad,CuDef*%
%ADD12RoundRect,0.150000X-0.650000X-0.150000X0.650000X-0.150000X0.650000X0.150000X-0.650000X0.150000X0*%
%TD*%
%TA.AperFunction,ComponentPad*%
%ADD13C,1.701800*%
%TD*%
%TA.AperFunction,SMDPad,CuDef*%
%ADD14RoundRect,0.237500X-0.287500X-0.237500X0.287500X-0.237500X0.287500X0.237500X-0.287500X0.237500X0*%
%TD*%
%TA.AperFunction,SMDPad,CuDef*%
%ADD15RoundRect,0.237500X0.300000X0.237500X-0.300000X0.237500X-0.300000X-0.237500X0.300000X-0.237500X0*%
%TD*%
%TA.AperFunction,SMDPad,CuDef*%
%ADD16RoundRect,0.237500X0.287500X0.237500X-0.287500X0.237500X-0.287500X-0.237500X0.287500X-0.237500X0*%
%TD*%
%TA.AperFunction,SMDPad,CuDef*%
%ADD17RoundRect,0.237500X0.237500X-0.250000X0.237500X0.250000X-0.237500X0.250000X-0.237500X-0.250000X0*%
%TD*%
%TA.AperFunction,SMDPad,CuDef*%
%ADD18RoundRect,0.150000X0.150000X-0.825000X0.150000X0.825000X-0.150000X0.825000X-0.150000X-0.825000X0*%
%TD*%
%TA.AperFunction,SMDPad,CuDef*%
%ADD19RoundRect,0.237500X-0.250000X-0.237500X0.250000X-0.237500X0.250000X0.237500X-0.250000X0.237500X0*%
%TD*%
%TA.AperFunction,SMDPad,CuDef*%
%ADD20RoundRect,0.237500X0.237500X-0.300000X0.237500X0.300000X-0.237500X0.300000X-0.237500X-0.300000X0*%
%TD*%
%TA.AperFunction,SMDPad,CuDef*%
%ADD21RoundRect,0.250000X0.312500X0.625000X-0.312500X0.625000X-0.312500X-0.625000X0.312500X-0.625000X0*%
%TD*%
%TA.AperFunction,SMDPad,CuDef*%
%ADD22RoundRect,0.150000X-0.150000X0.587500X-0.150000X-0.587500X0.150000X-0.587500X0.150000X0.587500X0*%
%TD*%
%TA.AperFunction,SMDPad,CuDef*%
%ADD23RoundRect,0.237500X0.250000X0.237500X-0.250000X0.237500X-0.250000X-0.237500X0.250000X-0.237500X0*%
%TD*%
%TA.AperFunction,ComponentPad*%
%ADD24R,1.300000X1.300000*%
%TD*%
%TA.AperFunction,ComponentPad*%
%ADD25C,1.300000*%
%TD*%
%TA.AperFunction,ComponentPad*%
%ADD26O,1.900000X2.900000*%
%TD*%
%TA.AperFunction,ComponentPad*%
%ADD27O,2.900000X1.900000*%
%TD*%
%TA.AperFunction,SMDPad,CuDef*%
%ADD28RoundRect,0.150000X0.825000X0.150000X-0.825000X0.150000X-0.825000X-0.150000X0.825000X-0.150000X0*%
%TD*%
%TA.AperFunction,ComponentPad*%
%ADD29C,1.905000*%
%TD*%
%TA.AperFunction,ViaPad*%
%ADD30C,0.800000*%
%TD*%
%TA.AperFunction,Conductor*%
%ADD31C,0.400000*%
%TD*%
%TA.AperFunction,Conductor*%
%ADD32C,0.200000*%
%TD*%
G04 APERTURE END LIST*
D10*
%TO.P,Q2,1,G*%
%TO.N,/ECHO_GPIO_CN2_1*%
X144942930Y-73151968D03*
%TO.P,Q2,2,S*%
%TO.N,GND*%
X146842930Y-73151968D03*
%TO.P,Q2,3,D*%
%TO.N,/GPIO_CN2_2*%
X145892930Y-71276968D03*
%TD*%
D11*
%TO.P,R1,1,1*%
%TO.N,/VCC_3V3_GPIO_FIL*%
X129840000Y-71332499D03*
%TO.P,R1,2,2*%
%TO.N,/GPIO_CN2_SPI_SS*%
X129840000Y-73157499D03*
%TD*%
D12*
%TO.P,U2,1,~{CS}*%
%TO.N,/GPIO_CN2_SPI_SS*%
X132100000Y-73459999D03*
%TO.P,U2,2,DO(IO1)*%
%TO.N,/GPIO_CN2_SPI_MISO*%
X132100000Y-74729999D03*
%TO.P,U2,3,~{WP}*%
%TO.N,Net-(U2-~{WP})*%
X132100000Y-75999999D03*
%TO.P,U2,4,GND*%
%TO.N,GND*%
X132100000Y-77269999D03*
%TO.P,U2,5,DI(IO0)*%
%TO.N,/GPIO_CN2_SPI_MOSI*%
X139300000Y-77269999D03*
%TO.P,U2,6,SCK*%
%TO.N,/GPIO_CN2_SPI_SCLK*%
X139300000Y-75999999D03*
%TO.P,U2,7,~{HOLD}*%
%TO.N,Net-(U2-~{HOLD})*%
X139300000Y-74729999D03*
%TO.P,U2,8,VCC*%
%TO.N,/VCC_3V3_GPIO_FIL*%
X139300000Y-73459999D03*
%TD*%
D13*
%TO.P,J1,1,Pin_1*%
%TO.N,/VCC_3V3_GPIO_FIL*%
X119868099Y-81676600D03*
%TO.P,J1,2,Pin_2*%
X122408099Y-81676600D03*
%TO.P,J1,3,Pin_3*%
%TO.N,GND*%
X119868099Y-79136600D03*
%TO.P,J1,4,Pin_4*%
X122408099Y-79136600D03*
%TO.P,J1,5,Pin_5*%
%TO.N,/GPIO_CN2_SPI_SCLK*%
X119868099Y-76596600D03*
%TO.P,J1,6,Pin_6*%
%TO.N,/GPIO_CN2_SPI_MOSI*%
X122408099Y-76596600D03*
%TO.P,J1,7,Pin_7*%
%TO.N,/GPIO_CN2_SPI_MISO*%
X119868099Y-74056600D03*
%TO.P,J1,8,Pin_8*%
%TO.N,/GPIO_CN2_SPI_SS*%
X122408099Y-74056600D03*
%TO.P,J1,9,Pin_9*%
%TO.N,/GPIO_CN2_2*%
X119868099Y-71516600D03*
%TO.P,J1,10,Pin_10*%
%TO.N,/GPIO_CN2_1*%
X122408099Y-71516600D03*
%TO.P,J1,11,Pin_11*%
%TO.N,/GPIO_CN2_3*%
X119868099Y-68976600D03*
%TO.P,J1,12,Pin_12*%
%TO.N,/GPIO_CN2_0*%
X122408099Y-68976600D03*
%TO.P,J1,13,Pin_13*%
%TO.N,/B{slash}RS485_RX-{slash}RS232_CTS_CN2*%
X119868099Y-66436600D03*
%TO.P,J1,14,Pin_14*%
%TO.N,/A{slash}RS485_RX+{slash}RS232_RXD_CN2*%
X122408099Y-66436600D03*
%TO.P,J1,15,Pin_15*%
%TO.N,/A_RS485_TX+{slash}RS232_RTS_CN2*%
X119868099Y-63896600D03*
%TO.P,J1,16,Pin_16*%
%TO.N,/B_RS485_TX-{slash}RS232_TXD_CN2*%
X122408099Y-63896600D03*
%TO.P,J1,17,Pin_17*%
%TO.N,/USB_HUB_CN2_DN*%
X119868099Y-61356600D03*
%TO.P,J1,18,Pin_18*%
%TO.N,/I2C_SCL_CN2*%
X122408099Y-61356600D03*
%TO.P,J1,19,Pin_19*%
%TO.N,/USB_HUB_CN2_DP*%
X119868099Y-58816600D03*
%TO.P,J1,20,Pin_20*%
%TO.N,/I2C_SDA_CN2*%
X122408099Y-58816600D03*
%TO.P,J1,21,Pin_21*%
%TO.N,GND*%
X119868099Y-56276600D03*
%TO.P,J1,22,Pin_22*%
X122408099Y-56276600D03*
%TO.P,J1,23,Pin_23*%
%TO.N,/VCC_5V_GPIO_FIL*%
X119868099Y-53736600D03*
%TO.P,J1,24,Pin_24*%
X122408099Y-53736600D03*
%TD*%
D14*
%TO.P,DS2,1,K*%
%TO.N,Net-(DS2-K)*%
X126215000Y-50390000D03*
%TO.P,DS2,2,A*%
%TO.N,/VCC_5V_GPIO_FIL*%
X127965000Y-50390000D03*
%TD*%
D15*
%TO.P,C4,1,1*%
%TO.N,GND*%
X136372500Y-58460000D03*
%TO.P,C4,2,2*%
%TO.N,/VCC_3V3_GPIO_FIL*%
X134647500Y-58460000D03*
%TD*%
D16*
%TO.P,DS1,1,K*%
%TO.N,Net-(DS1-K)*%
X127825000Y-81800000D03*
%TO.P,DS1,2,A*%
%TO.N,/VCC_3V3_GPIO_FIL*%
X126075000Y-81800000D03*
%TD*%
D17*
%TO.P,R14,1,1*%
%TO.N,/VCC_3V3_GPIO_FIL*%
X130190000Y-57712500D03*
%TO.P,R14,2,2*%
%TO.N,Net-(U4-WP)*%
X130190000Y-55887500D03*
%TD*%
D18*
%TO.P,U1,1,RO*%
%TO.N,/485RX*%
X151775000Y-60835000D03*
%TO.P,U1,2,~{RE}*%
%TO.N,/485RE*%
X153045000Y-60835000D03*
%TO.P,U1,3,DE*%
%TO.N,GND*%
X154315000Y-60835000D03*
%TO.P,U1,4,DI*%
%TO.N,unconnected-(U1-DI-Pad4)*%
X155585000Y-60835000D03*
%TO.P,U1,5,GND*%
%TO.N,GND*%
X155585000Y-55885000D03*
%TO.P,U1,6,A*%
%TO.N,/A_RS485_TX+{slash}RS232_RTS_CN2*%
X154315000Y-55885000D03*
%TO.P,U1,7,B*%
%TO.N,/B_RS485_TX-{slash}RS232_TXD_CN2*%
X153045000Y-55885000D03*
%TO.P,U1,8,VCC*%
%TO.N,/VCC_5V_GPIO_FIL*%
X151775000Y-55885000D03*
%TD*%
D17*
%TO.P,R13,1*%
%TO.N,/VCC_3V3_GPIO_FIL*%
X143120000Y-73532500D03*
%TO.P,R13,2*%
%TO.N,/GPIO_CN2_2*%
X143120000Y-71707500D03*
%TD*%
D19*
%TO.P,R4,1,1*%
%TO.N,Net-(DS1-K)*%
X129537500Y-83450000D03*
%TO.P,R4,2,2*%
%TO.N,GND*%
X131362500Y-83450000D03*
%TD*%
D18*
%TO.P,U3,1,RO*%
%TO.N,unconnected-(U3-RO-Pad1)*%
X159225000Y-60875000D03*
%TO.P,U3,2,~{RE}*%
%TO.N,/VCC_5V_GPIO_FIL*%
X160495000Y-60875000D03*
%TO.P,U3,3,DE*%
%TO.N,/485DE*%
X161765000Y-60875000D03*
%TO.P,U3,4,DI*%
%TO.N,/485TX*%
X163035000Y-60875000D03*
%TO.P,U3,5,GND*%
%TO.N,GND*%
X163035000Y-55925000D03*
%TO.P,U3,6,A*%
%TO.N,/A{slash}RS485_RX+{slash}RS232_RXD_CN2*%
X161765000Y-55925000D03*
%TO.P,U3,7,B*%
%TO.N,/B{slash}RS485_RX-{slash}RS232_CTS_CN2*%
X160495000Y-55925000D03*
%TO.P,U3,8,VCC*%
%TO.N,/VCC_5V_GPIO_FIL*%
X159225000Y-55925000D03*
%TD*%
D20*
%TO.P,C5,1,1*%
%TO.N,GND*%
X149840000Y-57452500D03*
%TO.P,C5,2,2*%
%TO.N,/VCC_5V_GPIO_FIL*%
X149840000Y-55727500D03*
%TD*%
D21*
%TO.P,R9,1,1*%
%TO.N,GND*%
X122422500Y-85320000D03*
%TO.P,R9,2,2*%
%TO.N,/VCC_3V3_GPIO_FIL*%
X119497500Y-85320000D03*
%TD*%
D19*
%TO.P,R3,1,1*%
%TO.N,/VCC_3V3_GPIO_FIL*%
X127787500Y-76250000D03*
%TO.P,R3,2,2*%
%TO.N,Net-(U2-~{WP})*%
X129612500Y-76250000D03*
%TD*%
D20*
%TO.P,C3,1,1*%
%TO.N,GND*%
X157300000Y-56602500D03*
%TO.P,C3,2,2*%
%TO.N,/VCC_5V_GPIO_FIL*%
X157300000Y-54877500D03*
%TD*%
D22*
%TO.P,Q1,1,G*%
%TO.N,/ECHO_GPIO_CN2_0*%
X145800000Y-80720000D03*
%TO.P,Q1,2,S*%
%TO.N,GND*%
X143900000Y-80720000D03*
%TO.P,Q1,3,D*%
%TO.N,/GPIO_CN2_3*%
X144850000Y-82595000D03*
%TD*%
D15*
%TO.P,C1,1,1*%
%TO.N,GND*%
X173262500Y-84750000D03*
%TO.P,C1,2,2*%
%TO.N,/VCC_5V_GPIO_FIL*%
X171537500Y-84750000D03*
%TD*%
D21*
%TO.P,R8,1,1*%
%TO.N,GND*%
X127382500Y-85260000D03*
%TO.P,R8,2,2*%
%TO.N,/VCC_3V3_GPIO_FIL*%
X124457500Y-85260000D03*
%TD*%
D23*
%TO.P,R5,1,1*%
%TO.N,Net-(DS2-K)*%
X124542500Y-50400000D03*
%TO.P,R5,2,2*%
%TO.N,GND*%
X122717500Y-50400000D03*
%TD*%
D24*
%TO.P,J2,1,VCC*%
%TO.N,/VCC_5V_GPIO_FIL*%
X166740000Y-46830000D03*
D25*
%TO.P,J2,2,D-*%
%TO.N,/USB_HUB_CN2_DN*%
X164240000Y-46830000D03*
%TO.P,J2,3,D+*%
%TO.N,/USB_HUB_CN2_DP*%
X162240000Y-46830000D03*
%TO.P,J2,4,GND*%
%TO.N,GND*%
X159740000Y-46830000D03*
D26*
%TO.P,J2,5,SHIELD*%
X169810000Y-47430000D03*
D27*
X163240000Y-51610000D03*
D26*
X156670000Y-47430000D03*
%TD*%
D23*
%TO.P,R12,1*%
%TO.N,/ECHO_GPIO_CN2_1*%
X144202500Y-69420000D03*
%TO.P,R12,2*%
%TO.N,GND*%
X142377500Y-69420000D03*
%TD*%
%TO.P,R10,1*%
%TO.N,/ECHO_GPIO_CN2_0*%
X145750000Y-78717500D03*
%TO.P,R10,2*%
%TO.N,GND*%
X143925000Y-78717500D03*
%TD*%
D28*
%TO.P,U4,1,A0*%
%TO.N,GND*%
X137955000Y-56735000D03*
%TO.P,U4,2,A1*%
X137955000Y-55465000D03*
%TO.P,U4,3,A2*%
X137955000Y-54195000D03*
%TO.P,U4,4,VSS*%
X137955000Y-52925000D03*
%TO.P,U4,5,SDA*%
%TO.N,/I2C_SDA_CN2*%
X133005000Y-52925000D03*
%TO.P,U4,6,SCL*%
%TO.N,/I2C_SCL_CN2*%
X133005000Y-54195000D03*
%TO.P,U4,7,WP*%
%TO.N,Net-(U4-WP)*%
X133005000Y-55465000D03*
%TO.P,U4,8,VDD*%
%TO.N,/VCC_3V3_GPIO_FIL*%
X133005000Y-56735000D03*
%TD*%
D17*
%TO.P,R6,1*%
%TO.N,/VCC_3V3_GPIO_FIL*%
X128650000Y-66362500D03*
%TO.P,R6,2*%
%TO.N,/GPIO_CN2_0*%
X128650000Y-64537500D03*
%TD*%
D11*
%TO.P,R7,1*%
%TO.N,/VCC_3V3_GPIO_FIL*%
X127110000Y-66367500D03*
%TO.P,R7,2*%
%TO.N,/GPIO_CN2_1*%
X127110000Y-68192500D03*
%TD*%
D20*
%TO.P,C2,1,1*%
%TO.N,GND*%
X143110000Y-76862500D03*
%TO.P,C2,2,2*%
%TO.N,/VCC_3V3_GPIO_FIL*%
X143110000Y-75137500D03*
%TD*%
D11*
%TO.P,R11,1*%
%TO.N,/VCC_3V3_GPIO_FIL*%
X145030000Y-75127500D03*
%TO.P,R11,2*%
%TO.N,/GPIO_CN2_3*%
X145030000Y-76952500D03*
%TD*%
%TO.P,R2,1,1*%
%TO.N,/VCC_3V3_GPIO_FIL*%
X141350000Y-73492499D03*
%TO.P,R2,2,2*%
%TO.N,Net-(U2-~{HOLD})*%
X141350000Y-75317499D03*
%TD*%
D29*
%TO.P,U5,0,GPIO0*%
%TO.N,unconnected-(U5-GPIO0-Pad0)*%
X169240000Y-66900000D03*
%TO.P,U5,1,GPIO1*%
%TO.N,unconnected-(U5-GPIO1-Pad1)*%
X169240000Y-69440000D03*
%TO.P,U5,2,GPIO2*%
%TO.N,unconnected-(U5-GPIO2-Pad2)*%
X169240000Y-71980000D03*
%TO.P,U5,3,GPIO3*%
%TO.N,unconnected-(U5-GPIO3-Pad3)*%
X169240000Y-74520000D03*
%TO.P,U5,3.3,3V3*%
%TO.N,unconnected-(U5-3V3-Pad3.3)*%
X169240000Y-79600000D03*
%TO.P,U5,4,GPIO4*%
%TO.N,unconnected-(U5-GPIO4-Pad4)*%
X169240000Y-77060000D03*
%TO.P,U5,5,GPIO5*%
%TO.N,/ECHO_GPIO_CN2_0*%
X154000000Y-84680000D03*
%TO.P,U5,5V,5V*%
%TO.N,/VCC_5V_GPIO_FIL*%
X169240000Y-84680000D03*
%TO.P,U5,6,GPIO6*%
%TO.N,/ECHO_GPIO_CN2_1*%
X154000000Y-82140000D03*
%TO.P,U5,7,GPIO7*%
%TO.N,/GPIO_CN2_1*%
X154000000Y-79600000D03*
%TO.P,U5,8,GPIO8*%
%TO.N,/GPIO_CN2_0*%
X154000000Y-77060000D03*
%TO.P,U5,9,GPIO9*%
%TO.N,/485TX*%
X154000000Y-74520000D03*
%TO.P,U5,10,GPIO10*%
%TO.N,/485DE*%
X154000000Y-71980000D03*
%TO.P,U5,20,GPIO20*%
%TO.N,/485RX*%
X154000000Y-69440000D03*
%TO.P,U5,21,GPIO21*%
%TO.N,/485RE*%
X154000000Y-66900000D03*
%TO.P,U5,G,GND*%
%TO.N,GND*%
X169240000Y-82140000D03*
%TD*%
D30*
%TO.N,/VCC_5V_GPIO_FIL*%
X160500000Y-62700000D03*
X157450000Y-58100000D03*
%TO.N,GND*%
X154315000Y-62785000D03*
%TO.N,/VCC_5V_GPIO_FIL*%
X120900000Y-46570000D03*
X120400000Y-52200000D03*
%TO.N,GND*%
X143530000Y-67600000D03*
X137640000Y-58420000D03*
X148550000Y-57320000D03*
X148570000Y-61000000D03*
X135520000Y-71860000D03*
X131160000Y-81804999D03*
X143550000Y-62590000D03*
X156500000Y-56000000D03*
X139770000Y-56720000D03*
X135510000Y-68280000D03*
X130850000Y-77650000D03*
%TO.N,/VCC_3V3_GPIO_FIL*%
X128510000Y-71674999D03*
X128520000Y-75474999D03*
X133080000Y-70614999D03*
X130190000Y-65510000D03*
X125940000Y-80910000D03*
X133005000Y-59120000D03*
X133010000Y-65510000D03*
X125940000Y-76460000D03*
%TO.N,/GPIO_CN2_3*%
X151200000Y-74720000D03*
X145900000Y-76950000D03*
%TD*%
D31*
%TO.N,/VCC_5V_GPIO_FIL*%
X160500000Y-62700000D02*
X160495000Y-62695000D01*
X160495000Y-62695000D02*
X160495000Y-60875000D01*
%TO.N,GND*%
X154315000Y-62785000D02*
X154315000Y-60835000D01*
%TO.N,/VCC_5V_GPIO_FIL*%
X151775000Y-55885000D02*
X151775000Y-56865000D01*
X153010000Y-58100000D02*
X158060000Y-58100000D01*
X151775000Y-56865000D02*
X153010000Y-58100000D01*
X158060000Y-58100000D02*
X159225000Y-56935000D01*
X159225000Y-56935000D02*
X159225000Y-55925000D01*
D32*
%TO.N,/485RE*%
X154000000Y-66650000D02*
X154315000Y-66335000D01*
X154315000Y-64865000D02*
X153045000Y-63595000D01*
X154315000Y-66335000D02*
X154315000Y-64865000D01*
X153045000Y-63595000D02*
X153045000Y-60835000D01*
%TO.N,/485DE*%
X161765000Y-61985000D02*
X161765000Y-65585000D01*
X161765000Y-65585000D02*
X155000000Y-72350000D01*
X155000000Y-72350000D02*
X154030000Y-72350000D01*
D31*
%TO.N,/VCC_5V_GPIO_FIL*%
X164810000Y-43190000D02*
X166740000Y-45120000D01*
X158177500Y-54877500D02*
X159225000Y-55925000D01*
X153282500Y-50860000D02*
X128435000Y-50860000D01*
X170300000Y-84750000D02*
X169310000Y-84750000D01*
X150610000Y-43190000D02*
X164810000Y-43190000D01*
X122408099Y-53736600D02*
X124448400Y-53736600D01*
X166740000Y-45120000D02*
X166740000Y-46830000D01*
X120400000Y-53204699D02*
X119868099Y-53736600D01*
X159225000Y-55925000D02*
X159225000Y-55017500D01*
X128435000Y-50860000D02*
X127965000Y-50390000D01*
X149840000Y-55727500D02*
X151617500Y-55727500D01*
X157300000Y-54877500D02*
X158177500Y-54877500D01*
X120400000Y-52200000D02*
X120400000Y-53204699D01*
X124448400Y-53736600D02*
X127795000Y-50390000D01*
X157300000Y-54877500D02*
X153282500Y-50860000D01*
X169310000Y-84750000D02*
X169240000Y-84680000D01*
X171467500Y-84680000D02*
X171537500Y-84750000D01*
X127795000Y-50390000D02*
X127965000Y-50390000D01*
X147230000Y-46570000D02*
X150610000Y-43190000D01*
X171537500Y-84750000D02*
X170300000Y-84750000D01*
X151617500Y-55727500D02*
X151775000Y-55885000D01*
X120900000Y-46570000D02*
X147230000Y-46570000D01*
%TO.N,GND*%
X131614999Y-77650000D02*
X131985000Y-77279999D01*
X139755000Y-56735000D02*
X139770000Y-56720000D01*
X157102500Y-56602500D02*
X157300000Y-56602500D01*
X156500000Y-56000000D02*
X157102500Y-56602500D01*
X137600000Y-58460000D02*
X137640000Y-58420000D01*
X136372500Y-58460000D02*
X137600000Y-58460000D01*
X130850000Y-77650000D02*
X131614999Y-77650000D01*
X148550000Y-57320000D02*
X148682500Y-57452500D01*
X137955000Y-56735000D02*
X139755000Y-56735000D01*
X148682500Y-57452500D02*
X149840000Y-57452500D01*
X143527500Y-67602500D02*
X143530000Y-67600000D01*
%TO.N,/VCC_3V3_GPIO_FIL*%
X133080000Y-70614999D02*
X133084999Y-70610000D01*
X128520000Y-75517500D02*
X127787500Y-76250000D01*
X139300000Y-71820000D02*
X139300000Y-73459999D01*
X128490000Y-71694999D02*
X128510000Y-71674999D01*
X129502500Y-65510000D02*
X128650000Y-66362500D01*
X126150000Y-76250000D02*
X125940000Y-76460000D01*
X141390001Y-73532500D02*
X141350000Y-73492499D01*
X125699100Y-81676600D02*
X125870000Y-81847500D01*
X128520000Y-75474999D02*
X128520000Y-75517500D01*
X141317500Y-73459999D02*
X141350000Y-73492499D01*
X133005000Y-56817500D02*
X134647500Y-58460000D01*
X133005000Y-56735000D02*
X133005000Y-56817500D01*
X124457500Y-85260000D02*
X124457500Y-83726001D01*
X119497500Y-85320000D02*
X119497500Y-82047199D01*
X127577500Y-66362500D02*
X128650000Y-66362500D01*
X133084999Y-70610000D02*
X138090000Y-70610000D01*
X128852500Y-71332499D02*
X128510000Y-71674999D01*
X119497500Y-82047199D02*
X119868099Y-81676600D01*
X139300000Y-73459999D02*
X141317500Y-73459999D01*
X130190000Y-65510000D02*
X129502500Y-65510000D01*
X133080000Y-70614999D02*
X133075001Y-70610000D01*
X127572500Y-66367500D02*
X127577500Y-66362500D01*
X145020000Y-75137500D02*
X145030000Y-75127500D01*
X143120000Y-73532500D02*
X141390001Y-73532500D01*
X125940000Y-81665000D02*
X126075000Y-81800000D01*
X138090000Y-70610000D02*
X139300000Y-71820000D01*
X130562499Y-70610000D02*
X129840000Y-71332499D01*
X143120000Y-73532500D02*
X143120000Y-75127500D01*
X119868099Y-81676600D02*
X122408099Y-81676600D01*
X143120000Y-75127500D02*
X143110000Y-75137500D01*
X125940000Y-80910000D02*
X125940000Y-81665000D01*
X122408099Y-81676600D02*
X125699100Y-81676600D01*
X124457500Y-83726001D02*
X122408099Y-81676600D01*
X127787500Y-76250000D02*
X126150000Y-76250000D01*
X127110000Y-66367500D02*
X127572500Y-66367500D01*
X133005000Y-56735000D02*
X133005000Y-59120000D01*
X133075001Y-70610000D02*
X130562499Y-70610000D01*
X143110000Y-75137500D02*
X145020000Y-75137500D01*
X131167500Y-56735000D02*
X130190000Y-57712500D01*
X133005000Y-56735000D02*
X131167500Y-56735000D01*
X129840000Y-71332499D02*
X128852500Y-71332499D01*
D32*
%TO.N,/B{slash}RS485_RX-{slash}RS232_CTS_CN2*%
X123052500Y-65147500D02*
X126200000Y-62000000D01*
X160495000Y-57055000D02*
X160495000Y-55925000D01*
X141100000Y-62000000D02*
X144170000Y-58930000D01*
X126200000Y-62000000D02*
X141100000Y-62000000D01*
X158620000Y-58930000D02*
X160495000Y-57055000D01*
X121157199Y-65147500D02*
X123052500Y-65147500D01*
X119868099Y-66436600D02*
X121157199Y-65147500D01*
X144170000Y-58930000D02*
X158620000Y-58930000D01*
%TO.N,/GPIO_CN2_0*%
X128650000Y-64537500D02*
X146187500Y-64537500D01*
X122506600Y-68976600D02*
X122728200Y-68755000D01*
X152070000Y-77060000D02*
X154000000Y-77060000D01*
X150110000Y-68460000D02*
X150110000Y-75100000D01*
X122408099Y-68976600D02*
X122506600Y-68976600D01*
X122408099Y-68976600D02*
X126847199Y-64537500D01*
X150110000Y-75100000D02*
X152070000Y-77060000D01*
X146187500Y-64537500D02*
X150110000Y-68460000D01*
X126847199Y-64537500D02*
X128650000Y-64537500D01*
%TO.N,/A{slash}RS485_RX+{slash}RS232_RXD_CN2*%
X144377106Y-59430000D02*
X143878553Y-59928553D01*
X161765000Y-55925000D02*
X161765000Y-57085000D01*
X141307107Y-62500000D02*
X126950000Y-62500000D01*
X126950000Y-62500000D02*
X122750000Y-66700000D01*
X159420000Y-59430000D02*
X144377106Y-59430000D01*
X143878553Y-59928553D02*
X143878553Y-59928554D01*
X143878553Y-59928554D02*
X141307107Y-62500000D01*
X161765000Y-57085000D02*
X159420000Y-59430000D01*
%TO.N,/GPIO_CN2_1*%
X125483400Y-71516600D02*
X122408099Y-71516600D01*
X130690000Y-66310000D02*
X126650000Y-70350000D01*
X152530000Y-79600000D02*
X149300000Y-76370000D01*
X149300000Y-68900000D02*
X146350000Y-65950000D01*
X126650000Y-70350000D02*
X125483400Y-71516600D01*
X138340000Y-66310000D02*
X130690000Y-66310000D01*
X154000000Y-79600000D02*
X152530000Y-79600000D01*
X127110000Y-68192500D02*
X127110000Y-69890000D01*
X149300000Y-76370000D02*
X149300000Y-68900000D01*
X127110000Y-69890000D02*
X126650000Y-70350000D01*
X146350000Y-65950000D02*
X138700000Y-65950000D01*
X138700000Y-65950000D02*
X138340000Y-66310000D01*
%TO.N,/GPIO_CN2_SPI_SS*%
X129840000Y-73189999D02*
X130120000Y-73469999D01*
X129840000Y-73157499D02*
X126102501Y-73157499D01*
X126102501Y-73157499D02*
X125203400Y-74056600D01*
X125203400Y-74056600D02*
X122408099Y-74056600D01*
X131985000Y-73469999D02*
X130400000Y-73469999D01*
X130120000Y-73469999D02*
X129807500Y-73157499D01*
X129840000Y-72754999D02*
X129840000Y-73189999D01*
X130400000Y-73469999D02*
X130120000Y-73469999D01*
%TO.N,Net-(U2-~{HOLD})*%
X141350000Y-75317499D02*
X140762500Y-74729999D01*
X140762500Y-74729999D02*
X139300000Y-74729999D01*
%TO.N,Net-(U2-~{WP})*%
X131045000Y-76009999D02*
X131985000Y-76009999D01*
X129612500Y-76250000D02*
X130804999Y-76250000D01*
X130804999Y-76250000D02*
X131045000Y-76009999D01*
%TO.N,Net-(U4-WP)*%
X130612500Y-55465000D02*
X130190000Y-55887500D01*
X133005000Y-55465000D02*
X130612500Y-55465000D01*
%TO.N,/485TX*%
X154000000Y-74520000D02*
X155280000Y-74520000D01*
X155280000Y-74520000D02*
X163035000Y-66765000D01*
X163035000Y-66765000D02*
X163035000Y-60875000D01*
%TO.N,/485RE*%
X152925000Y-60835000D02*
X152920000Y-60840000D01*
X153045000Y-60835000D02*
X152925000Y-60835000D01*
X154000000Y-66650000D02*
X154350000Y-66300000D01*
X154000000Y-66900000D02*
X154000000Y-66650000D01*
%TO.N,/GPIO_CN2_2*%
X145892930Y-69152930D02*
X145892930Y-71276968D01*
X119868099Y-71516600D02*
X121118999Y-72767500D01*
X143290000Y-71537500D02*
X143290000Y-68936858D01*
X121118999Y-72767500D02*
X125782500Y-72767500D01*
X145190000Y-68450000D02*
X145892930Y-69152930D01*
X139767500Y-69477500D02*
X141997500Y-71707500D01*
X143290000Y-68936858D02*
X143776858Y-68450000D01*
X143120000Y-71707500D02*
X143290000Y-71537500D01*
X143776858Y-68450000D02*
X145190000Y-68450000D01*
X141997500Y-71707500D02*
X143120000Y-71707500D01*
X125782500Y-72767500D02*
X129072500Y-69477500D01*
X129072500Y-69477500D02*
X139767500Y-69477500D01*
%TO.N,/GPIO_CN2_3*%
X145030000Y-76952500D02*
X144850000Y-77132500D01*
X122977593Y-67700000D02*
X121144699Y-67700000D01*
X145897500Y-76952500D02*
X145900000Y-76950000D01*
X151210000Y-74710000D02*
X151210000Y-67910000D01*
X146950000Y-63650000D02*
X127027593Y-63650000D01*
X127027593Y-63650000D02*
X122977593Y-67700000D01*
X151200000Y-74720000D02*
X151210000Y-74710000D01*
X121144699Y-67700000D02*
X119868099Y-68976600D01*
X145030000Y-76952500D02*
X145897500Y-76952500D01*
X144850000Y-77132500D02*
X144850000Y-82595000D01*
X144847500Y-82597500D02*
X144850000Y-82595000D01*
X151210000Y-67910000D02*
X146950000Y-63650000D01*
%TO.N,/485RX*%
X152250000Y-67690000D02*
X153446447Y-68886447D01*
X152250000Y-61310000D02*
X152250000Y-67690000D01*
X151775000Y-60835000D02*
X152250000Y-61310000D01*
%TO.N,/ECHO_GPIO_CN2_0*%
X145800000Y-80720000D02*
X149760000Y-84680000D01*
X145750000Y-78717500D02*
X145750000Y-80670000D01*
X145800000Y-78767500D02*
X145750000Y-78717500D01*
X149760000Y-84680000D02*
X154000000Y-84680000D01*
X145750000Y-80670000D02*
X145800000Y-80720000D01*
%TO.N,/ECHO_GPIO_CN2_1*%
X151950000Y-82140000D02*
X154000000Y-82140000D01*
X144202500Y-69420000D02*
X145040000Y-70257500D01*
X145040000Y-73054898D02*
X144942930Y-73151968D01*
X145040000Y-70257500D02*
X145040000Y-73054898D01*
X144942930Y-73151968D02*
X147250000Y-75459038D01*
X147250000Y-75459038D02*
X147250000Y-77440000D01*
X147250000Y-77440000D02*
X151950000Y-82140000D01*
%TO.N,/GPIO_CN2_SPI_MISO*%
X121131499Y-75320000D02*
X119868099Y-74056600D01*
X125980000Y-74600000D02*
X125260000Y-75320000D01*
X132100000Y-74729999D02*
X131970001Y-74600000D01*
X131970001Y-74600000D02*
X125980000Y-74600000D01*
X125260000Y-75320000D02*
X121131499Y-75320000D01*
%TO.N,/GPIO_CN2_SPI_SCLK*%
X119868099Y-76596600D02*
X121118999Y-77847500D01*
X139899999Y-75999999D02*
X139300000Y-75999999D01*
X140570000Y-76670000D02*
X139899999Y-75999999D01*
X128197500Y-77847500D02*
X129970000Y-79620000D01*
X140570000Y-77860000D02*
X140570000Y-76670000D01*
X138810000Y-79620000D02*
X140570000Y-77860000D01*
X121118999Y-77847500D02*
X128197500Y-77847500D01*
X129970000Y-79620000D02*
X138810000Y-79620000D01*
X119868099Y-76596600D02*
X120256600Y-76596600D01*
%TO.N,/GPIO_CN2_SPI_MOSI*%
X123158999Y-77347500D02*
X128797500Y-77347500D01*
X130350000Y-78900000D02*
X137669999Y-78900000D01*
X128797500Y-77347500D02*
X130350000Y-78900000D01*
X139295000Y-77264999D02*
X139300000Y-77269999D01*
X137669999Y-78900000D02*
X139300000Y-77269999D01*
X122408099Y-76596600D02*
X123158999Y-77347500D01*
%TO.N,/I2C_SCL_CN2*%
X129525000Y-54195000D02*
X133005000Y-54195000D01*
X122408099Y-61356600D02*
X122408099Y-61311901D01*
X122408099Y-61311901D02*
X129525000Y-54195000D01*
%TO.N,/I2C_SDA_CN2*%
X128299699Y-52925000D02*
X133005000Y-52925000D01*
X122408099Y-58816600D02*
X128299699Y-52925000D01*
%TO.N,/USB_HUB_CN2_DP*%
X161230000Y-44920000D02*
X162240000Y-45930000D01*
X118666600Y-58816600D02*
X117650000Y-57800000D01*
X149040000Y-48130000D02*
X152250000Y-44920000D01*
X121623554Y-48130000D02*
X149040000Y-48130000D01*
X117650000Y-57800000D02*
X117650000Y-52103554D01*
X162240000Y-45930000D02*
X162240000Y-46830000D01*
X152250000Y-44920000D02*
X161230000Y-44920000D01*
X117650000Y-52103554D02*
X121623554Y-48130000D01*
X119868099Y-58816600D02*
X118666600Y-58816600D01*
%TO.N,/USB_HUB_CN2_DN*%
X161560000Y-44150000D02*
X164240000Y-46830000D01*
X119868099Y-61356600D02*
X116970000Y-58458501D01*
X116970000Y-58458501D02*
X116970000Y-51670000D01*
X121423223Y-47623223D02*
X121646446Y-47400000D01*
X151896446Y-44150000D02*
X161560000Y-44150000D01*
X116970000Y-51670000D02*
X121016777Y-47623223D01*
X121016777Y-47623223D02*
X121423223Y-47623223D01*
X148646446Y-47400000D02*
X151896446Y-44150000D01*
X121646446Y-47400000D02*
X148646446Y-47400000D01*
%TO.N,Net-(DS1-K)*%
X129537500Y-83450000D02*
X129475000Y-83450000D01*
X129475000Y-83450000D02*
X127825000Y-81800000D01*
%TO.N,Net-(DS2-K)*%
X124542500Y-50400000D02*
X126205000Y-50400000D01*
X126205000Y-50400000D02*
X126215000Y-50390000D01*
%TO.N,/A_RS485_TX+{slash}RS232_RTS_CN2*%
X125240000Y-60300000D02*
X139170000Y-60300000D01*
X154315000Y-54585000D02*
X154315000Y-55885000D01*
X121144699Y-62620000D02*
X122920000Y-62620000D01*
X153570000Y-53840000D02*
X154315000Y-54585000D01*
X145630000Y-53840000D02*
X153570000Y-53840000D01*
X119868099Y-63896600D02*
X121144699Y-62620000D01*
X139170000Y-60300000D02*
X145630000Y-53840000D01*
X122920000Y-62620000D02*
X125240000Y-60300000D01*
%TO.N,/B_RS485_TX-{slash}RS232_TXD_CN2*%
X125670000Y-61150000D02*
X139920000Y-61150000D01*
X122923400Y-63896600D02*
X125670000Y-61150000D01*
X152710000Y-54470000D02*
X153045000Y-54805000D01*
X146600000Y-54470000D02*
X152710000Y-54470000D01*
X139920000Y-61150000D02*
X146600000Y-54470000D01*
X153045000Y-54805000D02*
X153045000Y-55885000D01*
X122408099Y-63896600D02*
X122923400Y-63896600D01*
%TO.N,/485DE*%
X161765000Y-60875000D02*
X161765000Y-61985000D01*
D31*
%TO.N,/VCC_5V_GPIO_FIL*%
X172050000Y-55450000D02*
X172050000Y-83000000D01*
X159225000Y-55925000D02*
X159225000Y-54555000D01*
X159225000Y-54555000D02*
X159710000Y-54070000D01*
X170670000Y-54070000D02*
X159710000Y-54070000D01*
X170670000Y-54070000D02*
X172050000Y-55450000D01*
X172050000Y-83000000D02*
X170300000Y-84750000D01*
%TD*%
%TA.AperFunction,Conductor*%
%TO.N,GND*%
G36*
X146180580Y-66419407D02*
G01*
X146192393Y-66429496D01*
X148820504Y-69057607D01*
X148848281Y-69112124D01*
X148849500Y-69127611D01*
X148849500Y-76429309D01*
X148873713Y-76519673D01*
X148873712Y-76519673D01*
X148880200Y-76543886D01*
X148880202Y-76543890D01*
X148939507Y-76646609D01*
X148939508Y-76646610D01*
X148939509Y-76646611D01*
X148939511Y-76646614D01*
X152253386Y-79960490D01*
X152356113Y-80019799D01*
X152375584Y-80025016D01*
X152375587Y-80025018D01*
X152375588Y-80025017D01*
X152470691Y-80050500D01*
X152709300Y-80050500D01*
X152767491Y-80069407D01*
X152799024Y-80107661D01*
X152867253Y-80253978D01*
X152867257Y-80253986D01*
X152996881Y-80439110D01*
X152998031Y-80440751D01*
X153159249Y-80601969D01*
X153346011Y-80732741D01*
X153447949Y-80780275D01*
X153492697Y-80822004D01*
X153504372Y-80882065D01*
X153478514Y-80937518D01*
X153447949Y-80959724D01*
X153346022Y-81007253D01*
X153346014Y-81007257D01*
X153159253Y-81138027D01*
X152998027Y-81299253D01*
X152867258Y-81486013D01*
X152799026Y-81632339D01*
X152757297Y-81677087D01*
X152709301Y-81689500D01*
X152177612Y-81689500D01*
X152119421Y-81670593D01*
X152107608Y-81660504D01*
X147729496Y-77282392D01*
X147701719Y-77227875D01*
X147700500Y-77212388D01*
X147700500Y-75399730D01*
X147699135Y-75394637D01*
X147669799Y-75285152D01*
X147669799Y-75285151D01*
X147610490Y-75182424D01*
X145622424Y-73194359D01*
X145594648Y-73139843D01*
X145593429Y-73124356D01*
X145593429Y-72516601D01*
X145593429Y-72516596D01*
X145588879Y-72474273D01*
X145601458Y-72414397D01*
X145646831Y-72373349D01*
X145692629Y-72364837D01*
X145695031Y-72364965D01*
X145695057Y-72364968D01*
X146090802Y-72364967D01*
X146150413Y-72358559D01*
X146248066Y-72322137D01*
X146285259Y-72308265D01*
X146285259Y-72308264D01*
X146285261Y-72308264D01*
X146400476Y-72222014D01*
X146486726Y-72106799D01*
X146489193Y-72100186D01*
X146537019Y-71971956D01*
X146537018Y-71971956D01*
X146537021Y-71971951D01*
X146543430Y-71912341D01*
X146543429Y-70641596D01*
X146537021Y-70581985D01*
X146510036Y-70509634D01*
X146486727Y-70447138D01*
X146400479Y-70331926D01*
X146400478Y-70331925D01*
X146400476Y-70331922D01*
X146400472Y-70331919D01*
X146383099Y-70318913D01*
X146347847Y-70268903D01*
X146343430Y-70239661D01*
X146343430Y-69093622D01*
X146341549Y-69086603D01*
X146312729Y-68979044D01*
X146312729Y-68979043D01*
X146312729Y-68979042D01*
X146253422Y-68876320D01*
X146253420Y-68876318D01*
X146253419Y-68876316D01*
X145466614Y-68089511D01*
X145466611Y-68089509D01*
X145466609Y-68089507D01*
X145363890Y-68030202D01*
X145363886Y-68030200D01*
X145339673Y-68023712D01*
X145339673Y-68023713D01*
X145249309Y-67999500D01*
X143717549Y-67999500D01*
X143672366Y-68011606D01*
X143627183Y-68023713D01*
X143627182Y-68023712D01*
X143602970Y-68030201D01*
X143602967Y-68030202D01*
X143500248Y-68089507D01*
X142929507Y-68660248D01*
X142870200Y-68762970D01*
X142870200Y-68762971D01*
X142870201Y-68762972D01*
X142839830Y-68876320D01*
X142839500Y-68877550D01*
X142839500Y-70783266D01*
X142820593Y-70841457D01*
X142771093Y-70877421D01*
X142753425Y-70881419D01*
X142729001Y-70884635D01*
X142585963Y-70943882D01*
X142585961Y-70943884D01*
X142463137Y-71038129D01*
X142463129Y-71038137D01*
X142368882Y-71160964D01*
X142354417Y-71195886D01*
X142314680Y-71242412D01*
X142262953Y-71257000D01*
X142225111Y-71257000D01*
X142166920Y-71238093D01*
X142155107Y-71228004D01*
X141105103Y-70178000D01*
X140044114Y-69117011D01*
X140044111Y-69117009D01*
X140044110Y-69117008D01*
X140044109Y-69117007D01*
X139941390Y-69057702D01*
X139941386Y-69057700D01*
X139917173Y-69051212D01*
X139917173Y-69051213D01*
X139826809Y-69027000D01*
X129013191Y-69027000D01*
X128955902Y-69042350D01*
X128898612Y-69057701D01*
X128794587Y-69117760D01*
X128734739Y-69130481D01*
X128678843Y-69105594D01*
X128648251Y-69052605D01*
X128654647Y-68991755D01*
X128675084Y-68962019D01*
X129178069Y-68459035D01*
X130847608Y-66789496D01*
X130902125Y-66761719D01*
X130917612Y-66760500D01*
X138399309Y-66760500D01*
X138489669Y-66736287D01*
X138489672Y-66736287D01*
X138502903Y-66732741D01*
X138513887Y-66729799D01*
X138602140Y-66678845D01*
X138616609Y-66670492D01*
X138616609Y-66670491D01*
X138616614Y-66670489D01*
X138749715Y-66537388D01*
X138857608Y-66429496D01*
X138912124Y-66401719D01*
X138927611Y-66400500D01*
X146122389Y-66400500D01*
X146180580Y-66419407D01*
G37*
%TD.AperFunction*%
%TA.AperFunction,Conductor*%
G36*
X132581318Y-71179407D02*
G01*
X132593124Y-71189490D01*
X132609110Y-71205476D01*
X132609112Y-71205477D01*
X132609113Y-71205478D01*
X132751423Y-71294898D01*
X132752310Y-71295455D01*
X132795438Y-71310546D01*
X132911934Y-71351310D01*
X132911938Y-71351311D01*
X132911941Y-71351312D01*
X132911942Y-71351312D01*
X132911946Y-71351313D01*
X133079996Y-71370248D01*
X133080000Y-71370248D01*
X133080004Y-71370248D01*
X133248053Y-71351313D01*
X133248055Y-71351312D01*
X133248059Y-71351312D01*
X133407690Y-71295455D01*
X133550890Y-71205476D01*
X133566871Y-71189494D01*
X133621386Y-71161719D01*
X133636873Y-71160500D01*
X137820967Y-71160500D01*
X137879158Y-71179407D01*
X137890971Y-71189496D01*
X138720504Y-72019029D01*
X138748281Y-72073546D01*
X138749500Y-72089033D01*
X138749500Y-72710499D01*
X138730593Y-72768690D01*
X138681093Y-72804654D01*
X138650502Y-72809499D01*
X138602132Y-72809499D01*
X138602128Y-72809500D01*
X138542519Y-72815907D01*
X138542514Y-72815908D01*
X138407670Y-72866201D01*
X138292458Y-72952449D01*
X138292450Y-72952457D01*
X138206202Y-73067669D01*
X138155910Y-73202510D01*
X138155908Y-73202521D01*
X138154244Y-73218000D01*
X138149697Y-73260300D01*
X138149500Y-73262128D01*
X138149500Y-73657865D01*
X138149500Y-73657868D01*
X138149501Y-73657871D01*
X138151044Y-73672228D01*
X138155908Y-73717479D01*
X138155909Y-73717484D01*
X138206202Y-73852328D01*
X138271389Y-73939406D01*
X138292454Y-73967545D01*
X138329796Y-73995499D01*
X138356842Y-74015746D01*
X138392094Y-74065755D01*
X138391220Y-74126934D01*
X138356842Y-74174252D01*
X138292455Y-74222452D01*
X138292450Y-74222457D01*
X138206202Y-74337669D01*
X138155910Y-74472510D01*
X138155908Y-74472521D01*
X138149500Y-74532128D01*
X138149500Y-74927865D01*
X138149501Y-74927869D01*
X138155908Y-74987479D01*
X138155909Y-74987484D01*
X138206202Y-75122328D01*
X138277139Y-75217087D01*
X138292454Y-75237545D01*
X138320532Y-75258564D01*
X138356842Y-75285746D01*
X138392094Y-75335755D01*
X138391220Y-75396934D01*
X138356842Y-75444252D01*
X138292455Y-75492452D01*
X138292450Y-75492457D01*
X138206202Y-75607669D01*
X138155910Y-75742510D01*
X138155908Y-75742521D01*
X138152900Y-75770500D01*
X138149783Y-75799500D01*
X138149500Y-75802128D01*
X138149500Y-76197865D01*
X138149501Y-76197869D01*
X138155908Y-76257479D01*
X138155909Y-76257484D01*
X138206202Y-76392328D01*
X138292450Y-76507540D01*
X138292454Y-76507545D01*
X138340999Y-76543886D01*
X138356842Y-76555746D01*
X138392094Y-76605755D01*
X138391220Y-76666934D01*
X138356842Y-76714252D01*
X138292455Y-76762452D01*
X138292450Y-76762457D01*
X138206202Y-76877669D01*
X138155910Y-77012510D01*
X138155908Y-77012521D01*
X138155420Y-77017065D01*
X138150765Y-77060365D01*
X138149500Y-77072128D01*
X138149500Y-77467865D01*
X138149501Y-77467869D01*
X138155908Y-77527479D01*
X138155909Y-77527484D01*
X138201453Y-77649595D01*
X138204073Y-77710724D01*
X138178699Y-77754194D01*
X137512392Y-78420503D01*
X137457875Y-78448281D01*
X137442388Y-78449500D01*
X130577611Y-78449500D01*
X130519420Y-78430593D01*
X130507607Y-78420504D01*
X129331607Y-77244504D01*
X129303830Y-77189987D01*
X129313401Y-77129555D01*
X129356666Y-77086290D01*
X129401611Y-77075500D01*
X129901039Y-77075500D01*
X129901040Y-77075500D01*
X130015999Y-77060365D01*
X130159037Y-77001117D01*
X130281867Y-76906867D01*
X130376117Y-76784037D01*
X130385405Y-76761614D01*
X130425142Y-76715088D01*
X130476869Y-76700500D01*
X130864307Y-76700500D01*
X130864308Y-76700500D01*
X130956168Y-76675886D01*
X130978886Y-76669799D01*
X131077877Y-76612646D01*
X131081608Y-76610492D01*
X131081608Y-76610491D01*
X131081613Y-76610489D01*
X131084524Y-76607577D01*
X131139037Y-76579797D01*
X131199470Y-76589364D01*
X131201978Y-76590688D01*
X131207669Y-76593795D01*
X131342511Y-76644088D01*
X131342512Y-76644088D01*
X131342517Y-76644090D01*
X131402127Y-76650499D01*
X132797872Y-76650498D01*
X132857483Y-76644090D01*
X132947028Y-76610692D01*
X132992329Y-76593796D01*
X132992329Y-76593795D01*
X132992331Y-76593795D01*
X133107546Y-76507545D01*
X133193796Y-76392330D01*
X133194462Y-76390546D01*
X133244089Y-76257487D01*
X133244090Y-76257484D01*
X133244091Y-76257482D01*
X133250500Y-76197872D01*
X133250499Y-75802127D01*
X133244091Y-75742516D01*
X133240929Y-75734037D01*
X133193797Y-75607669D01*
X133107549Y-75492457D01*
X133107548Y-75492456D01*
X133107546Y-75492453D01*
X133084564Y-75475249D01*
X133043158Y-75444252D01*
X133007905Y-75394243D01*
X133008779Y-75333064D01*
X133043158Y-75285746D01*
X133079468Y-75258564D01*
X133107546Y-75237545D01*
X133193796Y-75122330D01*
X133213041Y-75070733D01*
X133244089Y-74987487D01*
X133244090Y-74987484D01*
X133244091Y-74987482D01*
X133250500Y-74927872D01*
X133250499Y-74532127D01*
X133244091Y-74472516D01*
X133244089Y-74472510D01*
X133193797Y-74337669D01*
X133107549Y-74222457D01*
X133107548Y-74222456D01*
X133107546Y-74222453D01*
X133080049Y-74201869D01*
X133043158Y-74174252D01*
X133007905Y-74124243D01*
X133008779Y-74063064D01*
X133043158Y-74015746D01*
X133070204Y-73995499D01*
X133107546Y-73967545D01*
X133193796Y-73852330D01*
X133194462Y-73850546D01*
X133244089Y-73717487D01*
X133244090Y-73717484D01*
X133244091Y-73717482D01*
X133250500Y-73657872D01*
X133250499Y-73262127D01*
X133244091Y-73202516D01*
X133241049Y-73194360D01*
X133193797Y-73067669D01*
X133107549Y-72952457D01*
X133107548Y-72952456D01*
X133107546Y-72952453D01*
X133105728Y-72951092D01*
X132992329Y-72866201D01*
X132857488Y-72815909D01*
X132857483Y-72815908D01*
X132857481Y-72815907D01*
X132857477Y-72815907D01*
X132826249Y-72812549D01*
X132797873Y-72809499D01*
X132797870Y-72809499D01*
X131402133Y-72809499D01*
X131402129Y-72809499D01*
X131402128Y-72809500D01*
X131394949Y-72810271D01*
X131342519Y-72815907D01*
X131342514Y-72815908D01*
X131207670Y-72866201D01*
X131092458Y-72952449D01*
X131092450Y-72952457D01*
X131071961Y-72979828D01*
X131021952Y-73015081D01*
X130992708Y-73019499D01*
X130764500Y-73019499D01*
X130706309Y-73000592D01*
X130670345Y-72951092D01*
X130665500Y-72920499D01*
X130665500Y-72868960D01*
X130665500Y-72868959D01*
X130650365Y-72754000D01*
X130591117Y-72610962D01*
X130496867Y-72488132D01*
X130485548Y-72479447D01*
X130374038Y-72393883D01*
X130374039Y-72393883D01*
X130374037Y-72393882D01*
X130374034Y-72393881D01*
X130374033Y-72393880D01*
X130235415Y-72336463D01*
X130188889Y-72296727D01*
X130174605Y-72237232D01*
X130198020Y-72180704D01*
X130235415Y-72153535D01*
X130262356Y-72142375D01*
X130374037Y-72096116D01*
X130496867Y-72001866D01*
X130591117Y-71879036D01*
X130650365Y-71735998D01*
X130665500Y-71621039D01*
X130665500Y-71326532D01*
X130684407Y-71268341D01*
X130694496Y-71256528D01*
X130761528Y-71189496D01*
X130816045Y-71161719D01*
X130831532Y-71160500D01*
X132523127Y-71160500D01*
X132581318Y-71179407D01*
G37*
%TD.AperFunction*%
%TA.AperFunction,Conductor*%
G36*
X154893691Y-59899407D02*
G01*
X154929655Y-59948907D01*
X154934500Y-59979500D01*
X154934500Y-61707866D01*
X154934501Y-61707870D01*
X154940908Y-61767480D01*
X154940909Y-61767485D01*
X154991202Y-61902329D01*
X155077450Y-62017541D01*
X155077454Y-62017546D01*
X155077457Y-62017548D01*
X155077458Y-62017549D01*
X155192670Y-62103797D01*
X155327511Y-62154089D01*
X155327512Y-62154089D01*
X155327517Y-62154091D01*
X155387127Y-62160500D01*
X155782872Y-62160499D01*
X155842483Y-62154091D01*
X155937991Y-62118469D01*
X155977329Y-62103797D01*
X155977329Y-62103796D01*
X155977331Y-62103796D01*
X156092546Y-62017546D01*
X156178796Y-61902331D01*
X156229091Y-61767483D01*
X156235500Y-61707873D01*
X156235499Y-59979499D01*
X156254406Y-59921309D01*
X156303906Y-59885345D01*
X156334499Y-59880500D01*
X158477362Y-59880500D01*
X158535553Y-59899407D01*
X158571517Y-59948907D01*
X158575795Y-59990081D01*
X158574500Y-60002127D01*
X158574500Y-61747866D01*
X158574501Y-61747870D01*
X158580908Y-61807480D01*
X158580909Y-61807485D01*
X158631202Y-61942329D01*
X158712590Y-62051049D01*
X158717454Y-62057546D01*
X158717457Y-62057548D01*
X158717458Y-62057549D01*
X158832670Y-62143797D01*
X158967511Y-62194089D01*
X158967512Y-62194089D01*
X158967517Y-62194091D01*
X159027127Y-62200500D01*
X159422872Y-62200499D01*
X159482483Y-62194091D01*
X159549907Y-62168943D01*
X159617329Y-62143797D01*
X159617329Y-62143796D01*
X159617331Y-62143796D01*
X159732546Y-62057546D01*
X159766247Y-62012526D01*
X159816255Y-61977274D01*
X159877434Y-61978148D01*
X159926416Y-62014815D01*
X159944500Y-62071856D01*
X159944500Y-62153125D01*
X159925593Y-62211316D01*
X159915507Y-62223125D01*
X159909526Y-62229106D01*
X159909520Y-62229113D01*
X159819544Y-62372308D01*
X159819544Y-62372309D01*
X159763688Y-62531934D01*
X159763685Y-62531946D01*
X159744751Y-62699995D01*
X159744751Y-62700004D01*
X159763685Y-62868053D01*
X159763688Y-62868065D01*
X159819544Y-63027690D01*
X159819544Y-63027691D01*
X159909520Y-63170886D01*
X159909523Y-63170890D01*
X160029110Y-63290477D01*
X160029112Y-63290478D01*
X160029113Y-63290479D01*
X160080683Y-63322883D01*
X160172310Y-63380456D01*
X160236232Y-63402823D01*
X160331934Y-63436311D01*
X160331938Y-63436312D01*
X160331941Y-63436313D01*
X160331942Y-63436313D01*
X160331946Y-63436314D01*
X160499996Y-63455249D01*
X160500000Y-63455249D01*
X160500004Y-63455249D01*
X160668053Y-63436314D01*
X160668055Y-63436313D01*
X160668059Y-63436313D01*
X160827690Y-63380456D01*
X160970890Y-63290477D01*
X161090477Y-63170890D01*
X161131674Y-63105326D01*
X161178643Y-63066114D01*
X161239690Y-63061998D01*
X161291497Y-63094550D01*
X161314276Y-63151338D01*
X161314500Y-63157997D01*
X161314500Y-65357388D01*
X161295593Y-65415579D01*
X161285504Y-65427392D01*
X155313537Y-71399358D01*
X155259020Y-71427135D01*
X155198588Y-71417564D01*
X155155323Y-71374299D01*
X155153823Y-71371224D01*
X155132741Y-71326012D01*
X155001969Y-71139249D01*
X154840751Y-70978031D01*
X154840747Y-70978028D01*
X154840746Y-70978027D01*
X154717870Y-70891989D01*
X154653989Y-70847259D01*
X154552048Y-70799723D01*
X154507302Y-70757997D01*
X154495627Y-70697936D01*
X154521484Y-70642483D01*
X154552047Y-70620276D01*
X154653989Y-70572741D01*
X154840751Y-70441969D01*
X155001969Y-70280751D01*
X155132741Y-70093989D01*
X155229096Y-69887354D01*
X155288106Y-69667128D01*
X155292951Y-69611757D01*
X155307977Y-69440003D01*
X155307977Y-69439996D01*
X155288107Y-69212879D01*
X155288106Y-69212876D01*
X155288106Y-69212872D01*
X155229096Y-68992646D01*
X155132741Y-68786012D01*
X155001969Y-68599249D01*
X154840751Y-68438031D01*
X154840747Y-68438028D01*
X154840746Y-68438027D01*
X154702797Y-68341435D01*
X154653989Y-68307259D01*
X154552048Y-68259723D01*
X154507302Y-68217997D01*
X154495627Y-68157936D01*
X154521484Y-68102483D01*
X154552047Y-68080276D01*
X154653989Y-68032741D01*
X154840751Y-67901969D01*
X155001969Y-67740751D01*
X155132741Y-67553989D01*
X155229096Y-67347354D01*
X155288106Y-67127128D01*
X155288195Y-67126117D01*
X155307977Y-66900003D01*
X155307977Y-66899996D01*
X155288107Y-66672879D01*
X155288106Y-66672876D01*
X155288106Y-66672872D01*
X155229096Y-66452646D01*
X155132741Y-66246012D01*
X155001969Y-66059249D01*
X154840751Y-65898031D01*
X154840747Y-65898028D01*
X154807714Y-65874897D01*
X154770893Y-65826031D01*
X154765500Y-65793802D01*
X154765500Y-64805692D01*
X154739711Y-64709445D01*
X154739711Y-64709444D01*
X154734798Y-64691111D01*
X154734797Y-64691109D01*
X154675492Y-64588390D01*
X154675491Y-64588389D01*
X154675490Y-64588388D01*
X154675489Y-64588386D01*
X153524496Y-63437393D01*
X153496719Y-63382876D01*
X153495500Y-63367389D01*
X153495500Y-62109805D01*
X153514407Y-62051614D01*
X153535168Y-62030554D01*
X153552546Y-62017546D01*
X153638796Y-61902331D01*
X153689091Y-61767483D01*
X153695500Y-61707873D01*
X153695499Y-59979499D01*
X153714406Y-59921309D01*
X153763906Y-59885345D01*
X153794499Y-59880500D01*
X154835500Y-59880500D01*
X154893691Y-59899407D01*
G37*
%TD.AperFunction*%
%TA.AperFunction,Conductor*%
G36*
X151083691Y-59899407D02*
G01*
X151119655Y-59948907D01*
X151124500Y-59979500D01*
X151124500Y-61707866D01*
X151124501Y-61707870D01*
X151130908Y-61767480D01*
X151130909Y-61767485D01*
X151181202Y-61902329D01*
X151267450Y-62017541D01*
X151267454Y-62017546D01*
X151267457Y-62017548D01*
X151267458Y-62017549D01*
X151382670Y-62103797D01*
X151517511Y-62154089D01*
X151517512Y-62154089D01*
X151517517Y-62154091D01*
X151577127Y-62160500D01*
X151700500Y-62160499D01*
X151758690Y-62179406D01*
X151794654Y-62228906D01*
X151799500Y-62259499D01*
X151799500Y-67660570D01*
X151780593Y-67718761D01*
X151731093Y-67754725D01*
X151669907Y-67754725D01*
X151620407Y-67718761D01*
X151614764Y-67710070D01*
X151570491Y-67633388D01*
X151570490Y-67633386D01*
X147226614Y-63289511D01*
X147226611Y-63289509D01*
X147226610Y-63289508D01*
X147226609Y-63289507D01*
X147123890Y-63230202D01*
X147123886Y-63230200D01*
X147099673Y-63223712D01*
X147099673Y-63223713D01*
X147009309Y-63199500D01*
X127126610Y-63199500D01*
X127068419Y-63180593D01*
X127032455Y-63131093D01*
X127032455Y-63069907D01*
X127056604Y-63030497D01*
X127107607Y-62979495D01*
X127162123Y-62951719D01*
X127177610Y-62950500D01*
X141366416Y-62950500D01*
X141456776Y-62926287D01*
X141456779Y-62926287D01*
X141470010Y-62922741D01*
X141480994Y-62919799D01*
X141570599Y-62868065D01*
X141583716Y-62860492D01*
X141583716Y-62860491D01*
X141583721Y-62860489D01*
X144239043Y-60205168D01*
X144239044Y-60205164D01*
X144246149Y-60198060D01*
X144246153Y-60198054D01*
X144534713Y-59909496D01*
X144589229Y-59881719D01*
X144604716Y-59880500D01*
X151025500Y-59880500D01*
X151083691Y-59899407D01*
G37*
%TD.AperFunction*%
%TA.AperFunction,Conductor*%
G36*
X149107816Y-54939407D02*
G01*
X149143780Y-54988907D01*
X149143780Y-55050093D01*
X149128167Y-55079767D01*
X149088883Y-55130961D01*
X149088882Y-55130963D01*
X149029634Y-55274001D01*
X149014500Y-55388959D01*
X149014500Y-56066040D01*
X149029634Y-56180998D01*
X149088882Y-56324036D01*
X149088883Y-56324037D01*
X149106048Y-56346407D01*
X149173287Y-56434036D01*
X149183133Y-56446867D01*
X149305963Y-56541117D01*
X149449001Y-56600365D01*
X149449000Y-56600365D01*
X149464135Y-56602357D01*
X149563960Y-56615500D01*
X149563961Y-56615500D01*
X150116039Y-56615500D01*
X150116040Y-56615500D01*
X150230999Y-56600365D01*
X150374037Y-56541117D01*
X150496867Y-56446867D01*
X150591117Y-56324037D01*
X150591117Y-56324036D01*
X150595067Y-56318889D01*
X150597016Y-56320384D01*
X150634594Y-56286556D01*
X150674854Y-56278000D01*
X151025501Y-56278000D01*
X151083692Y-56296907D01*
X151119656Y-56346407D01*
X151124501Y-56377000D01*
X151124501Y-56757870D01*
X151130908Y-56817480D01*
X151130909Y-56817485D01*
X151181202Y-56952329D01*
X151243401Y-57035416D01*
X151259774Y-57069120D01*
X151262016Y-57077485D01*
X151334490Y-57203015D01*
X151934604Y-57803129D01*
X152441971Y-58310496D01*
X152469748Y-58365013D01*
X152460177Y-58425445D01*
X152416912Y-58468710D01*
X152371967Y-58479500D01*
X144110691Y-58479500D01*
X143996114Y-58510201D01*
X143893386Y-58569510D01*
X140942393Y-61520504D01*
X140887876Y-61548281D01*
X140872389Y-61549500D01*
X140396610Y-61549500D01*
X140338419Y-61530593D01*
X140302455Y-61481093D01*
X140302455Y-61419907D01*
X140326604Y-61380498D01*
X146757608Y-54949496D01*
X146812125Y-54921719D01*
X146827612Y-54920500D01*
X149049625Y-54920500D01*
X149107816Y-54939407D01*
G37*
%TD.AperFunction*%
%TA.AperFunction,Conductor*%
G36*
X174520421Y-41919407D02*
G01*
X174556385Y-41968907D01*
X174561229Y-41999151D01*
X174584413Y-48581719D01*
X174598814Y-52670886D01*
X174599499Y-52865182D01*
X174599500Y-52865531D01*
X174599500Y-86981886D01*
X174580593Y-87040077D01*
X174531093Y-87076041D01*
X174500900Y-87080885D01*
X115719900Y-87318544D01*
X115661634Y-87299872D01*
X115625470Y-87250518D01*
X115620500Y-87219545D01*
X115620500Y-84655637D01*
X118584500Y-84655637D01*
X118584500Y-85984357D01*
X118584501Y-85984362D01*
X118599955Y-86101758D01*
X118599957Y-86101766D01*
X118660462Y-86247838D01*
X118660462Y-86247839D01*
X118756713Y-86373276D01*
X118756718Y-86373282D01*
X118882159Y-86469536D01*
X118882160Y-86469536D01*
X118882161Y-86469537D01*
X118920697Y-86485499D01*
X119028238Y-86530044D01*
X119145639Y-86545500D01*
X119849360Y-86545499D01*
X119966762Y-86530044D01*
X120112841Y-86469536D01*
X120238282Y-86373282D01*
X120334536Y-86247841D01*
X120395044Y-86101762D01*
X120410500Y-85984361D01*
X120410499Y-84655640D01*
X120395044Y-84538238D01*
X120395042Y-84538233D01*
X120334537Y-84392161D01*
X120334537Y-84392160D01*
X120238286Y-84266723D01*
X120238285Y-84266722D01*
X120238282Y-84266718D01*
X120238277Y-84266714D01*
X120238276Y-84266713D01*
X120112843Y-84170465D01*
X120109106Y-84168917D01*
X120062584Y-84129176D01*
X120048000Y-84077456D01*
X120048000Y-82947389D01*
X120066907Y-82889198D01*
X120116407Y-82853234D01*
X120128803Y-82850076D01*
X120198286Y-82837088D01*
X120405903Y-82756657D01*
X120595206Y-82639445D01*
X120759748Y-82489445D01*
X120893926Y-82311765D01*
X120908761Y-82281971D01*
X120951623Y-82238310D01*
X120997382Y-82227100D01*
X121278816Y-82227100D01*
X121337007Y-82246007D01*
X121367437Y-82281972D01*
X121382268Y-82311758D01*
X121382270Y-82311762D01*
X121382272Y-82311765D01*
X121516450Y-82489445D01*
X121680992Y-82639445D01*
X121870295Y-82756657D01*
X122077912Y-82837088D01*
X122296773Y-82878000D01*
X122519425Y-82878000D01*
X122730613Y-82838522D01*
X122791285Y-82846414D01*
X122818806Y-82865832D01*
X123878004Y-83925029D01*
X123905781Y-83979546D01*
X123907000Y-83995033D01*
X123907000Y-84017456D01*
X123888093Y-84075647D01*
X123845894Y-84108917D01*
X123842156Y-84110465D01*
X123716723Y-84206713D01*
X123716713Y-84206723D01*
X123620462Y-84332160D01*
X123620462Y-84332161D01*
X123559957Y-84478233D01*
X123559955Y-84478241D01*
X123544500Y-84595637D01*
X123544500Y-85924357D01*
X123544501Y-85924362D01*
X123559955Y-86041758D01*
X123559957Y-86041766D01*
X123620462Y-86187838D01*
X123620462Y-86187839D01*
X123620464Y-86187841D01*
X123716718Y-86313282D01*
X123842159Y-86409536D01*
X123842160Y-86409536D01*
X123842161Y-86409537D01*
X123987014Y-86469537D01*
X123988238Y-86470044D01*
X124105639Y-86485500D01*
X124809360Y-86485499D01*
X124926762Y-86470044D01*
X125072841Y-86409536D01*
X125198282Y-86313282D01*
X125294536Y-86187841D01*
X125355044Y-86041762D01*
X125370500Y-85924361D01*
X125370499Y-84595640D01*
X125355044Y-84478238D01*
X125294537Y-84332161D01*
X125294537Y-84332160D01*
X125198286Y-84206723D01*
X125198285Y-84206722D01*
X125198282Y-84206718D01*
X125198277Y-84206714D01*
X125198276Y-84206713D01*
X125072843Y-84110465D01*
X125069106Y-84108917D01*
X125022584Y-84069176D01*
X125008000Y-84017456D01*
X125008000Y-83653526D01*
X125000704Y-83626297D01*
X124970484Y-83513516D01*
X124932645Y-83447977D01*
X124898010Y-83387987D01*
X123906128Y-82396104D01*
X123878351Y-82341587D01*
X123887922Y-82281155D01*
X123931187Y-82237890D01*
X123976132Y-82227100D01*
X125163438Y-82227100D01*
X125221629Y-82246007D01*
X125254902Y-82288214D01*
X125264658Y-82311766D01*
X125273883Y-82334037D01*
X125368133Y-82456867D01*
X125490963Y-82551117D01*
X125634001Y-82610365D01*
X125634000Y-82610365D01*
X125649135Y-82612357D01*
X125748960Y-82625500D01*
X125748961Y-82625500D01*
X126401039Y-82625500D01*
X126401040Y-82625500D01*
X126515999Y-82610365D01*
X126659037Y-82551117D01*
X126781867Y-82456867D01*
X126871459Y-82340107D01*
X126921882Y-82305452D01*
X126983046Y-82307053D01*
X127028540Y-82340107D01*
X127118133Y-82456867D01*
X127240963Y-82551117D01*
X127384001Y-82610365D01*
X127384000Y-82610365D01*
X127399135Y-82612357D01*
X127498960Y-82625500D01*
X127972389Y-82625500D01*
X128030580Y-82644407D01*
X128042393Y-82654496D01*
X128670504Y-83282607D01*
X128698281Y-83337124D01*
X128699500Y-83352611D01*
X128699500Y-83726040D01*
X128714634Y-83840998D01*
X128773882Y-83984036D01*
X128773883Y-83984037D01*
X128799526Y-84017456D01*
X128857594Y-84093133D01*
X128868133Y-84106867D01*
X128990963Y-84201117D01*
X129134001Y-84260365D01*
X129134000Y-84260365D01*
X129149135Y-84262357D01*
X129248960Y-84275500D01*
X129248961Y-84275500D01*
X129826039Y-84275500D01*
X129826040Y-84275500D01*
X129940999Y-84260365D01*
X130084037Y-84201117D01*
X130206867Y-84106867D01*
X130301117Y-83984037D01*
X130360365Y-83840999D01*
X130375500Y-83726040D01*
X130375500Y-83173960D01*
X130360365Y-83059001D01*
X130301117Y-82915963D01*
X130206867Y-82793133D01*
X130201685Y-82789157D01*
X130084038Y-82698884D01*
X130084036Y-82698882D01*
X129976877Y-82654496D01*
X129940999Y-82639635D01*
X129940998Y-82639634D01*
X129940999Y-82639634D01*
X129826040Y-82624500D01*
X129327611Y-82624500D01*
X129269420Y-82605593D01*
X129257607Y-82595504D01*
X128729496Y-82067393D01*
X128701719Y-82012876D01*
X128700500Y-81997389D01*
X128700500Y-81523961D01*
X128700500Y-81523960D01*
X128685365Y-81409001D01*
X128626117Y-81265963D01*
X128531867Y-81143133D01*
X128531860Y-81143128D01*
X128409038Y-81048884D01*
X128409036Y-81048882D01*
X128307890Y-81006987D01*
X128265999Y-80989635D01*
X128265998Y-80989634D01*
X128265999Y-80989634D01*
X128151040Y-80974500D01*
X127498960Y-80974500D01*
X127498959Y-80974500D01*
X127384001Y-80989634D01*
X127240963Y-81048882D01*
X127240961Y-81048884D01*
X127118137Y-81143129D01*
X127118128Y-81143138D01*
X127028542Y-81259891D01*
X126978118Y-81294547D01*
X126916953Y-81292946D01*
X126871458Y-81259891D01*
X126781871Y-81143138D01*
X126781870Y-81143137D01*
X126781867Y-81143133D01*
X126781862Y-81143129D01*
X126781861Y-81143128D01*
X126722336Y-81097453D01*
X126687680Y-81047028D01*
X126684226Y-81007827D01*
X126695249Y-80910000D01*
X126695249Y-80909995D01*
X126676314Y-80741946D01*
X126676311Y-80741934D01*
X126653480Y-80676690D01*
X126620456Y-80582310D01*
X126530477Y-80439110D01*
X126410890Y-80319523D01*
X126410887Y-80319521D01*
X126410886Y-80319520D01*
X126267691Y-80229544D01*
X126108065Y-80173688D01*
X126108053Y-80173685D01*
X125940004Y-80154751D01*
X125939996Y-80154751D01*
X125771946Y-80173685D01*
X125771934Y-80173688D01*
X125612309Y-80229544D01*
X125612308Y-80229544D01*
X125469113Y-80319520D01*
X125349520Y-80439113D01*
X125259544Y-80582308D01*
X125259544Y-80582309D01*
X125203688Y-80741934D01*
X125203685Y-80741946D01*
X125184751Y-80909995D01*
X125184751Y-80910004D01*
X125196696Y-81016015D01*
X125184424Y-81075957D01*
X125139262Y-81117237D01*
X125098319Y-81126100D01*
X123537382Y-81126100D01*
X123479191Y-81107193D01*
X123448761Y-81071228D01*
X123433929Y-81041441D01*
X123433928Y-81041440D01*
X123433926Y-81041435D01*
X123299748Y-80863755D01*
X123135206Y-80713755D01*
X122945903Y-80596543D01*
X122738286Y-80516112D01*
X122738285Y-80516111D01*
X122738283Y-80516111D01*
X122519425Y-80475200D01*
X122296773Y-80475200D01*
X122077914Y-80516111D01*
X121870294Y-80596543D01*
X121870289Y-80596546D01*
X121680996Y-80713752D01*
X121680994Y-80713753D01*
X121680992Y-80713755D01*
X121627641Y-80762391D01*
X121516451Y-80863754D01*
X121382273Y-81041433D01*
X121382268Y-81041441D01*
X121367437Y-81071228D01*
X121324575Y-81114890D01*
X121278816Y-81126100D01*
X120997382Y-81126100D01*
X120939191Y-81107193D01*
X120908761Y-81071228D01*
X120893929Y-81041441D01*
X120893928Y-81041440D01*
X120893926Y-81041435D01*
X120759748Y-80863755D01*
X120595206Y-80713755D01*
X120405903Y-80596543D01*
X120198286Y-80516112D01*
X120198285Y-80516111D01*
X120198283Y-80516111D01*
X119979425Y-80475200D01*
X119756773Y-80475200D01*
X119537914Y-80516111D01*
X119330294Y-80596543D01*
X119330289Y-80596546D01*
X119140996Y-80713752D01*
X119140994Y-80713753D01*
X119140992Y-80713755D01*
X119087641Y-80762391D01*
X118976451Y-80863754D01*
X118842273Y-81041433D01*
X118842268Y-81041442D01*
X118743027Y-81240744D01*
X118682096Y-81454896D01*
X118661552Y-81676600D01*
X118682096Y-81898303D01*
X118743027Y-82112455D01*
X118842268Y-82311758D01*
X118842271Y-82311763D01*
X118842272Y-82311765D01*
X118927003Y-82423966D01*
X118946983Y-82481797D01*
X118947000Y-82483627D01*
X118947000Y-84077456D01*
X118928093Y-84135647D01*
X118885894Y-84168917D01*
X118882156Y-84170465D01*
X118756723Y-84266713D01*
X118756713Y-84266723D01*
X118660462Y-84392160D01*
X118660462Y-84392161D01*
X118599957Y-84538233D01*
X118599955Y-84538241D01*
X118584500Y-84655637D01*
X115620500Y-84655637D01*
X115620500Y-51610691D01*
X116519500Y-51610691D01*
X116519500Y-58517810D01*
X116532982Y-58568125D01*
X116540156Y-58594898D01*
X116540155Y-58594898D01*
X116550201Y-58632389D01*
X116550202Y-58632391D01*
X116609507Y-58735110D01*
X116609508Y-58735111D01*
X116609509Y-58735112D01*
X116609511Y-58735115D01*
X117665616Y-59791220D01*
X118713432Y-60839036D01*
X118741209Y-60893553D01*
X118738649Y-60936132D01*
X118682096Y-61134896D01*
X118661552Y-61356600D01*
X118682096Y-61578303D01*
X118743027Y-61792455D01*
X118835491Y-61978148D01*
X118842272Y-61991765D01*
X118976450Y-62169445D01*
X119140992Y-62319445D01*
X119330295Y-62436657D01*
X119537912Y-62517088D01*
X119583327Y-62525577D01*
X119603165Y-62529286D01*
X119656891Y-62558564D01*
X119683147Y-62613829D01*
X119671904Y-62673973D01*
X119627457Y-62716022D01*
X119603165Y-62723914D01*
X119537914Y-62736111D01*
X119330294Y-62816543D01*
X119330289Y-62816546D01*
X119140996Y-62933752D01*
X119140994Y-62933753D01*
X119140992Y-62933755D01*
X119037949Y-63027691D01*
X118976451Y-63083754D01*
X118842273Y-63261433D01*
X118842268Y-63261442D01*
X118743027Y-63460744D01*
X118682096Y-63674896D01*
X118661552Y-63896600D01*
X118682096Y-64118303D01*
X118693319Y-64157749D01*
X118743027Y-64332455D01*
X118842272Y-64531765D01*
X118976450Y-64709445D01*
X119140992Y-64859445D01*
X119330295Y-64976657D01*
X119537912Y-65057088D01*
X119583327Y-65065577D01*
X119603165Y-65069286D01*
X119656891Y-65098564D01*
X119683147Y-65153829D01*
X119671904Y-65213973D01*
X119627457Y-65256022D01*
X119603165Y-65263914D01*
X119537914Y-65276111D01*
X119330294Y-65356543D01*
X119330289Y-65356546D01*
X119140996Y-65473752D01*
X119140994Y-65473753D01*
X119140992Y-65473755D01*
X119050287Y-65556444D01*
X118976451Y-65623754D01*
X118842273Y-65801433D01*
X118842268Y-65801442D01*
X118743027Y-66000744D01*
X118682096Y-66214896D01*
X118661552Y-66436600D01*
X118682096Y-66658303D01*
X118707096Y-66746168D01*
X118743027Y-66872455D01*
X118842272Y-67071765D01*
X118976450Y-67249445D01*
X119140992Y-67399445D01*
X119330295Y-67516657D01*
X119537912Y-67597088D01*
X119583327Y-67605577D01*
X119603165Y-67609286D01*
X119656891Y-67638564D01*
X119683147Y-67693829D01*
X119671904Y-67753973D01*
X119627457Y-67796022D01*
X119603165Y-67803914D01*
X119537914Y-67816111D01*
X119330294Y-67896543D01*
X119330289Y-67896546D01*
X119140996Y-68013752D01*
X119140994Y-68013753D01*
X119140992Y-68013755D01*
X119068023Y-68080275D01*
X118976451Y-68163754D01*
X118842273Y-68341433D01*
X118842268Y-68341442D01*
X118743027Y-68540744D01*
X118682096Y-68754896D01*
X118661552Y-68976600D01*
X118682096Y-69198303D01*
X118693319Y-69237749D01*
X118743027Y-69412455D01*
X118842272Y-69611765D01*
X118976450Y-69789445D01*
X119140992Y-69939445D01*
X119330295Y-70056657D01*
X119537912Y-70137088D01*
X119583327Y-70145577D01*
X119603165Y-70149286D01*
X119656891Y-70178564D01*
X119683147Y-70233829D01*
X119671904Y-70293973D01*
X119627457Y-70336022D01*
X119603165Y-70343914D01*
X119537914Y-70356111D01*
X119330294Y-70436543D01*
X119330289Y-70436546D01*
X119140996Y-70553752D01*
X119140994Y-70553753D01*
X119140992Y-70553755D01*
X119068023Y-70620275D01*
X118976451Y-70703754D01*
X118842273Y-70881433D01*
X118842268Y-70881442D01*
X118743027Y-71080744D01*
X118682096Y-71294896D01*
X118661552Y-71516600D01*
X118682096Y-71738303D01*
X118743027Y-71952455D01*
X118819880Y-72106797D01*
X118842272Y-72151765D01*
X118976450Y-72329445D01*
X119140992Y-72479445D01*
X119330295Y-72596657D01*
X119537912Y-72677088D01*
X119583327Y-72685577D01*
X119603165Y-72689286D01*
X119656891Y-72718564D01*
X119683147Y-72773829D01*
X119671904Y-72833973D01*
X119627457Y-72876022D01*
X119603165Y-72883914D01*
X119537914Y-72896111D01*
X119330294Y-72976543D01*
X119330289Y-72976546D01*
X119140996Y-73093752D01*
X119140994Y-73093753D01*
X119140992Y-73093755D01*
X118976450Y-73243755D01*
X118971734Y-73250000D01*
X118842273Y-73421433D01*
X118842268Y-73421442D01*
X118743027Y-73620744D01*
X118682096Y-73834896D01*
X118661552Y-74056600D01*
X118682096Y-74278303D01*
X118739341Y-74479499D01*
X118743027Y-74492455D01*
X118842272Y-74691765D01*
X118976450Y-74869445D01*
X119140992Y-75019445D01*
X119330295Y-75136657D01*
X119537912Y-75217088D01*
X119583327Y-75225577D01*
X119603165Y-75229286D01*
X119656891Y-75258564D01*
X119683147Y-75313829D01*
X119671904Y-75373973D01*
X119627457Y-75416022D01*
X119603165Y-75423914D01*
X119537914Y-75436111D01*
X119330294Y-75516543D01*
X119330289Y-75516546D01*
X119140996Y-75633752D01*
X119140994Y-75633753D01*
X119140992Y-75633755D01*
X119014469Y-75749096D01*
X118979919Y-75780593D01*
X118976450Y-75783755D01*
X118964560Y-75799500D01*
X118842273Y-75961433D01*
X118842268Y-75961442D01*
X118743027Y-76160744D01*
X118682096Y-76374896D01*
X118661552Y-76596600D01*
X118682096Y-76818303D01*
X118707295Y-76906870D01*
X118743027Y-77032455D01*
X118842272Y-77231765D01*
X118976450Y-77409445D01*
X119140992Y-77559445D01*
X119330295Y-77676657D01*
X119537912Y-77757088D01*
X119756773Y-77798000D01*
X119979425Y-77798000D01*
X120198286Y-77757088D01*
X120277383Y-77726444D01*
X120338475Y-77723054D01*
X120383150Y-77748754D01*
X120842385Y-78207990D01*
X120945112Y-78267299D01*
X120969319Y-78273784D01*
X120969324Y-78273787D01*
X120969325Y-78273786D01*
X121059687Y-78297999D01*
X121059689Y-78298000D01*
X121059690Y-78298000D01*
X127969889Y-78298000D01*
X128028080Y-78316907D01*
X128039893Y-78326996D01*
X129693387Y-79980490D01*
X129707775Y-79988797D01*
X129761472Y-80019799D01*
X129761473Y-80019799D01*
X129770512Y-80025018D01*
X129796114Y-80039799D01*
X129910691Y-80070500D01*
X129910693Y-80070500D01*
X138869309Y-80070500D01*
X138959669Y-80046287D01*
X138959672Y-80046287D01*
X138972903Y-80042741D01*
X138983887Y-80039799D01*
X139086614Y-79980489D01*
X140930489Y-78136614D01*
X140989799Y-78033887D01*
X141007886Y-77966383D01*
X141020500Y-77919309D01*
X141020500Y-76610691D01*
X140989799Y-76496114D01*
X140970383Y-76462485D01*
X140930490Y-76393387D01*
X140830321Y-76293218D01*
X140802546Y-76238704D01*
X140812117Y-76178272D01*
X140855382Y-76135007D01*
X140915814Y-76125436D01*
X140938210Y-76131752D01*
X140959001Y-76140364D01*
X140959000Y-76140364D01*
X140974135Y-76142356D01*
X141073960Y-76155499D01*
X141073961Y-76155499D01*
X141626039Y-76155499D01*
X141626040Y-76155499D01*
X141740999Y-76140364D01*
X141884037Y-76081116D01*
X142006867Y-75986866D01*
X142101117Y-75864036D01*
X142160365Y-75720998D01*
X142160366Y-75720983D01*
X142160734Y-75719617D01*
X142161294Y-75718754D01*
X142162848Y-75715003D01*
X142163542Y-75715290D01*
X142194054Y-75668300D01*
X142251173Y-75646368D01*
X142310275Y-75662199D01*
X142347827Y-75707345D01*
X142358883Y-75734038D01*
X142439352Y-75838907D01*
X142453133Y-75856867D01*
X142575963Y-75951117D01*
X142719001Y-76010365D01*
X142719000Y-76010365D01*
X142734135Y-76012357D01*
X142833960Y-76025500D01*
X142833961Y-76025500D01*
X143386039Y-76025500D01*
X143386040Y-76025500D01*
X143500999Y-76010365D01*
X143644037Y-75951117D01*
X143766867Y-75856867D01*
X143861117Y-75734037D01*
X143861117Y-75734036D01*
X143865067Y-75728889D01*
X143867016Y-75730384D01*
X143904594Y-75696556D01*
X143944854Y-75688000D01*
X144240776Y-75688000D01*
X144298967Y-75706907D01*
X144319316Y-75726731D01*
X144373133Y-75796867D01*
X144495963Y-75891117D01*
X144583213Y-75927257D01*
X144634585Y-75948536D01*
X144681110Y-75988273D01*
X144695394Y-76047768D01*
X144671979Y-76104295D01*
X144634585Y-76131464D01*
X144495964Y-76188882D01*
X144495961Y-76188884D01*
X144373137Y-76283129D01*
X144373129Y-76283137D01*
X144278884Y-76405961D01*
X144278882Y-76405963D01*
X144219634Y-76549001D01*
X144204500Y-76663959D01*
X144204500Y-77241040D01*
X144219634Y-77355998D01*
X144261529Y-77457140D01*
X144278883Y-77499037D01*
X144331540Y-77567661D01*
X144377084Y-77627016D01*
X144375198Y-77628462D01*
X144398277Y-77673729D01*
X144399500Y-77689241D01*
X144399500Y-81557693D01*
X144380593Y-81615884D01*
X144359831Y-81636945D01*
X144342457Y-81649951D01*
X144342450Y-81649958D01*
X144256202Y-81765170D01*
X144205910Y-81900011D01*
X144205908Y-81900022D01*
X144199500Y-81959629D01*
X144199500Y-83230366D01*
X144199501Y-83230370D01*
X144205908Y-83289980D01*
X144205909Y-83289985D01*
X144256202Y-83424829D01*
X144342450Y-83540041D01*
X144342454Y-83540046D01*
X144342457Y-83540048D01*
X144342458Y-83540049D01*
X144457670Y-83626297D01*
X144592511Y-83676589D01*
X144592512Y-83676589D01*
X144592517Y-83676591D01*
X144652127Y-83683000D01*
X145047872Y-83682999D01*
X145107483Y-83676591D01*
X145174907Y-83651443D01*
X145242329Y-83626297D01*
X145242329Y-83626296D01*
X145242331Y-83626296D01*
X145357546Y-83540046D01*
X145443796Y-83424831D01*
X145456082Y-83391892D01*
X145494089Y-83289988D01*
X145494090Y-83289985D01*
X145494091Y-83289983D01*
X145500500Y-83230373D01*
X145500499Y-81959628D01*
X145495949Y-81917305D01*
X145508528Y-81857429D01*
X145553901Y-81816381D01*
X145599699Y-81807869D01*
X145602101Y-81807997D01*
X145602127Y-81808000D01*
X145997872Y-81807999D01*
X146057483Y-81801591D01*
X146134075Y-81773023D01*
X146195204Y-81770404D01*
X146238674Y-81795777D01*
X149483386Y-85040490D01*
X149586113Y-85099799D01*
X149610320Y-85106284D01*
X149610325Y-85106287D01*
X149610326Y-85106286D01*
X149700688Y-85130499D01*
X149700690Y-85130500D01*
X149700691Y-85130500D01*
X152709300Y-85130500D01*
X152767491Y-85149407D01*
X152799024Y-85187661D01*
X152867253Y-85333978D01*
X152867257Y-85333986D01*
X152984281Y-85501115D01*
X152998031Y-85520751D01*
X153159249Y-85681969D01*
X153346011Y-85812741D01*
X153552646Y-85909096D01*
X153772872Y-85968106D01*
X153772876Y-85968106D01*
X153772879Y-85968107D01*
X153999997Y-85987977D01*
X154000000Y-85987977D01*
X154000003Y-85987977D01*
X154227120Y-85968107D01*
X154227121Y-85968106D01*
X154227128Y-85968106D01*
X154447354Y-85909096D01*
X154653989Y-85812741D01*
X154840751Y-85681969D01*
X155001969Y-85520751D01*
X155132741Y-85333989D01*
X155229096Y-85127354D01*
X155288106Y-84907128D01*
X155307977Y-84680000D01*
X155300597Y-84595640D01*
X155288107Y-84452879D01*
X155288106Y-84452876D01*
X155288106Y-84452872D01*
X155229096Y-84232646D01*
X155132741Y-84026012D01*
X155012649Y-83854502D01*
X155001972Y-83839253D01*
X155001971Y-83839252D01*
X155001969Y-83839249D01*
X154840751Y-83678031D01*
X154840747Y-83678028D01*
X154840746Y-83678027D01*
X154737134Y-83605477D01*
X154653989Y-83547259D01*
X154552048Y-83499723D01*
X154507302Y-83457997D01*
X154495627Y-83397936D01*
X154521484Y-83342483D01*
X154552047Y-83320276D01*
X154653989Y-83272741D01*
X154840751Y-83141969D01*
X155001969Y-82980751D01*
X155132741Y-82793989D01*
X155229096Y-82587354D01*
X155288106Y-82367128D01*
X155291002Y-82334035D01*
X155307977Y-82140003D01*
X155307977Y-82139996D01*
X155288107Y-81912879D01*
X155288106Y-81912876D01*
X155288106Y-81912872D01*
X155229096Y-81692646D01*
X155132741Y-81486012D01*
X155001969Y-81299249D01*
X154840751Y-81138031D01*
X154840747Y-81138028D01*
X154840746Y-81138027D01*
X154702797Y-81041435D01*
X154653989Y-81007259D01*
X154552048Y-80959723D01*
X154507302Y-80917997D01*
X154495627Y-80857936D01*
X154521484Y-80802483D01*
X154552047Y-80780276D01*
X154653989Y-80732741D01*
X154840751Y-80601969D01*
X155001969Y-80440751D01*
X155132741Y-80253989D01*
X155229096Y-80047354D01*
X155288106Y-79827128D01*
X155292671Y-79774958D01*
X155307977Y-79600003D01*
X155307977Y-79599996D01*
X155288107Y-79372879D01*
X155288106Y-79372876D01*
X155288106Y-79372872D01*
X155229096Y-79152646D01*
X155132741Y-78946012D01*
X155001969Y-78759249D01*
X154840751Y-78598031D01*
X154840747Y-78598028D01*
X154840746Y-78598027D01*
X154737134Y-78525477D01*
X154653989Y-78467259D01*
X154552048Y-78419723D01*
X154507302Y-78377997D01*
X154495627Y-78317936D01*
X154521484Y-78262483D01*
X154552047Y-78240276D01*
X154653989Y-78192741D01*
X154840751Y-78061969D01*
X155001969Y-77900751D01*
X155132741Y-77713989D01*
X155229096Y-77507354D01*
X155288106Y-77287128D01*
X155288521Y-77282392D01*
X155307977Y-77060003D01*
X155307977Y-77059996D01*
X155288107Y-76832879D01*
X155288106Y-76832876D01*
X155288106Y-76832872D01*
X155229096Y-76612646D01*
X155132741Y-76406012D01*
X155028736Y-76257476D01*
X155001972Y-76219253D01*
X155001971Y-76219252D01*
X155001969Y-76219249D01*
X154840751Y-76058031D01*
X154840747Y-76058028D01*
X154840746Y-76058027D01*
X154702797Y-75961435D01*
X154653989Y-75927259D01*
X154552048Y-75879723D01*
X154507302Y-75837997D01*
X154495627Y-75777936D01*
X154521484Y-75722483D01*
X154552047Y-75700276D01*
X154653989Y-75652741D01*
X154840751Y-75521969D01*
X155001969Y-75360751D01*
X155132741Y-75173989D01*
X155150151Y-75136653D01*
X155200976Y-75027661D01*
X155242704Y-74982913D01*
X155290700Y-74970500D01*
X155339309Y-74970500D01*
X155429669Y-74946287D01*
X155429672Y-74946287D01*
X155442903Y-74942741D01*
X155453887Y-74939799D01*
X155543492Y-74888065D01*
X155556609Y-74880492D01*
X155556609Y-74880491D01*
X155556614Y-74880489D01*
X163395489Y-67041614D01*
X163401117Y-67031867D01*
X163454797Y-66938890D01*
X163454798Y-66938888D01*
X163454799Y-66938887D01*
X163462797Y-66909037D01*
X163465220Y-66899996D01*
X167932023Y-66899996D01*
X167932023Y-66900003D01*
X167951892Y-67127120D01*
X167951893Y-67127127D01*
X167951894Y-67127128D01*
X168010904Y-67347354D01*
X168107259Y-67553989D01*
X168162853Y-67633386D01*
X168223060Y-67719371D01*
X168238031Y-67740751D01*
X168399249Y-67901969D01*
X168586011Y-68032741D01*
X168660782Y-68067607D01*
X168687949Y-68080275D01*
X168732697Y-68122004D01*
X168744372Y-68182065D01*
X168718514Y-68237518D01*
X168687949Y-68259724D01*
X168586022Y-68307253D01*
X168586014Y-68307257D01*
X168399253Y-68438027D01*
X168238027Y-68599253D01*
X168107258Y-68786013D01*
X168065148Y-68876320D01*
X168010904Y-68992646D01*
X167993472Y-69057702D01*
X167951892Y-69212879D01*
X167932023Y-69439996D01*
X167932023Y-69440003D01*
X167951892Y-69667120D01*
X167951893Y-69667127D01*
X167951894Y-69667128D01*
X168010904Y-69887354D01*
X168107259Y-70093989D01*
X168137437Y-70137088D01*
X168235656Y-70277360D01*
X168238031Y-70280751D01*
X168399249Y-70441969D01*
X168399252Y-70441971D01*
X168399253Y-70441972D01*
X168406631Y-70447138D01*
X168586011Y-70572741D01*
X168687949Y-70620275D01*
X168732697Y-70662004D01*
X168744372Y-70722065D01*
X168718514Y-70777518D01*
X168687949Y-70799724D01*
X168586022Y-70847253D01*
X168586014Y-70847257D01*
X168399253Y-70978027D01*
X168238027Y-71139253D01*
X168107258Y-71326013D01*
X168086631Y-71370248D01*
X168010904Y-71532646D01*
X167990844Y-71607511D01*
X167951892Y-71752879D01*
X167932023Y-71979996D01*
X167932023Y-71980003D01*
X167951892Y-72207120D01*
X167951893Y-72207127D01*
X167951894Y-72207128D01*
X168010904Y-72427354D01*
X168107259Y-72633989D01*
X168149629Y-72694500D01*
X168234640Y-72815909D01*
X168238031Y-72820751D01*
X168399249Y-72981969D01*
X168399252Y-72981971D01*
X168399253Y-72981972D01*
X168440611Y-73010931D01*
X168586011Y-73112741D01*
X168644132Y-73139843D01*
X168687949Y-73160275D01*
X168732697Y-73202004D01*
X168744372Y-73262065D01*
X168718514Y-73317518D01*
X168687949Y-73339724D01*
X168586022Y-73387253D01*
X168586014Y-73387257D01*
X168399253Y-73518027D01*
X168238027Y-73679253D01*
X168107258Y-73866013D01*
X168073035Y-73939406D01*
X168010904Y-74072646D01*
X167982699Y-74177909D01*
X167951892Y-74292879D01*
X167932023Y-74519996D01*
X167932023Y-74520003D01*
X167951892Y-74747120D01*
X167951893Y-74747127D01*
X167951894Y-74747128D01*
X168010904Y-74967354D01*
X168107259Y-75173989D01*
X168159716Y-75248906D01*
X168223060Y-75339371D01*
X168238031Y-75360751D01*
X168399249Y-75521969D01*
X168399252Y-75521971D01*
X168399253Y-75521972D01*
X168430927Y-75544150D01*
X168586011Y-75652741D01*
X168686287Y-75699500D01*
X168687949Y-75700275D01*
X168732697Y-75742004D01*
X168744372Y-75802065D01*
X168718514Y-75857518D01*
X168687949Y-75879724D01*
X168586022Y-75927253D01*
X168586014Y-75927257D01*
X168399253Y-76058027D01*
X168238027Y-76219253D01*
X168107258Y-76406013D01*
X168080925Y-76462485D01*
X168010904Y-76612646D01*
X167981115Y-76723820D01*
X167951892Y-76832879D01*
X167932023Y-77059996D01*
X167932023Y-77060003D01*
X167951892Y-77287120D01*
X167951893Y-77287127D01*
X167951894Y-77287128D01*
X168010904Y-77507354D01*
X168089851Y-77676657D01*
X168105736Y-77710724D01*
X168107259Y-77713989D01*
X168135411Y-77754194D01*
X168218664Y-77873093D01*
X168238031Y-77900751D01*
X168399249Y-78061969D01*
X168586011Y-78192741D01*
X168687949Y-78240275D01*
X168732697Y-78282004D01*
X168744372Y-78342065D01*
X168718514Y-78397518D01*
X168687949Y-78419724D01*
X168586022Y-78467253D01*
X168586014Y-78467257D01*
X168399253Y-78598027D01*
X168238027Y-78759253D01*
X168107258Y-78946013D01*
X168063475Y-79039907D01*
X168011862Y-79150593D01*
X168010904Y-79152647D01*
X167951892Y-79372879D01*
X167932023Y-79599996D01*
X167932023Y-79600003D01*
X167951892Y-79827120D01*
X167951893Y-79827127D01*
X167951894Y-79827128D01*
X168010904Y-80047354D01*
X168095860Y-80229544D01*
X168107258Y-80253987D01*
X168236881Y-80439110D01*
X168238031Y-80440751D01*
X168399249Y-80601969D01*
X168586011Y-80732741D01*
X168792646Y-80829096D01*
X169012872Y-80888106D01*
X169012876Y-80888106D01*
X169012879Y-80888107D01*
X169239997Y-80907977D01*
X169240000Y-80907977D01*
X169240003Y-80907977D01*
X169467120Y-80888107D01*
X169467121Y-80888106D01*
X169467128Y-80888106D01*
X169687354Y-80829096D01*
X169893989Y-80732741D01*
X170080751Y-80601969D01*
X170241969Y-80440751D01*
X170372741Y-80253989D01*
X170469096Y-80047354D01*
X170528106Y-79827128D01*
X170532671Y-79774958D01*
X170547977Y-79600003D01*
X170547977Y-79599996D01*
X170528107Y-79372879D01*
X170528106Y-79372876D01*
X170528106Y-79372872D01*
X170469096Y-79152646D01*
X170372741Y-78946012D01*
X170241969Y-78759249D01*
X170080751Y-78598031D01*
X170080747Y-78598028D01*
X170080746Y-78598027D01*
X169977134Y-78525477D01*
X169893989Y-78467259D01*
X169792048Y-78419723D01*
X169747302Y-78377997D01*
X169735627Y-78317936D01*
X169761484Y-78262483D01*
X169792047Y-78240276D01*
X169893989Y-78192741D01*
X170080751Y-78061969D01*
X170241969Y-77900751D01*
X170372741Y-77713989D01*
X170469096Y-77507354D01*
X170528106Y-77287128D01*
X170528521Y-77282392D01*
X170547977Y-77060003D01*
X170547977Y-77059996D01*
X170528107Y-76832879D01*
X170528106Y-76832876D01*
X170528106Y-76832872D01*
X170469096Y-76612646D01*
X170372741Y-76406012D01*
X170268736Y-76257476D01*
X170241972Y-76219253D01*
X170241971Y-76219252D01*
X170241969Y-76219249D01*
X170080751Y-76058031D01*
X170080747Y-76058028D01*
X170080746Y-76058027D01*
X169942797Y-75961435D01*
X169893989Y-75927259D01*
X169792048Y-75879723D01*
X169747302Y-75837997D01*
X169735627Y-75777936D01*
X169761484Y-75722483D01*
X169792047Y-75700276D01*
X169893989Y-75652741D01*
X170080751Y-75521969D01*
X170241969Y-75360751D01*
X170372741Y-75173989D01*
X170469096Y-74967354D01*
X170528106Y-74747128D01*
X170528285Y-74745088D01*
X170547977Y-74520003D01*
X170547977Y-74519996D01*
X170528107Y-74292879D01*
X170528106Y-74292876D01*
X170528106Y-74292872D01*
X170469096Y-74072646D01*
X170372741Y-73866012D01*
X170241969Y-73679249D01*
X170080751Y-73518031D01*
X170080747Y-73518028D01*
X170080746Y-73518027D01*
X169942797Y-73421435D01*
X169893989Y-73387259D01*
X169792048Y-73339723D01*
X169747302Y-73297997D01*
X169735627Y-73237936D01*
X169761484Y-73182483D01*
X169792047Y-73160276D01*
X169893989Y-73112741D01*
X170080751Y-72981969D01*
X170241969Y-72820751D01*
X170372741Y-72633989D01*
X170469096Y-72427354D01*
X170528106Y-72207128D01*
X170528125Y-72206918D01*
X170547977Y-71980003D01*
X170547977Y-71979996D01*
X170528107Y-71752879D01*
X170528106Y-71752876D01*
X170528106Y-71752872D01*
X170469096Y-71532646D01*
X170372741Y-71326012D01*
X170241969Y-71139249D01*
X170080751Y-70978031D01*
X170080747Y-70978028D01*
X170080746Y-70978027D01*
X169957870Y-70891989D01*
X169893989Y-70847259D01*
X169792048Y-70799723D01*
X169747302Y-70757997D01*
X169735627Y-70697936D01*
X169761484Y-70642483D01*
X169792047Y-70620276D01*
X169893989Y-70572741D01*
X170080751Y-70441969D01*
X170241969Y-70280751D01*
X170372741Y-70093989D01*
X170469096Y-69887354D01*
X170528106Y-69667128D01*
X170532951Y-69611757D01*
X170547977Y-69440003D01*
X170547977Y-69439996D01*
X170528107Y-69212879D01*
X170528106Y-69212876D01*
X170528106Y-69212872D01*
X170469096Y-68992646D01*
X170372741Y-68786012D01*
X170241969Y-68599249D01*
X170080751Y-68438031D01*
X170080747Y-68438028D01*
X170080746Y-68438027D01*
X169942797Y-68341435D01*
X169893989Y-68307259D01*
X169792048Y-68259723D01*
X169747302Y-68217997D01*
X169735627Y-68157936D01*
X169761484Y-68102483D01*
X169792047Y-68080276D01*
X169893989Y-68032741D01*
X170080751Y-67901969D01*
X170241969Y-67740751D01*
X170372741Y-67553989D01*
X170469096Y-67347354D01*
X170528106Y-67127128D01*
X170528195Y-67126117D01*
X170547977Y-66900003D01*
X170547977Y-66899996D01*
X170528107Y-66672879D01*
X170528106Y-66672876D01*
X170528106Y-66672872D01*
X170469096Y-66452646D01*
X170372741Y-66246012D01*
X170241969Y-66059249D01*
X170080751Y-65898031D01*
X170080747Y-65898028D01*
X170080746Y-65898027D01*
X169942797Y-65801435D01*
X169893989Y-65767259D01*
X169687354Y-65670904D01*
X169467128Y-65611894D01*
X169467127Y-65611893D01*
X169467120Y-65611892D01*
X169240003Y-65592023D01*
X169239997Y-65592023D01*
X169012879Y-65611892D01*
X168943076Y-65630595D01*
X168792646Y-65670904D01*
X168696292Y-65715834D01*
X168586013Y-65767258D01*
X168399253Y-65898027D01*
X168238027Y-66059253D01*
X168107258Y-66246013D01*
X168055834Y-66356292D01*
X168018387Y-66436600D01*
X168010904Y-66452647D01*
X167951892Y-66672879D01*
X167932023Y-66899996D01*
X163465220Y-66899996D01*
X163485500Y-66824309D01*
X163485500Y-62149805D01*
X163504407Y-62091614D01*
X163525168Y-62070554D01*
X163542546Y-62057546D01*
X163628796Y-61942331D01*
X163679091Y-61807483D01*
X163685500Y-61747873D01*
X163685499Y-60002128D01*
X163679091Y-59942517D01*
X163677970Y-59939511D01*
X163628797Y-59807670D01*
X163542549Y-59692458D01*
X163542548Y-59692457D01*
X163542546Y-59692454D01*
X163542541Y-59692450D01*
X163427329Y-59606202D01*
X163292488Y-59555910D01*
X163292483Y-59555909D01*
X163292481Y-59555908D01*
X163292477Y-59555908D01*
X163261249Y-59552550D01*
X163232873Y-59549500D01*
X163232870Y-59549500D01*
X162837133Y-59549500D01*
X162837129Y-59549500D01*
X162837128Y-59549501D01*
X162829949Y-59550272D01*
X162777519Y-59555908D01*
X162777514Y-59555909D01*
X162642670Y-59606202D01*
X162527458Y-59692450D01*
X162527453Y-59692455D01*
X162479253Y-59756842D01*
X162429244Y-59792094D01*
X162368065Y-59791220D01*
X162320747Y-59756842D01*
X162304406Y-59735013D01*
X162272546Y-59692454D01*
X162272541Y-59692450D01*
X162157329Y-59606202D01*
X162022488Y-59555910D01*
X162022483Y-59555909D01*
X162022481Y-59555908D01*
X162022477Y-59555908D01*
X161991249Y-59552550D01*
X161962873Y-59549500D01*
X161962870Y-59549500D01*
X161567133Y-59549500D01*
X161567129Y-59549500D01*
X161567128Y-59549501D01*
X161559949Y-59550272D01*
X161507519Y-59555908D01*
X161507514Y-59555909D01*
X161372670Y-59606202D01*
X161257458Y-59692450D01*
X161257453Y-59692455D01*
X161209253Y-59756842D01*
X161159244Y-59792094D01*
X161098065Y-59791220D01*
X161050747Y-59756842D01*
X161034406Y-59735013D01*
X161002546Y-59692454D01*
X161002541Y-59692450D01*
X160887329Y-59606202D01*
X160752488Y-59555910D01*
X160752483Y-59555909D01*
X160752481Y-59555908D01*
X160752477Y-59555908D01*
X160721249Y-59552550D01*
X160692873Y-59549500D01*
X160692870Y-59549500D01*
X160297133Y-59549500D01*
X160297129Y-59549500D01*
X160297128Y-59549501D01*
X160289949Y-59550272D01*
X160237519Y-59555908D01*
X160237518Y-59555908D01*
X160175378Y-59579085D01*
X160114249Y-59581704D01*
X160063255Y-59547892D01*
X160041874Y-59490564D01*
X160058273Y-59431617D01*
X160070773Y-59416328D01*
X162125490Y-57361614D01*
X162184799Y-57258887D01*
X162184801Y-57258881D01*
X162192837Y-57228889D01*
X162204639Y-57184840D01*
X162237962Y-57133525D01*
X162240921Y-57131220D01*
X162272546Y-57107546D01*
X162358796Y-56992331D01*
X162367581Y-56968779D01*
X162409089Y-56857488D01*
X162409088Y-56857488D01*
X162409091Y-56857483D01*
X162415500Y-56797873D01*
X162415499Y-55052128D01*
X162409091Y-54992517D01*
X162396015Y-54957458D01*
X162358797Y-54857670D01*
X162328091Y-54816653D01*
X162299775Y-54778828D01*
X162280039Y-54720915D01*
X162298113Y-54662460D01*
X162347094Y-54625792D01*
X162379029Y-54620500D01*
X170400967Y-54620500D01*
X170459158Y-54639407D01*
X170470971Y-54649496D01*
X171470504Y-55649029D01*
X171498281Y-55703546D01*
X171499500Y-55719033D01*
X171499500Y-82730966D01*
X171480593Y-82789157D01*
X171470504Y-82800970D01*
X170403750Y-83867723D01*
X170349233Y-83895500D01*
X170288801Y-83885929D01*
X170252649Y-83854502D01*
X170241971Y-83839252D01*
X170241969Y-83839249D01*
X170080751Y-83678031D01*
X170080747Y-83678028D01*
X170080746Y-83678027D01*
X169977134Y-83605477D01*
X169893989Y-83547259D01*
X169687354Y-83450904D01*
X169467128Y-83391894D01*
X169467127Y-83391893D01*
X169467120Y-83391892D01*
X169240003Y-83372023D01*
X169239997Y-83372023D01*
X169012879Y-83391892D01*
X169012872Y-83391894D01*
X168792646Y-83450904D01*
X168735572Y-83477518D01*
X168586013Y-83547258D01*
X168399253Y-83678027D01*
X168238027Y-83839253D01*
X168107258Y-84026013D01*
X168087131Y-84069176D01*
X168010904Y-84232646D01*
X167999421Y-84275500D01*
X167951892Y-84452879D01*
X167932023Y-84679996D01*
X167932023Y-84680003D01*
X167951892Y-84907120D01*
X167951893Y-84907127D01*
X167951894Y-84907128D01*
X168010904Y-85127354D01*
X168083966Y-85284036D01*
X168107258Y-85333987D01*
X168224281Y-85501115D01*
X168238031Y-85520751D01*
X168399249Y-85681969D01*
X168586011Y-85812741D01*
X168792646Y-85909096D01*
X169012872Y-85968106D01*
X169012876Y-85968106D01*
X169012879Y-85968107D01*
X169239997Y-85987977D01*
X169240000Y-85987977D01*
X169240003Y-85987977D01*
X169467120Y-85968107D01*
X169467121Y-85968106D01*
X169467128Y-85968106D01*
X169687354Y-85909096D01*
X169893989Y-85812741D01*
X170080751Y-85681969D01*
X170241969Y-85520751D01*
X170366630Y-85342715D01*
X170415494Y-85305894D01*
X170447726Y-85300500D01*
X170687694Y-85300500D01*
X170745885Y-85319407D01*
X170766235Y-85339232D01*
X170818133Y-85406867D01*
X170940963Y-85501117D01*
X171084001Y-85560365D01*
X171084000Y-85560365D01*
X171099135Y-85562357D01*
X171198960Y-85575500D01*
X171198961Y-85575500D01*
X171876039Y-85575500D01*
X171876040Y-85575500D01*
X171990999Y-85560365D01*
X172134037Y-85501117D01*
X172256867Y-85406867D01*
X172351117Y-85284037D01*
X172410365Y-85140999D01*
X172425500Y-85026040D01*
X172425500Y-84473960D01*
X172410365Y-84359001D01*
X172351117Y-84215963D01*
X172256867Y-84093133D01*
X172134037Y-83998883D01*
X172134035Y-83998882D01*
X172055682Y-83966427D01*
X172009156Y-83926690D01*
X171994873Y-83867195D01*
X172018288Y-83810667D01*
X172023565Y-83804959D01*
X172174998Y-83653526D01*
X172490510Y-83338015D01*
X172562984Y-83212485D01*
X172600500Y-83072474D01*
X172600500Y-82927526D01*
X172600500Y-55377525D01*
X172562984Y-55237515D01*
X172551794Y-55218133D01*
X172490510Y-55111985D01*
X171008015Y-53629490D01*
X170882485Y-53557016D01*
X170742475Y-53519500D01*
X159637525Y-53519500D01*
X159595518Y-53530756D01*
X159497510Y-53557017D01*
X159371988Y-53629488D01*
X158784490Y-54216985D01*
X158713161Y-54340532D01*
X158713157Y-54340538D01*
X158712017Y-54342511D01*
X158712016Y-54342515D01*
X158698523Y-54392873D01*
X158694906Y-54406371D01*
X158661581Y-54457685D01*
X158604460Y-54479611D01*
X158545359Y-54463775D01*
X158529280Y-54450755D01*
X158515515Y-54436990D01*
X158389985Y-54364516D01*
X158389984Y-54364515D01*
X158389981Y-54364514D01*
X158307877Y-54342514D01*
X158307877Y-54342515D01*
X158249975Y-54327000D01*
X158249974Y-54327000D01*
X158134854Y-54327000D01*
X158076663Y-54308093D01*
X158056132Y-54285293D01*
X158055067Y-54286111D01*
X157967856Y-54172455D01*
X157956867Y-54158133D01*
X157834037Y-54063883D01*
X157834036Y-54063882D01*
X157732890Y-54021987D01*
X157690999Y-54004635D01*
X157690998Y-54004634D01*
X157690999Y-54004634D01*
X157576040Y-53989500D01*
X157231533Y-53989500D01*
X157173342Y-53970593D01*
X157161529Y-53960504D01*
X155401020Y-52199995D01*
X153620515Y-50419490D01*
X153494985Y-50347016D01*
X153494984Y-50347015D01*
X153494981Y-50347014D01*
X153434060Y-50330690D01*
X153434060Y-50330691D01*
X153354975Y-50309500D01*
X153354974Y-50309500D01*
X128939500Y-50309500D01*
X128881309Y-50290593D01*
X128845345Y-50241093D01*
X128840500Y-50210500D01*
X128840500Y-50113961D01*
X128840500Y-50113960D01*
X128825365Y-49999001D01*
X128766117Y-49855963D01*
X128671867Y-49733133D01*
X128549037Y-49638883D01*
X128549036Y-49638882D01*
X128430139Y-49589634D01*
X128405999Y-49579635D01*
X128405998Y-49579634D01*
X128405999Y-49579634D01*
X128291040Y-49564500D01*
X127638960Y-49564500D01*
X127638959Y-49564500D01*
X127524001Y-49579634D01*
X127380963Y-49638882D01*
X127380961Y-49638884D01*
X127258137Y-49733129D01*
X127258128Y-49733138D01*
X127168542Y-49849891D01*
X127118118Y-49884547D01*
X127056953Y-49882946D01*
X127011458Y-49849891D01*
X126921871Y-49733138D01*
X126921870Y-49733137D01*
X126921867Y-49733133D01*
X126799037Y-49638883D01*
X126799036Y-49638882D01*
X126680139Y-49589634D01*
X126655999Y-49579635D01*
X126655998Y-49579634D01*
X126655999Y-49579634D01*
X126541040Y-49564500D01*
X125888960Y-49564500D01*
X125888959Y-49564500D01*
X125774001Y-49579634D01*
X125630963Y-49638882D01*
X125630961Y-49638884D01*
X125508137Y-49733129D01*
X125508128Y-49733138D01*
X125434705Y-49828826D01*
X125384281Y-49863482D01*
X125323116Y-49861881D01*
X125277621Y-49828826D01*
X125211870Y-49743137D01*
X125211867Y-49743133D01*
X125198829Y-49733129D01*
X125089038Y-49648884D01*
X125089036Y-49648882D01*
X124987890Y-49606987D01*
X124945999Y-49589635D01*
X124945998Y-49589634D01*
X124945999Y-49589634D01*
X124831040Y-49574500D01*
X124253960Y-49574500D01*
X124253959Y-49574500D01*
X124139001Y-49589634D01*
X123995963Y-49648882D01*
X123995961Y-49648884D01*
X123873137Y-49743129D01*
X123873129Y-49743137D01*
X123778884Y-49865961D01*
X123778882Y-49865963D01*
X123719634Y-50009001D01*
X123704500Y-50123959D01*
X123704500Y-50676040D01*
X123719634Y-50790998D01*
X123778882Y-50934036D01*
X123778883Y-50934037D01*
X123873133Y-51056867D01*
X123995963Y-51151117D01*
X124139001Y-51210365D01*
X124139000Y-51210365D01*
X124154135Y-51212357D01*
X124253960Y-51225500D01*
X124253961Y-51225500D01*
X124831039Y-51225500D01*
X124831040Y-51225500D01*
X124945999Y-51210365D01*
X125089037Y-51151117D01*
X125211867Y-51056867D01*
X125285297Y-50961170D01*
X125335717Y-50926517D01*
X125396882Y-50928118D01*
X125442378Y-50961173D01*
X125508133Y-51046867D01*
X125630963Y-51141117D01*
X125774001Y-51200365D01*
X125774000Y-51200365D01*
X125789135Y-51202357D01*
X125888960Y-51215500D01*
X125951967Y-51215500D01*
X126010158Y-51234407D01*
X126046122Y-51283907D01*
X126046122Y-51345093D01*
X126021971Y-51384504D01*
X124249371Y-53157104D01*
X124194854Y-53184881D01*
X124179367Y-53186100D01*
X123537382Y-53186100D01*
X123479191Y-53167193D01*
X123448761Y-53131228D01*
X123433929Y-53101441D01*
X123433928Y-53101440D01*
X123433926Y-53101435D01*
X123299748Y-52923755D01*
X123135206Y-52773755D01*
X122945903Y-52656543D01*
X122738286Y-52576112D01*
X122738285Y-52576111D01*
X122738283Y-52576111D01*
X122519425Y-52535200D01*
X122296773Y-52535200D01*
X122077914Y-52576111D01*
X121870294Y-52656543D01*
X121870289Y-52656546D01*
X121680996Y-52773752D01*
X121680994Y-52773753D01*
X121680992Y-52773755D01*
X121580319Y-52865531D01*
X121516451Y-52923754D01*
X121382273Y-53101433D01*
X121382268Y-53101442D01*
X121283027Y-53300744D01*
X121233320Y-53475450D01*
X121199210Y-53526246D01*
X121141758Y-53547290D01*
X121082908Y-53530546D01*
X121045139Y-53482409D01*
X121042878Y-53475450D01*
X121030671Y-53432546D01*
X120993171Y-53300745D01*
X120960879Y-53235893D01*
X120950500Y-53191765D01*
X120950500Y-52751874D01*
X120969407Y-52693683D01*
X120979490Y-52681876D01*
X120990477Y-52670890D01*
X121080456Y-52527690D01*
X121136313Y-52368059D01*
X121145091Y-52290157D01*
X121155249Y-52200004D01*
X121155249Y-52199995D01*
X121136314Y-52031946D01*
X121136311Y-52031934D01*
X121113480Y-51966690D01*
X121080456Y-51872310D01*
X120990477Y-51729110D01*
X120870890Y-51609523D01*
X120870887Y-51609521D01*
X120870886Y-51609520D01*
X120727691Y-51519544D01*
X120568065Y-51463688D01*
X120568053Y-51463685D01*
X120400004Y-51444751D01*
X120399996Y-51444751D01*
X120231946Y-51463685D01*
X120231934Y-51463688D01*
X120072309Y-51519544D01*
X120072308Y-51519544D01*
X119929113Y-51609520D01*
X119809520Y-51729113D01*
X119719544Y-51872308D01*
X119719544Y-51872309D01*
X119663688Y-52031934D01*
X119663685Y-52031946D01*
X119644751Y-52199995D01*
X119644751Y-52200004D01*
X119663685Y-52368053D01*
X119663687Y-52368061D01*
X119686216Y-52432445D01*
X119687588Y-52493615D01*
X119652744Y-52543909D01*
X119610963Y-52562456D01*
X119537913Y-52576111D01*
X119330294Y-52656543D01*
X119330289Y-52656546D01*
X119140996Y-52773752D01*
X119140994Y-52773753D01*
X119140992Y-52773755D01*
X119040319Y-52865531D01*
X118976451Y-52923754D01*
X118842273Y-53101433D01*
X118842268Y-53101442D01*
X118743027Y-53300744D01*
X118682096Y-53514896D01*
X118661552Y-53736600D01*
X118682096Y-53958303D01*
X118712136Y-54063882D01*
X118743027Y-54172455D01*
X118842272Y-54371765D01*
X118976450Y-54549445D01*
X119140992Y-54699445D01*
X119330295Y-54816657D01*
X119537912Y-54897088D01*
X119756773Y-54938000D01*
X119979425Y-54938000D01*
X120198286Y-54897088D01*
X120405903Y-54816657D01*
X120595206Y-54699445D01*
X120759748Y-54549445D01*
X120893926Y-54371765D01*
X120993171Y-54172455D01*
X121042878Y-53997747D01*
X121076988Y-53946954D01*
X121134440Y-53925909D01*
X121193290Y-53942653D01*
X121231059Y-53990790D01*
X121233315Y-53997736D01*
X121283027Y-54172455D01*
X121382272Y-54371765D01*
X121516450Y-54549445D01*
X121680992Y-54699445D01*
X121870295Y-54816657D01*
X122077912Y-54897088D01*
X122296773Y-54938000D01*
X122519425Y-54938000D01*
X122738286Y-54897088D01*
X122945903Y-54816657D01*
X123135206Y-54699445D01*
X123299748Y-54549445D01*
X123433926Y-54371765D01*
X123448761Y-54341971D01*
X123491623Y-54298310D01*
X123537382Y-54287100D01*
X124520874Y-54287100D01*
X124520875Y-54287100D01*
X124660885Y-54249584D01*
X124679241Y-54238986D01*
X124704314Y-54224511D01*
X124740513Y-54203610D01*
X124786415Y-54177110D01*
X127719029Y-51244496D01*
X127773546Y-51216719D01*
X127789033Y-51215500D01*
X127970967Y-51215500D01*
X128029158Y-51234407D01*
X128040970Y-51244496D01*
X128080382Y-51283907D01*
X128096985Y-51300510D01*
X128222515Y-51372984D01*
X128362525Y-51410500D01*
X153013467Y-51410500D01*
X153071658Y-51429407D01*
X153083471Y-51439496D01*
X156445504Y-54801529D01*
X156473281Y-54856046D01*
X156474500Y-54871533D01*
X156474500Y-55216040D01*
X156489634Y-55330998D01*
X156548882Y-55474036D01*
X156548883Y-55474037D01*
X156604249Y-55546192D01*
X156641752Y-55595068D01*
X156643133Y-55596867D01*
X156765963Y-55691117D01*
X156909001Y-55750365D01*
X156909000Y-55750365D01*
X156924135Y-55752357D01*
X157023960Y-55765500D01*
X157023961Y-55765500D01*
X157576039Y-55765500D01*
X157576040Y-55765500D01*
X157690999Y-55750365D01*
X157834037Y-55691117D01*
X157956867Y-55596867D01*
X157957506Y-55596033D01*
X157958248Y-55595068D01*
X157959587Y-55594146D01*
X157961460Y-55592275D01*
X157961806Y-55592621D01*
X158008669Y-55560407D01*
X158069834Y-55562004D01*
X158106799Y-55585324D01*
X158545504Y-56024029D01*
X158573281Y-56078546D01*
X158574500Y-56094033D01*
X158574500Y-56765965D01*
X158555593Y-56824156D01*
X158545504Y-56835969D01*
X157946661Y-57434812D01*
X157892144Y-57462589D01*
X157831712Y-57453018D01*
X157823993Y-57448638D01*
X157784718Y-57423960D01*
X157777689Y-57419543D01*
X157618065Y-57363688D01*
X157618053Y-57363685D01*
X157450004Y-57344751D01*
X157449996Y-57344751D01*
X157281946Y-57363685D01*
X157281934Y-57363688D01*
X157122309Y-57419544D01*
X157122308Y-57419544D01*
X156979113Y-57509520D01*
X156979110Y-57509522D01*
X156979110Y-57509523D01*
X156968127Y-57520505D01*
X156913613Y-57548281D01*
X156898126Y-57549500D01*
X153279033Y-57549500D01*
X153220842Y-57530593D01*
X153209029Y-57520504D01*
X153068028Y-57379503D01*
X153040251Y-57324986D01*
X153049822Y-57264554D01*
X153093087Y-57221289D01*
X153138032Y-57210499D01*
X153242867Y-57210499D01*
X153242872Y-57210499D01*
X153302483Y-57204091D01*
X153404715Y-57165961D01*
X153437329Y-57153797D01*
X153437329Y-57153796D01*
X153437331Y-57153796D01*
X153552546Y-57067546D01*
X153594301Y-57011767D01*
X153600747Y-57003158D01*
X153650756Y-56967905D01*
X153711935Y-56968779D01*
X153759253Y-57003158D01*
X153772279Y-57020559D01*
X153807454Y-57067546D01*
X153807457Y-57067548D01*
X153807458Y-57067549D01*
X153922670Y-57153797D01*
X154057511Y-57204089D01*
X154057512Y-57204089D01*
X154057517Y-57204091D01*
X154117127Y-57210500D01*
X154512872Y-57210499D01*
X154572483Y-57204091D01*
X154674715Y-57165961D01*
X154707329Y-57153797D01*
X154707329Y-57153796D01*
X154707331Y-57153796D01*
X154822546Y-57067546D01*
X154908796Y-56952331D01*
X154910083Y-56948882D01*
X154959089Y-56817488D01*
X154959090Y-56817485D01*
X154959091Y-56817483D01*
X154965500Y-56757873D01*
X154965499Y-55012128D01*
X154959091Y-54952517D01*
X154947604Y-54921719D01*
X154908797Y-54817670D01*
X154822549Y-54702458D01*
X154822548Y-54702457D01*
X154822546Y-54702454D01*
X154818527Y-54699445D01*
X154805169Y-54689445D01*
X154769917Y-54639435D01*
X154765500Y-54610193D01*
X154765500Y-54525692D01*
X154753933Y-54482525D01*
X154734799Y-54411114D01*
X154734799Y-54411113D01*
X154734799Y-54411112D01*
X154675492Y-54308390D01*
X154675490Y-54308388D01*
X154675489Y-54308386D01*
X153846614Y-53479511D01*
X153846611Y-53479509D01*
X153846609Y-53479507D01*
X153743890Y-53420202D01*
X153743886Y-53420200D01*
X153719673Y-53413712D01*
X153719673Y-53413713D01*
X153629309Y-53389500D01*
X145570691Y-53389500D01*
X145467374Y-53417184D01*
X145467372Y-53417184D01*
X145456119Y-53420198D01*
X145456117Y-53420199D01*
X145456114Y-53420201D01*
X145353386Y-53479510D01*
X142181780Y-56651117D01*
X139012393Y-59820504D01*
X138957876Y-59848281D01*
X138942389Y-59849500D01*
X133575874Y-59849500D01*
X133517683Y-59830593D01*
X133481719Y-59781093D01*
X133481719Y-59719907D01*
X133505868Y-59680498D01*
X133595477Y-59590890D01*
X133685456Y-59447690D01*
X133741313Y-59288059D01*
X133754568Y-59170418D01*
X133779871Y-59114713D01*
X133833087Y-59084517D01*
X133893887Y-59091368D01*
X133922065Y-59113757D01*
X133923545Y-59112278D01*
X133928129Y-59116862D01*
X133928133Y-59116867D01*
X134050963Y-59211117D01*
X134194001Y-59270365D01*
X134194000Y-59270365D01*
X134209135Y-59272357D01*
X134308960Y-59285500D01*
X134308961Y-59285500D01*
X134986039Y-59285500D01*
X134986040Y-59285500D01*
X135100999Y-59270365D01*
X135244037Y-59211117D01*
X135366867Y-59116867D01*
X135461117Y-58994037D01*
X135520365Y-58850999D01*
X135535500Y-58736040D01*
X135535500Y-58183960D01*
X135520365Y-58069001D01*
X135461117Y-57925963D01*
X135366867Y-57803133D01*
X135244037Y-57708883D01*
X135244036Y-57708882D01*
X135116636Y-57656112D01*
X135100999Y-57649635D01*
X135100998Y-57649634D01*
X135100999Y-57649634D01*
X134986040Y-57634500D01*
X134641533Y-57634500D01*
X134583342Y-57615593D01*
X134571529Y-57605504D01*
X134257206Y-57291181D01*
X134229429Y-57236664D01*
X134239000Y-57176232D01*
X134247957Y-57161847D01*
X134253984Y-57153796D01*
X134273796Y-57127331D01*
X134281176Y-57107546D01*
X134324089Y-56992488D01*
X134324088Y-56992488D01*
X134324091Y-56992483D01*
X134330500Y-56932873D01*
X134330499Y-56537128D01*
X134324091Y-56477517D01*
X134324090Y-56477514D01*
X134273797Y-56342670D01*
X134187549Y-56227458D01*
X134187548Y-56227457D01*
X134187546Y-56227454D01*
X134160085Y-56206897D01*
X134123158Y-56179253D01*
X134087905Y-56129244D01*
X134088779Y-56068065D01*
X134123158Y-56020747D01*
X134142527Y-56006247D01*
X134187546Y-55972546D01*
X134273796Y-55857331D01*
X134324091Y-55722483D01*
X134330500Y-55662873D01*
X134330499Y-55267128D01*
X134324091Y-55207517D01*
X134305657Y-55158093D01*
X134273797Y-55072670D01*
X134187549Y-54957458D01*
X134187548Y-54957457D01*
X134187546Y-54957454D01*
X134176915Y-54949496D01*
X134123158Y-54909253D01*
X134087905Y-54859244D01*
X134088779Y-54798065D01*
X134123158Y-54750747D01*
X134163008Y-54720915D01*
X134187546Y-54702546D01*
X134273796Y-54587331D01*
X134324091Y-54452483D01*
X134330500Y-54392873D01*
X134330499Y-53997128D01*
X134324091Y-53937517D01*
X134319762Y-53925909D01*
X134273797Y-53802670D01*
X134187549Y-53687458D01*
X134187548Y-53687457D01*
X134187546Y-53687454D01*
X134123158Y-53639253D01*
X134087905Y-53589244D01*
X134088779Y-53528065D01*
X134123158Y-53480747D01*
X134131767Y-53474301D01*
X134187546Y-53432546D01*
X134273796Y-53317331D01*
X134324091Y-53182483D01*
X134330500Y-53122873D01*
X134330499Y-52727128D01*
X134324091Y-52667517D01*
X134319998Y-52656543D01*
X134273797Y-52532670D01*
X134187549Y-52417458D01*
X134187548Y-52417457D01*
X134187546Y-52417454D01*
X134121555Y-52368053D01*
X134072329Y-52331202D01*
X133937488Y-52280910D01*
X133937483Y-52280909D01*
X133937481Y-52280908D01*
X133937477Y-52280908D01*
X133906249Y-52277550D01*
X133877873Y-52274500D01*
X133877870Y-52274500D01*
X132132133Y-52274500D01*
X132132129Y-52274500D01*
X132132128Y-52274501D01*
X132124949Y-52275272D01*
X132072519Y-52280908D01*
X132072514Y-52280909D01*
X131937670Y-52331202D01*
X131822458Y-52417450D01*
X131822450Y-52417458D01*
X131809447Y-52434829D01*
X131759438Y-52470082D01*
X131730194Y-52474500D01*
X128240390Y-52474500D01*
X128125813Y-52505201D01*
X128023085Y-52564510D01*
X122923151Y-57664443D01*
X122868634Y-57692220D01*
X122817385Y-57686754D01*
X122738286Y-57656112D01*
X122519425Y-57615200D01*
X122296773Y-57615200D01*
X122077914Y-57656111D01*
X121870294Y-57736543D01*
X121870289Y-57736546D01*
X121680996Y-57853752D01*
X121680994Y-57853753D01*
X121680992Y-57853755D01*
X121516450Y-58003755D01*
X121472949Y-58061359D01*
X121382273Y-58181433D01*
X121382268Y-58181442D01*
X121283027Y-58380744D01*
X121282707Y-58381870D01*
X121234729Y-58550499D01*
X121233320Y-58555450D01*
X121199210Y-58606246D01*
X121141758Y-58627290D01*
X121082908Y-58610546D01*
X121045139Y-58562409D01*
X121042878Y-58555450D01*
X121041470Y-58550500D01*
X120993171Y-58380745D01*
X120893926Y-58181435D01*
X120759748Y-58003755D01*
X120595206Y-57853755D01*
X120405903Y-57736543D01*
X120198286Y-57656112D01*
X120198285Y-57656111D01*
X120198283Y-57656111D01*
X119979425Y-57615200D01*
X119756773Y-57615200D01*
X119537914Y-57656111D01*
X119330294Y-57736543D01*
X119330289Y-57736546D01*
X119140996Y-57853752D01*
X119140994Y-57853753D01*
X119140992Y-57853755D01*
X118979428Y-58001040D01*
X118976448Y-58003757D01*
X118842272Y-58181432D01*
X118841631Y-58182469D01*
X118841240Y-58182799D01*
X118839513Y-58185087D01*
X118838997Y-58184697D01*
X118794921Y-58221989D01*
X118733903Y-58226506D01*
X118687457Y-58200354D01*
X118129496Y-57642393D01*
X118101719Y-57587876D01*
X118100500Y-57572389D01*
X118100500Y-52331165D01*
X118119407Y-52272974D01*
X118129496Y-52261161D01*
X121781161Y-48609496D01*
X121835678Y-48581719D01*
X121851165Y-48580500D01*
X149099309Y-48580500D01*
X149189669Y-48556287D01*
X149189672Y-48556287D01*
X149202903Y-48552741D01*
X149213887Y-48549799D01*
X149316614Y-48490489D01*
X152407607Y-45399496D01*
X152462124Y-45371719D01*
X152477611Y-45370500D01*
X161002389Y-45370500D01*
X161060580Y-45389407D01*
X161072393Y-45399496D01*
X161596274Y-45923378D01*
X161624051Y-45977895D01*
X161614480Y-46038327D01*
X161589076Y-46069909D01*
X161529114Y-46119118D01*
X161404093Y-46271457D01*
X161404087Y-46271467D01*
X161311188Y-46445267D01*
X161311187Y-46445269D01*
X161253975Y-46633870D01*
X161253974Y-46633873D01*
X161234659Y-46829996D01*
X161234659Y-46830003D01*
X161253974Y-47026126D01*
X161253975Y-47026129D01*
X161311187Y-47214730D01*
X161311188Y-47214732D01*
X161355241Y-47297148D01*
X161404090Y-47388538D01*
X161404092Y-47388540D01*
X161404093Y-47388542D01*
X161529112Y-47540878D01*
X161529121Y-47540887D01*
X161681457Y-47665906D01*
X161681462Y-47665910D01*
X161855273Y-47758814D01*
X162043868Y-47816024D01*
X162043870Y-47816024D01*
X162043873Y-47816025D01*
X162239997Y-47835341D01*
X162240000Y-47835341D01*
X162240003Y-47835341D01*
X162436126Y-47816025D01*
X162436127Y-47816024D01*
X162436132Y-47816024D01*
X162624727Y-47758814D01*
X162798538Y-47665910D01*
X162950883Y-47540883D01*
X163075910Y-47388538D01*
X163152690Y-47244893D01*
X163196796Y-47202486D01*
X163257404Y-47194103D01*
X163311365Y-47222945D01*
X163327310Y-47244893D01*
X163331865Y-47253414D01*
X163404090Y-47388538D01*
X163404092Y-47388540D01*
X163404093Y-47388542D01*
X163529112Y-47540878D01*
X163529121Y-47540887D01*
X163681457Y-47665906D01*
X163681462Y-47665910D01*
X163855273Y-47758814D01*
X164043868Y-47816024D01*
X164043870Y-47816024D01*
X164043873Y-47816025D01*
X164239997Y-47835341D01*
X164240000Y-47835341D01*
X164240003Y-47835341D01*
X164436126Y-47816025D01*
X164436127Y-47816024D01*
X164436132Y-47816024D01*
X164624727Y-47758814D01*
X164798538Y-47665910D01*
X164950883Y-47540883D01*
X165075910Y-47388538D01*
X165168814Y-47214727D01*
X165226024Y-47026132D01*
X165233572Y-46949500D01*
X165245341Y-46830003D01*
X165245341Y-46829996D01*
X165226025Y-46633873D01*
X165226024Y-46633870D01*
X165226024Y-46633868D01*
X165168814Y-46445273D01*
X165075910Y-46271462D01*
X165075906Y-46271457D01*
X164950887Y-46119121D01*
X164950878Y-46119112D01*
X164798542Y-45994093D01*
X164798540Y-45994092D01*
X164798538Y-45994090D01*
X164757618Y-45972218D01*
X164624732Y-45901188D01*
X164624730Y-45901187D01*
X164436129Y-45843975D01*
X164436126Y-45843974D01*
X164240003Y-45824659D01*
X164239997Y-45824659D01*
X164043878Y-45843974D01*
X164043862Y-45843977D01*
X163983422Y-45862311D01*
X163922248Y-45861109D01*
X163884681Y-45837578D01*
X162954615Y-44907512D01*
X161956604Y-43909501D01*
X161928829Y-43854987D01*
X161938400Y-43794555D01*
X161981665Y-43751290D01*
X162026610Y-43740500D01*
X164540967Y-43740500D01*
X164599158Y-43759407D01*
X164610971Y-43769496D01*
X166160504Y-45319029D01*
X166188281Y-45373546D01*
X166189500Y-45389033D01*
X166189500Y-45730500D01*
X166170593Y-45788691D01*
X166121093Y-45824655D01*
X166090500Y-45829500D01*
X166056740Y-45829500D01*
X166022673Y-45834463D01*
X165988604Y-45839427D01*
X165883518Y-45890801D01*
X165800801Y-45973518D01*
X165749427Y-46078604D01*
X165749427Y-46078607D01*
X165739500Y-46146740D01*
X165739500Y-47513260D01*
X165743524Y-47540878D01*
X165749427Y-47581395D01*
X165800801Y-47686481D01*
X165800802Y-47686483D01*
X165883517Y-47769198D01*
X165937285Y-47795483D01*
X165988604Y-47820572D01*
X165988605Y-47820572D01*
X165988607Y-47820573D01*
X166056740Y-47830500D01*
X166056743Y-47830500D01*
X167423257Y-47830500D01*
X167423260Y-47830500D01*
X167491393Y-47820573D01*
X167596483Y-47769198D01*
X167679198Y-47686483D01*
X167730573Y-47581393D01*
X167740500Y-47513260D01*
X167740500Y-46146740D01*
X167730573Y-46078607D01*
X167710881Y-46038327D01*
X167705483Y-46027285D01*
X167679198Y-45973517D01*
X167596483Y-45890802D01*
X167573438Y-45879536D01*
X167491395Y-45839427D01*
X167464139Y-45835456D01*
X167423260Y-45829500D01*
X167423257Y-45829500D01*
X167389500Y-45829500D01*
X167331309Y-45810593D01*
X167295345Y-45761093D01*
X167290500Y-45730500D01*
X167290500Y-45047525D01*
X167252984Y-44907515D01*
X167225950Y-44860691D01*
X167180510Y-44781985D01*
X165148015Y-42749490D01*
X165022485Y-42677016D01*
X164882475Y-42639500D01*
X150537525Y-42639500D01*
X150397515Y-42677016D01*
X150271985Y-42749490D01*
X147030971Y-45990504D01*
X146976454Y-46018281D01*
X146960967Y-46019500D01*
X121451874Y-46019500D01*
X121393683Y-46000593D01*
X121381876Y-45990509D01*
X121370890Y-45979523D01*
X121370887Y-45979521D01*
X121370886Y-45979520D01*
X121227691Y-45889544D01*
X121068065Y-45833688D01*
X121068053Y-45833685D01*
X120900004Y-45814751D01*
X120899996Y-45814751D01*
X120731946Y-45833685D01*
X120731934Y-45833688D01*
X120572309Y-45889544D01*
X120572308Y-45889544D01*
X120429113Y-45979520D01*
X120309520Y-46099113D01*
X120219544Y-46242308D01*
X120219544Y-46242309D01*
X120163688Y-46401934D01*
X120163685Y-46401946D01*
X120144751Y-46569995D01*
X120144751Y-46570004D01*
X120163685Y-46738053D01*
X120163688Y-46738065D01*
X120219544Y-46897690D01*
X120219544Y-46897691D01*
X120309520Y-47040886D01*
X120309523Y-47040890D01*
X120429110Y-47160477D01*
X120429112Y-47160478D01*
X120429113Y-47160479D01*
X120577017Y-47253414D01*
X120575643Y-47255599D01*
X120612411Y-47290764D01*
X120623326Y-47350968D01*
X120596769Y-47406090D01*
X120595228Y-47407667D01*
X116609508Y-51393389D01*
X116609507Y-51393390D01*
X116550200Y-51496112D01*
X116550200Y-51496113D01*
X116550201Y-51496114D01*
X116519500Y-51610691D01*
X115620500Y-51610691D01*
X115620500Y-41999500D01*
X115639407Y-41941309D01*
X115688907Y-41905345D01*
X115719500Y-41900500D01*
X174462230Y-41900500D01*
X174520421Y-41919407D01*
G37*
%TD.AperFunction*%
%TD*%
M02*
