%TF.GenerationSoftware,KiCad,Pcbnew,8.0.9-4-gd7388e2a70*%
%TF.CreationDate,2025-04-21T17:31:07-05:00*%
%TF.ProjectId,test_board,74657374-5f62-46f6-9172-642e6b696361,rev?*%
%TF.SameCoordinates,Original*%
%TF.FileFunction,Legend,Bot*%
%TF.FilePolarity,Positive*%
%FSLAX46Y46*%
G04 Gerber Fmt 4.6, Leading zero omitted, Abs format (unit mm)*
G04 Created by KiCad (PCBNEW 8.0.9-4-gd7388e2a70) date 2025-04-21 17:31:07*
%MOMM*%
%LPD*%
G01*
G04 APERTURE LIST*
%ADD10C,0.150000*%
%ADD11C,0.508000*%
%ADD12C,0.127000*%
G04 APERTURE END LIST*
D10*
X151441904Y-85474819D02*
X151441904Y-86284342D01*
X151441904Y-86284342D02*
X151394285Y-86379580D01*
X151394285Y-86379580D02*
X151346666Y-86427200D01*
X151346666Y-86427200D02*
X151251428Y-86474819D01*
X151251428Y-86474819D02*
X151060952Y-86474819D01*
X151060952Y-86474819D02*
X150965714Y-86427200D01*
X150965714Y-86427200D02*
X150918095Y-86379580D01*
X150918095Y-86379580D02*
X150870476Y-86284342D01*
X150870476Y-86284342D02*
X150870476Y-85474819D01*
X149918095Y-85474819D02*
X150394285Y-85474819D01*
X150394285Y-85474819D02*
X150441904Y-85951009D01*
X150441904Y-85951009D02*
X150394285Y-85903390D01*
X150394285Y-85903390D02*
X150299047Y-85855771D01*
X150299047Y-85855771D02*
X150060952Y-85855771D01*
X150060952Y-85855771D02*
X149965714Y-85903390D01*
X149965714Y-85903390D02*
X149918095Y-85951009D01*
X149918095Y-85951009D02*
X149870476Y-86046247D01*
X149870476Y-86046247D02*
X149870476Y-86284342D01*
X149870476Y-86284342D02*
X149918095Y-86379580D01*
X149918095Y-86379580D02*
X149965714Y-86427200D01*
X149965714Y-86427200D02*
X150060952Y-86474819D01*
X150060952Y-86474819D02*
X150299047Y-86474819D01*
X150299047Y-86474819D02*
X150394285Y-86427200D01*
X150394285Y-86427200D02*
X150441904Y-86379580D01*
D11*
%TO.C,J1*%
X120249099Y-84357900D02*
G75*
G02*
X119487099Y-84357900I-381000J0D01*
G01*
X119487099Y-84357900D02*
G75*
G02*
X120249099Y-84357900I381000J0D01*
G01*
D12*
%TO.C,U5*%
X152620000Y-63430000D02*
X170620000Y-63430000D01*
X152620000Y-86130000D02*
X152620000Y-63430000D01*
X152620000Y-86130000D02*
X157120000Y-86130000D01*
X157120000Y-86130000D02*
X157120000Y-87430000D01*
X157120000Y-87430000D02*
X166120000Y-87430000D01*
X166120000Y-86130000D02*
X166120000Y-87430000D01*
X166120000Y-86130000D02*
X170620000Y-86130000D01*
X170620000Y-86130000D02*
X170620000Y-63430000D01*
%TD*%
M02*
