%TF.GenerationSoftware,KiCad,Pcbnew,8.0.9-4-gd7388e2a70*%
%TF.CreationDate,2025-04-15T12:07:27-05:00*%
%TF.ProjectId,test_board,74657374-5f62-46f6-9172-642e6b696361,rev?*%
%TF.SameCoordinates,Original*%
%TF.FileFunction,Legend,Top*%
%TF.FilePolarity,Positive*%
%FSLAX46Y46*%
G04 Gerber Fmt 4.6, Leading zero omitted, Abs format (unit mm)*
G04 Created by KiCad (PCBNEW 8.0.9-4-gd7388e2a70) date 2025-04-15 12:07:27*
%MOMM*%
%LPD*%
G01*
G04 APERTURE LIST*
%ADD10C,0.150000*%
%ADD11C,0.254000*%
%ADD12C,0.120000*%
%ADD13C,0.200000*%
%ADD14C,0.508000*%
%ADD15C,0.152400*%
G04 APERTURE END LIST*
D10*
X128854819Y-67529166D02*
X128378628Y-67862499D01*
X128854819Y-68100594D02*
X127854819Y-68100594D01*
X127854819Y-68100594D02*
X127854819Y-67719642D01*
X127854819Y-67719642D02*
X127902438Y-67624404D01*
X127902438Y-67624404D02*
X127950057Y-67576785D01*
X127950057Y-67576785D02*
X128045295Y-67529166D01*
X128045295Y-67529166D02*
X128188152Y-67529166D01*
X128188152Y-67529166D02*
X128283390Y-67576785D01*
X128283390Y-67576785D02*
X128331009Y-67624404D01*
X128331009Y-67624404D02*
X128378628Y-67719642D01*
X128378628Y-67719642D02*
X128378628Y-68100594D01*
X127854819Y-67195832D02*
X127854819Y-66529166D01*
X127854819Y-66529166D02*
X128854819Y-66957737D01*
X131654819Y-67166666D02*
X131178628Y-67499999D01*
X131654819Y-67738094D02*
X130654819Y-67738094D01*
X130654819Y-67738094D02*
X130654819Y-67357142D01*
X130654819Y-67357142D02*
X130702438Y-67261904D01*
X130702438Y-67261904D02*
X130750057Y-67214285D01*
X130750057Y-67214285D02*
X130845295Y-67166666D01*
X130845295Y-67166666D02*
X130988152Y-67166666D01*
X130988152Y-67166666D02*
X131083390Y-67214285D01*
X131083390Y-67214285D02*
X131131009Y-67261904D01*
X131131009Y-67261904D02*
X131178628Y-67357142D01*
X131178628Y-67357142D02*
X131178628Y-67738094D01*
X131654819Y-66214285D02*
X131654819Y-66785713D01*
X131654819Y-66499999D02*
X130654819Y-66499999D01*
X130654819Y-66499999D02*
X130797676Y-66595237D01*
X130797676Y-66595237D02*
X130892914Y-66690475D01*
X130892914Y-66690475D02*
X130940533Y-66785713D01*
X159904520Y-54157469D02*
X159904520Y-54871754D01*
X159904520Y-54871754D02*
X159856901Y-55014611D01*
X159856901Y-55014611D02*
X159761663Y-55109850D01*
X159761663Y-55109850D02*
X159618806Y-55157469D01*
X159618806Y-55157469D02*
X159523568Y-55157469D01*
X160333092Y-54252707D02*
X160380711Y-54205088D01*
X160380711Y-54205088D02*
X160475949Y-54157469D01*
X160475949Y-54157469D02*
X160714044Y-54157469D01*
X160714044Y-54157469D02*
X160809282Y-54205088D01*
X160809282Y-54205088D02*
X160856901Y-54252707D01*
X160856901Y-54252707D02*
X160904520Y-54347945D01*
X160904520Y-54347945D02*
X160904520Y-54443183D01*
X160904520Y-54443183D02*
X160856901Y-54586040D01*
X160856901Y-54586040D02*
X160285473Y-55157469D01*
X160285473Y-55157469D02*
X160904520Y-55157469D01*
X120592918Y-67939933D02*
X121307203Y-67939933D01*
X121307203Y-67939933D02*
X121450060Y-67987552D01*
X121450060Y-67987552D02*
X121545299Y-68082790D01*
X121545299Y-68082790D02*
X121592918Y-68225647D01*
X121592918Y-68225647D02*
X121592918Y-68320885D01*
X121592918Y-66939933D02*
X121592918Y-67511361D01*
X121592918Y-67225647D02*
X120592918Y-67225647D01*
X120592918Y-67225647D02*
X120735775Y-67320885D01*
X120735775Y-67320885D02*
X120831013Y-67416123D01*
X120831013Y-67416123D02*
X120878632Y-67511361D01*
X125875714Y-49414819D02*
X125875714Y-48414819D01*
X125875714Y-48414819D02*
X126113809Y-48414819D01*
X126113809Y-48414819D02*
X126256666Y-48462438D01*
X126256666Y-48462438D02*
X126351904Y-48557676D01*
X126351904Y-48557676D02*
X126399523Y-48652914D01*
X126399523Y-48652914D02*
X126447142Y-48843390D01*
X126447142Y-48843390D02*
X126447142Y-48986247D01*
X126447142Y-48986247D02*
X126399523Y-49176723D01*
X126399523Y-49176723D02*
X126351904Y-49271961D01*
X126351904Y-49271961D02*
X126256666Y-49367200D01*
X126256666Y-49367200D02*
X126113809Y-49414819D01*
X126113809Y-49414819D02*
X125875714Y-49414819D01*
X126828095Y-49367200D02*
X126970952Y-49414819D01*
X126970952Y-49414819D02*
X127209047Y-49414819D01*
X127209047Y-49414819D02*
X127304285Y-49367200D01*
X127304285Y-49367200D02*
X127351904Y-49319580D01*
X127351904Y-49319580D02*
X127399523Y-49224342D01*
X127399523Y-49224342D02*
X127399523Y-49129104D01*
X127399523Y-49129104D02*
X127351904Y-49033866D01*
X127351904Y-49033866D02*
X127304285Y-48986247D01*
X127304285Y-48986247D02*
X127209047Y-48938628D01*
X127209047Y-48938628D02*
X127018571Y-48891009D01*
X127018571Y-48891009D02*
X126923333Y-48843390D01*
X126923333Y-48843390D02*
X126875714Y-48795771D01*
X126875714Y-48795771D02*
X126828095Y-48700533D01*
X126828095Y-48700533D02*
X126828095Y-48605295D01*
X126828095Y-48605295D02*
X126875714Y-48510057D01*
X126875714Y-48510057D02*
X126923333Y-48462438D01*
X126923333Y-48462438D02*
X127018571Y-48414819D01*
X127018571Y-48414819D02*
X127256666Y-48414819D01*
X127256666Y-48414819D02*
X127399523Y-48462438D01*
X127780476Y-48510057D02*
X127828095Y-48462438D01*
X127828095Y-48462438D02*
X127923333Y-48414819D01*
X127923333Y-48414819D02*
X128161428Y-48414819D01*
X128161428Y-48414819D02*
X128256666Y-48462438D01*
X128256666Y-48462438D02*
X128304285Y-48510057D01*
X128304285Y-48510057D02*
X128351904Y-48605295D01*
X128351904Y-48605295D02*
X128351904Y-48700533D01*
X128351904Y-48700533D02*
X128304285Y-48843390D01*
X128304285Y-48843390D02*
X127732857Y-49414819D01*
X127732857Y-49414819D02*
X128351904Y-49414819D01*
X135343333Y-60249580D02*
X135295714Y-60297200D01*
X135295714Y-60297200D02*
X135152857Y-60344819D01*
X135152857Y-60344819D02*
X135057619Y-60344819D01*
X135057619Y-60344819D02*
X134914762Y-60297200D01*
X134914762Y-60297200D02*
X134819524Y-60201961D01*
X134819524Y-60201961D02*
X134771905Y-60106723D01*
X134771905Y-60106723D02*
X134724286Y-59916247D01*
X134724286Y-59916247D02*
X134724286Y-59773390D01*
X134724286Y-59773390D02*
X134771905Y-59582914D01*
X134771905Y-59582914D02*
X134819524Y-59487676D01*
X134819524Y-59487676D02*
X134914762Y-59392438D01*
X134914762Y-59392438D02*
X135057619Y-59344819D01*
X135057619Y-59344819D02*
X135152857Y-59344819D01*
X135152857Y-59344819D02*
X135295714Y-59392438D01*
X135295714Y-59392438D02*
X135343333Y-59440057D01*
X136200476Y-59678152D02*
X136200476Y-60344819D01*
X135962381Y-59297200D02*
X135724286Y-60011485D01*
X135724286Y-60011485D02*
X136343333Y-60011485D01*
X127754819Y-82186785D02*
X126754819Y-82186785D01*
X126754819Y-82186785D02*
X126754819Y-81948690D01*
X126754819Y-81948690D02*
X126802438Y-81805833D01*
X126802438Y-81805833D02*
X126897676Y-81710595D01*
X126897676Y-81710595D02*
X126992914Y-81662976D01*
X126992914Y-81662976D02*
X127183390Y-81615357D01*
X127183390Y-81615357D02*
X127326247Y-81615357D01*
X127326247Y-81615357D02*
X127516723Y-81662976D01*
X127516723Y-81662976D02*
X127611961Y-81710595D01*
X127611961Y-81710595D02*
X127707200Y-81805833D01*
X127707200Y-81805833D02*
X127754819Y-81948690D01*
X127754819Y-81948690D02*
X127754819Y-82186785D01*
X127707200Y-81234404D02*
X127754819Y-81091547D01*
X127754819Y-81091547D02*
X127754819Y-80853452D01*
X127754819Y-80853452D02*
X127707200Y-80758214D01*
X127707200Y-80758214D02*
X127659580Y-80710595D01*
X127659580Y-80710595D02*
X127564342Y-80662976D01*
X127564342Y-80662976D02*
X127469104Y-80662976D01*
X127469104Y-80662976D02*
X127373866Y-80710595D01*
X127373866Y-80710595D02*
X127326247Y-80758214D01*
X127326247Y-80758214D02*
X127278628Y-80853452D01*
X127278628Y-80853452D02*
X127231009Y-81043928D01*
X127231009Y-81043928D02*
X127183390Y-81139166D01*
X127183390Y-81139166D02*
X127135771Y-81186785D01*
X127135771Y-81186785D02*
X127040533Y-81234404D01*
X127040533Y-81234404D02*
X126945295Y-81234404D01*
X126945295Y-81234404D02*
X126850057Y-81186785D01*
X126850057Y-81186785D02*
X126802438Y-81139166D01*
X126802438Y-81139166D02*
X126754819Y-81043928D01*
X126754819Y-81043928D02*
X126754819Y-80805833D01*
X126754819Y-80805833D02*
X126802438Y-80662976D01*
X127754819Y-79710595D02*
X127754819Y-80282023D01*
X127754819Y-79996309D02*
X126754819Y-79996309D01*
X126754819Y-79996309D02*
X126897676Y-80091547D01*
X126897676Y-80091547D02*
X126992914Y-80186785D01*
X126992914Y-80186785D02*
X127040533Y-80282023D01*
X133628095Y-66184819D02*
X133628095Y-66994342D01*
X133628095Y-66994342D02*
X133675714Y-67089580D01*
X133675714Y-67089580D02*
X133723333Y-67137200D01*
X133723333Y-67137200D02*
X133818571Y-67184819D01*
X133818571Y-67184819D02*
X134009047Y-67184819D01*
X134009047Y-67184819D02*
X134104285Y-67137200D01*
X134104285Y-67137200D02*
X134151904Y-67089580D01*
X134151904Y-67089580D02*
X134199523Y-66994342D01*
X134199523Y-66994342D02*
X134199523Y-66184819D01*
X134628095Y-66280057D02*
X134675714Y-66232438D01*
X134675714Y-66232438D02*
X134770952Y-66184819D01*
X134770952Y-66184819D02*
X135009047Y-66184819D01*
X135009047Y-66184819D02*
X135104285Y-66232438D01*
X135104285Y-66232438D02*
X135151904Y-66280057D01*
X135151904Y-66280057D02*
X135199523Y-66375295D01*
X135199523Y-66375295D02*
X135199523Y-66470533D01*
X135199523Y-66470533D02*
X135151904Y-66613390D01*
X135151904Y-66613390D02*
X134580476Y-67184819D01*
X134580476Y-67184819D02*
X135199523Y-67184819D01*
X129214819Y-57442857D02*
X128738628Y-57776190D01*
X129214819Y-58014285D02*
X128214819Y-58014285D01*
X128214819Y-58014285D02*
X128214819Y-57633333D01*
X128214819Y-57633333D02*
X128262438Y-57538095D01*
X128262438Y-57538095D02*
X128310057Y-57490476D01*
X128310057Y-57490476D02*
X128405295Y-57442857D01*
X128405295Y-57442857D02*
X128548152Y-57442857D01*
X128548152Y-57442857D02*
X128643390Y-57490476D01*
X128643390Y-57490476D02*
X128691009Y-57538095D01*
X128691009Y-57538095D02*
X128738628Y-57633333D01*
X128738628Y-57633333D02*
X128738628Y-58014285D01*
X129214819Y-56490476D02*
X129214819Y-57061904D01*
X129214819Y-56776190D02*
X128214819Y-56776190D01*
X128214819Y-56776190D02*
X128357676Y-56871428D01*
X128357676Y-56871428D02*
X128452914Y-56966666D01*
X128452914Y-56966666D02*
X128500533Y-57061904D01*
X128548152Y-55633333D02*
X129214819Y-55633333D01*
X128167200Y-55871428D02*
X128881485Y-56109523D01*
X128881485Y-56109523D02*
X128881485Y-55490476D01*
X149734819Y-59121904D02*
X150544342Y-59121904D01*
X150544342Y-59121904D02*
X150639580Y-59074285D01*
X150639580Y-59074285D02*
X150687200Y-59026666D01*
X150687200Y-59026666D02*
X150734819Y-58931428D01*
X150734819Y-58931428D02*
X150734819Y-58740952D01*
X150734819Y-58740952D02*
X150687200Y-58645714D01*
X150687200Y-58645714D02*
X150639580Y-58598095D01*
X150639580Y-58598095D02*
X150544342Y-58550476D01*
X150544342Y-58550476D02*
X149734819Y-58550476D01*
X150734819Y-57550476D02*
X150734819Y-58121904D01*
X150734819Y-57836190D02*
X149734819Y-57836190D01*
X149734819Y-57836190D02*
X149877676Y-57931428D01*
X149877676Y-57931428D02*
X149972914Y-58026666D01*
X149972914Y-58026666D02*
X150020533Y-58121904D01*
X129504819Y-81096666D02*
X129028628Y-81429999D01*
X129504819Y-81668094D02*
X128504819Y-81668094D01*
X128504819Y-81668094D02*
X128504819Y-81287142D01*
X128504819Y-81287142D02*
X128552438Y-81191904D01*
X128552438Y-81191904D02*
X128600057Y-81144285D01*
X128600057Y-81144285D02*
X128695295Y-81096666D01*
X128695295Y-81096666D02*
X128838152Y-81096666D01*
X128838152Y-81096666D02*
X128933390Y-81144285D01*
X128933390Y-81144285D02*
X128981009Y-81191904D01*
X128981009Y-81191904D02*
X129028628Y-81287142D01*
X129028628Y-81287142D02*
X129028628Y-81668094D01*
X128838152Y-80239523D02*
X129504819Y-80239523D01*
X128457200Y-80477618D02*
X129171485Y-80715713D01*
X129171485Y-80715713D02*
X129171485Y-80096666D01*
X157184819Y-59161904D02*
X157994342Y-59161904D01*
X157994342Y-59161904D02*
X158089580Y-59114285D01*
X158089580Y-59114285D02*
X158137200Y-59066666D01*
X158137200Y-59066666D02*
X158184819Y-58971428D01*
X158184819Y-58971428D02*
X158184819Y-58780952D01*
X158184819Y-58780952D02*
X158137200Y-58685714D01*
X158137200Y-58685714D02*
X158089580Y-58638095D01*
X158089580Y-58638095D02*
X157994342Y-58590476D01*
X157994342Y-58590476D02*
X157184819Y-58590476D01*
X157184819Y-58209523D02*
X157184819Y-57590476D01*
X157184819Y-57590476D02*
X157565771Y-57923809D01*
X157565771Y-57923809D02*
X157565771Y-57780952D01*
X157565771Y-57780952D02*
X157613390Y-57685714D01*
X157613390Y-57685714D02*
X157661009Y-57638095D01*
X157661009Y-57638095D02*
X157756247Y-57590476D01*
X157756247Y-57590476D02*
X157994342Y-57590476D01*
X157994342Y-57590476D02*
X158089580Y-57638095D01*
X158089580Y-57638095D02*
X158137200Y-57685714D01*
X158137200Y-57685714D02*
X158184819Y-57780952D01*
X158184819Y-57780952D02*
X158184819Y-58066666D01*
X158184819Y-58066666D02*
X158137200Y-58161904D01*
X158137200Y-58161904D02*
X158089580Y-58209523D01*
X127344819Y-68009166D02*
X126868628Y-68342499D01*
X127344819Y-68580594D02*
X126344819Y-68580594D01*
X126344819Y-68580594D02*
X126344819Y-68199642D01*
X126344819Y-68199642D02*
X126392438Y-68104404D01*
X126392438Y-68104404D02*
X126440057Y-68056785D01*
X126440057Y-68056785D02*
X126535295Y-68009166D01*
X126535295Y-68009166D02*
X126678152Y-68009166D01*
X126678152Y-68009166D02*
X126773390Y-68056785D01*
X126773390Y-68056785D02*
X126821009Y-68104404D01*
X126821009Y-68104404D02*
X126868628Y-68199642D01*
X126868628Y-68199642D02*
X126868628Y-68580594D01*
X126344819Y-67152023D02*
X126344819Y-67342499D01*
X126344819Y-67342499D02*
X126392438Y-67437737D01*
X126392438Y-67437737D02*
X126440057Y-67485356D01*
X126440057Y-67485356D02*
X126582914Y-67580594D01*
X126582914Y-67580594D02*
X126773390Y-67628213D01*
X126773390Y-67628213D02*
X127154342Y-67628213D01*
X127154342Y-67628213D02*
X127249580Y-67580594D01*
X127249580Y-67580594D02*
X127297200Y-67532975D01*
X127297200Y-67532975D02*
X127344819Y-67437737D01*
X127344819Y-67437737D02*
X127344819Y-67247261D01*
X127344819Y-67247261D02*
X127297200Y-67152023D01*
X127297200Y-67152023D02*
X127249580Y-67104404D01*
X127249580Y-67104404D02*
X127154342Y-67056785D01*
X127154342Y-67056785D02*
X126916247Y-67056785D01*
X126916247Y-67056785D02*
X126821009Y-67104404D01*
X126821009Y-67104404D02*
X126773390Y-67152023D01*
X126773390Y-67152023D02*
X126725771Y-67247261D01*
X126725771Y-67247261D02*
X126725771Y-67437737D01*
X126725771Y-67437737D02*
X126773390Y-67532975D01*
X126773390Y-67532975D02*
X126821009Y-67580594D01*
X126821009Y-67580594D02*
X126916247Y-67628213D01*
D11*
X135075518Y-47260466D02*
X135075518Y-47865228D01*
X135075518Y-47865228D02*
X133805518Y-47865228D01*
X135075518Y-46171894D02*
X135075518Y-46897609D01*
X135075518Y-46534752D02*
X133805518Y-46534752D01*
X133805518Y-46534752D02*
X133986946Y-46655704D01*
X133986946Y-46655704D02*
X134107899Y-46776656D01*
X134107899Y-46776656D02*
X134168375Y-46897609D01*
D10*
X148769580Y-56756666D02*
X148817200Y-56804285D01*
X148817200Y-56804285D02*
X148864819Y-56947142D01*
X148864819Y-56947142D02*
X148864819Y-57042380D01*
X148864819Y-57042380D02*
X148817200Y-57185237D01*
X148817200Y-57185237D02*
X148721961Y-57280475D01*
X148721961Y-57280475D02*
X148626723Y-57328094D01*
X148626723Y-57328094D02*
X148436247Y-57375713D01*
X148436247Y-57375713D02*
X148293390Y-57375713D01*
X148293390Y-57375713D02*
X148102914Y-57328094D01*
X148102914Y-57328094D02*
X148007676Y-57280475D01*
X148007676Y-57280475D02*
X147912438Y-57185237D01*
X147912438Y-57185237D02*
X147864819Y-57042380D01*
X147864819Y-57042380D02*
X147864819Y-56947142D01*
X147864819Y-56947142D02*
X147912438Y-56804285D01*
X147912438Y-56804285D02*
X147960057Y-56756666D01*
X147864819Y-55851904D02*
X147864819Y-56328094D01*
X147864819Y-56328094D02*
X148341009Y-56375713D01*
X148341009Y-56375713D02*
X148293390Y-56328094D01*
X148293390Y-56328094D02*
X148245771Y-56232856D01*
X148245771Y-56232856D02*
X148245771Y-55994761D01*
X148245771Y-55994761D02*
X148293390Y-55899523D01*
X148293390Y-55899523D02*
X148341009Y-55851904D01*
X148341009Y-55851904D02*
X148436247Y-55804285D01*
X148436247Y-55804285D02*
X148674342Y-55804285D01*
X148674342Y-55804285D02*
X148769580Y-55851904D01*
X148769580Y-55851904D02*
X148817200Y-55899523D01*
X148817200Y-55899523D02*
X148864819Y-55994761D01*
X148864819Y-55994761D02*
X148864819Y-56232856D01*
X148864819Y-56232856D02*
X148817200Y-56328094D01*
X148817200Y-56328094D02*
X148769580Y-56375713D01*
X120793333Y-87594819D02*
X120460000Y-87118628D01*
X120221905Y-87594819D02*
X120221905Y-86594819D01*
X120221905Y-86594819D02*
X120602857Y-86594819D01*
X120602857Y-86594819D02*
X120698095Y-86642438D01*
X120698095Y-86642438D02*
X120745714Y-86690057D01*
X120745714Y-86690057D02*
X120793333Y-86785295D01*
X120793333Y-86785295D02*
X120793333Y-86928152D01*
X120793333Y-86928152D02*
X120745714Y-87023390D01*
X120745714Y-87023390D02*
X120698095Y-87071009D01*
X120698095Y-87071009D02*
X120602857Y-87118628D01*
X120602857Y-87118628D02*
X120221905Y-87118628D01*
X121269524Y-87594819D02*
X121460000Y-87594819D01*
X121460000Y-87594819D02*
X121555238Y-87547200D01*
X121555238Y-87547200D02*
X121602857Y-87499580D01*
X121602857Y-87499580D02*
X121698095Y-87356723D01*
X121698095Y-87356723D02*
X121745714Y-87166247D01*
X121745714Y-87166247D02*
X121745714Y-86785295D01*
X121745714Y-86785295D02*
X121698095Y-86690057D01*
X121698095Y-86690057D02*
X121650476Y-86642438D01*
X121650476Y-86642438D02*
X121555238Y-86594819D01*
X121555238Y-86594819D02*
X121364762Y-86594819D01*
X121364762Y-86594819D02*
X121269524Y-86642438D01*
X121269524Y-86642438D02*
X121221905Y-86690057D01*
X121221905Y-86690057D02*
X121174286Y-86785295D01*
X121174286Y-86785295D02*
X121174286Y-87023390D01*
X121174286Y-87023390D02*
X121221905Y-87118628D01*
X121221905Y-87118628D02*
X121269524Y-87166247D01*
X121269524Y-87166247D02*
X121364762Y-87213866D01*
X121364762Y-87213866D02*
X121555238Y-87213866D01*
X121555238Y-87213866D02*
X121650476Y-87166247D01*
X121650476Y-87166247D02*
X121698095Y-87118628D01*
X121698095Y-87118628D02*
X121745714Y-87023390D01*
X131404819Y-71716666D02*
X130928628Y-72049999D01*
X131404819Y-72288094D02*
X130404819Y-72288094D01*
X130404819Y-72288094D02*
X130404819Y-71907142D01*
X130404819Y-71907142D02*
X130452438Y-71811904D01*
X130452438Y-71811904D02*
X130500057Y-71764285D01*
X130500057Y-71764285D02*
X130595295Y-71716666D01*
X130595295Y-71716666D02*
X130738152Y-71716666D01*
X130738152Y-71716666D02*
X130833390Y-71764285D01*
X130833390Y-71764285D02*
X130881009Y-71811904D01*
X130881009Y-71811904D02*
X130928628Y-71907142D01*
X130928628Y-71907142D02*
X130928628Y-72288094D01*
X130404819Y-71383332D02*
X130404819Y-70764285D01*
X130404819Y-70764285D02*
X130785771Y-71097618D01*
X130785771Y-71097618D02*
X130785771Y-70954761D01*
X130785771Y-70954761D02*
X130833390Y-70859523D01*
X130833390Y-70859523D02*
X130881009Y-70811904D01*
X130881009Y-70811904D02*
X130976247Y-70764285D01*
X130976247Y-70764285D02*
X131214342Y-70764285D01*
X131214342Y-70764285D02*
X131309580Y-70811904D01*
X131309580Y-70811904D02*
X131357200Y-70859523D01*
X131357200Y-70859523D02*
X131404819Y-70954761D01*
X131404819Y-70954761D02*
X131404819Y-71240475D01*
X131404819Y-71240475D02*
X131357200Y-71335713D01*
X131357200Y-71335713D02*
X131309580Y-71383332D01*
X156229580Y-55906666D02*
X156277200Y-55954285D01*
X156277200Y-55954285D02*
X156324819Y-56097142D01*
X156324819Y-56097142D02*
X156324819Y-56192380D01*
X156324819Y-56192380D02*
X156277200Y-56335237D01*
X156277200Y-56335237D02*
X156181961Y-56430475D01*
X156181961Y-56430475D02*
X156086723Y-56478094D01*
X156086723Y-56478094D02*
X155896247Y-56525713D01*
X155896247Y-56525713D02*
X155753390Y-56525713D01*
X155753390Y-56525713D02*
X155562914Y-56478094D01*
X155562914Y-56478094D02*
X155467676Y-56430475D01*
X155467676Y-56430475D02*
X155372438Y-56335237D01*
X155372438Y-56335237D02*
X155324819Y-56192380D01*
X155324819Y-56192380D02*
X155324819Y-56097142D01*
X155324819Y-56097142D02*
X155372438Y-55954285D01*
X155372438Y-55954285D02*
X155420057Y-55906666D01*
X155324819Y-55573332D02*
X155324819Y-54954285D01*
X155324819Y-54954285D02*
X155705771Y-55287618D01*
X155705771Y-55287618D02*
X155705771Y-55144761D01*
X155705771Y-55144761D02*
X155753390Y-55049523D01*
X155753390Y-55049523D02*
X155801009Y-55001904D01*
X155801009Y-55001904D02*
X155896247Y-54954285D01*
X155896247Y-54954285D02*
X156134342Y-54954285D01*
X156134342Y-54954285D02*
X156229580Y-55001904D01*
X156229580Y-55001904D02*
X156277200Y-55049523D01*
X156277200Y-55049523D02*
X156324819Y-55144761D01*
X156324819Y-55144761D02*
X156324819Y-55430475D01*
X156324819Y-55430475D02*
X156277200Y-55525713D01*
X156277200Y-55525713D02*
X156229580Y-55573332D01*
X168309580Y-84896666D02*
X168357200Y-84944285D01*
X168357200Y-84944285D02*
X168404819Y-85087142D01*
X168404819Y-85087142D02*
X168404819Y-85182380D01*
X168404819Y-85182380D02*
X168357200Y-85325237D01*
X168357200Y-85325237D02*
X168261961Y-85420475D01*
X168261961Y-85420475D02*
X168166723Y-85468094D01*
X168166723Y-85468094D02*
X167976247Y-85515713D01*
X167976247Y-85515713D02*
X167833390Y-85515713D01*
X167833390Y-85515713D02*
X167642914Y-85468094D01*
X167642914Y-85468094D02*
X167547676Y-85420475D01*
X167547676Y-85420475D02*
X167452438Y-85325237D01*
X167452438Y-85325237D02*
X167404819Y-85182380D01*
X167404819Y-85182380D02*
X167404819Y-85087142D01*
X167404819Y-85087142D02*
X167452438Y-84944285D01*
X167452438Y-84944285D02*
X167500057Y-84896666D01*
X168404819Y-83944285D02*
X168404819Y-84515713D01*
X168404819Y-84229999D02*
X167404819Y-84229999D01*
X167404819Y-84229999D02*
X167547676Y-84325237D01*
X167547676Y-84325237D02*
X167642914Y-84420475D01*
X167642914Y-84420475D02*
X167690533Y-84515713D01*
X125753333Y-87534819D02*
X125420000Y-87058628D01*
X125181905Y-87534819D02*
X125181905Y-86534819D01*
X125181905Y-86534819D02*
X125562857Y-86534819D01*
X125562857Y-86534819D02*
X125658095Y-86582438D01*
X125658095Y-86582438D02*
X125705714Y-86630057D01*
X125705714Y-86630057D02*
X125753333Y-86725295D01*
X125753333Y-86725295D02*
X125753333Y-86868152D01*
X125753333Y-86868152D02*
X125705714Y-86963390D01*
X125705714Y-86963390D02*
X125658095Y-87011009D01*
X125658095Y-87011009D02*
X125562857Y-87058628D01*
X125562857Y-87058628D02*
X125181905Y-87058628D01*
X126324762Y-86963390D02*
X126229524Y-86915771D01*
X126229524Y-86915771D02*
X126181905Y-86868152D01*
X126181905Y-86868152D02*
X126134286Y-86772914D01*
X126134286Y-86772914D02*
X126134286Y-86725295D01*
X126134286Y-86725295D02*
X126181905Y-86630057D01*
X126181905Y-86630057D02*
X126229524Y-86582438D01*
X126229524Y-86582438D02*
X126324762Y-86534819D01*
X126324762Y-86534819D02*
X126515238Y-86534819D01*
X126515238Y-86534819D02*
X126610476Y-86582438D01*
X126610476Y-86582438D02*
X126658095Y-86630057D01*
X126658095Y-86630057D02*
X126705714Y-86725295D01*
X126705714Y-86725295D02*
X126705714Y-86772914D01*
X126705714Y-86772914D02*
X126658095Y-86868152D01*
X126658095Y-86868152D02*
X126610476Y-86915771D01*
X126610476Y-86915771D02*
X126515238Y-86963390D01*
X126515238Y-86963390D02*
X126324762Y-86963390D01*
X126324762Y-86963390D02*
X126229524Y-87011009D01*
X126229524Y-87011009D02*
X126181905Y-87058628D01*
X126181905Y-87058628D02*
X126134286Y-87153866D01*
X126134286Y-87153866D02*
X126134286Y-87344342D01*
X126134286Y-87344342D02*
X126181905Y-87439580D01*
X126181905Y-87439580D02*
X126229524Y-87487200D01*
X126229524Y-87487200D02*
X126324762Y-87534819D01*
X126324762Y-87534819D02*
X126515238Y-87534819D01*
X126515238Y-87534819D02*
X126610476Y-87487200D01*
X126610476Y-87487200D02*
X126658095Y-87439580D01*
X126658095Y-87439580D02*
X126705714Y-87344342D01*
X126705714Y-87344342D02*
X126705714Y-87153866D01*
X126705714Y-87153866D02*
X126658095Y-87058628D01*
X126658095Y-87058628D02*
X126610476Y-87011009D01*
X126610476Y-87011009D02*
X126515238Y-86963390D01*
X123463333Y-52284819D02*
X123130000Y-51808628D01*
X122891905Y-52284819D02*
X122891905Y-51284819D01*
X122891905Y-51284819D02*
X123272857Y-51284819D01*
X123272857Y-51284819D02*
X123368095Y-51332438D01*
X123368095Y-51332438D02*
X123415714Y-51380057D01*
X123415714Y-51380057D02*
X123463333Y-51475295D01*
X123463333Y-51475295D02*
X123463333Y-51618152D01*
X123463333Y-51618152D02*
X123415714Y-51713390D01*
X123415714Y-51713390D02*
X123368095Y-51761009D01*
X123368095Y-51761009D02*
X123272857Y-51808628D01*
X123272857Y-51808628D02*
X122891905Y-51808628D01*
X124368095Y-51284819D02*
X123891905Y-51284819D01*
X123891905Y-51284819D02*
X123844286Y-51761009D01*
X123844286Y-51761009D02*
X123891905Y-51713390D01*
X123891905Y-51713390D02*
X123987143Y-51665771D01*
X123987143Y-51665771D02*
X124225238Y-51665771D01*
X124225238Y-51665771D02*
X124320476Y-51713390D01*
X124320476Y-51713390D02*
X124368095Y-51761009D01*
X124368095Y-51761009D02*
X124415714Y-51856247D01*
X124415714Y-51856247D02*
X124415714Y-52094342D01*
X124415714Y-52094342D02*
X124368095Y-52189580D01*
X124368095Y-52189580D02*
X124320476Y-52237200D01*
X124320476Y-52237200D02*
X124225238Y-52284819D01*
X124225238Y-52284819D02*
X123987143Y-52284819D01*
X123987143Y-52284819D02*
X123891905Y-52237200D01*
X123891905Y-52237200D02*
X123844286Y-52189580D01*
X134718095Y-57684819D02*
X134718095Y-58494342D01*
X134718095Y-58494342D02*
X134765714Y-58589580D01*
X134765714Y-58589580D02*
X134813333Y-58637200D01*
X134813333Y-58637200D02*
X134908571Y-58684819D01*
X134908571Y-58684819D02*
X135099047Y-58684819D01*
X135099047Y-58684819D02*
X135194285Y-58637200D01*
X135194285Y-58637200D02*
X135241904Y-58589580D01*
X135241904Y-58589580D02*
X135289523Y-58494342D01*
X135289523Y-58494342D02*
X135289523Y-57684819D01*
X136194285Y-58018152D02*
X136194285Y-58684819D01*
X135956190Y-57637200D02*
X135718095Y-58351485D01*
X135718095Y-58351485D02*
X136337142Y-58351485D01*
X139909580Y-65746666D02*
X139957200Y-65794285D01*
X139957200Y-65794285D02*
X140004819Y-65937142D01*
X140004819Y-65937142D02*
X140004819Y-66032380D01*
X140004819Y-66032380D02*
X139957200Y-66175237D01*
X139957200Y-66175237D02*
X139861961Y-66270475D01*
X139861961Y-66270475D02*
X139766723Y-66318094D01*
X139766723Y-66318094D02*
X139576247Y-66365713D01*
X139576247Y-66365713D02*
X139433390Y-66365713D01*
X139433390Y-66365713D02*
X139242914Y-66318094D01*
X139242914Y-66318094D02*
X139147676Y-66270475D01*
X139147676Y-66270475D02*
X139052438Y-66175237D01*
X139052438Y-66175237D02*
X139004819Y-66032380D01*
X139004819Y-66032380D02*
X139004819Y-65937142D01*
X139004819Y-65937142D02*
X139052438Y-65794285D01*
X139052438Y-65794285D02*
X139100057Y-65746666D01*
X139100057Y-65365713D02*
X139052438Y-65318094D01*
X139052438Y-65318094D02*
X139004819Y-65222856D01*
X139004819Y-65222856D02*
X139004819Y-64984761D01*
X139004819Y-64984761D02*
X139052438Y-64889523D01*
X139052438Y-64889523D02*
X139100057Y-64841904D01*
X139100057Y-64841904D02*
X139195295Y-64794285D01*
X139195295Y-64794285D02*
X139290533Y-64794285D01*
X139290533Y-64794285D02*
X139433390Y-64841904D01*
X139433390Y-64841904D02*
X140004819Y-65413332D01*
X140004819Y-65413332D02*
X140004819Y-64794285D01*
X141624819Y-69254166D02*
X141148628Y-69587499D01*
X141624819Y-69825594D02*
X140624819Y-69825594D01*
X140624819Y-69825594D02*
X140624819Y-69444642D01*
X140624819Y-69444642D02*
X140672438Y-69349404D01*
X140672438Y-69349404D02*
X140720057Y-69301785D01*
X140720057Y-69301785D02*
X140815295Y-69254166D01*
X140815295Y-69254166D02*
X140958152Y-69254166D01*
X140958152Y-69254166D02*
X141053390Y-69301785D01*
X141053390Y-69301785D02*
X141101009Y-69349404D01*
X141101009Y-69349404D02*
X141148628Y-69444642D01*
X141148628Y-69444642D02*
X141148628Y-69825594D01*
X140720057Y-68873213D02*
X140672438Y-68825594D01*
X140672438Y-68825594D02*
X140624819Y-68730356D01*
X140624819Y-68730356D02*
X140624819Y-68492261D01*
X140624819Y-68492261D02*
X140672438Y-68397023D01*
X140672438Y-68397023D02*
X140720057Y-68349404D01*
X140720057Y-68349404D02*
X140815295Y-68301785D01*
X140815295Y-68301785D02*
X140910533Y-68301785D01*
X140910533Y-68301785D02*
X141053390Y-68349404D01*
X141053390Y-68349404D02*
X141624819Y-68920832D01*
X141624819Y-68920832D02*
X141624819Y-68301785D01*
D12*
%TO.C,R7*%
X126447500Y-67107776D02*
X126447500Y-67617224D01*
X127492500Y-67107776D02*
X127492500Y-67617224D01*
%TO.C,R1*%
X129247500Y-66745276D02*
X129247500Y-67254724D01*
X130292500Y-66745276D02*
X130292500Y-67254724D01*
D13*
%TO.C,J2*%
X155792854Y-50067650D02*
X155792854Y-48067650D01*
X158112854Y-45467650D02*
X161712854Y-45467650D01*
X161712854Y-52667650D02*
X158112854Y-52667650D01*
X165112854Y-45467650D02*
X174992854Y-45467650D01*
X174992854Y-45467650D02*
X174992854Y-52667650D01*
X174992854Y-52667650D02*
X165112854Y-52667650D01*
X165012854Y-53317650D02*
G75*
G02*
X164812854Y-53317650I-100000J0D01*
G01*
X164812854Y-53317650D02*
G75*
G02*
X165012854Y-53317650I100000J0D01*
G01*
D14*
%TO.C,J1*%
X120249099Y-84357900D02*
G75*
G02*
X119487099Y-84357900I-381000J0D01*
G01*
X119487099Y-84357900D02*
G75*
G02*
X120249099Y-84357900I381000J0D01*
G01*
D15*
X124508900Y-83722900D02*
X124508900Y-51490300D01*
X124508900Y-51490300D02*
X116711100Y-51490300D01*
X116711100Y-83722900D02*
X124508900Y-83722900D01*
X116711100Y-51490300D02*
X116711100Y-83722900D01*
D12*
%TO.C,DS2*%
X125430000Y-49655000D02*
X125430000Y-51125000D01*
X125430000Y-51125000D02*
X127890000Y-51125000D01*
X127890000Y-49655000D02*
X125430000Y-49655000D01*
%TO.C,C4*%
X135656267Y-57950000D02*
X135363733Y-57950000D01*
X135656267Y-58970000D02*
X135363733Y-58970000D01*
%TO.C,DS1*%
X125135000Y-79312500D02*
X125135000Y-81772500D01*
X126605000Y-79312500D02*
X125135000Y-79312500D01*
X126605000Y-81772500D02*
X126605000Y-79312500D01*
%TO.C,U2*%
X134390000Y-67570000D02*
X132440000Y-67570000D01*
X134390000Y-67570000D02*
X136340000Y-67570000D01*
X134390000Y-72690000D02*
X132440000Y-72690000D01*
X134390000Y-72690000D02*
X136340000Y-72690000D01*
X131690000Y-67665000D02*
X131450000Y-67335000D01*
X131930000Y-67335000D01*
X131690000Y-67665000D01*
G36*
X131690000Y-67665000D02*
G01*
X131450000Y-67335000D01*
X131930000Y-67335000D01*
X131690000Y-67665000D01*
G37*
%TO.C,R14*%
X129667500Y-57054724D02*
X129667500Y-56545276D01*
X130712500Y-57054724D02*
X130712500Y-56545276D01*
%TO.C,U1*%
X151120000Y-58360000D02*
X151120000Y-56410000D01*
X151120000Y-58360000D02*
X151120000Y-60310000D01*
X156240000Y-58360000D02*
X156240000Y-56410000D01*
X156240000Y-58360000D02*
X156240000Y-60310000D01*
X151215000Y-61060000D02*
X150885000Y-61300000D01*
X150885000Y-60820000D01*
X151215000Y-61060000D01*
G36*
X151215000Y-61060000D02*
G01*
X150885000Y-61300000D01*
X150885000Y-60820000D01*
X151215000Y-61060000D01*
G37*
%TO.C,R4*%
X127097500Y-80675276D02*
X127097500Y-81184724D01*
X128142500Y-80675276D02*
X128142500Y-81184724D01*
%TO.C,U3*%
X158570000Y-58400000D02*
X158570000Y-56450000D01*
X158570000Y-58400000D02*
X158570000Y-60350000D01*
X163690000Y-58400000D02*
X163690000Y-56450000D01*
X163690000Y-58400000D02*
X163690000Y-60350000D01*
X158665000Y-61100000D02*
X158335000Y-61340000D01*
X158335000Y-60860000D01*
X158665000Y-61100000D01*
G36*
X158665000Y-61100000D02*
G01*
X158335000Y-61340000D01*
X158335000Y-60860000D01*
X158665000Y-61100000D01*
G37*
%TO.C,R6*%
X124937500Y-67587776D02*
X124937500Y-68097224D01*
X125982500Y-67587776D02*
X125982500Y-68097224D01*
%TO.C,C5*%
X149330000Y-56736267D02*
X149330000Y-56443733D01*
X150350000Y-56736267D02*
X150350000Y-56443733D01*
%TO.C,R9*%
X121687064Y-84410000D02*
X120232936Y-84410000D01*
X121687064Y-86230000D02*
X120232936Y-86230000D01*
%TO.C,R3*%
X128997500Y-71295276D02*
X128997500Y-71804724D01*
X130042500Y-71295276D02*
X130042500Y-71804724D01*
%TO.C,C3*%
X156790000Y-55886267D02*
X156790000Y-55593733D01*
X157810000Y-55886267D02*
X157810000Y-55593733D01*
%TO.C,C1*%
X166010000Y-84583733D02*
X166010000Y-84876267D01*
X167030000Y-84583733D02*
X167030000Y-84876267D01*
%TO.C,R8*%
X126647064Y-84350000D02*
X125192936Y-84350000D01*
X126647064Y-86170000D02*
X125192936Y-86170000D01*
%TO.C,R5*%
X123884724Y-49877500D02*
X123375276Y-49877500D01*
X123884724Y-50922500D02*
X123375276Y-50922500D01*
%TO.C,U4*%
X135480000Y-52270000D02*
X133530000Y-52270000D01*
X135480000Y-52270000D02*
X137430000Y-52270000D01*
X135480000Y-57390000D02*
X133530000Y-57390000D01*
X135480000Y-57390000D02*
X137430000Y-57390000D01*
X138420000Y-57625000D02*
X137940000Y-57625000D01*
X138180000Y-57295000D01*
X138420000Y-57625000D01*
G36*
X138420000Y-57625000D02*
G01*
X137940000Y-57625000D01*
X138180000Y-57295000D01*
X138420000Y-57625000D01*
G37*
%TO.C,C2*%
X137610000Y-65433733D02*
X137610000Y-65726267D01*
X138630000Y-65433733D02*
X138630000Y-65726267D01*
%TO.C,R2*%
X139217500Y-68832776D02*
X139217500Y-69342224D01*
X140262500Y-68832776D02*
X140262500Y-69342224D01*
%TD*%
M02*
