M48
; DRILL file {KiCad 8.0.9-4-gd7388e2a70} date 2025-04-21T17:31:03-0500
; FORMAT={-:-/ absolute / metric / decimal}
; #@! TF.CreationDate,2025-04-21T17:31:03-05:00
; #@! TF.GenerationSoftware,Kicad,Pcbnew,8.0.9-4-gd7388e2a70
; #@! TF.FileFunction,Plated,1,2,PTH
FMAT,2
METRIC
; #@! TA.AperFunction,Plated,PTH,ViaDrill
T1C0.400
; #@! TA.AperFunction,Plated,PTH,ComponentDrill
T2C0.900
; #@! TA.AperFunction,Plated,PTH,ComponentDrill
T3C1.194
; #@! TA.AperFunction,Plated,PTH,ComponentDrill
T4C1.270
; #@! TA.AperFunction,Plated,PTH,ComponentDrill
T5C1.300
%
G90
G05
T1
X120.4Y-52.2
X120.9Y-46.57
X125.94Y-76.46
X125.94Y-80.91
X128.51Y-71.675
X128.52Y-75.475
X130.19Y-65.51
X130.85Y-77.65
X131.16Y-81.805
X133.005Y-59.12
X133.01Y-65.51
X133.08Y-70.615
X135.51Y-68.28
X135.52Y-71.86
X137.64Y-58.42
X139.77Y-56.72
X143.53Y-67.6
X143.55Y-62.59
X145.9Y-76.95
X148.55Y-57.32
X148.57Y-61.0
X151.2Y-74.72
X154.315Y-62.785
X156.5Y-56.0
X157.45Y-58.1
X160.5Y-62.7
T2
X159.74Y-46.83
X162.24Y-46.83
X164.24Y-46.83
X166.74Y-46.83
T3
X119.868Y-53.737
X119.868Y-56.277
X119.868Y-58.817
X119.868Y-61.357
X119.868Y-63.897
X119.868Y-66.437
X119.868Y-68.977
X119.868Y-71.517
X119.868Y-74.057
X119.868Y-76.597
X119.868Y-79.137
X119.868Y-81.677
X122.408Y-53.737
X122.408Y-56.277
X122.408Y-58.817
X122.408Y-61.357
X122.408Y-63.897
X122.408Y-66.437
X122.408Y-68.977
X122.408Y-71.517
X122.408Y-74.057
X122.408Y-76.597
X122.408Y-79.137
X122.408Y-81.677
T4
X154.0Y-66.9
X154.0Y-69.44
X154.0Y-71.98
X154.0Y-74.52
X154.0Y-77.06
X154.0Y-79.6
X154.0Y-82.14
X154.0Y-84.68
X169.24Y-66.9
X169.24Y-69.44
X169.24Y-71.98
X169.24Y-74.52
X169.24Y-77.06
X169.24Y-79.6
X169.24Y-82.14
X169.24Y-84.68
T5
G00X156.67Y-47.93
M15
G01X156.67Y-46.93
M16
G05
G00X163.74Y-51.61
M15
G01X162.74Y-51.61
M16
G05
G00X169.81Y-46.93
M15
G01X169.81Y-47.93
M16
G05
M30
