%TF.GenerationSoftware,KiCad,Pcbnew,8.0.9-8.0.9-0~ubuntu22.04.1*%
%TF.CreationDate,2025-04-16T08:53:03-05:00*%
%TF.ProjectId,test_board,74657374-5f62-46f6-9172-642e6b696361,rev?*%
%TF.SameCoordinates,Original*%
%TF.FileFunction,Copper,L1,Top*%
%TF.FilePolarity,Positive*%
%FSLAX46Y46*%
G04 Gerber Fmt 4.6, Leading zero omitted, Abs format (unit mm)*
G04 Created by KiCad (PCBNEW 8.0.9-8.0.9-0~ubuntu22.04.1) date 2025-04-16 08:53:03*
%MOMM*%
%LPD*%
G01*
G04 APERTURE LIST*
G04 Aperture macros list*
%AMRoundRect*
0 Rectangle with rounded corners*
0 $1 Rounding radius*
0 $2 $3 $4 $5 $6 $7 $8 $9 X,Y pos of 4 corners*
0 Add a 4 corners polygon primitive as box body*
4,1,4,$2,$3,$4,$5,$6,$7,$8,$9,$2,$3,0*
0 Add four circle primitives for the rounded corners*
1,1,$1+$1,$2,$3*
1,1,$1+$1,$4,$5*
1,1,$1+$1,$6,$7*
1,1,$1+$1,$8,$9*
0 Add four rect primitives between the rounded corners*
20,1,$1+$1,$2,$3,$4,$5,0*
20,1,$1+$1,$4,$5,$6,$7,0*
20,1,$1+$1,$6,$7,$8,$9,0*
20,1,$1+$1,$8,$9,$2,$3,0*%
G04 Aperture macros list end*
%TA.AperFunction,SMDPad,CuDef*%
%ADD10RoundRect,0.150000X-0.650000X-0.150000X0.650000X-0.150000X0.650000X0.150000X-0.650000X0.150000X0*%
%TD*%
%TA.AperFunction,ComponentPad*%
%ADD11R,1.300000X1.300000*%
%TD*%
%TA.AperFunction,ComponentPad*%
%ADD12C,1.300000*%
%TD*%
%TA.AperFunction,ComponentPad*%
%ADD13O,1.900000X2.900000*%
%TD*%
%TA.AperFunction,ComponentPad*%
%ADD14O,2.900000X1.900000*%
%TD*%
%TA.AperFunction,SMDPad,CuDef*%
%ADD15RoundRect,0.237500X-0.237500X0.250000X-0.237500X-0.250000X0.237500X-0.250000X0.237500X0.250000X0*%
%TD*%
%TA.AperFunction,ComponentPad*%
%ADD16C,1.701800*%
%TD*%
%TA.AperFunction,SMDPad,CuDef*%
%ADD17RoundRect,0.237500X-0.287500X-0.237500X0.287500X-0.237500X0.287500X0.237500X-0.287500X0.237500X0*%
%TD*%
%TA.AperFunction,SMDPad,CuDef*%
%ADD18RoundRect,0.237500X0.300000X0.237500X-0.300000X0.237500X-0.300000X-0.237500X0.300000X-0.237500X0*%
%TD*%
%TA.AperFunction,SMDPad,CuDef*%
%ADD19RoundRect,0.237500X-0.237500X0.287500X-0.237500X-0.287500X0.237500X-0.287500X0.237500X0.287500X0*%
%TD*%
%TA.AperFunction,SMDPad,CuDef*%
%ADD20RoundRect,0.237500X0.237500X-0.250000X0.237500X0.250000X-0.237500X0.250000X-0.237500X-0.250000X0*%
%TD*%
%TA.AperFunction,SMDPad,CuDef*%
%ADD21RoundRect,0.150000X0.150000X-0.825000X0.150000X0.825000X-0.150000X0.825000X-0.150000X-0.825000X0*%
%TD*%
%TA.AperFunction,SMDPad,CuDef*%
%ADD22R,0.900000X0.400000*%
%TD*%
%TA.AperFunction,SMDPad,CuDef*%
%ADD23RoundRect,0.237500X0.237500X-0.300000X0.237500X0.300000X-0.237500X0.300000X-0.237500X-0.300000X0*%
%TD*%
%TA.AperFunction,SMDPad,CuDef*%
%ADD24RoundRect,0.250000X0.312500X0.625000X-0.312500X0.625000X-0.312500X-0.625000X0.312500X-0.625000X0*%
%TD*%
%TA.AperFunction,SMDPad,CuDef*%
%ADD25RoundRect,0.237500X-0.237500X0.300000X-0.237500X-0.300000X0.237500X-0.300000X0.237500X0.300000X0*%
%TD*%
%TA.AperFunction,SMDPad,CuDef*%
%ADD26RoundRect,0.237500X0.250000X0.237500X-0.250000X0.237500X-0.250000X-0.237500X0.250000X-0.237500X0*%
%TD*%
%TA.AperFunction,SMDPad,CuDef*%
%ADD27RoundRect,0.150000X0.825000X0.150000X-0.825000X0.150000X-0.825000X-0.150000X0.825000X-0.150000X0*%
%TD*%
%TA.AperFunction,ComponentPad*%
%ADD28C,1.905000*%
%TD*%
%TA.AperFunction,ViaPad*%
%ADD29C,0.800000*%
%TD*%
%TA.AperFunction,Conductor*%
%ADD30C,0.300000*%
%TD*%
%TA.AperFunction,Conductor*%
%ADD31C,0.200000*%
%TD*%
%TA.AperFunction,Conductor*%
%ADD32C,0.400000*%
%TD*%
G04 APERTURE END LIST*
D10*
%TO.P,U2,8,VCC*%
%TO.N,/VCC_3V3_GPIO_FIL*%
X139230000Y-68215000D03*
%TO.P,U2,7,~{HOLD}*%
%TO.N,Net-(U2-~{HOLD})*%
X139230000Y-69485000D03*
%TO.P,U2,6,SCK*%
%TO.N,/GPIO_CN2_SPI_SCLK*%
X139230000Y-70755000D03*
%TO.P,U2,5,DI(IO0)*%
%TO.N,/GPIO_CN2_SPI_MOSI*%
X139230000Y-72025000D03*
%TO.P,U2,4,GND*%
%TO.N,GND*%
X132030000Y-72025000D03*
%TO.P,U2,3,~{WP}*%
%TO.N,Net-(U2-~{WP})*%
X132030000Y-70755000D03*
%TO.P,U2,2,DO(IO1)*%
%TO.N,/GPIO_CN2_SPI_MISO*%
X132030000Y-69485000D03*
%TO.P,U2,1,~{CS}*%
%TO.N,/GPIO_CN2_SPI_SS*%
X132030000Y-68215000D03*
%TD*%
D11*
%TO.P,J2,1,VCC*%
%TO.N,/VCC_5V_GPIO_FIL*%
X166740000Y-46830000D03*
D12*
%TO.P,J2,2,D-*%
%TO.N,/USB_DN2*%
X164240000Y-46830000D03*
%TO.P,J2,3,D+*%
%TO.N,/USB_DP2*%
X162240000Y-46830000D03*
%TO.P,J2,4,GND*%
%TO.N,GND*%
X159740000Y-46830000D03*
D13*
%TO.P,J2,5,SHIELD*%
X169810000Y-47430000D03*
D14*
X163240000Y-51610000D03*
D13*
X156670000Y-47430000D03*
%TD*%
D15*
%TO.P,R7,1,1*%
%TO.N,/VCC_3V3_GPIO_FIL*%
X126970000Y-66450000D03*
%TO.P,R7,2,2*%
%TO.N,/GPIO_CN2_1*%
X126970000Y-68275000D03*
%TD*%
%TO.P,R1,1,1*%
%TO.N,/VCC_3V3_GPIO_FIL*%
X129770000Y-66087500D03*
%TO.P,R1,2,2*%
%TO.N,/GPIO_CN2_SPI_SS*%
X129770000Y-67912500D03*
%TD*%
D16*
%TO.P,J1,1,Pin_1*%
%TO.N,/VCC_3V3_GPIO_FIL*%
X119868099Y-81676600D03*
%TO.P,J1,2,Pin_2*%
X122408099Y-81676600D03*
%TO.P,J1,3,Pin_3*%
%TO.N,GND*%
X119868099Y-79136600D03*
%TO.P,J1,4,Pin_4*%
X122408099Y-79136600D03*
%TO.P,J1,5,Pin_5*%
%TO.N,/GPIO_CN2_SPI_SCLK*%
X119868099Y-76596600D03*
%TO.P,J1,6,Pin_6*%
%TO.N,/GPIO_CN2_SPI_MOSI*%
X122408099Y-76596600D03*
%TO.P,J1,7,Pin_7*%
%TO.N,/GPIO_CN2_SPI_MISO*%
X119868099Y-74056600D03*
%TO.P,J1,8,Pin_8*%
%TO.N,/GPIO_CN2_SPI_SS*%
X122408099Y-74056600D03*
%TO.P,J1,9,Pin_9*%
%TO.N,/GPIO_CN2_1*%
X119868099Y-71516600D03*
%TO.P,J1,10,Pin_10*%
X122408099Y-71516600D03*
%TO.P,J1,11,Pin_11*%
%TO.N,/GPIO_CN2_0*%
X119868099Y-68976600D03*
%TO.P,J1,12,Pin_12*%
X122408099Y-68976600D03*
%TO.P,J1,13,Pin_13*%
%TO.N,/B{slash}RS485_RX-{slash}RS232_CTS_CN2*%
X119868099Y-66436600D03*
%TO.P,J1,14,Pin_14*%
%TO.N,/A{slash}RS485_RX+{slash}RS232_RXD_CN2*%
X122408099Y-66436600D03*
%TO.P,J1,15,Pin_15*%
%TO.N,/A_RS485_TX+{slash}RS232_RTS_CN2*%
X119868099Y-63896600D03*
%TO.P,J1,16,Pin_16*%
%TO.N,/B_RS485_TX-{slash}RS232_TXD_CN2*%
X122408099Y-63896600D03*
%TO.P,J1,17,Pin_17*%
%TO.N,/USB_HUB_CN2_DN*%
X119868099Y-61356600D03*
%TO.P,J1,18,Pin_18*%
%TO.N,/I2C_SCL_CN2*%
X122408099Y-61356600D03*
%TO.P,J1,19,Pin_19*%
%TO.N,/USB_HUB_CN2_DP*%
X119868099Y-58816600D03*
%TO.P,J1,20,Pin_20*%
%TO.N,/I2C_SDA_CN2*%
X122408099Y-58816600D03*
%TO.P,J1,21,Pin_21*%
%TO.N,GND*%
X119868099Y-56276600D03*
%TO.P,J1,22,Pin_22*%
X122408099Y-56276600D03*
%TO.P,J1,23,Pin_23*%
%TO.N,/VCC_5V_GPIO_FIL*%
X119868099Y-53736600D03*
%TO.P,J1,24,Pin_24*%
X122408099Y-53736600D03*
%TD*%
D17*
%TO.P,DS2,1,K*%
%TO.N,Net-(DS2-K)*%
X126215000Y-50390000D03*
%TO.P,DS2,2,A*%
%TO.N,/VCC_5V_GPIO_FIL*%
X127965000Y-50390000D03*
%TD*%
D18*
%TO.P,C4,1,1*%
%TO.N,GND*%
X136372500Y-58460000D03*
%TO.P,C4,2,2*%
%TO.N,/VCC_3V3_GPIO_FIL*%
X134647500Y-58460000D03*
%TD*%
D19*
%TO.P,DS1,1,K*%
%TO.N,Net-(DS1-K)*%
X125870000Y-80097500D03*
%TO.P,DS1,2,A*%
%TO.N,/VCC_3V3_GPIO_FIL*%
X125870000Y-81847500D03*
%TD*%
D20*
%TO.P,R14,1,1*%
%TO.N,/VCC_3V3_GPIO_FIL*%
X130190000Y-57712500D03*
%TO.P,R14,2,2*%
%TO.N,Net-(U4-WP)*%
X130190000Y-55887500D03*
%TD*%
D21*
%TO.P,U1,1,RO*%
%TO.N,unconnected-(U1-RO-Pad1)*%
X151775000Y-60835000D03*
%TO.P,U1,2,~{RE}*%
%TO.N,/VCC_5V_GPIO_FIL*%
X153045000Y-60835000D03*
%TO.P,U1,3,DE*%
%TO.N,/485DE*%
X154315000Y-60835000D03*
%TO.P,U1,4,DI*%
%TO.N,/485TX*%
X155585000Y-60835000D03*
%TO.P,U1,5,GND*%
%TO.N,GND*%
X155585000Y-55885000D03*
%TO.P,U1,6,A*%
%TO.N,/A_RS485_TX+{slash}RS232_RTS_CN2*%
X154315000Y-55885000D03*
%TO.P,U1,7,B*%
%TO.N,/B_RS485_TX-{slash}RS232_TXD_CN2*%
X153045000Y-55885000D03*
%TO.P,U1,8,VCC*%
%TO.N,/VCC_5V_GPIO_FIL*%
X151775000Y-55885000D03*
%TD*%
D15*
%TO.P,R4,1,1*%
%TO.N,Net-(DS1-K)*%
X127620000Y-80017500D03*
%TO.P,R4,2,2*%
%TO.N,GND*%
X127620000Y-81842500D03*
%TD*%
D21*
%TO.P,U3,1,RO*%
%TO.N,/485RX*%
X159225000Y-60875000D03*
%TO.P,U3,2,~{RE}*%
%TO.N,/485RE*%
X160495000Y-60875000D03*
%TO.P,U3,3,DE*%
%TO.N,GND*%
X161765000Y-60875000D03*
%TO.P,U3,4,DI*%
%TO.N,unconnected-(U3-DI-Pad4)*%
X163035000Y-60875000D03*
%TO.P,U3,5,GND*%
%TO.N,GND*%
X163035000Y-55925000D03*
%TO.P,U3,6,A*%
%TO.N,/A{slash}RS485_RX+{slash}RS232_RXD_CN2*%
X161765000Y-55925000D03*
%TO.P,U3,7,B*%
%TO.N,/B{slash}RS485_RX-{slash}RS232_CTS_CN2*%
X160495000Y-55925000D03*
%TO.P,U3,8,VCC*%
%TO.N,/VCC_5V_GPIO_FIL*%
X159225000Y-55925000D03*
%TD*%
D15*
%TO.P,R6,1,1*%
%TO.N,/VCC_3V3_GPIO_FIL*%
X125460000Y-66930000D03*
%TO.P,R6,2,2*%
%TO.N,/GPIO_CN2_0*%
X125460000Y-68755000D03*
%TD*%
D22*
%TO.P,L1,1,1*%
%TO.N,/USB_HUB_CN2_DN*%
X135180000Y-47820000D03*
%TO.P,L1,2,2*%
%TO.N,/USB_DN2*%
X136880000Y-47820000D03*
%TO.P,L1,3,3*%
%TO.N,/USB_DP2*%
X136880000Y-48620000D03*
%TO.P,L1,4,4*%
%TO.N,/USB_HUB_CN2_DP*%
X135180000Y-48620000D03*
%TD*%
D23*
%TO.P,C5,1,1*%
%TO.N,GND*%
X149840000Y-57452500D03*
%TO.P,C5,2,2*%
%TO.N,/VCC_5V_GPIO_FIL*%
X149840000Y-55727500D03*
%TD*%
D24*
%TO.P,R9,1,1*%
%TO.N,GND*%
X122422500Y-85320000D03*
%TO.P,R9,2,2*%
%TO.N,/VCC_3V3_GPIO_FIL*%
X119497500Y-85320000D03*
%TD*%
D15*
%TO.P,R3,1,1*%
%TO.N,/VCC_3V3_GPIO_FIL*%
X129520000Y-70637500D03*
%TO.P,R3,2,2*%
%TO.N,Net-(U2-~{WP})*%
X129520000Y-72462500D03*
%TD*%
D23*
%TO.P,C3,1,1*%
%TO.N,GND*%
X157300000Y-56602500D03*
%TO.P,C3,2,2*%
%TO.N,/VCC_5V_GPIO_FIL*%
X157300000Y-54877500D03*
%TD*%
D25*
%TO.P,C1,1,1*%
%TO.N,GND*%
X166520000Y-83867500D03*
%TO.P,C1,2,2*%
%TO.N,/VCC_5V_GPIO_FIL*%
X166520000Y-85592500D03*
%TD*%
D24*
%TO.P,R8,1,1*%
%TO.N,GND*%
X127382500Y-85260000D03*
%TO.P,R8,2,2*%
%TO.N,/VCC_3V3_GPIO_FIL*%
X124457500Y-85260000D03*
%TD*%
D26*
%TO.P,R5,1,1*%
%TO.N,Net-(DS2-K)*%
X124542500Y-50400000D03*
%TO.P,R5,2,2*%
%TO.N,GND*%
X122717500Y-50400000D03*
%TD*%
D27*
%TO.P,U4,1,A0*%
%TO.N,GND*%
X137955000Y-56735000D03*
%TO.P,U4,2,A1*%
X137955000Y-55465000D03*
%TO.P,U4,3,A2*%
X137955000Y-54195000D03*
%TO.P,U4,4,VSS*%
X137955000Y-52925000D03*
%TO.P,U4,5,SDA*%
%TO.N,/I2C_SDA_CN2*%
X133005000Y-52925000D03*
%TO.P,U4,6,SCL*%
%TO.N,/I2C_SCL_CN2*%
X133005000Y-54195000D03*
%TO.P,U4,7,WP*%
%TO.N,Net-(U4-WP)*%
X133005000Y-55465000D03*
%TO.P,U4,8,VDD*%
%TO.N,/VCC_3V3_GPIO_FIL*%
X133005000Y-56735000D03*
%TD*%
D25*
%TO.P,C2,1,1*%
%TO.N,GND*%
X138120000Y-64717500D03*
%TO.P,C2,2,2*%
%TO.N,/VCC_3V3_GPIO_FIL*%
X138120000Y-66442500D03*
%TD*%
D15*
%TO.P,R2,1,1*%
%TO.N,/VCC_3V3_GPIO_FIL*%
X141280000Y-68247500D03*
%TO.P,R2,2,2*%
%TO.N,Net-(U2-~{HOLD})*%
X141280000Y-70072500D03*
%TD*%
D28*
%TO.P,U5,0,GPIO0*%
%TO.N,unconnected-(U5-GPIO0-Pad0)*%
X163130000Y-67270000D03*
%TO.P,U5,1,GPIO1*%
%TO.N,unconnected-(U5-GPIO1-Pad1)*%
X163130000Y-69810000D03*
%TO.P,U5,2,GPIO2*%
%TO.N,unconnected-(U5-GPIO2-Pad2)*%
X163130000Y-72350000D03*
%TO.P,U5,3,GPIO3*%
%TO.N,unconnected-(U5-GPIO3-Pad3)*%
X163130000Y-74890000D03*
%TO.P,U5,3.3,3V3*%
%TO.N,unconnected-(U5-3V3-Pad3.3)*%
X163130000Y-79970000D03*
%TO.P,U5,4,GPIO4*%
%TO.N,unconnected-(U5-GPIO4-Pad4)*%
X163130000Y-77430000D03*
%TO.P,U5,5,GPIO5*%
%TO.N,unconnected-(U5-GPIO5-Pad5)*%
X147890000Y-85050000D03*
%TO.P,U5,5V,5V*%
%TO.N,/VCC_5V_GPIO_FIL*%
X163130000Y-85050000D03*
%TO.P,U5,6,GPIO6*%
%TO.N,unconnected-(U5-GPIO6-Pad6)*%
X147890000Y-82510000D03*
%TO.P,U5,7,GPIO7*%
%TO.N,unconnected-(U5-GPIO7-Pad7)*%
X147890000Y-79970000D03*
%TO.P,U5,8,GPIO8*%
%TO.N,unconnected-(U5-GPIO8-Pad8)*%
X147890000Y-77430000D03*
%TO.P,U5,9,GPIO9*%
%TO.N,/485DE*%
X147890000Y-74890000D03*
%TO.P,U5,10,GPIO10*%
%TO.N,/485RE*%
X147890000Y-72350000D03*
%TO.P,U5,20,GPIO20*%
%TO.N,/485RX*%
X147890000Y-69810000D03*
%TO.P,U5,21,GPIO21*%
%TO.N,/485TX*%
X147890000Y-67270000D03*
%TO.P,U5,G,GND*%
%TO.N,GND*%
X163130000Y-82510000D03*
%TD*%
D29*
%TO.N,/VCC_5V_GPIO_FIL*%
X165530000Y-62760000D03*
X120900000Y-46570000D03*
X152920000Y-63320000D03*
X120400000Y-52200000D03*
%TO.N,GND*%
X137640000Y-58420000D03*
X161780000Y-62420000D03*
X148550000Y-57320000D03*
X148570000Y-61000000D03*
X131260000Y-79540000D03*
X156500000Y-56000000D03*
X139770000Y-56720000D03*
X131250000Y-74000000D03*
%TO.N,/VCC_3V3_GPIO_FIL*%
X128440000Y-66430000D03*
X128450000Y-71190000D03*
X133010000Y-65370000D03*
X133005000Y-59120000D03*
%TD*%
D30*
%TO.N,/VCC_3V3_GPIO_FIL*%
X133010000Y-65370000D02*
X133010000Y-65710000D01*
X133010000Y-65710000D02*
X133742500Y-66442500D01*
X133742500Y-66442500D02*
X138120000Y-66442500D01*
X133010000Y-65370000D02*
X132292500Y-66087500D01*
X132292500Y-66087500D02*
X129770000Y-66087500D01*
D31*
%TO.N,/GPIO_CN2_SPI_SCLK*%
X119868099Y-76596600D02*
X120256600Y-76596600D01*
X137300000Y-73660000D02*
X140250000Y-73660000D01*
X120256600Y-76596600D02*
X121530000Y-77870000D01*
X121530000Y-77870000D02*
X133090000Y-77870000D01*
X133090000Y-77870000D02*
X137300000Y-73660000D01*
X140250000Y-73660000D02*
X141120000Y-72790000D01*
X141120000Y-72790000D02*
X141120000Y-71630000D01*
X141120000Y-71630000D02*
X140245000Y-70755000D01*
X140245000Y-70755000D02*
X139230000Y-70755000D01*
%TO.N,/GPIO_CN2_SPI_MOSI*%
X122408099Y-76596600D02*
X130603400Y-76596600D01*
X130603400Y-76596600D02*
X135180000Y-72020000D01*
X135180000Y-72020000D02*
X139225000Y-72020000D01*
X139225000Y-72020000D02*
X139230000Y-72025000D01*
%TO.N,Net-(U2-~{HOLD})*%
X141280000Y-70072500D02*
X140692500Y-69485000D01*
X140692500Y-69485000D02*
X139230000Y-69485000D01*
D30*
%TO.N,/VCC_3V3_GPIO_FIL*%
X139230000Y-68215000D02*
X141247500Y-68215000D01*
X141247500Y-68215000D02*
X141280000Y-68247500D01*
X138120000Y-66442500D02*
X138120000Y-67105000D01*
X138120000Y-67105000D02*
X139230000Y-68215000D01*
D32*
%TO.N,/VCC_5V_GPIO_FIL*%
X120900000Y-46570000D02*
X147230000Y-46570000D01*
X147230000Y-46570000D02*
X150610000Y-43190000D01*
X166740000Y-45120000D02*
X166740000Y-46830000D01*
X150610000Y-43190000D02*
X164810000Y-43190000D01*
X164810000Y-43190000D02*
X166740000Y-45120000D01*
D31*
%TO.N,/USB_DN2*%
X136880000Y-47820000D02*
X137555001Y-47820000D01*
X137555001Y-47820000D02*
X137705001Y-47970000D01*
X137705001Y-47970000D02*
X148376446Y-47970000D01*
X148376446Y-47970000D02*
X152296446Y-44050000D01*
X152296446Y-44050000D02*
X162680000Y-44050000D01*
X162680000Y-44050000D02*
X164240000Y-45610000D01*
X164240000Y-45610000D02*
X164240000Y-46830000D01*
%TO.N,/USB_DP2*%
X136880000Y-48620000D02*
X137555001Y-48620000D01*
X137555001Y-48620000D02*
X137705001Y-48470000D01*
X137705001Y-48470000D02*
X148583554Y-48470000D01*
X148583554Y-48470000D02*
X152503554Y-44550000D01*
X152503554Y-44550000D02*
X160690000Y-44550000D01*
X160690000Y-44550000D02*
X162240000Y-46100000D01*
X162240000Y-46100000D02*
X162240000Y-46830000D01*
D32*
%TO.N,/VCC_5V_GPIO_FIL*%
X163500000Y-85420000D02*
X166347500Y-85420000D01*
X166347500Y-85420000D02*
X166520000Y-85592500D01*
X164230000Y-54070000D02*
X165545000Y-55385000D01*
X158177500Y-54877500D02*
X159225000Y-55925000D01*
X152770000Y-50860000D02*
X128435000Y-50860000D01*
X159225000Y-54555000D02*
X159710000Y-54070000D01*
X165545000Y-55385000D02*
X165545000Y-82635000D01*
X156367500Y-53945000D02*
X155855000Y-53945000D01*
X122408099Y-53736600D02*
X124448400Y-53736600D01*
X158370000Y-57790000D02*
X159225000Y-56935000D01*
X120400000Y-53204699D02*
X119868099Y-53736600D01*
X163130000Y-85050000D02*
X163500000Y-85420000D01*
X159225000Y-55925000D02*
X159225000Y-55017500D01*
X149840000Y-55727500D02*
X151617500Y-55727500D01*
X157300000Y-54877500D02*
X158177500Y-54877500D01*
X128435000Y-50860000D02*
X127965000Y-50390000D01*
X153045000Y-63195000D02*
X152920000Y-63320000D01*
X153045000Y-60835000D02*
X153045000Y-63195000D01*
X165545000Y-82635000D02*
X163130000Y-85050000D01*
X120400000Y-52200000D02*
X120400000Y-53204699D01*
X157300000Y-54877500D02*
X156367500Y-53945000D01*
X124448400Y-53736600D02*
X127795000Y-50390000D01*
X159710000Y-54070000D02*
X164230000Y-54070000D01*
X152700000Y-57790000D02*
X158370000Y-57790000D01*
X151775000Y-55885000D02*
X151775000Y-56865000D01*
X151775000Y-56865000D02*
X152700000Y-57790000D01*
X159225000Y-56935000D02*
X159225000Y-55925000D01*
X127795000Y-50390000D02*
X127965000Y-50390000D01*
X159225000Y-55925000D02*
X159225000Y-54555000D01*
X151617500Y-55727500D02*
X151775000Y-55885000D01*
X155855000Y-53945000D02*
X152770000Y-50860000D01*
%TO.N,GND*%
X139755000Y-56735000D02*
X139770000Y-56720000D01*
D30*
X157102500Y-56602500D02*
X157300000Y-56602500D01*
X156500000Y-56000000D02*
X157102500Y-56602500D01*
D32*
X137600000Y-58460000D02*
X137640000Y-58420000D01*
X136372500Y-58460000D02*
X137600000Y-58460000D01*
D30*
X131915000Y-73335000D02*
X131250000Y-74000000D01*
X131915000Y-72035000D02*
X131915000Y-73335000D01*
X161780000Y-62420000D02*
X161765000Y-62405000D01*
X161765000Y-62405000D02*
X161765000Y-60875000D01*
D32*
X148550000Y-57320000D02*
X148682500Y-57452500D01*
X137955000Y-56735000D02*
X139755000Y-56735000D01*
X148682500Y-57452500D02*
X149840000Y-57452500D01*
D30*
%TO.N,/VCC_3V3_GPIO_FIL*%
X126490000Y-66930000D02*
X126970000Y-66450000D01*
X128420000Y-66450000D02*
X128440000Y-66430000D01*
X125699100Y-81676600D02*
X125870000Y-81847500D01*
X133005000Y-56817500D02*
X134647500Y-58460000D01*
X133005000Y-56735000D02*
X133005000Y-56817500D01*
D32*
X124457500Y-85260000D02*
X124457500Y-83726001D01*
X119497500Y-85320000D02*
X119497500Y-82047199D01*
D30*
X129520000Y-70637500D02*
X129002500Y-70637500D01*
D31*
X119868099Y-81676600D02*
X117810000Y-79618501D01*
D30*
X128782500Y-66087500D02*
X128440000Y-66430000D01*
X129002500Y-70637500D02*
X128450000Y-71190000D01*
D31*
X117810000Y-79618501D02*
X117810000Y-68340000D01*
D32*
X119497500Y-82047199D02*
X119868099Y-81676600D01*
D31*
X118424300Y-67725700D02*
X124664300Y-67725700D01*
D30*
X125460000Y-66930000D02*
X126490000Y-66930000D01*
X119868099Y-81676600D02*
X122408099Y-81676600D01*
X122408099Y-81676600D02*
X125699100Y-81676600D01*
D32*
X124457500Y-83726001D02*
X122408099Y-81676600D01*
D30*
X126970000Y-66450000D02*
X128420000Y-66450000D01*
D31*
X117810000Y-68340000D02*
X118424300Y-67725700D01*
D30*
X133005000Y-56735000D02*
X133005000Y-59120000D01*
D31*
X124664300Y-67725700D02*
X125460000Y-66930000D01*
D30*
X131167500Y-56735000D02*
X130190000Y-57712500D01*
X133005000Y-56735000D02*
X131167500Y-56735000D01*
X129770000Y-66087500D02*
X128782500Y-66087500D01*
D31*
%TO.N,/B{slash}RS485_RX-{slash}RS232_CTS_CN2*%
X160495000Y-57325000D02*
X160495000Y-55925000D01*
X119868099Y-66436600D02*
X121144699Y-65160000D01*
X159140000Y-58680000D02*
X160495000Y-57325000D01*
X123050000Y-65160000D02*
X126280000Y-61930000D01*
X121144699Y-65160000D02*
X123050000Y-65160000D01*
X140940000Y-61930000D02*
X144190000Y-58680000D01*
X144190000Y-58680000D02*
X159140000Y-58680000D01*
X126280000Y-61930000D02*
X140940000Y-61930000D01*
%TO.N,/GPIO_CN2_0*%
X119868099Y-68976600D02*
X122408099Y-68976600D01*
X122728200Y-68755000D02*
X125460000Y-68755000D01*
X122506600Y-68976600D02*
X122728200Y-68755000D01*
X122408099Y-68976600D02*
X122506600Y-68976600D01*
%TO.N,/A{slash}RS485_RX+{slash}RS232_RXD_CN2*%
X122843400Y-66436600D02*
X126510000Y-62770000D01*
X145000000Y-59180000D02*
X160100000Y-59180000D01*
X161765000Y-57515000D02*
X161765000Y-55925000D01*
X141410000Y-62770000D02*
X145000000Y-59180000D01*
X160100000Y-59180000D02*
X161765000Y-57515000D01*
X122408099Y-66436600D02*
X122843400Y-66436600D01*
X126510000Y-62770000D02*
X141410000Y-62770000D01*
%TO.N,/GPIO_CN2_1*%
X126970000Y-68762500D02*
X124215900Y-71516600D01*
X119868099Y-71516600D02*
X122408099Y-71516600D01*
X124215900Y-71516600D02*
X122408099Y-71516600D01*
X126970000Y-68275000D02*
X126970000Y-68762500D01*
%TO.N,/GPIO_CN2_SPI_SS*%
X129737500Y-67912500D02*
X129247500Y-67912500D01*
X129770000Y-67945000D02*
X130050000Y-68225000D01*
X123103400Y-74056600D02*
X122408099Y-74056600D01*
X131915000Y-68225000D02*
X130050000Y-68225000D01*
X130050000Y-68225000D02*
X129737500Y-67912500D01*
X129247500Y-67912500D02*
X123103400Y-74056600D01*
X129770000Y-67510000D02*
X129770000Y-67945000D01*
%TO.N,Net-(U2-~{WP})*%
X129520000Y-72220000D02*
X130975000Y-70765000D01*
X130975000Y-70765000D02*
X131915000Y-70765000D01*
X129520000Y-72462500D02*
X129520000Y-72220000D01*
%TO.N,Net-(U4-WP)*%
X130612500Y-55465000D02*
X130190000Y-55887500D01*
X133005000Y-55465000D02*
X130612500Y-55465000D01*
D32*
%TO.N,/485TX*%
X155585000Y-65075000D02*
X155585000Y-60835000D01*
X147890000Y-67270000D02*
X153390000Y-67270000D01*
X153390000Y-67270000D02*
X155585000Y-65075000D01*
%TO.N,/485RE*%
X160495000Y-60875000D02*
X160495000Y-65885000D01*
X160495000Y-65885000D02*
X154030000Y-72350000D01*
X154030000Y-72350000D02*
X147890000Y-72350000D01*
%TO.N,/485RX*%
X159225000Y-63815000D02*
X153230000Y-69810000D01*
X153230000Y-69810000D02*
X147890000Y-69810000D01*
X159225000Y-60875000D02*
X159225000Y-63815000D01*
%TO.N,/485DE*%
X154315000Y-64285000D02*
X152980000Y-65620000D01*
X152980000Y-65620000D02*
X146610000Y-65620000D01*
X145690000Y-66540000D02*
X145690000Y-73900000D01*
X146680000Y-74890000D02*
X147890000Y-74890000D01*
X146610000Y-65620000D02*
X145690000Y-66540000D01*
X154315000Y-60835000D02*
X154315000Y-64285000D01*
X145690000Y-73900000D02*
X146680000Y-74890000D01*
D31*
%TO.N,/GPIO_CN2_SPI_MISO*%
X119868099Y-74056600D02*
X121131499Y-75320000D01*
X121131499Y-75320000D02*
X123040000Y-75320000D01*
X128865000Y-69495000D02*
X131915000Y-69495000D01*
X123040000Y-75320000D02*
X128865000Y-69495000D01*
%TO.N,/I2C_SCL_CN2*%
X129525000Y-54195000D02*
X133005000Y-54195000D01*
X122408099Y-61356600D02*
X122408099Y-61311901D01*
X122408099Y-61311901D02*
X129525000Y-54195000D01*
%TO.N,/I2C_SDA_CN2*%
X128299699Y-52925000D02*
X133005000Y-52925000D01*
X122408099Y-58816600D02*
X128299699Y-52925000D01*
%TO.N,/USB_HUB_CN2_DP*%
X134354999Y-48470000D02*
X134504999Y-48620000D01*
X119868099Y-58816600D02*
X118035206Y-58816600D01*
X134504999Y-48620000D02*
X135180000Y-48620000D01*
X118035206Y-58816600D02*
X117550000Y-58331394D01*
X117550000Y-52103554D02*
X121183554Y-48470000D01*
X117550000Y-58331394D02*
X117550000Y-52103554D01*
X121183554Y-48470000D02*
X134354999Y-48470000D01*
%TO.N,/USB_HUB_CN2_DN*%
X134504999Y-47820000D02*
X135180000Y-47820000D01*
X134354999Y-47970000D02*
X134504999Y-47820000D01*
X119868099Y-61356600D02*
X117050000Y-58538501D01*
X117050000Y-58538501D02*
X117050000Y-51896446D01*
X120976446Y-47970000D02*
X134354999Y-47970000D01*
X117050000Y-51896446D02*
X120976446Y-47970000D01*
%TO.N,Net-(DS1-K)*%
X127540000Y-80097500D02*
X127620000Y-80017500D01*
X125870000Y-80097500D02*
X127540000Y-80097500D01*
D32*
%TO.N,Net-(DS2-K)*%
X124542500Y-50400000D02*
X126205000Y-50400000D01*
X126205000Y-50400000D02*
X126215000Y-50390000D01*
D31*
%TO.N,/A_RS485_TX+{slash}RS232_RTS_CN2*%
X122920000Y-62620000D02*
X125240000Y-60300000D01*
X153426974Y-54510000D02*
X154315000Y-55398026D01*
X119868099Y-63896600D02*
X121144699Y-62620000D01*
X145630000Y-53840000D02*
X152194080Y-53840000D01*
X154315000Y-55398026D02*
X154315000Y-55885000D01*
X125240000Y-60300000D02*
X139170000Y-60300000D01*
X152864080Y-54510000D02*
X153426974Y-54510000D01*
X139170000Y-60300000D02*
X145630000Y-53840000D01*
X152194080Y-53840000D02*
X152864080Y-54510000D01*
X121144699Y-62620000D02*
X122920000Y-62620000D01*
%TO.N,/B_RS485_TX-{slash}RS232_TXD_CN2*%
X152116974Y-54470000D02*
X153045000Y-55398026D01*
X153045000Y-55398026D02*
X153045000Y-55885000D01*
X122408099Y-63896600D02*
X122923400Y-63896600D01*
X146600000Y-54470000D02*
X152116974Y-54470000D01*
X122923400Y-63896600D02*
X125670000Y-61150000D01*
X139920000Y-61150000D02*
X146600000Y-54470000D01*
X125670000Y-61150000D02*
X139920000Y-61150000D01*
%TD*%
%TA.AperFunction,Conductor*%
%TO.N,GND*%
G36*
X132884944Y-66370322D02*
G01*
X132910003Y-66388528D01*
X133404485Y-66883010D01*
X133404487Y-66883011D01*
X133489791Y-66932262D01*
X133489792Y-66932262D01*
X133530013Y-66955483D01*
X133530015Y-66955484D01*
X133670025Y-66993000D01*
X137232956Y-66993000D01*
X137291147Y-67011907D01*
X137318168Y-67041602D01*
X137374374Y-67136643D01*
X137488357Y-67250626D01*
X137587565Y-67309296D01*
X137622906Y-67345008D01*
X137679490Y-67443015D01*
X137679492Y-67443017D01*
X138030914Y-67794440D01*
X138058691Y-67848956D01*
X138053008Y-67900760D01*
X138040123Y-67933435D01*
X138029500Y-68021893D01*
X138029500Y-68408106D01*
X138040123Y-68496565D01*
X138095637Y-68637339D01*
X138095638Y-68637341D01*
X138095639Y-68637342D01*
X138187078Y-68757922D01*
X138187081Y-68757924D01*
X138204477Y-68771116D01*
X138239420Y-68821343D01*
X138238166Y-68882515D01*
X138204477Y-68928884D01*
X138187081Y-68942075D01*
X138187075Y-68942081D01*
X138095640Y-69062656D01*
X138095637Y-69062660D01*
X138040123Y-69203434D01*
X138029500Y-69291893D01*
X138029500Y-69678106D01*
X138040123Y-69766565D01*
X138095637Y-69907339D01*
X138095638Y-69907341D01*
X138095639Y-69907342D01*
X138187078Y-70027922D01*
X138194381Y-70033460D01*
X138204477Y-70041116D01*
X138239420Y-70091343D01*
X138238166Y-70152515D01*
X138204477Y-70198884D01*
X138187081Y-70212075D01*
X138187075Y-70212081D01*
X138095640Y-70332656D01*
X138095637Y-70332660D01*
X138040123Y-70473434D01*
X138029500Y-70561893D01*
X138029500Y-70948106D01*
X138040123Y-71036565D01*
X138095637Y-71177339D01*
X138095638Y-71177341D01*
X138095639Y-71177342D01*
X138187078Y-71297922D01*
X138187081Y-71297924D01*
X138204477Y-71311116D01*
X138239420Y-71361343D01*
X138238166Y-71422515D01*
X138204477Y-71468884D01*
X138187081Y-71482075D01*
X138182290Y-71486867D01*
X138180940Y-71485517D01*
X138138186Y-71515261D01*
X138109528Y-71519500D01*
X135245893Y-71519500D01*
X135114108Y-71519500D01*
X135036200Y-71540375D01*
X134986809Y-71553609D01*
X134872690Y-71619496D01*
X130425082Y-76067104D01*
X130370565Y-76094881D01*
X130355078Y-76096100D01*
X123618549Y-76096100D01*
X123560358Y-76077193D01*
X123528824Y-76038939D01*
X123523055Y-76026568D01*
X123495983Y-75968510D01*
X123380262Y-75803244D01*
X123362374Y-75744733D01*
X123382294Y-75686881D01*
X123391341Y-75676472D01*
X127562018Y-71505794D01*
X127616533Y-71478019D01*
X127676965Y-71487590D01*
X127720230Y-71530855D01*
X127721796Y-71534521D01*
X127721802Y-71534519D01*
X127724211Y-71539523D01*
X127820181Y-71692258D01*
X127820184Y-71692262D01*
X127947738Y-71819816D01*
X127947740Y-71819817D01*
X127947741Y-71819818D01*
X128089956Y-71909178D01*
X128100478Y-71915789D01*
X128104225Y-71917100D01*
X128270738Y-71975366D01*
X128270742Y-71975367D01*
X128270745Y-71975368D01*
X128450000Y-71995565D01*
X128450001Y-71995564D01*
X128450003Y-71995565D01*
X128487160Y-71991378D01*
X128541377Y-71985269D01*
X128601318Y-71997541D01*
X128642598Y-72042703D01*
X128649449Y-72103503D01*
X128647534Y-72111252D01*
X128647348Y-72111890D01*
X128647345Y-72111905D01*
X128644500Y-72148070D01*
X128644500Y-72776929D01*
X128646349Y-72800420D01*
X128647346Y-72813098D01*
X128692319Y-72967894D01*
X128774374Y-73106643D01*
X128888357Y-73220626D01*
X129027106Y-73302681D01*
X129181902Y-73347654D01*
X129218065Y-73350500D01*
X129821934Y-73350499D01*
X129858098Y-73347654D01*
X130012894Y-73302681D01*
X130151643Y-73220626D01*
X130265626Y-73106643D01*
X130347681Y-72967894D01*
X130392654Y-72813098D01*
X130395500Y-72776935D01*
X130395499Y-72148066D01*
X130392654Y-72111902D01*
X130392653Y-72111901D01*
X130392257Y-72106857D01*
X130394339Y-72106693D01*
X130401354Y-72054379D01*
X130420601Y-72027211D01*
X131026455Y-71421357D01*
X131080970Y-71393582D01*
X131132774Y-71399265D01*
X131248436Y-71444877D01*
X131336898Y-71455500D01*
X131336900Y-71455500D01*
X132723100Y-71455500D01*
X132723102Y-71455500D01*
X132811564Y-71444877D01*
X132952342Y-71389361D01*
X133072922Y-71297922D01*
X133164361Y-71177342D01*
X133219877Y-71036564D01*
X133230500Y-70948102D01*
X133230500Y-70561898D01*
X133219877Y-70473436D01*
X133164361Y-70332658D01*
X133072922Y-70212078D01*
X133055521Y-70198882D01*
X133020580Y-70148659D01*
X133021832Y-70087487D01*
X133055521Y-70041117D01*
X133072922Y-70027922D01*
X133164361Y-69907342D01*
X133219877Y-69766564D01*
X133230500Y-69678102D01*
X133230500Y-69291898D01*
X133219877Y-69203436D01*
X133164361Y-69062658D01*
X133072922Y-68942078D01*
X133055521Y-68928882D01*
X133020580Y-68878659D01*
X133021832Y-68817487D01*
X133055521Y-68771117D01*
X133072922Y-68757922D01*
X133164361Y-68637342D01*
X133219877Y-68496564D01*
X133230500Y-68408102D01*
X133230500Y-68021898D01*
X133219877Y-67933436D01*
X133164361Y-67792658D01*
X133072922Y-67672078D01*
X132952342Y-67580639D01*
X132952341Y-67580638D01*
X132952339Y-67580637D01*
X132811565Y-67525123D01*
X132723106Y-67514500D01*
X132723102Y-67514500D01*
X131336898Y-67514500D01*
X131336893Y-67514500D01*
X131248434Y-67525123D01*
X131107660Y-67580637D01*
X131107656Y-67580640D01*
X130987081Y-67672075D01*
X130987074Y-67672082D01*
X130977036Y-67685320D01*
X130926810Y-67720262D01*
X130898153Y-67724500D01*
X130744499Y-67724500D01*
X130686308Y-67705593D01*
X130650344Y-67656093D01*
X130645499Y-67625500D01*
X130645499Y-67598070D01*
X130645499Y-67598066D01*
X130642654Y-67561902D01*
X130597681Y-67407106D01*
X130515626Y-67268357D01*
X130401643Y-67154374D01*
X130284695Y-67085212D01*
X130244235Y-67039318D01*
X130238476Y-66978404D01*
X130269622Y-66925739D01*
X130284690Y-66914790D01*
X130401643Y-66845626D01*
X130515626Y-66731643D01*
X130524333Y-66716920D01*
X130542262Y-66686605D01*
X130588158Y-66646142D01*
X130627475Y-66638000D01*
X132364974Y-66638000D01*
X132364975Y-66638000D01*
X132504985Y-66600484D01*
X132541500Y-66579402D01*
X132630515Y-66528010D01*
X132769997Y-66388527D01*
X132824512Y-66360751D01*
X132884944Y-66370322D01*
G37*
%TD.AperFunction*%
%TA.AperFunction,Conductor*%
G36*
X149016174Y-54989407D02*
G01*
X149052138Y-55038907D01*
X149052138Y-55100093D01*
X149043196Y-55119895D01*
X149012320Y-55172102D01*
X148967346Y-55326901D01*
X148967345Y-55326905D01*
X148964500Y-55363070D01*
X148964500Y-56091929D01*
X148966553Y-56118014D01*
X148967346Y-56128098D01*
X149012319Y-56282894D01*
X149094374Y-56421643D01*
X149208357Y-56535626D01*
X149347106Y-56617681D01*
X149501902Y-56662654D01*
X149538065Y-56665500D01*
X150141934Y-56665499D01*
X150178098Y-56662654D01*
X150332894Y-56617681D01*
X150471643Y-56535626D01*
X150585626Y-56421643D01*
X150594333Y-56406920D01*
X150612262Y-56376605D01*
X150658158Y-56336142D01*
X150697475Y-56328000D01*
X150975500Y-56328000D01*
X151033691Y-56346907D01*
X151069655Y-56396407D01*
X151074500Y-56427000D01*
X151074500Y-56753106D01*
X151085123Y-56841565D01*
X151140637Y-56982339D01*
X151140640Y-56982343D01*
X151197144Y-57056855D01*
X151213887Y-57091052D01*
X151215422Y-57096784D01*
X151244360Y-57146905D01*
X151244361Y-57146905D01*
X151294480Y-57233716D01*
X151406284Y-57345520D01*
X151406286Y-57345521D01*
X152071260Y-58010496D01*
X152099037Y-58065013D01*
X152089466Y-58125445D01*
X152046201Y-58168710D01*
X152001256Y-58179500D01*
X144255892Y-58179500D01*
X144124107Y-58179500D01*
X144046200Y-58200374D01*
X143996809Y-58213609D01*
X143882690Y-58279496D01*
X140761682Y-61400504D01*
X140707165Y-61428281D01*
X140691678Y-61429500D01*
X140587322Y-61429500D01*
X140529131Y-61410593D01*
X140493167Y-61361093D01*
X140493167Y-61299907D01*
X140517318Y-61260496D01*
X146778318Y-54999496D01*
X146832835Y-54971719D01*
X146848322Y-54970500D01*
X148957983Y-54970500D01*
X149016174Y-54989407D01*
G37*
%TD.AperFunction*%
%TA.AperFunction,Conductor*%
G36*
X174520421Y-41919407D02*
G01*
X174556385Y-41968907D01*
X174561229Y-41999151D01*
X174587698Y-49514500D01*
X174599029Y-52731899D01*
X174599499Y-52865182D01*
X174599500Y-52865531D01*
X174599500Y-86981886D01*
X174580593Y-87040077D01*
X174531093Y-87076041D01*
X174500900Y-87080885D01*
X115719900Y-87318544D01*
X115661634Y-87299872D01*
X115625470Y-87250518D01*
X115620500Y-87219545D01*
X115620500Y-51830554D01*
X116549500Y-51830554D01*
X116549500Y-58472609D01*
X116549500Y-58604393D01*
X116553076Y-58617738D01*
X116583609Y-58731691D01*
X116649496Y-58845810D01*
X116649497Y-58845811D01*
X116649498Y-58845812D01*
X116649500Y-58845815D01*
X117682119Y-59878434D01*
X118656340Y-60852655D01*
X118684117Y-60907172D01*
X118681963Y-60948282D01*
X118631001Y-61138474D01*
X118611919Y-61356596D01*
X118611919Y-61356603D01*
X118631001Y-61574725D01*
X118631002Y-61574732D01*
X118631003Y-61574733D01*
X118687676Y-61786239D01*
X118708812Y-61831565D01*
X118774457Y-61972343D01*
X118780215Y-61984690D01*
X118824725Y-62048257D01*
X118898492Y-62153608D01*
X118905809Y-62164057D01*
X119060642Y-62318890D01*
X119240009Y-62444484D01*
X119438143Y-62536875D01*
X119482891Y-62578604D01*
X119494566Y-62638665D01*
X119468708Y-62694118D01*
X119438143Y-62716325D01*
X119240010Y-62808715D01*
X119060646Y-62934306D01*
X118905805Y-63089147D01*
X118780214Y-63268511D01*
X118687676Y-63466961D01*
X118631001Y-63678474D01*
X118611919Y-63896596D01*
X118611919Y-63896603D01*
X118631001Y-64114725D01*
X118631002Y-64114732D01*
X118631003Y-64114733D01*
X118687676Y-64326239D01*
X118780215Y-64524690D01*
X118832267Y-64599028D01*
X118900072Y-64695865D01*
X118905809Y-64704057D01*
X119060642Y-64858890D01*
X119060645Y-64858892D01*
X119060646Y-64858893D01*
X119100367Y-64886705D01*
X119240009Y-64984484D01*
X119438143Y-65076875D01*
X119482891Y-65118604D01*
X119494566Y-65178665D01*
X119468708Y-65234118D01*
X119438143Y-65256325D01*
X119240010Y-65348715D01*
X119060646Y-65474306D01*
X118905805Y-65629147D01*
X118780214Y-65808511D01*
X118687676Y-66006961D01*
X118631001Y-66218474D01*
X118611919Y-66436596D01*
X118611919Y-66436603D01*
X118631001Y-66654725D01*
X118631002Y-66654732D01*
X118631003Y-66654733D01*
X118687676Y-66866239D01*
X118718463Y-66932262D01*
X118780213Y-67064687D01*
X118780214Y-67064689D01*
X118780215Y-67064690D01*
X118783523Y-67069415D01*
X118801414Y-67127925D01*
X118781496Y-67185777D01*
X118731377Y-67220873D01*
X118702429Y-67225200D01*
X118490192Y-67225200D01*
X118358407Y-67225200D01*
X118333853Y-67231779D01*
X118288032Y-67244056D01*
X118288032Y-67244057D01*
X118231114Y-67259308D01*
X118231112Y-67259308D01*
X118231108Y-67259310D01*
X118116990Y-67325196D01*
X118116984Y-67325200D01*
X118116985Y-67325201D01*
X117502686Y-67939500D01*
X117502685Y-67939499D01*
X117409500Y-68032685D01*
X117409496Y-68032690D01*
X117343609Y-68146809D01*
X117343608Y-68146814D01*
X117309500Y-68274108D01*
X117309500Y-79552609D01*
X117309500Y-79684393D01*
X117339579Y-79796652D01*
X117343609Y-79811691D01*
X117409496Y-79925810D01*
X117409497Y-79925811D01*
X117409498Y-79925812D01*
X117409500Y-79925815D01*
X118072400Y-80588715D01*
X118656340Y-81172655D01*
X118684117Y-81227172D01*
X118681963Y-81268282D01*
X118631001Y-81458474D01*
X118611919Y-81676596D01*
X118611919Y-81676603D01*
X118631001Y-81894725D01*
X118631002Y-81894732D01*
X118631003Y-81894733D01*
X118687676Y-82106239D01*
X118780215Y-82304690D01*
X118879096Y-82445906D01*
X118897000Y-82502690D01*
X118897000Y-84053110D01*
X118878093Y-84111301D01*
X118848396Y-84138323D01*
X118783137Y-84176917D01*
X118666918Y-84293136D01*
X118583256Y-84434602D01*
X118537403Y-84592427D01*
X118537401Y-84592434D01*
X118534500Y-84629311D01*
X118534500Y-86010688D01*
X118537401Y-86047565D01*
X118537401Y-86047568D01*
X118537402Y-86047569D01*
X118583256Y-86205398D01*
X118666919Y-86346865D01*
X118783135Y-86463081D01*
X118924602Y-86546744D01*
X119082431Y-86592598D01*
X119119306Y-86595500D01*
X119119311Y-86595500D01*
X119875689Y-86595500D01*
X119875694Y-86595500D01*
X119912569Y-86592598D01*
X120070398Y-86546744D01*
X120211865Y-86463081D01*
X120328081Y-86346865D01*
X120411744Y-86205398D01*
X120457598Y-86047569D01*
X120460500Y-86010694D01*
X120460500Y-84629306D01*
X120457598Y-84592431D01*
X120411744Y-84434602D01*
X120328081Y-84293135D01*
X120211865Y-84176919D01*
X120211862Y-84176917D01*
X120146604Y-84138323D01*
X120106142Y-84092427D01*
X120098000Y-84053110D01*
X120098000Y-82986507D01*
X120116907Y-82928316D01*
X120166407Y-82892352D01*
X120171354Y-82890886D01*
X120297738Y-82857023D01*
X120496189Y-82764484D01*
X120675556Y-82638890D01*
X120830389Y-82484057D01*
X120955983Y-82304690D01*
X120965509Y-82284260D01*
X121007237Y-82239513D01*
X121055234Y-82227100D01*
X121220964Y-82227100D01*
X121279155Y-82246007D01*
X121310688Y-82284260D01*
X121311752Y-82286541D01*
X121320214Y-82304688D01*
X121436999Y-82471476D01*
X121445809Y-82484057D01*
X121600642Y-82638890D01*
X121600645Y-82638892D01*
X121600646Y-82638893D01*
X121640367Y-82666705D01*
X121780009Y-82764484D01*
X121978460Y-82857023D01*
X122189966Y-82913696D01*
X122189970Y-82913696D01*
X122189973Y-82913697D01*
X122408096Y-82932780D01*
X122408099Y-82932780D01*
X122408102Y-82932780D01*
X122626228Y-82913697D01*
X122626232Y-82913696D01*
X122704879Y-82892622D01*
X122765981Y-82895823D01*
X122800507Y-82918244D01*
X123813781Y-83931517D01*
X123841558Y-83986034D01*
X123831987Y-84046466D01*
X123794174Y-84086734D01*
X123743136Y-84116918D01*
X123626918Y-84233136D01*
X123543256Y-84374602D01*
X123497403Y-84532427D01*
X123497401Y-84532434D01*
X123494500Y-84569311D01*
X123494500Y-85950688D01*
X123497401Y-85987565D01*
X123497401Y-85987568D01*
X123497402Y-85987569D01*
X123543256Y-86145398D01*
X123626919Y-86286865D01*
X123743135Y-86403081D01*
X123884602Y-86486744D01*
X124042431Y-86532598D01*
X124079306Y-86535500D01*
X124079311Y-86535500D01*
X124835689Y-86535500D01*
X124835694Y-86535500D01*
X124872569Y-86532598D01*
X125030398Y-86486744D01*
X125171865Y-86403081D01*
X125288081Y-86286865D01*
X125371744Y-86145398D01*
X125417598Y-85987569D01*
X125420500Y-85950694D01*
X125420500Y-84569306D01*
X125417598Y-84532431D01*
X125371744Y-84374602D01*
X125288081Y-84233135D01*
X125171865Y-84116919D01*
X125130452Y-84092427D01*
X125106604Y-84078323D01*
X125066142Y-84032427D01*
X125058000Y-83993110D01*
X125058000Y-83813046D01*
X125058001Y-83813033D01*
X125058001Y-83646943D01*
X125058000Y-83646941D01*
X125017078Y-83494220D01*
X125017078Y-83494219D01*
X125017077Y-83494217D01*
X124938020Y-83357285D01*
X123976837Y-82396103D01*
X123949061Y-82341587D01*
X123958632Y-82281155D01*
X124001897Y-82237890D01*
X124046842Y-82227100D01*
X124920546Y-82227100D01*
X124978737Y-82246007D01*
X125014701Y-82295507D01*
X125015612Y-82298471D01*
X125042319Y-82390394D01*
X125124374Y-82529143D01*
X125238357Y-82643126D01*
X125377106Y-82725181D01*
X125531902Y-82770154D01*
X125568065Y-82773000D01*
X126171934Y-82772999D01*
X126208098Y-82770154D01*
X126362894Y-82725181D01*
X126501643Y-82643126D01*
X126615626Y-82529143D01*
X126697681Y-82390394D01*
X126742654Y-82235598D01*
X126745500Y-82199435D01*
X126745499Y-81495566D01*
X126742654Y-81459402D01*
X126697681Y-81304606D01*
X126615626Y-81165857D01*
X126501643Y-81051874D01*
X126501640Y-81051872D01*
X126500166Y-81050729D01*
X126499463Y-81049695D01*
X126497238Y-81047470D01*
X126497662Y-81047045D01*
X126465772Y-81000126D01*
X126467690Y-80938971D01*
X126497562Y-80897854D01*
X126497238Y-80897530D01*
X126499286Y-80895481D01*
X126500166Y-80894271D01*
X126501635Y-80893130D01*
X126501643Y-80893126D01*
X126615626Y-80779143D01*
X126694008Y-80646603D01*
X126739903Y-80606143D01*
X126779221Y-80598000D01*
X126780267Y-80598000D01*
X126838458Y-80616907D01*
X126865480Y-80646605D01*
X126874371Y-80661639D01*
X126874372Y-80661640D01*
X126874374Y-80661643D01*
X126988357Y-80775626D01*
X127127106Y-80857681D01*
X127281902Y-80902654D01*
X127318065Y-80905500D01*
X127921934Y-80905499D01*
X127958098Y-80902654D01*
X128112894Y-80857681D01*
X128251643Y-80775626D01*
X128365626Y-80661643D01*
X128447681Y-80522894D01*
X128492654Y-80368098D01*
X128495500Y-80331935D01*
X128495499Y-79703066D01*
X128492654Y-79666902D01*
X128447681Y-79512106D01*
X128365626Y-79373357D01*
X128251643Y-79259374D01*
X128112894Y-79177319D01*
X127958098Y-79132346D01*
X127958094Y-79132345D01*
X127936683Y-79130660D01*
X127921935Y-79129500D01*
X127921929Y-79129500D01*
X127318070Y-79129500D01*
X127285627Y-79132052D01*
X127281902Y-79132346D01*
X127127106Y-79177319D01*
X126988358Y-79259373D01*
X126874371Y-79373360D01*
X126817645Y-79469279D01*
X126771749Y-79509742D01*
X126710836Y-79515500D01*
X126658171Y-79484354D01*
X126647219Y-79469279D01*
X126615626Y-79415857D01*
X126501643Y-79301874D01*
X126362894Y-79219819D01*
X126208098Y-79174846D01*
X126208094Y-79174845D01*
X126186683Y-79173160D01*
X126171935Y-79172000D01*
X126171929Y-79172000D01*
X125568070Y-79172000D01*
X125535627Y-79174552D01*
X125531902Y-79174846D01*
X125377106Y-79219819D01*
X125238358Y-79301873D01*
X125124373Y-79415858D01*
X125042319Y-79554605D01*
X124997346Y-79709401D01*
X124997345Y-79709405D01*
X124994500Y-79745570D01*
X124994500Y-80449429D01*
X124995713Y-80464841D01*
X124997346Y-80485598D01*
X125042319Y-80640394D01*
X125124374Y-80779143D01*
X125238357Y-80893126D01*
X125238359Y-80893127D01*
X125239839Y-80894275D01*
X125240543Y-80895311D01*
X125242762Y-80897530D01*
X125242338Y-80897953D01*
X125274229Y-80944881D01*
X125272307Y-81006036D01*
X125242438Y-81047147D01*
X125242761Y-81047470D01*
X125240723Y-81049507D01*
X125239839Y-81050725D01*
X125238354Y-81051876D01*
X125193126Y-81097104D01*
X125138609Y-81124881D01*
X125123123Y-81126100D01*
X123595234Y-81126100D01*
X123537043Y-81107193D01*
X123505509Y-81068939D01*
X123495983Y-81048510D01*
X123370389Y-80869143D01*
X123215556Y-80714310D01*
X123215552Y-80714307D01*
X123215551Y-80714306D01*
X123076450Y-80616907D01*
X123036189Y-80588716D01*
X122837738Y-80496177D01*
X122626232Y-80439504D01*
X122626231Y-80439503D01*
X122626224Y-80439502D01*
X122408102Y-80420420D01*
X122408096Y-80420420D01*
X122189973Y-80439502D01*
X121978460Y-80496177D01*
X121780010Y-80588715D01*
X121600646Y-80714306D01*
X121445805Y-80869147D01*
X121320214Y-81048511D01*
X121310689Y-81068939D01*
X121268961Y-81113687D01*
X121220964Y-81126100D01*
X121055234Y-81126100D01*
X120997043Y-81107193D01*
X120965509Y-81068939D01*
X120955983Y-81048510D01*
X120830389Y-80869143D01*
X120675556Y-80714310D01*
X120675552Y-80714307D01*
X120675551Y-80714306D01*
X120536450Y-80616907D01*
X120496189Y-80588716D01*
X120297738Y-80496177D01*
X120086232Y-80439504D01*
X120086231Y-80439503D01*
X120086224Y-80439502D01*
X119868102Y-80420420D01*
X119868096Y-80420420D01*
X119649973Y-80439502D01*
X119459781Y-80490464D01*
X119398679Y-80487261D01*
X119364154Y-80464841D01*
X118339496Y-79440183D01*
X118311719Y-79385666D01*
X118310500Y-79370179D01*
X118310500Y-68588322D01*
X118329407Y-68530131D01*
X118339496Y-68518318D01*
X118602618Y-68255196D01*
X118657135Y-68227419D01*
X118672622Y-68226200D01*
X118681850Y-68226200D01*
X118740041Y-68245107D01*
X118776005Y-68294607D01*
X118776005Y-68355793D01*
X118771576Y-68367036D01*
X118687676Y-68546961D01*
X118663458Y-68637343D01*
X118631001Y-68758474D01*
X118611919Y-68976596D01*
X118611919Y-68976603D01*
X118631001Y-69194725D01*
X118631002Y-69194732D01*
X118631003Y-69194733D01*
X118687676Y-69406239D01*
X118780215Y-69604690D01*
X118807039Y-69642999D01*
X118887612Y-69758070D01*
X118905809Y-69784057D01*
X119060642Y-69938890D01*
X119240009Y-70064484D01*
X119428793Y-70152515D01*
X119438143Y-70156875D01*
X119482891Y-70198604D01*
X119494566Y-70258665D01*
X119468708Y-70314118D01*
X119438143Y-70336325D01*
X119240010Y-70428715D01*
X119060646Y-70554306D01*
X118905805Y-70709147D01*
X118780214Y-70888511D01*
X118687676Y-71086961D01*
X118631001Y-71298474D01*
X118611919Y-71516596D01*
X118611919Y-71516603D01*
X118631001Y-71734725D01*
X118631002Y-71734732D01*
X118631003Y-71734733D01*
X118687676Y-71946239D01*
X118780215Y-72144690D01*
X118820233Y-72201841D01*
X118893561Y-72306566D01*
X118905809Y-72324057D01*
X119060642Y-72478890D01*
X119240009Y-72604484D01*
X119357696Y-72659362D01*
X119438143Y-72696875D01*
X119482891Y-72738604D01*
X119494566Y-72798665D01*
X119468708Y-72854118D01*
X119438143Y-72876325D01*
X119240010Y-72968715D01*
X119060646Y-73094306D01*
X118905805Y-73249147D01*
X118780214Y-73428511D01*
X118687676Y-73626961D01*
X118631001Y-73838474D01*
X118611919Y-74056596D01*
X118611919Y-74056603D01*
X118631001Y-74274725D01*
X118631002Y-74274732D01*
X118631003Y-74274733D01*
X118687676Y-74486239D01*
X118780215Y-74684690D01*
X118905809Y-74864057D01*
X119060642Y-75018890D01*
X119240009Y-75144484D01*
X119438143Y-75236875D01*
X119482891Y-75278604D01*
X119494566Y-75338665D01*
X119468708Y-75394118D01*
X119438143Y-75416325D01*
X119240010Y-75508715D01*
X119060646Y-75634306D01*
X118905805Y-75789147D01*
X118780214Y-75968511D01*
X118687676Y-76166961D01*
X118631001Y-76378474D01*
X118611919Y-76596596D01*
X118611919Y-76596603D01*
X118631001Y-76814725D01*
X118631002Y-76814732D01*
X118631003Y-76814733D01*
X118687676Y-77026239D01*
X118780215Y-77224690D01*
X118905809Y-77404057D01*
X119060642Y-77558890D01*
X119240009Y-77684484D01*
X119438460Y-77777023D01*
X119649966Y-77833696D01*
X119649970Y-77833696D01*
X119649973Y-77833697D01*
X119868096Y-77852780D01*
X119868099Y-77852780D01*
X119868102Y-77852780D01*
X120086224Y-77833697D01*
X120086225Y-77833696D01*
X120086232Y-77833696D01*
X120297738Y-77777023D01*
X120496189Y-77684484D01*
X120510763Y-77674278D01*
X120569273Y-77656387D01*
X120627126Y-77676304D01*
X120637554Y-77685368D01*
X121129500Y-78177314D01*
X121129499Y-78177314D01*
X121222685Y-78270499D01*
X121222690Y-78270503D01*
X121336810Y-78336390D01*
X121336808Y-78336390D01*
X121336812Y-78336391D01*
X121336814Y-78336392D01*
X121464108Y-78370500D01*
X121464110Y-78370500D01*
X133155890Y-78370500D01*
X133155892Y-78370500D01*
X133283186Y-78336392D01*
X133283188Y-78336390D01*
X133283190Y-78336390D01*
X133397309Y-78270503D01*
X133397309Y-78270502D01*
X133397314Y-78270500D01*
X137478318Y-74189496D01*
X137532835Y-74161719D01*
X137548322Y-74160500D01*
X140315890Y-74160500D01*
X140315892Y-74160500D01*
X140443186Y-74126392D01*
X140443188Y-74126390D01*
X140443190Y-74126390D01*
X140557309Y-74060503D01*
X140557309Y-74060502D01*
X140557314Y-74060500D01*
X141520500Y-73097314D01*
X141586392Y-72983186D01*
X141620500Y-72855892D01*
X141620500Y-72724107D01*
X141620500Y-71564108D01*
X141586392Y-71436814D01*
X141586390Y-71436811D01*
X141586390Y-71436809D01*
X141520503Y-71322690D01*
X141520499Y-71322685D01*
X141427314Y-71229499D01*
X141427314Y-71229500D01*
X141327317Y-71129503D01*
X141299540Y-71074986D01*
X141309111Y-71014554D01*
X141352376Y-70971289D01*
X141397321Y-70960499D01*
X141581929Y-70960499D01*
X141581934Y-70960499D01*
X141618098Y-70957654D01*
X141772894Y-70912681D01*
X141911643Y-70830626D01*
X142025626Y-70716643D01*
X142107681Y-70577894D01*
X142152654Y-70423098D01*
X142155500Y-70386935D01*
X142155499Y-69758066D01*
X142152654Y-69721902D01*
X142107681Y-69567106D01*
X142025626Y-69428357D01*
X141911643Y-69314374D01*
X141794695Y-69245212D01*
X141754235Y-69199318D01*
X141748476Y-69138404D01*
X141779622Y-69085739D01*
X141794690Y-69074790D01*
X141911643Y-69005626D01*
X142025626Y-68891643D01*
X142107681Y-68752894D01*
X142152654Y-68598098D01*
X142155500Y-68561935D01*
X142155499Y-67933066D01*
X142152654Y-67896902D01*
X142107681Y-67742106D01*
X142025626Y-67603357D01*
X141911643Y-67489374D01*
X141772894Y-67407319D01*
X141618098Y-67362346D01*
X141618094Y-67362345D01*
X141596683Y-67360660D01*
X141581935Y-67359500D01*
X141581929Y-67359500D01*
X140978070Y-67359500D01*
X140945627Y-67362052D01*
X140941902Y-67362346D01*
X140787106Y-67407319D01*
X140648358Y-67489373D01*
X140534372Y-67603359D01*
X140526960Y-67615894D01*
X140481065Y-67656357D01*
X140441746Y-67664500D01*
X140296222Y-67664500D01*
X140238031Y-67645593D01*
X140236403Y-67644384D01*
X140152343Y-67580640D01*
X140152339Y-67580637D01*
X140011565Y-67525123D01*
X139923106Y-67514500D01*
X139923102Y-67514500D01*
X139349033Y-67514500D01*
X139290842Y-67495593D01*
X139279029Y-67485504D01*
X138943911Y-67150386D01*
X138916134Y-67095869D01*
X138925705Y-67035437D01*
X138928701Y-67029987D01*
X138930263Y-67027346D01*
X138947681Y-66997894D01*
X138992654Y-66843098D01*
X138995500Y-66806935D01*
X138995499Y-66078066D01*
X138992654Y-66041902D01*
X138947681Y-65887106D01*
X138865626Y-65748357D01*
X138751643Y-65634374D01*
X138612894Y-65552319D01*
X138458098Y-65507346D01*
X138458094Y-65507345D01*
X138436683Y-65505660D01*
X138421935Y-65504500D01*
X138421929Y-65504500D01*
X137818070Y-65504500D01*
X137785627Y-65507052D01*
X137781902Y-65507346D01*
X137627106Y-65552319D01*
X137488358Y-65634373D01*
X137488357Y-65634374D01*
X137374374Y-65748357D01*
X137318168Y-65843396D01*
X137272274Y-65883857D01*
X137232956Y-65892000D01*
X134011533Y-65892000D01*
X133953342Y-65873093D01*
X133941529Y-65863004D01*
X133795912Y-65717387D01*
X133768135Y-65662870D01*
X133772471Y-65614689D01*
X133795368Y-65549255D01*
X133815565Y-65370000D01*
X133795368Y-65190745D01*
X133791755Y-65180420D01*
X133749766Y-65060423D01*
X133735789Y-65020478D01*
X133735174Y-65019500D01*
X133639818Y-64867741D01*
X133639817Y-64867740D01*
X133639816Y-64867738D01*
X133512262Y-64740184D01*
X133512259Y-64740182D01*
X133512258Y-64740181D01*
X133359523Y-64644211D01*
X133189261Y-64584633D01*
X133189257Y-64584632D01*
X133010000Y-64564435D01*
X132830742Y-64584632D01*
X132830738Y-64584633D01*
X132660477Y-64644211D01*
X132660476Y-64644211D01*
X132507741Y-64740181D01*
X132380181Y-64867741D01*
X132284211Y-65020476D01*
X132284211Y-65020477D01*
X132224633Y-65190738D01*
X132224630Y-65190750D01*
X132204879Y-65366049D01*
X132179576Y-65421757D01*
X132176506Y-65424967D01*
X132093472Y-65508003D01*
X132038956Y-65535781D01*
X132023468Y-65537000D01*
X130627475Y-65537000D01*
X130569284Y-65518093D01*
X130542262Y-65488395D01*
X130515628Y-65443360D01*
X130515627Y-65443359D01*
X130515626Y-65443357D01*
X130401643Y-65329374D01*
X130262894Y-65247319D01*
X130108098Y-65202346D01*
X130108094Y-65202345D01*
X130086683Y-65200660D01*
X130071935Y-65199500D01*
X130071929Y-65199500D01*
X129468070Y-65199500D01*
X129435627Y-65202052D01*
X129431902Y-65202346D01*
X129277106Y-65247319D01*
X129138358Y-65329373D01*
X129024371Y-65443360D01*
X128997738Y-65488395D01*
X128951842Y-65528858D01*
X128912525Y-65537000D01*
X128710025Y-65537000D01*
X128640020Y-65555758D01*
X128570014Y-65574516D01*
X128504650Y-65612253D01*
X128444802Y-65624972D01*
X128444077Y-65624894D01*
X128440001Y-65624435D01*
X128440000Y-65624435D01*
X128395186Y-65629484D01*
X128260742Y-65644632D01*
X128260738Y-65644633D01*
X128090477Y-65704211D01*
X128090476Y-65704211D01*
X127937741Y-65800181D01*
X127937735Y-65800185D01*
X127886305Y-65851615D01*
X127831788Y-65879391D01*
X127771356Y-65869819D01*
X127731089Y-65832004D01*
X127717195Y-65808511D01*
X127715626Y-65805857D01*
X127601643Y-65691874D01*
X127462894Y-65609819D01*
X127308098Y-65564846D01*
X127308094Y-65564845D01*
X127286683Y-65563160D01*
X127271935Y-65562000D01*
X127271929Y-65562000D01*
X126668070Y-65562000D01*
X126635627Y-65564552D01*
X126631902Y-65564846D01*
X126477106Y-65609819D01*
X126338358Y-65691873D01*
X126224373Y-65805858D01*
X126142319Y-65944605D01*
X126114149Y-66041565D01*
X126079757Y-66092170D01*
X126022188Y-66112895D01*
X125968686Y-66099158D01*
X125952896Y-66089820D01*
X125952895Y-66089819D01*
X125952894Y-66089819D01*
X125798098Y-66044846D01*
X125798094Y-66044845D01*
X125776683Y-66043160D01*
X125761935Y-66042000D01*
X125761929Y-66042000D01*
X125158070Y-66042000D01*
X125125627Y-66044552D01*
X125121902Y-66044846D01*
X124967106Y-66089819D01*
X124828358Y-66171873D01*
X124714373Y-66285858D01*
X124632319Y-66424605D01*
X124587346Y-66579401D01*
X124587346Y-66579402D01*
X124584500Y-66615570D01*
X124584500Y-67056678D01*
X124565593Y-67114869D01*
X124555504Y-67126681D01*
X124485983Y-67196203D01*
X124431467Y-67223981D01*
X124415979Y-67225200D01*
X123573769Y-67225200D01*
X123515578Y-67206293D01*
X123479614Y-67156793D01*
X123479614Y-67095607D01*
X123492672Y-67069417D01*
X123495983Y-67064690D01*
X123588522Y-66866239D01*
X123645195Y-66654733D01*
X123645372Y-66652716D01*
X123664279Y-66436603D01*
X123664279Y-66436597D01*
X123659206Y-66378620D01*
X123672969Y-66319003D01*
X123687821Y-66299991D01*
X126688318Y-63299496D01*
X126742835Y-63271719D01*
X126758322Y-63270500D01*
X141475890Y-63270500D01*
X141475892Y-63270500D01*
X141603186Y-63236392D01*
X141603188Y-63236390D01*
X141603190Y-63236390D01*
X141717309Y-63170503D01*
X141717309Y-63170502D01*
X141717314Y-63170500D01*
X145178318Y-59709496D01*
X145232835Y-59681719D01*
X145248322Y-59680500D01*
X151017719Y-59680500D01*
X151075910Y-59699407D01*
X151111874Y-59748907D01*
X151111874Y-59810093D01*
X151109816Y-59815819D01*
X151085123Y-59878434D01*
X151074500Y-59966893D01*
X151074500Y-61703106D01*
X151085123Y-61791565D01*
X151140637Y-61932339D01*
X151140638Y-61932341D01*
X151140639Y-61932342D01*
X151232078Y-62052922D01*
X151352658Y-62144361D01*
X151352659Y-62144361D01*
X151352660Y-62144362D01*
X151402603Y-62164057D01*
X151493436Y-62199877D01*
X151581898Y-62210500D01*
X151581900Y-62210500D01*
X151968100Y-62210500D01*
X151968102Y-62210500D01*
X152056564Y-62199877D01*
X152197342Y-62144361D01*
X152285682Y-62077370D01*
X152343472Y-62057276D01*
X152402038Y-62074987D01*
X152439008Y-62123740D01*
X152444500Y-62156255D01*
X152444500Y-62622415D01*
X152425593Y-62680606D01*
X152415509Y-62692412D01*
X152347922Y-62760000D01*
X152290181Y-62817741D01*
X152194211Y-62970476D01*
X152194211Y-62970477D01*
X152134633Y-63140738D01*
X152134632Y-63140742D01*
X152114435Y-63320000D01*
X152134632Y-63499257D01*
X152134633Y-63499261D01*
X152194211Y-63669522D01*
X152194211Y-63669523D01*
X152235946Y-63735943D01*
X152290184Y-63822262D01*
X152417738Y-63949816D01*
X152417740Y-63949817D01*
X152417741Y-63949818D01*
X152555320Y-64036265D01*
X152570478Y-64045789D01*
X152626126Y-64065261D01*
X152740738Y-64105366D01*
X152740742Y-64105367D01*
X152740745Y-64105368D01*
X152920000Y-64125565D01*
X153099255Y-64105368D01*
X153269522Y-64045789D01*
X153422262Y-63949816D01*
X153545498Y-63826579D01*
X153600013Y-63798804D01*
X153660445Y-63808375D01*
X153703710Y-63851640D01*
X153714500Y-63896585D01*
X153714500Y-63995257D01*
X153695593Y-64053448D01*
X153685504Y-64065261D01*
X152760261Y-64990504D01*
X152705744Y-65018281D01*
X152690257Y-65019500D01*
X146530942Y-65019500D01*
X146490018Y-65030465D01*
X146490017Y-65030464D01*
X146378219Y-65060421D01*
X146378218Y-65060421D01*
X146277443Y-65118604D01*
X146251303Y-65133696D01*
X146241281Y-65139482D01*
X146129479Y-65251283D01*
X146129480Y-65251284D01*
X146129478Y-65251286D01*
X145321286Y-66059478D01*
X145321284Y-66059480D01*
X145321283Y-66059479D01*
X145209481Y-66171282D01*
X145175571Y-66230016D01*
X145175570Y-66230015D01*
X145130425Y-66308209D01*
X145130423Y-66308213D01*
X145130423Y-66308215D01*
X145089499Y-66460943D01*
X145089499Y-66460945D01*
X145089499Y-66627031D01*
X145089500Y-66627044D01*
X145089500Y-73814863D01*
X145089499Y-73814881D01*
X145089499Y-73820943D01*
X145089499Y-73979057D01*
X145128978Y-74126392D01*
X145130424Y-74131787D01*
X145143730Y-74154833D01*
X145143731Y-74154836D01*
X145195118Y-74243840D01*
X145209480Y-74268716D01*
X145321284Y-74380520D01*
X145321286Y-74380521D01*
X146199478Y-75258713D01*
X146199480Y-75258716D01*
X146311284Y-75370520D01*
X146448216Y-75449577D01*
X146560019Y-75479534D01*
X146600942Y-75490500D01*
X146600943Y-75490500D01*
X146612584Y-75490500D01*
X146670775Y-75509407D01*
X146695463Y-75535352D01*
X146818630Y-75723873D01*
X146818632Y-75723875D01*
X146818634Y-75723878D01*
X146970497Y-75888846D01*
X147147443Y-76026568D01*
X147197311Y-76053555D01*
X147233115Y-76072932D01*
X147275293Y-76117257D01*
X147283363Y-76177908D01*
X147254241Y-76231719D01*
X147233115Y-76247068D01*
X147147442Y-76293432D01*
X147147439Y-76293434D01*
X146970500Y-76431151D01*
X146970494Y-76431156D01*
X146818630Y-76596126D01*
X146695996Y-76783831D01*
X146695991Y-76783840D01*
X146605923Y-76989178D01*
X146550880Y-77206532D01*
X146550878Y-77206541D01*
X146532363Y-77430000D01*
X146550878Y-77653458D01*
X146550880Y-77653467D01*
X146605923Y-77870821D01*
X146695991Y-78076159D01*
X146695996Y-78076168D01*
X146818630Y-78263873D01*
X146818632Y-78263875D01*
X146818634Y-78263878D01*
X146970497Y-78428846D01*
X147147443Y-78566568D01*
X147197311Y-78593555D01*
X147233115Y-78612932D01*
X147275293Y-78657257D01*
X147283363Y-78717908D01*
X147254241Y-78771719D01*
X147233115Y-78787068D01*
X147147442Y-78833432D01*
X147147439Y-78833434D01*
X146970500Y-78971151D01*
X146970494Y-78971156D01*
X146818630Y-79136126D01*
X146695996Y-79323831D01*
X146695991Y-79323840D01*
X146605923Y-79529178D01*
X146550880Y-79746532D01*
X146550878Y-79746541D01*
X146532363Y-79970000D01*
X146550878Y-80193458D01*
X146550880Y-80193467D01*
X146605923Y-80410821D01*
X146695991Y-80616159D01*
X146695996Y-80616168D01*
X146818630Y-80803873D01*
X146818632Y-80803875D01*
X146818634Y-80803878D01*
X146970497Y-80968846D01*
X146970500Y-80968848D01*
X147135283Y-81097104D01*
X147147443Y-81106568D01*
X147183535Y-81126100D01*
X147233115Y-81152932D01*
X147275293Y-81197257D01*
X147283363Y-81257908D01*
X147254241Y-81311719D01*
X147233115Y-81327068D01*
X147147442Y-81373432D01*
X147147439Y-81373434D01*
X146970500Y-81511151D01*
X146970494Y-81511156D01*
X146818630Y-81676126D01*
X146695996Y-81863831D01*
X146695991Y-81863840D01*
X146605923Y-82069178D01*
X146550880Y-82286532D01*
X146550878Y-82286541D01*
X146532363Y-82510000D01*
X146550878Y-82733458D01*
X146550880Y-82733467D01*
X146605923Y-82950821D01*
X146695991Y-83156159D01*
X146695996Y-83156168D01*
X146818630Y-83343873D01*
X146818632Y-83343875D01*
X146818634Y-83343878D01*
X146970497Y-83508846D01*
X147147443Y-83646568D01*
X147197311Y-83673555D01*
X147233115Y-83692932D01*
X147275293Y-83737257D01*
X147283363Y-83797908D01*
X147254241Y-83851719D01*
X147233115Y-83867068D01*
X147147442Y-83913432D01*
X147147439Y-83913434D01*
X146970500Y-84051151D01*
X146970494Y-84051156D01*
X146818630Y-84216126D01*
X146695996Y-84403831D01*
X146695991Y-84403840D01*
X146605923Y-84609178D01*
X146550880Y-84826532D01*
X146550878Y-84826541D01*
X146532363Y-85050000D01*
X146550878Y-85273458D01*
X146550880Y-85273467D01*
X146605923Y-85490821D01*
X146695991Y-85696159D01*
X146695996Y-85696168D01*
X146818630Y-85883873D01*
X146818632Y-85883875D01*
X146818634Y-85883878D01*
X146914084Y-85987565D01*
X146968485Y-86046661D01*
X146970497Y-86048846D01*
X147147443Y-86186568D01*
X147182236Y-86205397D01*
X147332770Y-86286863D01*
X147344643Y-86293288D01*
X147556720Y-86366094D01*
X147777887Y-86403000D01*
X148002113Y-86403000D01*
X148223280Y-86366094D01*
X148435357Y-86293288D01*
X148632557Y-86186568D01*
X148809503Y-86048846D01*
X148961366Y-85883878D01*
X149084006Y-85696164D01*
X149174076Y-85490824D01*
X149229121Y-85273460D01*
X149247637Y-85050000D01*
X149229121Y-84826540D01*
X149174076Y-84609176D01*
X149084006Y-84403836D01*
X149084003Y-84403831D01*
X148961369Y-84216126D01*
X148961367Y-84216124D01*
X148961366Y-84216122D01*
X148809503Y-84051154D01*
X148734928Y-83993110D01*
X148632560Y-83913434D01*
X148632557Y-83913432D01*
X148546884Y-83867068D01*
X148504706Y-83822743D01*
X148496636Y-83762093D01*
X148525757Y-83708282D01*
X148546884Y-83692932D01*
X148632557Y-83646568D01*
X148809503Y-83508846D01*
X148961366Y-83343878D01*
X149084006Y-83156164D01*
X149174076Y-82950824D01*
X149229121Y-82733460D01*
X149247637Y-82510000D01*
X149229121Y-82286540D01*
X149174076Y-82069176D01*
X149084006Y-81863836D01*
X149084003Y-81863831D01*
X148961369Y-81676126D01*
X148961367Y-81676124D01*
X148961366Y-81676122D01*
X148809503Y-81511154D01*
X148743012Y-81459402D01*
X148632560Y-81373434D01*
X148632557Y-81373432D01*
X148546884Y-81327068D01*
X148504706Y-81282743D01*
X148496636Y-81222093D01*
X148525757Y-81168282D01*
X148546884Y-81152932D01*
X148632557Y-81106568D01*
X148809503Y-80968846D01*
X148961366Y-80803878D01*
X149084006Y-80616164D01*
X149174076Y-80410824D01*
X149229121Y-80193460D01*
X149247637Y-79970000D01*
X149229121Y-79746540D01*
X149174076Y-79529176D01*
X149084006Y-79323836D01*
X149084003Y-79323831D01*
X148961369Y-79136126D01*
X148961367Y-79136124D01*
X148961366Y-79136122D01*
X148809503Y-78971154D01*
X148632557Y-78833432D01*
X148546883Y-78787067D01*
X148504706Y-78742743D01*
X148496636Y-78682093D01*
X148525757Y-78628282D01*
X148546884Y-78612932D01*
X148632557Y-78566568D01*
X148809503Y-78428846D01*
X148961366Y-78263878D01*
X149084006Y-78076164D01*
X149174076Y-77870824D01*
X149229121Y-77653460D01*
X149247637Y-77430000D01*
X149229121Y-77206540D01*
X149174076Y-76989176D01*
X149097555Y-76814725D01*
X149084008Y-76783840D01*
X149084003Y-76783831D01*
X148961369Y-76596126D01*
X148961367Y-76596124D01*
X148961366Y-76596122D01*
X148809503Y-76431154D01*
X148764775Y-76396341D01*
X148632560Y-76293434D01*
X148632557Y-76293432D01*
X148546884Y-76247068D01*
X148504706Y-76202743D01*
X148496636Y-76142093D01*
X148525757Y-76088282D01*
X148546884Y-76072932D01*
X148632557Y-76026568D01*
X148809503Y-75888846D01*
X148961366Y-75723878D01*
X149084006Y-75536164D01*
X149174076Y-75330824D01*
X149229121Y-75113460D01*
X149247637Y-74890000D01*
X149229121Y-74666540D01*
X149174076Y-74449176D01*
X149084006Y-74243836D01*
X149029560Y-74160500D01*
X148961369Y-74056126D01*
X148961367Y-74056124D01*
X148961366Y-74056122D01*
X148809503Y-73891154D01*
X148764775Y-73856341D01*
X148632560Y-73753434D01*
X148632557Y-73753432D01*
X148546884Y-73707068D01*
X148504706Y-73662743D01*
X148496636Y-73602093D01*
X148525757Y-73548282D01*
X148546884Y-73532932D01*
X148632557Y-73486568D01*
X148809503Y-73348846D01*
X148961366Y-73183878D01*
X149017921Y-73097314D01*
X149084537Y-72995352D01*
X149132192Y-72956978D01*
X149167416Y-72950500D01*
X153944864Y-72950500D01*
X153944880Y-72950501D01*
X153950943Y-72950501D01*
X154109055Y-72950501D01*
X154109057Y-72950501D01*
X154261785Y-72909577D01*
X154261787Y-72909575D01*
X154261789Y-72909575D01*
X154277207Y-72900672D01*
X154342458Y-72863000D01*
X154398716Y-72830520D01*
X154510520Y-72718716D01*
X154510521Y-72718713D01*
X159959236Y-67270000D01*
X161772363Y-67270000D01*
X161790878Y-67493458D01*
X161790880Y-67493467D01*
X161836113Y-67672082D01*
X161845924Y-67710824D01*
X161863336Y-67750520D01*
X161935991Y-67916159D01*
X161935996Y-67916168D01*
X162058630Y-68103873D01*
X162058632Y-68103875D01*
X162058634Y-68103878D01*
X162167465Y-68222101D01*
X162197290Y-68254500D01*
X162210497Y-68268846D01*
X162387443Y-68406568D01*
X162398630Y-68412622D01*
X162473115Y-68452932D01*
X162515293Y-68497257D01*
X162523363Y-68557908D01*
X162494241Y-68611719D01*
X162473115Y-68627068D01*
X162387442Y-68673432D01*
X162387439Y-68673434D01*
X162210500Y-68811151D01*
X162210494Y-68811156D01*
X162058630Y-68976126D01*
X161935996Y-69163831D01*
X161935991Y-69163840D01*
X161845923Y-69369178D01*
X161790880Y-69586532D01*
X161790878Y-69586541D01*
X161772363Y-69810000D01*
X161790878Y-70033458D01*
X161790880Y-70033467D01*
X161841799Y-70234535D01*
X161845924Y-70250824D01*
X161861749Y-70286902D01*
X161935991Y-70456159D01*
X161935996Y-70456168D01*
X162058630Y-70643873D01*
X162058632Y-70643875D01*
X162058634Y-70643878D01*
X162210497Y-70808846D01*
X162387443Y-70946568D01*
X162413185Y-70960499D01*
X162473115Y-70992932D01*
X162515293Y-71037257D01*
X162523363Y-71097908D01*
X162494241Y-71151719D01*
X162473115Y-71167068D01*
X162387442Y-71213432D01*
X162387439Y-71213434D01*
X162210500Y-71351151D01*
X162210494Y-71351156D01*
X162058630Y-71516126D01*
X161935996Y-71703831D01*
X161935991Y-71703840D01*
X161845923Y-71909178D01*
X161790880Y-72126532D01*
X161790878Y-72126541D01*
X161772363Y-72350000D01*
X161790878Y-72573458D01*
X161790880Y-72573467D01*
X161845923Y-72790821D01*
X161845924Y-72790824D01*
X161855694Y-72813097D01*
X161935991Y-72996159D01*
X161935996Y-72996168D01*
X162058630Y-73183873D01*
X162058632Y-73183875D01*
X162058634Y-73183878D01*
X162118718Y-73249147D01*
X162209399Y-73347654D01*
X162210497Y-73348846D01*
X162387443Y-73486568D01*
X162437311Y-73513555D01*
X162473115Y-73532932D01*
X162515293Y-73577257D01*
X162523363Y-73637908D01*
X162494241Y-73691719D01*
X162473115Y-73707068D01*
X162387442Y-73753432D01*
X162387439Y-73753434D01*
X162210500Y-73891151D01*
X162210494Y-73891156D01*
X162058630Y-74056126D01*
X161935996Y-74243831D01*
X161935991Y-74243840D01*
X161845923Y-74449178D01*
X161790880Y-74666532D01*
X161790878Y-74666541D01*
X161772363Y-74890000D01*
X161790878Y-75113458D01*
X161790880Y-75113467D01*
X161845923Y-75330821D01*
X161845924Y-75330824D01*
X161850133Y-75340420D01*
X161935991Y-75536159D01*
X161935996Y-75536168D01*
X162058630Y-75723873D01*
X162058632Y-75723875D01*
X162058634Y-75723878D01*
X162210497Y-75888846D01*
X162387443Y-76026568D01*
X162437311Y-76053555D01*
X162473115Y-76072932D01*
X162515293Y-76117257D01*
X162523363Y-76177908D01*
X162494241Y-76231719D01*
X162473115Y-76247068D01*
X162387442Y-76293432D01*
X162387439Y-76293434D01*
X162210500Y-76431151D01*
X162210494Y-76431156D01*
X162058630Y-76596126D01*
X161935996Y-76783831D01*
X161935991Y-76783840D01*
X161845923Y-76989178D01*
X161790880Y-77206532D01*
X161790878Y-77206541D01*
X161772363Y-77430000D01*
X161790878Y-77653458D01*
X161790880Y-77653467D01*
X161845923Y-77870821D01*
X161935991Y-78076159D01*
X161935996Y-78076168D01*
X162058630Y-78263873D01*
X162058632Y-78263875D01*
X162058634Y-78263878D01*
X162210497Y-78428846D01*
X162387443Y-78566568D01*
X162437311Y-78593555D01*
X162473115Y-78612932D01*
X162515293Y-78657257D01*
X162523363Y-78717908D01*
X162494241Y-78771719D01*
X162473115Y-78787068D01*
X162387442Y-78833432D01*
X162387439Y-78833434D01*
X162210500Y-78971151D01*
X162210494Y-78971156D01*
X162058630Y-79136126D01*
X161935996Y-79323831D01*
X161935991Y-79323840D01*
X161845923Y-79529178D01*
X161790880Y-79746532D01*
X161790878Y-79746541D01*
X161772363Y-79970000D01*
X161790878Y-80193458D01*
X161790880Y-80193467D01*
X161845923Y-80410821D01*
X161935991Y-80616159D01*
X161935996Y-80616168D01*
X162058630Y-80803873D01*
X162058632Y-80803875D01*
X162058634Y-80803878D01*
X162210497Y-80968846D01*
X162210500Y-80968848D01*
X162375283Y-81097104D01*
X162387443Y-81106568D01*
X162423535Y-81126100D01*
X162555020Y-81197257D01*
X162584643Y-81213288D01*
X162796720Y-81286094D01*
X163017887Y-81323000D01*
X163242113Y-81323000D01*
X163463280Y-81286094D01*
X163675357Y-81213288D01*
X163872557Y-81106568D01*
X164049503Y-80968846D01*
X164201366Y-80803878D01*
X164324006Y-80616164D01*
X164414076Y-80410824D01*
X164469121Y-80193460D01*
X164487637Y-79970000D01*
X164469121Y-79746540D01*
X164414076Y-79529176D01*
X164324006Y-79323836D01*
X164324003Y-79323831D01*
X164201369Y-79136126D01*
X164201367Y-79136124D01*
X164201366Y-79136122D01*
X164049503Y-78971154D01*
X163872557Y-78833432D01*
X163786883Y-78787067D01*
X163744706Y-78742743D01*
X163736636Y-78682093D01*
X163765757Y-78628282D01*
X163786884Y-78612932D01*
X163872557Y-78566568D01*
X164049503Y-78428846D01*
X164201366Y-78263878D01*
X164324006Y-78076164D01*
X164414076Y-77870824D01*
X164469121Y-77653460D01*
X164487637Y-77430000D01*
X164469121Y-77206540D01*
X164414076Y-76989176D01*
X164337555Y-76814725D01*
X164324008Y-76783840D01*
X164324003Y-76783831D01*
X164201369Y-76596126D01*
X164201367Y-76596124D01*
X164201366Y-76596122D01*
X164049503Y-76431154D01*
X164004775Y-76396341D01*
X163872560Y-76293434D01*
X163872557Y-76293432D01*
X163786884Y-76247068D01*
X163744706Y-76202743D01*
X163736636Y-76142093D01*
X163765757Y-76088282D01*
X163786884Y-76072932D01*
X163872557Y-76026568D01*
X164049503Y-75888846D01*
X164201366Y-75723878D01*
X164324006Y-75536164D01*
X164414076Y-75330824D01*
X164469121Y-75113460D01*
X164487637Y-74890000D01*
X164469121Y-74666540D01*
X164414076Y-74449176D01*
X164324006Y-74243836D01*
X164269560Y-74160500D01*
X164201369Y-74056126D01*
X164201367Y-74056124D01*
X164201366Y-74056122D01*
X164049503Y-73891154D01*
X164004775Y-73856341D01*
X163872560Y-73753434D01*
X163872557Y-73753432D01*
X163786884Y-73707068D01*
X163744706Y-73662743D01*
X163736636Y-73602093D01*
X163765757Y-73548282D01*
X163786884Y-73532932D01*
X163872557Y-73486568D01*
X164049503Y-73348846D01*
X164201366Y-73183878D01*
X164324006Y-72996164D01*
X164414076Y-72790824D01*
X164469121Y-72573460D01*
X164487637Y-72350000D01*
X164469121Y-72126540D01*
X164414076Y-71909176D01*
X164324006Y-71703836D01*
X164324003Y-71703831D01*
X164201369Y-71516126D01*
X164201367Y-71516124D01*
X164201366Y-71516122D01*
X164049503Y-71351154D01*
X163998062Y-71311116D01*
X163872560Y-71213434D01*
X163872557Y-71213432D01*
X163786883Y-71167067D01*
X163744706Y-71122743D01*
X163736636Y-71062093D01*
X163765757Y-71008282D01*
X163786884Y-70992932D01*
X163872557Y-70946568D01*
X164049503Y-70808846D01*
X164201366Y-70643878D01*
X164324006Y-70456164D01*
X164414076Y-70250824D01*
X164469121Y-70033460D01*
X164487637Y-69810000D01*
X164469121Y-69586540D01*
X164414076Y-69369176D01*
X164335743Y-69190593D01*
X164324008Y-69163840D01*
X164324003Y-69163831D01*
X164201369Y-68976126D01*
X164201367Y-68976124D01*
X164201366Y-68976122D01*
X164049503Y-68811154D01*
X163998061Y-68771115D01*
X163872560Y-68673434D01*
X163872557Y-68673432D01*
X163786883Y-68627067D01*
X163744706Y-68582743D01*
X163736636Y-68522093D01*
X163765757Y-68468282D01*
X163786884Y-68452932D01*
X163872557Y-68406568D01*
X164049503Y-68268846D01*
X164201366Y-68103878D01*
X164324006Y-67916164D01*
X164414076Y-67710824D01*
X164469121Y-67493460D01*
X164487637Y-67270000D01*
X164469121Y-67046540D01*
X164414076Y-66829176D01*
X164325413Y-66627044D01*
X164324008Y-66623840D01*
X164324003Y-66623831D01*
X164201369Y-66436126D01*
X164201367Y-66436124D01*
X164201366Y-66436122D01*
X164049503Y-66271154D01*
X163984424Y-66220501D01*
X163872560Y-66133434D01*
X163872557Y-66133432D01*
X163675360Y-66026713D01*
X163564678Y-65988716D01*
X163463280Y-65953906D01*
X163463277Y-65953905D01*
X163463276Y-65953905D01*
X163242113Y-65917000D01*
X163017887Y-65917000D01*
X162796723Y-65953905D01*
X162584639Y-66026713D01*
X162387442Y-66133432D01*
X162387439Y-66133434D01*
X162210500Y-66271151D01*
X162210494Y-66271156D01*
X162058630Y-66436126D01*
X161935996Y-66623831D01*
X161935991Y-66623840D01*
X161845923Y-66829178D01*
X161790880Y-67046532D01*
X161790878Y-67046541D01*
X161772363Y-67270000D01*
X159959236Y-67270000D01*
X160975520Y-66253716D01*
X161054577Y-66116784D01*
X161095501Y-65964057D01*
X161095501Y-65805942D01*
X161095501Y-65799880D01*
X161095500Y-65799862D01*
X161095500Y-62050286D01*
X161114407Y-61992095D01*
X161115617Y-61990466D01*
X161119997Y-61984690D01*
X161129361Y-61972342D01*
X161184877Y-61831564D01*
X161195500Y-61743102D01*
X161195500Y-60006898D01*
X161195499Y-60006893D01*
X162334500Y-60006893D01*
X162334500Y-61743106D01*
X162345123Y-61831565D01*
X162400637Y-61972339D01*
X162400638Y-61972341D01*
X162400639Y-61972342D01*
X162492078Y-62092922D01*
X162612658Y-62184361D01*
X162612659Y-62184361D01*
X162612660Y-62184362D01*
X162683047Y-62212119D01*
X162753436Y-62239877D01*
X162841898Y-62250500D01*
X162841900Y-62250500D01*
X163228100Y-62250500D01*
X163228102Y-62250500D01*
X163316564Y-62239877D01*
X163457342Y-62184361D01*
X163577922Y-62092922D01*
X163669361Y-61972342D01*
X163724877Y-61831564D01*
X163735500Y-61743102D01*
X163735500Y-60006898D01*
X163724877Y-59918436D01*
X163682152Y-59810093D01*
X163669362Y-59777660D01*
X163669361Y-59777659D01*
X163669361Y-59777658D01*
X163577922Y-59657078D01*
X163457342Y-59565639D01*
X163457341Y-59565638D01*
X163457339Y-59565637D01*
X163316565Y-59510123D01*
X163228106Y-59499500D01*
X163228102Y-59499500D01*
X162841898Y-59499500D01*
X162841893Y-59499500D01*
X162753434Y-59510123D01*
X162612660Y-59565637D01*
X162612656Y-59565640D01*
X162492081Y-59657075D01*
X162492075Y-59657081D01*
X162400640Y-59777656D01*
X162400637Y-59777660D01*
X162345123Y-59918434D01*
X162334500Y-60006893D01*
X161195499Y-60006893D01*
X161184877Y-59918436D01*
X161142152Y-59810093D01*
X161129362Y-59777660D01*
X161129361Y-59777659D01*
X161129361Y-59777658D01*
X161037922Y-59657078D01*
X160917342Y-59565639D01*
X160917341Y-59565638D01*
X160917339Y-59565637D01*
X160776566Y-59510123D01*
X160711947Y-59502363D01*
X160656426Y-59476652D01*
X160626621Y-59423216D01*
X160633917Y-59362468D01*
X160653745Y-59334068D01*
X162165500Y-57822314D01*
X162219540Y-57728715D01*
X162231390Y-57708190D01*
X162231390Y-57708188D01*
X162231392Y-57708186D01*
X162265500Y-57580892D01*
X162265500Y-57449107D01*
X162265500Y-57224263D01*
X162284407Y-57166072D01*
X162304678Y-57145381D01*
X162307922Y-57142922D01*
X162399361Y-57022342D01*
X162454877Y-56881564D01*
X162465500Y-56793102D01*
X162465500Y-55056898D01*
X162454877Y-54968436D01*
X162399361Y-54827658D01*
X162399360Y-54827657D01*
X162396041Y-54821754D01*
X162397672Y-54820836D01*
X162380525Y-54771535D01*
X162398232Y-54712968D01*
X162446982Y-54675994D01*
X162479504Y-54670500D01*
X163940257Y-54670500D01*
X163998448Y-54689407D01*
X164010261Y-54699496D01*
X164915504Y-55604739D01*
X164943281Y-55659256D01*
X164944500Y-55674743D01*
X164944500Y-62172414D01*
X164925593Y-62230605D01*
X164915505Y-62242416D01*
X164900186Y-62257735D01*
X164900181Y-62257741D01*
X164804211Y-62410476D01*
X164804211Y-62410477D01*
X164744633Y-62580738D01*
X164744632Y-62580742D01*
X164724435Y-62760000D01*
X164744632Y-62939257D01*
X164744633Y-62939261D01*
X164804211Y-63109522D01*
X164804211Y-63109523D01*
X164900181Y-63262258D01*
X164900184Y-63262262D01*
X164915505Y-63277583D01*
X164943281Y-63332098D01*
X164944500Y-63347585D01*
X164944500Y-82345255D01*
X164925593Y-82403446D01*
X164915504Y-82415259D01*
X163606418Y-83724344D01*
X163551901Y-83752121D01*
X163504271Y-83747977D01*
X163463282Y-83733906D01*
X163242113Y-83697000D01*
X163017887Y-83697000D01*
X162796723Y-83733905D01*
X162584639Y-83806713D01*
X162387442Y-83913432D01*
X162387439Y-83913434D01*
X162210500Y-84051151D01*
X162210494Y-84051156D01*
X162058630Y-84216126D01*
X161935996Y-84403831D01*
X161935991Y-84403840D01*
X161845923Y-84609178D01*
X161790880Y-84826532D01*
X161790878Y-84826541D01*
X161772363Y-85050000D01*
X161790878Y-85273458D01*
X161790880Y-85273467D01*
X161845923Y-85490821D01*
X161935991Y-85696159D01*
X161935996Y-85696168D01*
X162058630Y-85883873D01*
X162058632Y-85883875D01*
X162058634Y-85883878D01*
X162154084Y-85987565D01*
X162208485Y-86046661D01*
X162210497Y-86048846D01*
X162387443Y-86186568D01*
X162422236Y-86205397D01*
X162572770Y-86286863D01*
X162584643Y-86293288D01*
X162796720Y-86366094D01*
X163017887Y-86403000D01*
X163242113Y-86403000D01*
X163463280Y-86366094D01*
X163675357Y-86293288D01*
X163872557Y-86186568D01*
X164049503Y-86048846D01*
X164049507Y-86048841D01*
X164051876Y-86046661D01*
X164107495Y-86021162D01*
X164118925Y-86020500D01*
X165580976Y-86020500D01*
X165639167Y-86039407D01*
X165675131Y-86088907D01*
X165676042Y-86091871D01*
X165692319Y-86147894D01*
X165774374Y-86286643D01*
X165888357Y-86400626D01*
X166027106Y-86482681D01*
X166181902Y-86527654D01*
X166218065Y-86530500D01*
X166821934Y-86530499D01*
X166858098Y-86527654D01*
X167012894Y-86482681D01*
X167151643Y-86400626D01*
X167265626Y-86286643D01*
X167347681Y-86147894D01*
X167392654Y-85993098D01*
X167395500Y-85956935D01*
X167395499Y-85228066D01*
X167392654Y-85191902D01*
X167347681Y-85037106D01*
X167265626Y-84898357D01*
X167151643Y-84784374D01*
X167012894Y-84702319D01*
X166858098Y-84657346D01*
X166858094Y-84657345D01*
X166836683Y-84655660D01*
X166821935Y-84654500D01*
X166821929Y-84654500D01*
X166218070Y-84654500D01*
X166185627Y-84657052D01*
X166181902Y-84657346D01*
X166027106Y-84702319D01*
X165888358Y-84784373D01*
X165888357Y-84784373D01*
X165888357Y-84784374D01*
X165882225Y-84790505D01*
X165827711Y-84818281D01*
X165812224Y-84819500D01*
X164544393Y-84819500D01*
X164486202Y-84800593D01*
X164450238Y-84751093D01*
X164448422Y-84744804D01*
X164429094Y-84668481D01*
X164433138Y-84607429D01*
X164455059Y-84574176D01*
X166025520Y-83003716D01*
X166104577Y-82866784D01*
X166145501Y-82714057D01*
X166145501Y-82555942D01*
X166145501Y-82549880D01*
X166145500Y-82549862D01*
X166145500Y-63313567D01*
X166160674Y-63260896D01*
X166176072Y-63236390D01*
X166255789Y-63109522D01*
X166315368Y-62939255D01*
X166335565Y-62760000D01*
X166315368Y-62580745D01*
X166255789Y-62410478D01*
X166255788Y-62410476D01*
X166160674Y-62259103D01*
X166145500Y-62206432D01*
X166145500Y-55472044D01*
X166145501Y-55472031D01*
X166145501Y-55305943D01*
X166104577Y-55153215D01*
X166104576Y-55153214D01*
X166075639Y-55103094D01*
X166075639Y-55103093D01*
X166075637Y-55103091D01*
X166025524Y-55016289D01*
X166025521Y-55016286D01*
X166025520Y-55016284D01*
X165913716Y-54904480D01*
X165913713Y-54904478D01*
X164710521Y-53701286D01*
X164710520Y-53701284D01*
X164598716Y-53589480D01*
X164597294Y-53588659D01*
X164500346Y-53532686D01*
X164500343Y-53532685D01*
X164461787Y-53510424D01*
X164461786Y-53510423D01*
X164461785Y-53510423D01*
X164309057Y-53469499D01*
X164150943Y-53469499D01*
X164144880Y-53469499D01*
X164144864Y-53469500D01*
X159795137Y-53469500D01*
X159795121Y-53469499D01*
X159789058Y-53469499D01*
X159630943Y-53469499D01*
X159630940Y-53469499D01*
X159478219Y-53510421D01*
X159478218Y-53510421D01*
X159374241Y-53570452D01*
X159341288Y-53589478D01*
X159341281Y-53589482D01*
X158850641Y-54080120D01*
X158850642Y-54080121D01*
X158850639Y-54080124D01*
X158850638Y-54080123D01*
X158744479Y-54186284D01*
X158694359Y-54273095D01*
X158665424Y-54323210D01*
X158662940Y-54329209D01*
X158661490Y-54328608D01*
X158632387Y-54373405D01*
X158575261Y-54395319D01*
X158520600Y-54382191D01*
X158442500Y-54337100D01*
X158442500Y-54337099D01*
X158442498Y-54337099D01*
X158409287Y-54317924D01*
X158409286Y-54317923D01*
X158409285Y-54317923D01*
X158256557Y-54276999D01*
X158256555Y-54276999D01*
X158157474Y-54276999D01*
X158099283Y-54258092D01*
X158072260Y-54228394D01*
X158045626Y-54183357D01*
X157931643Y-54069374D01*
X157792894Y-53987319D01*
X157638098Y-53942346D01*
X157638094Y-53942345D01*
X157615122Y-53940537D01*
X157601935Y-53939500D01*
X157601930Y-53939500D01*
X157252243Y-53939500D01*
X157194052Y-53920593D01*
X157182239Y-53910504D01*
X156848021Y-53576286D01*
X156848020Y-53576284D01*
X156736216Y-53464480D01*
X156649404Y-53414360D01*
X156649403Y-53414359D01*
X156599288Y-53385425D01*
X156599285Y-53385423D01*
X156446557Y-53344499D01*
X156288443Y-53344499D01*
X156282380Y-53344499D01*
X156282364Y-53344500D01*
X156144743Y-53344500D01*
X156086552Y-53325593D01*
X156074739Y-53315504D01*
X153250521Y-50491286D01*
X153250520Y-50491284D01*
X153138716Y-50379480D01*
X153138713Y-50379478D01*
X153037327Y-50320943D01*
X153037324Y-50320942D01*
X153001787Y-50300424D01*
X153001786Y-50300423D01*
X153001785Y-50300423D01*
X152849057Y-50259499D01*
X152690943Y-50259499D01*
X152684880Y-50259499D01*
X152684864Y-50259500D01*
X128989499Y-50259500D01*
X128931308Y-50240593D01*
X128895344Y-50191093D01*
X128890499Y-50160500D01*
X128890499Y-50088070D01*
X128890499Y-50088066D01*
X128887654Y-50051902D01*
X128842681Y-49897106D01*
X128760626Y-49758357D01*
X128646643Y-49644374D01*
X128507894Y-49562319D01*
X128353098Y-49517346D01*
X128353094Y-49517345D01*
X128331683Y-49515660D01*
X128316935Y-49514500D01*
X128316929Y-49514500D01*
X127613070Y-49514500D01*
X127580627Y-49517052D01*
X127576902Y-49517346D01*
X127422106Y-49562319D01*
X127283358Y-49644373D01*
X127169373Y-49758358D01*
X127168225Y-49759839D01*
X127167188Y-49760543D01*
X127164970Y-49762762D01*
X127164546Y-49762338D01*
X127117619Y-49794229D01*
X127056464Y-49792307D01*
X127015353Y-49762438D01*
X127015030Y-49762762D01*
X127012989Y-49760721D01*
X127011775Y-49759839D01*
X127010628Y-49758361D01*
X127010626Y-49758357D01*
X126896643Y-49644374D01*
X126757894Y-49562319D01*
X126603098Y-49517346D01*
X126603094Y-49517345D01*
X126581683Y-49515660D01*
X126566935Y-49514500D01*
X126566929Y-49514500D01*
X125863070Y-49514500D01*
X125830627Y-49517052D01*
X125826902Y-49517346D01*
X125672106Y-49562319D01*
X125533358Y-49644373D01*
X125533357Y-49644373D01*
X125533357Y-49644374D01*
X125425001Y-49752729D01*
X125370487Y-49780505D01*
X125310055Y-49770934D01*
X125284999Y-49752730D01*
X125186643Y-49654374D01*
X125047894Y-49572319D01*
X124893098Y-49527346D01*
X124893094Y-49527345D01*
X124871683Y-49525660D01*
X124856935Y-49524500D01*
X124856929Y-49524500D01*
X124228070Y-49524500D01*
X124195627Y-49527052D01*
X124191902Y-49527346D01*
X124037106Y-49572319D01*
X123898358Y-49654373D01*
X123784373Y-49768358D01*
X123702319Y-49907105D01*
X123657346Y-50061901D01*
X123657345Y-50061905D01*
X123654500Y-50098070D01*
X123654500Y-50701929D01*
X123656759Y-50730647D01*
X123657346Y-50738098D01*
X123702319Y-50892894D01*
X123784374Y-51031643D01*
X123898357Y-51145626D01*
X124037106Y-51227681D01*
X124191902Y-51272654D01*
X124228065Y-51275500D01*
X124856934Y-51275499D01*
X124893098Y-51272654D01*
X125047894Y-51227681D01*
X125186643Y-51145626D01*
X125294998Y-51037270D01*
X125349513Y-51009495D01*
X125409945Y-51019066D01*
X125435000Y-51037269D01*
X125533357Y-51135626D01*
X125672106Y-51217681D01*
X125826902Y-51262654D01*
X125841057Y-51263768D01*
X125897584Y-51287178D01*
X125929556Y-51339345D01*
X125924759Y-51400342D01*
X125903297Y-51432466D01*
X124228661Y-53107104D01*
X124174144Y-53134881D01*
X124158657Y-53136100D01*
X123566837Y-53136100D01*
X123508646Y-53117193D01*
X123485743Y-53093886D01*
X123370389Y-52929143D01*
X123215556Y-52774310D01*
X123215552Y-52774307D01*
X123215551Y-52774306D01*
X123112655Y-52702258D01*
X123036189Y-52648716D01*
X122837738Y-52556177D01*
X122626232Y-52499504D01*
X122626231Y-52499503D01*
X122626224Y-52499502D01*
X122408102Y-52480420D01*
X122408096Y-52480420D01*
X122189973Y-52499502D01*
X121978460Y-52556177D01*
X121780010Y-52648715D01*
X121600646Y-52774306D01*
X121445805Y-52929147D01*
X121320214Y-53108511D01*
X121227824Y-53306644D01*
X121186095Y-53351392D01*
X121126034Y-53363067D01*
X121070581Y-53337209D01*
X121048374Y-53306644D01*
X121009776Y-53223869D01*
X121000501Y-53182030D01*
X121000501Y-53119579D01*
X121000500Y-53119561D01*
X121000500Y-52772585D01*
X121019407Y-52714394D01*
X121029490Y-52702587D01*
X121029816Y-52702262D01*
X121125789Y-52549522D01*
X121185368Y-52379255D01*
X121205565Y-52200000D01*
X121185368Y-52020745D01*
X121125789Y-51850478D01*
X121029816Y-51697738D01*
X120902262Y-51570184D01*
X120902259Y-51570182D01*
X120902258Y-51570181D01*
X120749523Y-51474211D01*
X120579261Y-51414633D01*
X120579257Y-51414632D01*
X120400000Y-51394435D01*
X120220742Y-51414632D01*
X120220738Y-51414633D01*
X120050477Y-51474211D01*
X120050476Y-51474211D01*
X119897741Y-51570181D01*
X119770181Y-51697741D01*
X119674211Y-51850476D01*
X119674211Y-51850477D01*
X119614633Y-52020738D01*
X119614632Y-52020742D01*
X119594435Y-52200000D01*
X119614632Y-52379257D01*
X119620891Y-52397143D01*
X119622263Y-52458313D01*
X119587418Y-52508607D01*
X119553070Y-52525466D01*
X119438464Y-52556175D01*
X119240010Y-52648715D01*
X119060646Y-52774306D01*
X118905805Y-52929147D01*
X118780214Y-53108511D01*
X118687676Y-53306961D01*
X118631001Y-53518474D01*
X118611919Y-53736596D01*
X118611919Y-53736603D01*
X118631001Y-53954725D01*
X118631002Y-53954732D01*
X118631003Y-53954733D01*
X118687676Y-54166239D01*
X118780215Y-54364690D01*
X118796611Y-54388106D01*
X118858550Y-54476565D01*
X118905809Y-54544057D01*
X119060642Y-54698890D01*
X119060645Y-54698892D01*
X119060646Y-54698893D01*
X119097211Y-54724496D01*
X119240009Y-54824484D01*
X119438460Y-54917023D01*
X119649966Y-54973696D01*
X119649970Y-54973696D01*
X119649973Y-54973697D01*
X119868096Y-54992780D01*
X119868099Y-54992780D01*
X119868102Y-54992780D01*
X120086224Y-54973697D01*
X120086225Y-54973696D01*
X120086232Y-54973696D01*
X120297738Y-54917023D01*
X120496189Y-54824484D01*
X120675556Y-54698890D01*
X120830389Y-54544057D01*
X120955983Y-54364690D01*
X121048375Y-54166553D01*
X121090103Y-54121807D01*
X121150164Y-54110132D01*
X121205617Y-54135990D01*
X121227822Y-54166552D01*
X121320215Y-54364690D01*
X121336611Y-54388106D01*
X121398550Y-54476565D01*
X121445809Y-54544057D01*
X121600642Y-54698890D01*
X121600645Y-54698892D01*
X121600646Y-54698893D01*
X121637211Y-54724496D01*
X121780009Y-54824484D01*
X121978460Y-54917023D01*
X122189966Y-54973696D01*
X122189970Y-54973696D01*
X122189973Y-54973697D01*
X122408096Y-54992780D01*
X122408099Y-54992780D01*
X122408102Y-54992780D01*
X122626224Y-54973697D01*
X122626225Y-54973696D01*
X122626232Y-54973696D01*
X122837738Y-54917023D01*
X123036189Y-54824484D01*
X123215556Y-54698890D01*
X123370389Y-54544057D01*
X123485742Y-54379314D01*
X123534605Y-54342494D01*
X123566837Y-54337100D01*
X124363264Y-54337100D01*
X124363280Y-54337101D01*
X124369343Y-54337101D01*
X124527455Y-54337101D01*
X124527457Y-54337101D01*
X124680185Y-54296177D01*
X124741300Y-54260892D01*
X124741302Y-54260890D01*
X124741304Y-54260890D01*
X124763825Y-54247887D01*
X124817116Y-54217120D01*
X124928920Y-54105316D01*
X124928921Y-54105313D01*
X127739739Y-51294495D01*
X127794256Y-51266718D01*
X127809743Y-51265499D01*
X127950255Y-51265499D01*
X128008446Y-51284406D01*
X128020258Y-51294495D01*
X128065109Y-51339345D01*
X128066284Y-51340520D01*
X128203216Y-51419577D01*
X128315019Y-51449534D01*
X128355942Y-51460500D01*
X128355943Y-51460500D01*
X152480257Y-51460500D01*
X152538448Y-51479407D01*
X152550261Y-51489496D01*
X155374478Y-54313713D01*
X155374480Y-54313716D01*
X155486284Y-54425520D01*
X155486286Y-54425521D01*
X155486289Y-54425524D01*
X155486288Y-54425524D01*
X155573091Y-54475637D01*
X155573093Y-54475639D01*
X155573094Y-54475639D01*
X155598995Y-54490593D01*
X155623215Y-54504577D01*
X155775943Y-54545501D01*
X155775944Y-54545501D01*
X155940120Y-54545501D01*
X155940136Y-54545500D01*
X156077757Y-54545500D01*
X156135948Y-54564407D01*
X156147761Y-54574496D01*
X156395504Y-54822239D01*
X156423281Y-54876756D01*
X156424500Y-54892243D01*
X156424500Y-55241929D01*
X156424889Y-55246870D01*
X156427346Y-55278098D01*
X156472319Y-55432894D01*
X156554374Y-55571643D01*
X156668357Y-55685626D01*
X156807106Y-55767681D01*
X156961902Y-55812654D01*
X156998065Y-55815500D01*
X157601934Y-55815499D01*
X157638098Y-55812654D01*
X157792894Y-55767681D01*
X157931643Y-55685626D01*
X157964012Y-55653256D01*
X158018526Y-55625478D01*
X158078959Y-55635048D01*
X158104019Y-55653255D01*
X158495503Y-56044738D01*
X158523281Y-56099255D01*
X158524500Y-56114742D01*
X158524500Y-56745257D01*
X158505593Y-56803448D01*
X158495504Y-56815260D01*
X158150262Y-57160503D01*
X158095745Y-57188281D01*
X158080258Y-57189500D01*
X154991588Y-57189500D01*
X154933397Y-57170593D01*
X154897433Y-57121093D01*
X154897433Y-57059907D01*
X154912701Y-57030684D01*
X154949361Y-56982342D01*
X155004877Y-56841564D01*
X155015500Y-56753102D01*
X155015500Y-55016898D01*
X155004877Y-54928436D01*
X154953237Y-54797487D01*
X154949362Y-54787660D01*
X154949361Y-54787659D01*
X154949361Y-54787658D01*
X154857922Y-54667078D01*
X154737342Y-54575639D01*
X154737341Y-54575638D01*
X154737339Y-54575637D01*
X154596565Y-54520123D01*
X154508106Y-54509500D01*
X154508102Y-54509500D01*
X154175296Y-54509500D01*
X154117105Y-54490593D01*
X154105293Y-54480504D01*
X153734288Y-54109500D01*
X153734283Y-54109496D01*
X153620163Y-54043609D01*
X153620165Y-54043609D01*
X153570773Y-54030375D01*
X153492866Y-54009500D01*
X153492864Y-54009500D01*
X153112402Y-54009500D01*
X153054211Y-53990593D01*
X153042398Y-53980504D01*
X152790502Y-53728608D01*
X152501394Y-53439500D01*
X152501391Y-53439498D01*
X152501390Y-53439497D01*
X152501389Y-53439496D01*
X152387269Y-53373609D01*
X152387271Y-53373609D01*
X152337879Y-53360375D01*
X152259972Y-53339500D01*
X145695893Y-53339500D01*
X145564108Y-53339500D01*
X145486200Y-53360375D01*
X145436809Y-53373609D01*
X145322690Y-53439496D01*
X138991682Y-59770504D01*
X138937165Y-59798281D01*
X138921678Y-59799500D01*
X133696585Y-59799500D01*
X133638394Y-59780593D01*
X133602430Y-59731093D01*
X133602430Y-59669907D01*
X133626579Y-59630498D01*
X133634816Y-59622262D01*
X133730789Y-59469522D01*
X133790368Y-59299255D01*
X133793428Y-59272087D01*
X133818732Y-59216382D01*
X133871947Y-59186186D01*
X133932748Y-59193036D01*
X133952483Y-59204948D01*
X133953354Y-59205623D01*
X133953357Y-59205626D01*
X134092106Y-59287681D01*
X134246902Y-59332654D01*
X134283065Y-59335500D01*
X135011934Y-59335499D01*
X135048098Y-59332654D01*
X135202894Y-59287681D01*
X135341643Y-59205626D01*
X135455626Y-59091643D01*
X135537681Y-58952894D01*
X135582654Y-58798098D01*
X135585500Y-58761935D01*
X135585499Y-58158066D01*
X135582654Y-58121902D01*
X135537681Y-57967106D01*
X135455626Y-57828357D01*
X135341643Y-57714374D01*
X135202894Y-57632319D01*
X135048098Y-57587346D01*
X135048094Y-57587345D01*
X135025122Y-57585537D01*
X135011935Y-57584500D01*
X135011930Y-57584500D01*
X134591533Y-57584500D01*
X134533342Y-57565593D01*
X134521529Y-57555504D01*
X134293029Y-57327004D01*
X134265252Y-57272487D01*
X134274823Y-57212055D01*
X134284150Y-57197180D01*
X134289974Y-57189500D01*
X134314361Y-57157342D01*
X134320049Y-57142920D01*
X134367598Y-57022342D01*
X134369877Y-57016564D01*
X134380500Y-56928102D01*
X134380500Y-56541898D01*
X134369877Y-56453436D01*
X134314361Y-56312658D01*
X134222922Y-56192078D01*
X134205521Y-56178882D01*
X134170580Y-56128659D01*
X134171832Y-56067487D01*
X134205521Y-56021117D01*
X134222922Y-56007922D01*
X134314361Y-55887342D01*
X134369877Y-55746564D01*
X134380500Y-55658102D01*
X134380500Y-55271898D01*
X134369877Y-55183436D01*
X134314361Y-55042658D01*
X134222922Y-54922078D01*
X134205521Y-54908882D01*
X134170580Y-54858659D01*
X134171832Y-54797487D01*
X134205521Y-54751117D01*
X134222922Y-54737922D01*
X134314361Y-54617342D01*
X134369877Y-54476564D01*
X134380500Y-54388102D01*
X134380500Y-54001898D01*
X134369877Y-53913436D01*
X134342119Y-53843047D01*
X134314362Y-53772660D01*
X134314361Y-53772659D01*
X134314361Y-53772658D01*
X134222922Y-53652078D01*
X134205521Y-53638882D01*
X134170580Y-53588659D01*
X134171832Y-53527487D01*
X134205521Y-53481117D01*
X134222922Y-53467922D01*
X134314361Y-53347342D01*
X134369877Y-53206564D01*
X134380500Y-53118102D01*
X134380500Y-52731898D01*
X134369877Y-52643436D01*
X134332842Y-52549522D01*
X134314362Y-52502660D01*
X134314361Y-52502659D01*
X134314361Y-52502658D01*
X134222922Y-52382078D01*
X134102342Y-52290639D01*
X134102341Y-52290638D01*
X134102339Y-52290637D01*
X133961565Y-52235123D01*
X133873106Y-52224500D01*
X133873102Y-52224500D01*
X132136898Y-52224500D01*
X132136893Y-52224500D01*
X132048434Y-52235123D01*
X131907660Y-52290637D01*
X131907656Y-52290640D01*
X131787081Y-52382075D01*
X131787072Y-52382084D01*
X131784618Y-52385321D01*
X131734391Y-52420262D01*
X131705736Y-52424500D01*
X128365592Y-52424500D01*
X128233807Y-52424500D01*
X128155899Y-52445375D01*
X128106508Y-52458609D01*
X127992389Y-52524496D01*
X127992388Y-52524497D01*
X122912042Y-57604841D01*
X122857525Y-57632618D01*
X122816417Y-57630464D01*
X122626232Y-57579504D01*
X122626231Y-57579503D01*
X122626224Y-57579502D01*
X122408102Y-57560420D01*
X122408096Y-57560420D01*
X122189973Y-57579502D01*
X121978460Y-57636177D01*
X121780010Y-57728715D01*
X121600646Y-57854306D01*
X121445805Y-58009147D01*
X121320214Y-58188511D01*
X121277786Y-58279500D01*
X121241814Y-58356643D01*
X121227824Y-58386644D01*
X121186095Y-58431392D01*
X121126034Y-58443067D01*
X121070581Y-58417209D01*
X121048374Y-58386644D01*
X121034857Y-58357656D01*
X120955983Y-58188510D01*
X120842843Y-58026929D01*
X120830392Y-58009147D01*
X120830391Y-58009146D01*
X120830389Y-58009143D01*
X120675556Y-57854310D01*
X120675552Y-57854307D01*
X120675551Y-57854306D01*
X120576041Y-57784629D01*
X120496189Y-57728716D01*
X120297738Y-57636177D01*
X120086232Y-57579504D01*
X120086231Y-57579503D01*
X120086224Y-57579502D01*
X119868102Y-57560420D01*
X119868096Y-57560420D01*
X119649973Y-57579502D01*
X119438460Y-57636177D01*
X119240010Y-57728715D01*
X119060646Y-57854306D01*
X118905805Y-58009147D01*
X118780214Y-58188511D01*
X118747374Y-58258939D01*
X118705646Y-58303687D01*
X118657649Y-58316100D01*
X118283528Y-58316100D01*
X118225337Y-58297193D01*
X118213524Y-58287104D01*
X118079496Y-58153076D01*
X118051719Y-58098559D01*
X118050500Y-58083072D01*
X118050500Y-52351876D01*
X118069407Y-52293685D01*
X118079496Y-52281872D01*
X121361872Y-48999496D01*
X121416389Y-48971719D01*
X121431876Y-48970500D01*
X134106678Y-48970500D01*
X134164869Y-48989407D01*
X134176675Y-48999490D01*
X134197685Y-49020500D01*
X134197687Y-49020501D01*
X134197689Y-49020503D01*
X134311809Y-49086390D01*
X134311807Y-49086390D01*
X134311811Y-49086391D01*
X134311813Y-49086392D01*
X134439107Y-49120500D01*
X134439109Y-49120500D01*
X134445375Y-49122179D01*
X134444690Y-49124734D01*
X134485007Y-49143944D01*
X134485353Y-49143469D01*
X134487912Y-49145328D01*
X134489775Y-49146216D01*
X134491621Y-49148013D01*
X134491658Y-49148050D01*
X134604696Y-49205646D01*
X134698481Y-49220500D01*
X135661518Y-49220499D01*
X135661521Y-49220499D01*
X135661522Y-49220498D01*
X135708411Y-49213072D01*
X135755299Y-49205647D01*
X135755299Y-49205646D01*
X135755304Y-49205646D01*
X135868342Y-49148050D01*
X135958050Y-49058342D01*
X135958051Y-49058339D01*
X135959996Y-49056395D01*
X136014513Y-49028618D01*
X136074945Y-49038189D01*
X136100004Y-49056395D01*
X136101948Y-49058339D01*
X136101950Y-49058342D01*
X136191658Y-49148050D01*
X136304696Y-49205646D01*
X136398481Y-49220500D01*
X137361518Y-49220499D01*
X137361521Y-49220499D01*
X137361522Y-49220498D01*
X137408411Y-49213072D01*
X137455299Y-49205647D01*
X137455299Y-49205646D01*
X137455304Y-49205646D01*
X137568342Y-49148050D01*
X137568348Y-49148043D01*
X137574647Y-49143469D01*
X137575374Y-49144469D01*
X137615164Y-49124191D01*
X137614625Y-49122179D01*
X137620891Y-49120500D01*
X137620893Y-49120500D01*
X137748187Y-49086392D01*
X137748189Y-49086390D01*
X137748191Y-49086390D01*
X137862310Y-49020503D01*
X137862310Y-49020502D01*
X137862315Y-49020500D01*
X137883320Y-48999494D01*
X137937835Y-48971719D01*
X137953322Y-48970500D01*
X148649444Y-48970500D01*
X148649446Y-48970500D01*
X148776740Y-48936392D01*
X148776742Y-48936390D01*
X148776744Y-48936390D01*
X148890863Y-48870503D01*
X148890863Y-48870502D01*
X148890868Y-48870500D01*
X152681872Y-45079496D01*
X152736389Y-45051719D01*
X152751876Y-45050500D01*
X160441678Y-45050500D01*
X160499869Y-45069407D01*
X160511682Y-45079496D01*
X161440142Y-46007956D01*
X161467919Y-46062473D01*
X161458348Y-46122905D01*
X161446667Y-46140764D01*
X161362316Y-46243547D01*
X161264768Y-46426045D01*
X161204699Y-46624065D01*
X161204698Y-46624070D01*
X161184417Y-46829996D01*
X161184417Y-46830003D01*
X161204698Y-47035929D01*
X161204699Y-47035934D01*
X161264768Y-47233954D01*
X161362316Y-47416452D01*
X161487916Y-47569496D01*
X161493590Y-47576410D01*
X161522838Y-47600413D01*
X161653547Y-47707683D01*
X161653548Y-47707683D01*
X161653550Y-47707685D01*
X161836046Y-47805232D01*
X161973997Y-47847078D01*
X162034065Y-47865300D01*
X162034070Y-47865301D01*
X162239997Y-47885583D01*
X162240000Y-47885583D01*
X162240003Y-47885583D01*
X162445929Y-47865301D01*
X162445934Y-47865300D01*
X162643954Y-47805232D01*
X162826450Y-47707685D01*
X162986410Y-47576410D01*
X163117685Y-47416450D01*
X163152690Y-47350959D01*
X163196796Y-47308554D01*
X163257404Y-47300171D01*
X163311365Y-47329014D01*
X163327308Y-47350957D01*
X163343718Y-47381658D01*
X163362316Y-47416452D01*
X163487916Y-47569496D01*
X163493590Y-47576410D01*
X163522838Y-47600413D01*
X163653547Y-47707683D01*
X163653548Y-47707683D01*
X163653550Y-47707685D01*
X163836046Y-47805232D01*
X163973997Y-47847078D01*
X164034065Y-47865300D01*
X164034070Y-47865301D01*
X164239997Y-47885583D01*
X164240000Y-47885583D01*
X164240003Y-47885583D01*
X164445929Y-47865301D01*
X164445934Y-47865300D01*
X164643954Y-47805232D01*
X164826450Y-47707685D01*
X164986410Y-47576410D01*
X165117685Y-47416450D01*
X165215232Y-47233954D01*
X165275300Y-47035934D01*
X165275301Y-47035929D01*
X165295583Y-46830003D01*
X165295583Y-46829996D01*
X165275301Y-46624070D01*
X165275300Y-46624065D01*
X165240000Y-46507696D01*
X165215232Y-46426046D01*
X165117685Y-46243550D01*
X165117683Y-46243548D01*
X165117683Y-46243547D01*
X164986414Y-46083595D01*
X164986410Y-46083590D01*
X164826450Y-45952315D01*
X164826448Y-45952314D01*
X164826447Y-45952313D01*
X164792830Y-45934344D01*
X164750424Y-45890238D01*
X164740500Y-45847035D01*
X164740500Y-45544109D01*
X164740500Y-45544108D01*
X164706392Y-45416814D01*
X164706390Y-45416811D01*
X164706390Y-45416809D01*
X164640503Y-45302690D01*
X164640499Y-45302685D01*
X164547314Y-45209499D01*
X164547314Y-45209500D01*
X163297318Y-43959504D01*
X163269541Y-43904987D01*
X163279112Y-43844555D01*
X163322377Y-43801290D01*
X163367322Y-43790500D01*
X164520257Y-43790500D01*
X164578448Y-43809407D01*
X164590261Y-43819496D01*
X166110504Y-45339739D01*
X166138281Y-45394256D01*
X166139500Y-45409743D01*
X166139500Y-45682114D01*
X166120593Y-45740305D01*
X166071093Y-45776269D01*
X166055986Y-45779895D01*
X165964700Y-45794352D01*
X165964695Y-45794354D01*
X165851659Y-45851949D01*
X165761949Y-45941659D01*
X165704354Y-46054695D01*
X165689500Y-46148478D01*
X165689500Y-47511521D01*
X165689501Y-47511523D01*
X165704352Y-47605299D01*
X165704354Y-47605304D01*
X165761950Y-47718342D01*
X165851658Y-47808050D01*
X165964696Y-47865646D01*
X166058481Y-47880500D01*
X167421518Y-47880499D01*
X167421521Y-47880499D01*
X167421522Y-47880498D01*
X167468411Y-47873072D01*
X167515299Y-47865647D01*
X167515299Y-47865646D01*
X167515304Y-47865646D01*
X167628342Y-47808050D01*
X167718050Y-47718342D01*
X167775646Y-47605304D01*
X167790500Y-47511519D01*
X167790499Y-46148482D01*
X167790499Y-46148481D01*
X167790499Y-46148478D01*
X167790498Y-46148476D01*
X167775647Y-46054700D01*
X167775646Y-46054698D01*
X167775646Y-46054696D01*
X167718050Y-45941658D01*
X167628342Y-45851950D01*
X167515304Y-45794354D01*
X167515305Y-45794354D01*
X167424012Y-45779894D01*
X167369496Y-45752116D01*
X167341719Y-45697599D01*
X167340500Y-45682113D01*
X167340500Y-45040944D01*
X167299577Y-44888216D01*
X167299576Y-44888213D01*
X167270639Y-44838094D01*
X167270639Y-44838093D01*
X167270637Y-44838091D01*
X167220524Y-44751289D01*
X167220521Y-44751286D01*
X167220520Y-44751284D01*
X167108716Y-44639480D01*
X167108713Y-44639478D01*
X165290521Y-42821286D01*
X165290520Y-42821284D01*
X165178716Y-42709480D01*
X165091904Y-42659360D01*
X165091903Y-42659359D01*
X165041788Y-42630425D01*
X165041785Y-42630423D01*
X164889057Y-42589499D01*
X164730943Y-42589499D01*
X164724880Y-42589499D01*
X164724864Y-42589500D01*
X150695136Y-42589500D01*
X150695120Y-42589499D01*
X150689057Y-42589499D01*
X150530943Y-42589499D01*
X150378215Y-42630423D01*
X150378213Y-42630423D01*
X150378209Y-42630425D01*
X150328095Y-42659359D01*
X150241284Y-42709479D01*
X150129479Y-42821283D01*
X150129480Y-42821284D01*
X150129478Y-42821286D01*
X147010261Y-45940504D01*
X146955744Y-45968281D01*
X146940257Y-45969500D01*
X121472585Y-45969500D01*
X121414394Y-45950593D01*
X121402587Y-45940509D01*
X121402262Y-45940184D01*
X121402259Y-45940182D01*
X121402258Y-45940181D01*
X121249523Y-45844211D01*
X121079261Y-45784633D01*
X121079257Y-45784632D01*
X120900000Y-45764435D01*
X120720742Y-45784632D01*
X120720738Y-45784633D01*
X120550477Y-45844211D01*
X120550476Y-45844211D01*
X120397741Y-45940181D01*
X120270181Y-46067741D01*
X120174211Y-46220476D01*
X120174211Y-46220477D01*
X120114633Y-46390738D01*
X120114632Y-46390742D01*
X120094435Y-46570000D01*
X120114632Y-46749257D01*
X120114633Y-46749261D01*
X120174211Y-46919522D01*
X120174211Y-46919523D01*
X120270181Y-47072258D01*
X120270184Y-47072262D01*
X120397738Y-47199816D01*
X120397740Y-47199817D01*
X120397741Y-47199818D01*
X120541912Y-47290407D01*
X120550478Y-47295789D01*
X120590425Y-47309767D01*
X120715839Y-47353652D01*
X120764519Y-47390717D01*
X120782116Y-47449318D01*
X120761908Y-47507069D01*
X120732641Y-47532832D01*
X120669136Y-47569496D01*
X120669131Y-47569500D01*
X120575945Y-47662685D01*
X120575946Y-47662686D01*
X120575944Y-47662688D01*
X116742686Y-51495945D01*
X116742686Y-51495946D01*
X116742685Y-51495945D01*
X116649500Y-51589131D01*
X116649496Y-51589136D01*
X116583609Y-51703255D01*
X116583608Y-51703260D01*
X116549500Y-51830554D01*
X115620500Y-51830554D01*
X115620500Y-41999500D01*
X115639407Y-41941309D01*
X115688907Y-41905345D01*
X115719500Y-41900500D01*
X174462230Y-41900500D01*
X174520421Y-41919407D01*
G37*
%TD.AperFunction*%
%TD*%
M02*
